%FSLAX43Y43*%
%MOMM*%
G71*
G01*
G75*
%ADD10C,0.300*%
%ADD11R,1.600X1.800*%
%ADD12R,1.800X1.600*%
%ADD13R,1.300X0.850*%
%ADD14R,1.450X0.550*%
%ADD15R,1.450X0.550*%
%ADD16R,0.850X1.300*%
%ADD17R,2.150X0.600*%
%ADD18R,2.150X0.600*%
%ADD19R,2.500X0.500*%
%ADD20R,2.500X2.000*%
%ADD21O,1.800X0.350*%
%ADD22O,1.800X0.350*%
%ADD23R,1.500X1.300*%
%ADD24C,0.250*%
%ADD25R,0.300X1.600*%
%ADD26R,1.700X0.600*%
%ADD27R,1.700X0.600*%
%ADD28R,0.600X2.150*%
%ADD29R,0.600X1.700*%
%ADD30R,0.600X2.150*%
%ADD31R,1.550X0.600*%
%ADD32R,1.550X0.600*%
%ADD33C,0.063*%
%ADD34R,2.200X0.600*%
%ADD35R,2.200X0.600*%
%ADD36R,2.200X0.550*%
%ADD37R,2.200X0.550*%
%ADD38R,1.300X1.500*%
%ADD39R,2.700X2.500*%
%ADD40R,1.650X0.300*%
%ADD41C,0.500*%
%ADD42C,0.400*%
%ADD43C,0.600*%
%ADD44C,1.000*%
%ADD45C,0.800*%
%ADD46R,1.500X1.500*%
%ADD47C,1.500*%
%ADD48R,1.400X1.400*%
%ADD49C,1.400*%
%ADD50O,1.500X2.000*%
%ADD51R,1.500X2.000*%
%ADD52C,1.800*%
%ADD53R,1.800X1.800*%
%ADD54C,1.200*%
%ADD55C,3.500*%
%ADD56C,2.500*%
%ADD57C,5.000*%
%ADD58C,1.100*%
%ADD59C,1.300*%
%ADD60C,2.000*%
%ADD61C,1.500*%
%ADD62C,1.270*%
%ADD63R,0.950X0.900*%
%ADD64C,0.700*%
%ADD65R,1.803X2.003*%
%ADD66R,2.003X1.803*%
%ADD67R,1.503X1.053*%
%ADD68R,1.653X0.753*%
%ADD69R,1.653X0.753*%
%ADD70R,1.053X1.503*%
%ADD71R,2.353X0.803*%
%ADD72R,2.353X0.803*%
%ADD73R,2.703X0.703*%
%ADD74R,2.703X2.203*%
%ADD75O,2.003X0.553*%
%ADD76O,2.003X0.553*%
%ADD77R,1.703X1.503*%
%ADD78R,0.503X1.803*%
%ADD79R,1.903X0.803*%
%ADD80R,1.903X0.803*%
%ADD81R,0.803X2.353*%
%ADD82R,0.803X1.903*%
%ADD83R,0.803X2.353*%
%ADD84R,1.753X0.803*%
%ADD85R,1.753X0.803*%
%ADD86R,2.403X0.803*%
%ADD87R,2.403X0.803*%
%ADD88R,2.403X0.753*%
%ADD89R,2.403X0.753*%
%ADD90R,1.503X1.703*%
%ADD91R,2.903X2.703*%
%ADD92R,1.853X0.503*%
%ADD93R,1.703X1.703*%
%ADD94C,1.703*%
%ADD95R,1.603X1.603*%
%ADD96C,1.603*%
%ADD97O,1.703X2.203*%
%ADD98R,1.703X2.203*%
%ADD99C,2.003*%
%ADD100R,2.003X2.003*%
%ADD101C,1.403*%
%ADD102C,3.703*%
%ADD103C,2.703*%
%ADD104C,5.203*%
%ADD105C,1.303*%
%ADD106C,1.503*%
%ADD107C,2.203*%
%ADD108C,1.703*%
%ADD109C,1.473*%
%ADD110R,1.153X1.103*%
D24*
X11800Y121251D02*
G03*
X11800Y121251I0J0D01*
G01*
G03*
X11800Y121251I0J0D01*
G01*
G03*
X11800Y121251I0J0D01*
G01*
G03*
X11800Y121251I0J0D01*
G01*
G03*
X11800Y121251I0J0D01*
G01*
G03*
X11800Y121251I0J0D01*
G01*
G03*
X11800Y121251I0J0D01*
G01*
G03*
X11800Y121251I0J0D01*
G01*
X34103Y60892D02*
G03*
X34098Y62810I-53J959D01*
G01*
X40147Y62810D02*
G03*
X40152Y60892I53J-959D01*
G01*
X34103Y94092D02*
G03*
X34098Y96010I-53J959D01*
G01*
X40147Y96010D02*
G03*
X40152Y94092I53J-959D01*
G01*
X90883Y101204D02*
G03*
X88965Y101199I-959J-53D01*
G01*
X88965Y107248D02*
G03*
X90883Y107253I959J53D01*
G01*
X12674Y121300D02*
G03*
X12674Y121300I0J0D01*
G01*
G03*
X12674Y121300I0J0D01*
G01*
G03*
X12674Y121300I0J0D01*
G01*
G03*
X12674Y121300I0J0D01*
G01*
G03*
X12674Y121300I0J0D01*
G01*
G03*
X12674Y121300I0J0D01*
G01*
G03*
X12674Y121300I0J0D01*
G01*
G03*
X12674Y121300I0J0D01*
G01*
X88965Y10847D02*
G03*
X90883Y10852I959J53D01*
G01*
X90883Y4803D02*
G03*
X88965Y4798I-959J-53D01*
G01*
X89000Y107200D02*
Y112401D01*
X90824Y107200D02*
Y112450D01*
X78800Y60801D02*
X78850Y60851D01*
X40700Y62801D02*
Y94001D01*
X41960Y96051D02*
X41960Y96051D01*
X89000Y0D02*
Y4950D01*
Y10701D02*
Y101501D01*
X40300Y96051D02*
X40300Y96051D01*
X40300Y96051D02*
X78850D01*
X40300Y94051D02*
X40700D01*
X10350Y96051D02*
X34050D01*
X12350Y94051D02*
X34200D01*
X12300Y62801D02*
X34350D01*
X10300Y60801D02*
X34100D01*
X40200Y60801D02*
X78850D01*
X40000Y62801D02*
X40700D01*
X12300Y63151D02*
Y94051D01*
X12300Y62901D02*
Y64151D01*
X10300Y95401D02*
Y96051D01*
X78850Y60801D02*
Y96051D01*
X10300Y60801D02*
Y95551D01*
X0Y112450D02*
X89000D01*
X0Y0D02*
Y112450D01*
Y0D02*
X89000D01*
X2250Y20501D02*
X18050D01*
X18000D02*
X33750D01*
Y10501D02*
Y20501D01*
X2250Y10501D02*
Y20501D01*
Y10501D02*
X33750D01*
X10300Y60851D02*
X10350Y60801D01*
X179824Y0D02*
Y112450D01*
X90824Y10600D02*
Y101300D01*
X90824Y0D02*
Y5000D01*
Y112450D02*
X179824D01*
X90824Y0D02*
X179824D01*
M02*
