%FSLAX43Y43*%
%MOMM*%
G71*
G01*
G75*
%ADD10C,0.300*%
%ADD11R,1.600X1.800*%
%ADD12R,1.800X1.600*%
%ADD13R,1.300X0.850*%
%ADD14R,1.450X0.550*%
%ADD15R,1.450X0.550*%
%ADD16R,0.850X1.300*%
%ADD17R,2.150X0.600*%
%ADD18R,2.150X0.600*%
%ADD19R,2.500X0.500*%
%ADD20R,2.500X2.000*%
%ADD21O,1.800X0.350*%
%ADD22O,1.800X0.350*%
%ADD23R,1.500X1.300*%
%ADD24R,1.650X0.300*%
%ADD25C,0.250*%
%ADD26R,0.300X1.600*%
%ADD27R,2.700X2.500*%
%ADD28R,0.600X2.150*%
%ADD29R,1.550X0.600*%
%ADD30R,0.600X1.700*%
%ADD31R,1.300X1.500*%
%ADD32R,1.550X0.600*%
%ADD33R,2.200X0.550*%
%ADD34R,2.200X0.550*%
%ADD35R,2.200X0.600*%
%ADD36R,2.200X0.600*%
%ADD37C,0.063*%
%ADD38R,0.600X2.150*%
%ADD39R,1.700X0.600*%
%ADD40R,1.700X0.600*%
%ADD41C,0.500*%
%ADD42C,0.400*%
%ADD43C,0.600*%
%ADD44C,1.000*%
%ADD45C,0.800*%
%ADD46C,1.500*%
%ADD47R,1.500X1.500*%
%ADD48R,1.400X1.400*%
%ADD49C,1.400*%
%ADD50O,1.500X2.000*%
%ADD51R,1.500X2.000*%
%ADD52C,1.800*%
%ADD53R,1.800X1.800*%
%ADD54C,1.200*%
%ADD55C,2.500*%
%ADD56C,3.500*%
%ADD57C,5.000*%
%ADD58C,1.500*%
%ADD59C,2.000*%
%ADD60C,1.300*%
%ADD61C,1.100*%
%ADD62C,1.270*%
%ADD63R,0.950X0.900*%
%ADD64C,0.700*%
%ADD65R,1.803X2.003*%
%ADD66R,2.003X1.803*%
%ADD67R,1.503X1.053*%
%ADD68R,1.653X0.753*%
%ADD69R,1.653X0.753*%
%ADD70R,1.053X1.503*%
%ADD71R,2.353X0.803*%
%ADD72R,2.353X0.803*%
%ADD73R,2.703X0.703*%
%ADD74R,2.703X2.203*%
%ADD75O,2.003X0.553*%
%ADD76O,2.003X0.553*%
%ADD77R,1.703X1.503*%
%ADD78R,1.853X0.503*%
%ADD79R,0.503X1.803*%
%ADD80R,2.903X2.703*%
%ADD81R,0.803X2.353*%
%ADD82R,1.753X0.803*%
%ADD83R,0.803X1.903*%
%ADD84R,1.503X1.703*%
%ADD85R,1.753X0.803*%
%ADD86R,2.403X0.753*%
%ADD87R,2.403X0.753*%
%ADD88R,2.403X0.803*%
%ADD89R,2.403X0.803*%
%ADD90R,0.803X2.353*%
%ADD91R,1.903X0.803*%
%ADD92R,1.903X0.803*%
%ADD93C,1.703*%
%ADD94R,1.703X1.703*%
%ADD95R,1.603X1.603*%
%ADD96C,1.603*%
%ADD97O,1.703X2.203*%
%ADD98R,1.703X2.203*%
%ADD99C,2.003*%
%ADD100R,2.003X2.003*%
%ADD101C,1.403*%
%ADD102C,2.703*%
%ADD103C,3.703*%
%ADD104C,5.203*%
%ADD105C,1.703*%
%ADD106C,2.203*%
%ADD107C,1.503*%
%ADD108C,1.303*%
%ADD109C,1.473*%
%ADD110R,1.153X1.103*%
D37*
X115510Y55419D02*
X115199Y55108D01*
X114003Y56303D01*
X114315Y56615D01*
X115510Y55419D01*
X115437D02*
X115199Y55181D01*
X114077Y56303D01*
X114315Y56541D01*
X115437Y55419D01*
X115363D02*
X115199Y55255D01*
X114150Y56303D01*
X114315Y56468D01*
X115363Y55419D01*
X115289D02*
X115199Y55329D01*
X114224Y56303D01*
X114315Y56394D01*
X115289Y55419D01*
X115216D02*
X115199Y55402D01*
X114298Y56303D01*
X114315Y56320D01*
X115216Y55419D01*
X115179Y55457D02*
X114334Y56266D01*
X115157Y55066D02*
X114845Y54754D01*
X113650Y55950D01*
X113961Y56261D01*
X115157Y55066D01*
X115083D02*
X114845Y54828D01*
X113723Y55950D01*
X113961Y56188D01*
X115083Y55066D01*
X115009D02*
X114845Y54902D01*
X113797Y55950D01*
X113961Y56114D01*
X115009Y55066D01*
X114936D02*
X114845Y54975D01*
X113871Y55950D01*
X113961Y56040D01*
X114936Y55066D01*
X114862D02*
X114845Y55049D01*
X113944Y55950D01*
X113961Y55967D01*
X114862Y55066D01*
X114826Y55103D02*
X113981Y55912D01*
X114803Y54712D02*
X114492Y54401D01*
X113296Y55596D01*
X113608Y55908D01*
X114803Y54712D01*
X114730D02*
X114492Y54474D01*
X113370Y55596D01*
X113608Y55834D01*
X114730Y54712D01*
X114656D02*
X114492Y54548D01*
X113443Y55596D01*
X113608Y55760D01*
X114656Y54712D01*
X114582D02*
X114492Y54622D01*
X113517Y55596D01*
X113608Y55687D01*
X114582Y54712D01*
X114509D02*
X114492Y54695D01*
X113591Y55596D01*
X113608Y55613D01*
X114509Y54712D01*
X114472Y54750D02*
X113627Y55559D01*
X114450Y54359D02*
X114138Y54047D01*
X112942Y55243D01*
X113254Y55554D01*
X114450Y54359D01*
X114376D02*
X114138Y54121D01*
X113016Y55243D01*
X113254Y55481D01*
X114376Y54359D01*
X114302D02*
X114138Y54194D01*
X113090Y55243D01*
X113254Y55407D01*
X114302Y54359D01*
X114229D02*
X114138Y54268D01*
X113163Y55243D01*
X113254Y55333D01*
X114229Y54359D01*
X114155D02*
X114138Y54342D01*
X113237Y55243D01*
X113254Y55260D01*
X114155Y54359D01*
X114119Y54396D02*
X113273Y55205D01*
X114096Y54005D02*
X113784Y53694D01*
X112589Y54889D01*
X112901Y55201D01*
X114096Y54005D01*
X114022D02*
X113784Y53767D01*
X112663Y54889D01*
X112901Y55127D01*
X114022Y54005D01*
X113949D02*
X113784Y53841D01*
X112736Y54889D01*
X112901Y55053D01*
X113949Y54005D01*
X113875D02*
X113784Y53914D01*
X112810Y54889D01*
X112901Y54980D01*
X113875Y54005D01*
X113801D02*
X113784Y53988D01*
X112884Y54889D01*
X112901Y54906D01*
X113801Y54005D01*
X113765Y54042D02*
X112920Y54852D01*
X113743Y53652D02*
X113431Y53340D01*
X112235Y54536D01*
X112547Y54847D01*
X113743Y53652D01*
X113669D02*
X113431Y53414D01*
X112309Y54536D01*
X112547Y54773D01*
X113669Y53652D01*
X113595D02*
X113431Y53487D01*
X112383Y54536D01*
X112547Y54700D01*
X113595Y53652D01*
X113522D02*
X113431Y53561D01*
X112456Y54536D01*
X112547Y54626D01*
X113522Y53652D01*
X113448D02*
X113431Y53635D01*
X112530Y54536D01*
X112547Y54553D01*
X113448Y53652D01*
X113412Y53689D02*
X112566Y54498D01*
X113389Y53298D02*
X113077Y52986D01*
X111882Y54182D01*
X112193Y54494D01*
X113389Y53298D01*
X113315D02*
X113077Y53060D01*
X111956Y54182D01*
X112193Y54420D01*
X113315Y53298D01*
X113242D02*
X113077Y53134D01*
X112029Y54182D01*
X112193Y54346D01*
X113242Y53298D01*
X113168D02*
X113077Y53207D01*
X112103Y54182D01*
X112193Y54273D01*
X113168Y53298D01*
X113094D02*
X113077Y53281D01*
X112176Y54182D01*
X112193Y54199D01*
X113094Y53298D01*
X113058Y53335D02*
X112213Y54145D01*
X113035Y52944D02*
X112724Y52633D01*
X111528Y53828D01*
X111840Y54140D01*
X113035Y52944D01*
X112962D02*
X112724Y52707D01*
X111602Y53828D01*
X111840Y54066D01*
X112962Y52944D01*
X112888D02*
X112724Y52780D01*
X111676Y53828D01*
X111840Y53993D01*
X112888Y52944D01*
X112814D02*
X112724Y52854D01*
X111749Y53828D01*
X111840Y53919D01*
X112814Y52944D01*
X112741D02*
X112724Y52928D01*
X111823Y53828D01*
X111840Y53845D01*
X112741Y52944D01*
X112704Y52982D02*
X111859Y53791D01*
X112682Y52591D02*
X112370Y52279D01*
X111175Y53475D01*
X111486Y53786D01*
X112682Y52591D01*
X112608D02*
X112370Y52353D01*
X111248Y53475D01*
X111486Y53713D01*
X112608Y52591D01*
X112535D02*
X112370Y52427D01*
X111322Y53475D01*
X111486Y53639D01*
X112535Y52591D01*
X112461D02*
X112370Y52500D01*
X111396Y53475D01*
X111486Y53565D01*
X112461Y52591D01*
X112387D02*
X112370Y52574D01*
X111469Y53475D01*
X111486Y53492D01*
X112387Y52591D01*
X112351Y52628D02*
X111506Y53438D01*
X112328Y52237D02*
X112017Y51926D01*
X110821Y53121D01*
X111133Y53433D01*
X112328Y52237D01*
X112255D02*
X112017Y51999D01*
X110895Y53121D01*
X111133Y53359D01*
X112255Y52237D01*
X112181D02*
X112017Y52073D01*
X110969Y53121D01*
X111133Y53286D01*
X112181Y52237D01*
X112107D02*
X112017Y52147D01*
X111042Y53121D01*
X111133Y53212D01*
X112107Y52237D01*
X112034D02*
X112017Y52220D01*
X111116Y53121D01*
X111133Y53138D01*
X112034Y52237D01*
X111997Y52275D02*
X111152Y53084D01*
X111975Y51884D02*
X111663Y51572D01*
X110468Y52768D01*
X110779Y53079D01*
X111975Y51884D01*
X111901D02*
X111663Y51646D01*
X110541Y52768D01*
X110779Y53006D01*
X111901Y51884D01*
X111827D02*
X111663Y51720D01*
X110615Y52768D01*
X110779Y52932D01*
X111827Y51884D01*
X111754D02*
X111663Y51793D01*
X110689Y52768D01*
X110779Y52858D01*
X111754Y51884D01*
X111680D02*
X111663Y51867D01*
X110762Y52768D01*
X110779Y52785D01*
X111680Y51884D01*
X111644Y51921D02*
X110799Y52730D01*
X108057Y52279D02*
X107745Y52591D01*
X108941Y53786D01*
X109252Y53475D01*
X108057Y52279D01*
Y52353D02*
X107819Y52591D01*
X108941Y53713D01*
X109179Y53475D01*
X108057Y52353D01*
Y52427D02*
X107893Y52591D01*
X108941Y53639D01*
X109105Y53475D01*
X108057Y52427D01*
Y52500D02*
X107966Y52591D01*
X108941Y53565D01*
X109031Y53475D01*
X108057Y52500D01*
Y52574D02*
X108040Y52591D01*
X108941Y53492D01*
X108958Y53475D01*
X108057Y52574D01*
X108094Y52610D02*
X108903Y53455D01*
X106996Y53340D02*
X106685Y53652D01*
X107880Y54847D01*
X108192Y54536D01*
X106996Y53340D01*
Y53414D02*
X106758Y53652D01*
X107880Y54773D01*
X108118Y54536D01*
X106996Y53414D01*
Y53487D02*
X106832Y53652D01*
X107880Y54700D01*
X108044Y54536D01*
X106996Y53487D01*
Y53561D02*
X106906Y53652D01*
X107880Y54626D01*
X107971Y54536D01*
X106996Y53561D01*
Y53635D02*
X106979Y53652D01*
X107880Y54553D01*
X107897Y54536D01*
X106996Y53635D01*
X107034Y53671D02*
X107843Y54516D01*
X106643Y53694D02*
X106331Y54005D01*
X107527Y55201D01*
X107838Y54889D01*
X106643Y53694D01*
Y53767D02*
X106405Y54005D01*
X107527Y55127D01*
X107765Y54889D01*
X106643Y53767D01*
Y53841D02*
X106478Y54005D01*
X107527Y55053D01*
X107691Y54889D01*
X106643Y53841D01*
Y53914D02*
X106552Y54005D01*
X107527Y54980D01*
X107617Y54889D01*
X106643Y53914D01*
Y53988D02*
X106626Y54005D01*
X107527Y54906D01*
X107544Y54889D01*
X106643Y53988D01*
X106680Y54024D02*
X107489Y54870D01*
X106289Y54047D02*
X105978Y54359D01*
X107173Y55554D01*
X107485Y55243D01*
X106289Y54047D01*
Y54121D02*
X106051Y54359D01*
X107173Y55481D01*
X107411Y55243D01*
X106289Y54121D01*
Y54194D02*
X106125Y54359D01*
X107173Y55407D01*
X107337Y55243D01*
X106289Y54194D01*
Y54268D02*
X106198Y54359D01*
X107173Y55333D01*
X107264Y55243D01*
X106289Y54268D01*
Y54342D02*
X106272Y54359D01*
X107173Y55260D01*
X107190Y55243D01*
X106289Y54342D01*
X106326Y54378D02*
X107136Y55223D01*
X105936Y54401D02*
X105624Y54712D01*
X106819Y55908D01*
X107131Y55596D01*
X105936Y54401D01*
Y54474D02*
X105698Y54712D01*
X106819Y55834D01*
X107057Y55596D01*
X105936Y54474D01*
Y54548D02*
X105771Y54712D01*
X106819Y55760D01*
X106984Y55596D01*
X105936Y54548D01*
Y54622D02*
X105845Y54712D01*
X106819Y55687D01*
X106910Y55596D01*
X105936Y54622D01*
Y54695D02*
X105919Y54712D01*
X106819Y55613D01*
X106836Y55596D01*
X105936Y54695D01*
X105973Y54732D02*
X106782Y55577D01*
X105582Y54754D02*
X105270Y55066D01*
X106466Y56261D01*
X106778Y55950D01*
X105582Y54754D01*
Y54828D02*
X105344Y55066D01*
X106466Y56188D01*
X106704Y55950D01*
X105582Y54828D01*
Y54902D02*
X105418Y55066D01*
X106466Y56114D01*
X106630Y55950D01*
X105582Y54902D01*
Y54975D02*
X105491Y55066D01*
X106466Y56040D01*
X106557Y55950D01*
X105582Y54975D01*
Y55049D02*
X105565Y55066D01*
X106466Y55967D01*
X106483Y55950D01*
X105582Y55049D01*
X105619Y55085D02*
X106429Y55930D01*
X105228Y55108D02*
X104917Y55419D01*
X106112Y56615D01*
X106424Y56303D01*
X105228Y55108D01*
Y55181D02*
X104991Y55419D01*
X106112Y56541D01*
X106350Y56303D01*
X105228Y55181D01*
Y55255D02*
X105064Y55419D01*
X106112Y56468D01*
X106277Y56303D01*
X105228Y55255D01*
Y55329D02*
X105138Y55419D01*
X106112Y56394D01*
X106203Y56303D01*
X105228Y55329D01*
Y55402D02*
X105211Y55419D01*
X106112Y56320D01*
X106129Y56303D01*
X105228Y55402D01*
X105266Y55439D02*
X106075Y56284D01*
X104875Y55461D02*
X104563Y55773D01*
X105759Y56968D01*
X106070Y56657D01*
X104875Y55461D01*
Y55535D02*
X104637Y55773D01*
X105759Y56895D01*
X105997Y56657D01*
X104875Y55535D01*
Y55609D02*
X104711Y55773D01*
X105759Y56821D01*
X105923Y56657D01*
X104875Y55609D01*
Y55682D02*
X104784Y55773D01*
X105759Y56747D01*
X105849Y56657D01*
X104875Y55682D01*
Y55756D02*
X104858Y55773D01*
X105759Y56674D01*
X105776Y56657D01*
X104875Y55756D01*
X104912Y55792D02*
X105722Y56637D01*
X109959Y61677D02*
X109648Y61366D01*
X108452Y62561D01*
X108764Y62873D01*
X109959Y61677D01*
X109886D02*
X109648Y61439D01*
X108526Y62561D01*
X108764Y62799D01*
X109886Y61677D01*
X109812D02*
X109648Y61513D01*
X108600Y62561D01*
X108764Y62725D01*
X109812Y61677D01*
X109738D02*
X109648Y61587D01*
X108673Y62561D01*
X108764Y62652D01*
X109738Y61677D01*
X109665D02*
X109648Y61660D01*
X108747Y62561D01*
X108764Y62578D01*
X109665Y61677D01*
X109628Y61715D02*
X108783Y62524D01*
X109606Y61324D02*
X109294Y61012D01*
X108099Y62208D01*
X108410Y62519D01*
X109606Y61324D01*
X109532D02*
X109294Y61086D01*
X108172Y62208D01*
X108410Y62446D01*
X109532Y61324D01*
X109459D02*
X109294Y61159D01*
X108246Y62208D01*
X108410Y62372D01*
X109459Y61324D01*
X109385D02*
X109294Y61233D01*
X108320Y62208D01*
X108410Y62298D01*
X109385Y61324D01*
X109311D02*
X109294Y61307D01*
X108393Y62208D01*
X108410Y62225D01*
X109311Y61324D01*
X109275Y61361D02*
X108430Y62170D01*
X109252Y60970D02*
X108941Y60659D01*
X107745Y61854D01*
X108057Y62166D01*
X109252Y60970D01*
X109179D02*
X108941Y60732D01*
X107819Y61854D01*
X108057Y62092D01*
X109179Y60970D01*
X109105D02*
X108941Y60806D01*
X107893Y61854D01*
X108057Y62018D01*
X109105Y60970D01*
X109031D02*
X108941Y60879D01*
X107966Y61854D01*
X108057Y61945D01*
X109031Y60970D01*
X108958D02*
X108941Y60953D01*
X108040Y61854D01*
X108057Y61871D01*
X108958Y60970D01*
X108921Y61007D02*
X108076Y61817D01*
X108192Y59910D02*
X107880Y59598D01*
X106685Y60793D01*
X106996Y61105D01*
X108192Y59910D01*
X108118D02*
X107880Y59672D01*
X106758Y60793D01*
X106996Y61031D01*
X108118Y59910D01*
X108044D02*
X107880Y59745D01*
X106832Y60793D01*
X106996Y60958D01*
X108044Y59910D01*
X107971D02*
X107880Y59819D01*
X106906Y60793D01*
X106996Y60884D01*
X107971Y59910D01*
X107897D02*
X107880Y59893D01*
X106979Y60793D01*
X106996Y60810D01*
X107897Y59910D01*
X107861Y59947D02*
X107016Y60756D01*
X107838Y59556D02*
X107527Y59244D01*
X106331Y60440D01*
X106643Y60751D01*
X107838Y59556D01*
X107765D02*
X107527Y59318D01*
X106405Y60440D01*
X106643Y60678D01*
X107765Y59556D01*
X107691D02*
X107527Y59392D01*
X106478Y60440D01*
X106643Y60604D01*
X107691Y59556D01*
X107617D02*
X107527Y59465D01*
X106552Y60440D01*
X106643Y60530D01*
X107617Y59556D01*
X107544D02*
X107527Y59539D01*
X106626Y60440D01*
X106643Y60457D01*
X107544Y59556D01*
X107507Y59593D02*
X106662Y60403D01*
X107485Y59202D02*
X107173Y58891D01*
X105977Y60086D01*
X106289Y60398D01*
X107485Y59202D01*
X107411D02*
X107173Y58964D01*
X106051Y60086D01*
X106289Y60324D01*
X107411Y59202D01*
X107337D02*
X107173Y59038D01*
X106125Y60086D01*
X106289Y60251D01*
X107337Y59202D01*
X107264D02*
X107173Y59112D01*
X106198Y60086D01*
X106289Y60177D01*
X107264Y59202D01*
X107190D02*
X107173Y59185D01*
X106272Y60086D01*
X106289Y60103D01*
X107190Y59202D01*
X107154Y59240D02*
X106308Y60049D01*
X107131Y58849D02*
X106819Y58537D01*
X105624Y59733D01*
X105936Y60044D01*
X107131Y58849D01*
X107057D02*
X106819Y58611D01*
X105698Y59733D01*
X105936Y59971D01*
X107057Y58849D01*
X106984D02*
X106819Y58685D01*
X105771Y59733D01*
X105936Y59897D01*
X106984Y58849D01*
X106910D02*
X106819Y58758D01*
X105845Y59733D01*
X105936Y59823D01*
X106910Y58849D01*
X106836D02*
X106819Y58832D01*
X105919Y59733D01*
X105936Y59750D01*
X106836Y58849D01*
X106800Y58886D02*
X105955Y59695D01*
X106778Y58495D02*
X106466Y58184D01*
X105270Y59379D01*
X105582Y59691D01*
X106778Y58495D01*
X106704D02*
X106466Y58257D01*
X105344Y59379D01*
X105582Y59617D01*
X106704Y58495D01*
X106630D02*
X106466Y58331D01*
X105418Y59379D01*
X105582Y59543D01*
X106630Y58495D01*
X106557D02*
X106466Y58405D01*
X105491Y59379D01*
X105582Y59470D01*
X106557Y58495D01*
X106483D02*
X106466Y58478D01*
X105565Y59379D01*
X105582Y59396D01*
X106483Y58495D01*
X106447Y58533D02*
X105601Y59342D01*
X106424Y58142D02*
X106112Y57830D01*
X104917Y59026D01*
X105228Y59337D01*
X106424Y58142D01*
X106350D02*
X106112Y57904D01*
X104991Y59026D01*
X105228Y59264D01*
X106350Y58142D01*
X106277D02*
X106112Y57977D01*
X105064Y59026D01*
X105228Y59190D01*
X106277Y58142D01*
X106203D02*
X106112Y58051D01*
X105138Y59026D01*
X105228Y59116D01*
X106203Y58142D01*
X106129D02*
X106112Y58125D01*
X105211Y59026D01*
X105228Y59043D01*
X106129Y58142D01*
X106093Y58179D02*
X105248Y58988D01*
X106070Y57788D02*
X105759Y57477D01*
X104563Y58672D01*
X104875Y58984D01*
X106070Y57788D01*
X105997D02*
X105759Y57550D01*
X104637Y58672D01*
X104875Y58910D01*
X105997Y57788D01*
X105923D02*
X105759Y57624D01*
X104711Y58672D01*
X104875Y58836D01*
X105923Y57788D01*
X105849D02*
X105759Y57698D01*
X104784Y58672D01*
X104875Y58763D01*
X105849Y57788D01*
X105776D02*
X105759Y57771D01*
X104858Y58672D01*
X104875Y58689D01*
X105776Y57788D01*
X105739Y57826D02*
X104894Y58635D01*
X114315Y57830D02*
X114003Y58142D01*
X115199Y59337D01*
X115510Y59026D01*
X114315Y57830D01*
Y57904D02*
X114077Y58142D01*
X115199Y59264D01*
X115437Y59026D01*
X114315Y57904D01*
Y57977D02*
X114150Y58142D01*
X115199Y59190D01*
X115363Y59026D01*
X114315Y57977D01*
Y58051D02*
X114224Y58142D01*
X115199Y59116D01*
X115289Y59026D01*
X114315Y58051D01*
Y58125D02*
X114298Y58142D01*
X115199Y59043D01*
X115216Y59026D01*
X114315Y58125D01*
X114352Y58161D02*
X115161Y59006D01*
X113961Y58184D02*
X113650Y58495D01*
X114845Y59691D01*
X115157Y59379D01*
X113961Y58184D01*
Y58257D02*
X113723Y58495D01*
X114845Y59617D01*
X115083Y59379D01*
X113961Y58257D01*
Y58331D02*
X113797Y58495D01*
X114845Y59543D01*
X115009Y59379D01*
X113961Y58331D01*
Y58405D02*
X113871Y58495D01*
X114845Y59470D01*
X114936Y59379D01*
X113961Y58405D01*
Y58478D02*
X113944Y58495D01*
X114845Y59396D01*
X114862Y59379D01*
X113961Y58478D01*
X113999Y58515D02*
X114808Y59360D01*
X113608Y58537D02*
X113296Y58849D01*
X114492Y60044D01*
X114803Y59733D01*
X113608Y58537D01*
Y58611D02*
X113370Y58849D01*
X114492Y59971D01*
X114730Y59733D01*
X113608Y58611D01*
Y58685D02*
X113443Y58849D01*
X114492Y59897D01*
X114656Y59733D01*
X113608Y58685D01*
Y58758D02*
X113517Y58849D01*
X114492Y59823D01*
X114582Y59733D01*
X113608Y58758D01*
Y58832D02*
X113591Y58849D01*
X114492Y59750D01*
X114509Y59733D01*
X113608Y58832D01*
X113645Y58868D02*
X114454Y59713D01*
X113254Y58891D02*
X112943Y59202D01*
X114138Y60398D01*
X114450Y60086D01*
X113254Y58891D01*
Y58964D02*
X113016Y59202D01*
X114138Y60324D01*
X114376Y60086D01*
X113254Y58964D01*
Y59038D02*
X113090Y59202D01*
X114138Y60251D01*
X114302Y60086D01*
X113254Y59038D01*
Y59112D02*
X113164Y59202D01*
X114138Y60177D01*
X114229Y60086D01*
X113254Y59112D01*
Y59185D02*
X113237Y59202D01*
X114138Y60103D01*
X114155Y60086D01*
X113254Y59185D01*
X113292Y59222D02*
X114101Y60067D01*
X112901Y59244D02*
X112589Y59556D01*
X113785Y60751D01*
X114096Y60440D01*
X112901Y59244D01*
Y59318D02*
X112663Y59556D01*
X113785Y60678D01*
X114022Y60440D01*
X112901Y59318D01*
Y59392D02*
X112736Y59556D01*
X113785Y60604D01*
X113949Y60440D01*
X112901Y59392D01*
Y59465D02*
X112810Y59556D01*
X113785Y60530D01*
X113875Y60440D01*
X112901Y59465D01*
Y59539D02*
X112884Y59556D01*
X113785Y60457D01*
X113802Y60440D01*
X112901Y59539D01*
X112938Y59575D02*
X113747Y60420D01*
X112547Y59598D02*
X112235Y59910D01*
X113431Y61105D01*
X113743Y60793D01*
X112547Y59598D01*
Y59672D02*
X112309Y59910D01*
X113431Y61031D01*
X113669Y60793D01*
X112547Y59672D01*
Y59745D02*
X112383Y59910D01*
X113431Y60958D01*
X113595Y60793D01*
X112547Y59745D01*
Y59819D02*
X112456Y59910D01*
X113431Y60884D01*
X113522Y60793D01*
X112547Y59819D01*
Y59893D02*
X112530Y59910D01*
X113431Y60810D01*
X113448Y60793D01*
X112547Y59893D01*
X112584Y59929D02*
X113394Y60774D01*
X112194Y59951D02*
X111882Y60263D01*
X113077Y61459D01*
X113389Y61147D01*
X112194Y59951D01*
Y60025D02*
X111956Y60263D01*
X113077Y61385D01*
X113315Y61147D01*
X112194Y60025D01*
Y60099D02*
X112029Y60263D01*
X113077Y61311D01*
X113242Y61147D01*
X112194Y60099D01*
Y60172D02*
X112103Y60263D01*
X113077Y61238D01*
X113168Y61147D01*
X112194Y60172D01*
Y60246D02*
X112177Y60263D01*
X113077Y61164D01*
X113094Y61147D01*
X112194Y60246D01*
X112231Y60282D02*
X113040Y61128D01*
X111840Y60305D02*
X111528Y60617D01*
X112724Y61812D01*
X113035Y61501D01*
X111840Y60305D01*
Y60379D02*
X111602Y60617D01*
X112724Y61738D01*
X112962Y61501D01*
X111840Y60379D01*
Y60452D02*
X111676Y60617D01*
X112724Y61665D01*
X112888Y61501D01*
X111840Y60452D01*
Y60526D02*
X111749Y60617D01*
X112724Y61591D01*
X112814Y61501D01*
X111840Y60526D01*
Y60600D02*
X111823Y60617D01*
X112724Y61518D01*
X112741Y61501D01*
X111840Y60600D01*
X111877Y60636D02*
X112687Y61481D01*
X111486Y60659D02*
X111175Y60970D01*
X112370Y62166D01*
X112682Y61854D01*
X111486Y60659D01*
Y60732D02*
X111248Y60970D01*
X112370Y62092D01*
X112608Y61854D01*
X111486Y60732D01*
Y60806D02*
X111322Y60970D01*
X112370Y62018D01*
X112535Y61854D01*
X111486Y60806D01*
Y60879D02*
X111396Y60970D01*
X112370Y61945D01*
X112461Y61854D01*
X111486Y60879D01*
Y60953D02*
X111469Y60970D01*
X112370Y61871D01*
X112387Y61854D01*
X111486Y60953D01*
X111524Y60989D02*
X112333Y61835D01*
X111133Y61012D02*
X110821Y61324D01*
X112017Y62519D01*
X112328Y62208D01*
X111133Y61012D01*
Y61086D02*
X110895Y61324D01*
X112017Y62446D01*
X112255Y62208D01*
X111133Y61086D01*
Y61159D02*
X110969Y61324D01*
X112017Y62372D01*
X112181Y62208D01*
X111133Y61159D01*
Y61233D02*
X111042Y61324D01*
X112017Y62298D01*
X112107Y62208D01*
X111133Y61233D01*
Y61307D02*
X111116Y61324D01*
X112017Y62225D01*
X112034Y62208D01*
X111133Y61307D01*
X111170Y61343D02*
X111979Y62188D01*
X110779Y61366D02*
X110468Y61677D01*
X111663Y62873D01*
X111975Y62561D01*
X110779Y61366D01*
Y61439D02*
X110541Y61677D01*
X111663Y62799D01*
X111901Y62561D01*
X110779Y61439D01*
Y61513D02*
X110615Y61677D01*
X111663Y62725D01*
X111827Y62561D01*
X110779Y61513D01*
Y61587D02*
X110689Y61677D01*
X111663Y62652D01*
X111754Y62561D01*
X110779Y61587D01*
Y61660D02*
X110762Y61677D01*
X111663Y62578D01*
X111680Y62561D01*
X110779Y61660D01*
X110817Y61697D02*
X111626Y62542D01*
X108899Y60617D02*
X108587Y60305D01*
X107392Y61501D01*
X107703Y61812D01*
X108899Y60617D01*
X108825D02*
X108587Y60379D01*
X107465Y61501D01*
X107703Y61738D01*
X108825Y60617D01*
X108752D02*
X108587Y60452D01*
X107539Y61501D01*
X107703Y61665D01*
X108752Y60617D01*
X108678D02*
X108587Y60526D01*
X107613Y61501D01*
X107703Y61591D01*
X108678Y60617D01*
X108604D02*
X108587Y60600D01*
X107686Y61501D01*
X107703Y61518D01*
X108604Y60617D01*
X108568Y60654D02*
X107723Y61463D01*
X108545Y60263D02*
X108234Y59951D01*
X107038Y61147D01*
X107350Y61459D01*
X108545Y60263D01*
X108472D02*
X108234Y60025D01*
X107112Y61147D01*
X107350Y61385D01*
X108472Y60263D01*
X108398D02*
X108234Y60099D01*
X107186Y61147D01*
X107350Y61311D01*
X108398Y60263D01*
X108324D02*
X108234Y60172D01*
X107259Y61147D01*
X107350Y61238D01*
X108324Y60263D01*
X108251D02*
X108234Y60246D01*
X107333Y61147D01*
X107350Y61164D01*
X108251Y60263D01*
X108214Y60300D02*
X107369Y61110D01*
X114668Y57477D02*
X114357Y57788D01*
X115552Y58984D01*
X115864Y58672D01*
X114668Y57477D01*
Y57550D02*
X114430Y57788D01*
X115552Y58910D01*
X115790Y58672D01*
X114668Y57550D01*
Y57624D02*
X114504Y57788D01*
X115552Y58836D01*
X115717Y58672D01*
X114668Y57624D01*
Y57698D02*
X114578Y57788D01*
X115552Y58763D01*
X115643Y58672D01*
X114668Y57698D01*
Y57771D02*
X114651Y57788D01*
X115552Y58689D01*
X115569Y58672D01*
X114668Y57771D01*
X114706Y57808D02*
X115515Y58653D01*
X115864Y55773D02*
X115552Y55461D01*
X114357Y56657D01*
X114668Y56968D01*
X115864Y55773D01*
X115790D02*
X115552Y55535D01*
X114430Y56657D01*
X114668Y56895D01*
X115790Y55773D01*
X115717D02*
X115552Y55609D01*
X114504Y56657D01*
X114668Y56821D01*
X115717Y55773D01*
X115643D02*
X115552Y55682D01*
X114578Y56657D01*
X114668Y56747D01*
X115643Y55773D01*
X115569D02*
X115552Y55756D01*
X114651Y56657D01*
X114668Y56674D01*
X115569Y55773D01*
X115533Y55810D02*
X114688Y56620D01*
X108410Y51926D02*
X108099Y52237D01*
X109294Y53433D01*
X109606Y53121D01*
X108410Y51926D01*
Y51999D02*
X108172Y52237D01*
X109294Y53359D01*
X109532Y53121D01*
X108410Y51999D01*
Y52073D02*
X108246Y52237D01*
X109294Y53286D01*
X109459Y53121D01*
X108410Y52073D01*
Y52147D02*
X108320Y52237D01*
X109294Y53212D01*
X109385Y53121D01*
X108410Y52147D01*
Y52220D02*
X108393Y52237D01*
X109294Y53138D01*
X109311Y53121D01*
X108410Y52220D01*
X108448Y52257D02*
X109257Y53102D01*
X108764Y51572D02*
X108452Y51884D01*
X109648Y53079D01*
X109960Y52768D01*
X108764Y51572D01*
Y51646D02*
X108526Y51884D01*
X109648Y53006D01*
X109886Y52768D01*
X108764Y51646D01*
Y51720D02*
X108600Y51884D01*
X109648Y52932D01*
X109812Y52768D01*
X108764Y51720D01*
Y51793D02*
X108673Y51884D01*
X109648Y52858D01*
X109739Y52768D01*
X108764Y51793D01*
Y51867D02*
X108747Y51884D01*
X109648Y52785D01*
X109665Y52768D01*
X108764Y51867D01*
X108801Y51903D02*
X109611Y52748D01*
X107703Y52633D02*
X107392Y52945D01*
X108587Y54140D01*
X108899Y53828D01*
X107703Y52633D01*
Y52707D02*
X107465Y52945D01*
X108587Y54066D01*
X108825Y53828D01*
X107703Y52707D01*
Y52780D02*
X107539Y52945D01*
X108587Y53993D01*
X108752Y53828D01*
X107703Y52780D01*
Y52854D02*
X107613Y52945D01*
X108587Y53919D01*
X108678Y53828D01*
X107703Y52854D01*
Y52928D02*
X107686Y52945D01*
X108587Y53845D01*
X108604Y53828D01*
X107703Y52928D01*
X107741Y52964D02*
X108550Y53809D01*
X107350Y52986D02*
X107038Y53298D01*
X108234Y54494D01*
X108545Y54182D01*
X107350Y52986D01*
Y53060D02*
X107112Y53298D01*
X108234Y54420D01*
X108472Y54182D01*
X107350Y53060D01*
Y53134D02*
X107186Y53298D01*
X108234Y54346D01*
X108398Y54182D01*
X107350Y53134D01*
Y53207D02*
X107259Y53298D01*
X108234Y54273D01*
X108324Y54182D01*
X107350Y53207D01*
Y53281D02*
X107333Y53298D01*
X108234Y54199D01*
X108251Y54182D01*
X107350Y53281D01*
X107387Y53317D02*
X108196Y54163D01*
D65*
X111914Y40103D02*
D03*
X109114Y40103D02*
D03*
X111814Y45055D02*
D03*
X109014Y45055D02*
D03*
X154772Y14253D02*
D03*
X135570Y98118D02*
D03*
X159487Y65293D02*
D03*
X156687D02*
D03*
X158170Y46559D02*
D03*
X155370D02*
D03*
X103087Y85043D02*
D03*
X100287Y85043D02*
D03*
X151972Y17553D02*
D03*
X154772D02*
D03*
X151972Y20753D02*
D03*
X154772D02*
D03*
X151972Y23953D02*
D03*
X154772D02*
D03*
X162517Y51960D02*
D03*
X159717D02*
D03*
X148872Y33353D02*
D03*
X151672D02*
D03*
X148872Y36653D02*
D03*
X151672D02*
D03*
X148872Y39953D02*
D03*
X151672D02*
D03*
X147122Y95903D02*
D03*
X149922Y95903D02*
D03*
X154072Y89153D02*
D03*
X156872D02*
D03*
X148872Y43253D02*
D03*
X151672D02*
D03*
X148872Y46553D02*
D03*
X151672D02*
D03*
X151972Y27053D02*
D03*
X136387Y80843D02*
D03*
X139187Y80843D02*
D03*
X136387Y85843D02*
D03*
X139187D02*
D03*
X146472Y103053D02*
D03*
X149272D02*
D03*
X140557Y13306D02*
D03*
X143357D02*
D03*
X152172Y82453D02*
D03*
X149372Y82453D02*
D03*
X147172Y93353D02*
D03*
X149972D02*
D03*
X167674Y94950D02*
D03*
X170474D02*
D03*
X155370Y33359D02*
D03*
X158170D02*
D03*
X155370Y36659D02*
D03*
X158170D02*
D03*
X158174Y39950D02*
D03*
X155374D02*
D03*
X158174Y43250D02*
D03*
X155374D02*
D03*
X156687Y67993D02*
D03*
X159487D02*
D03*
X156687Y73593D02*
D03*
X159487D02*
D03*
X156687Y70793D02*
D03*
X159487D02*
D03*
X159487Y78843D02*
D03*
X156687D02*
D03*
X159487Y76243D02*
D03*
X156687Y76243D02*
D03*
X96362Y92707D02*
D03*
X93562D02*
D03*
X132770Y98118D02*
D03*
X150962Y54620D02*
D03*
Y57221D02*
D03*
X150962Y62407D02*
D03*
X150962Y59822D02*
D03*
X154772Y27053D02*
D03*
X149972Y90853D02*
D03*
X147172Y90853D02*
D03*
X147127Y98797D02*
D03*
X149927Y98797D02*
D03*
X148162Y57221D02*
D03*
X148162Y62407D02*
D03*
X148162Y59822D02*
D03*
X151972Y14253D02*
D03*
X148162Y54620D02*
D03*
X162452Y62422D02*
D03*
X159652Y62422D02*
D03*
X162452Y59871D02*
D03*
X159652Y59872D02*
D03*
X162502Y57271D02*
D03*
X159702Y57271D02*
D03*
X162452Y54670D02*
D03*
X159652Y54670D02*
D03*
X168955Y20349D02*
D03*
X166155Y20348D02*
D03*
X166130Y16511D02*
D03*
X168930Y16511D02*
D03*
D66*
X168113Y83268D02*
D03*
Y80468D02*
D03*
X170724Y83283D02*
D03*
X170724Y80483D02*
D03*
X110557Y78131D02*
D03*
X110557Y75331D02*
D03*
X123081Y81662D02*
D03*
X123081Y78862D02*
D03*
X123118Y69388D02*
D03*
Y72188D02*
D03*
X161712Y40008D02*
D03*
Y42808D02*
D03*
X138662Y95206D02*
D03*
X138662Y92406D02*
D03*
X126021Y83847D02*
D03*
Y86647D02*
D03*
X126078Y74853D02*
D03*
Y72053D02*
D03*
X145778Y85153D02*
D03*
Y82353D02*
D03*
X152578Y103753D02*
D03*
Y100953D02*
D03*
X111952Y70867D02*
D03*
Y68067D02*
D03*
D93*
X29518Y36366D02*
D03*
X32058D02*
D03*
X29518Y33826D02*
D03*
X32058D02*
D03*
X29518Y31286D02*
D03*
X32058D02*
D03*
X29518Y28746D02*
D03*
X32058D02*
D03*
X29518Y26206D02*
D03*
X78809Y55101D02*
D03*
X72809Y55101D02*
D03*
Y50101D02*
D03*
X35590Y106300D02*
D03*
X22890Y106300D02*
D03*
X22890Y108840D02*
D03*
X25430Y106300D02*
D03*
Y108840D02*
D03*
X27970Y106300D02*
D03*
X27970Y108840D02*
D03*
X30510Y106300D02*
D03*
Y108840D02*
D03*
X33050Y106300D02*
D03*
Y108840D02*
D03*
X35590D02*
D03*
X38130Y106300D02*
D03*
Y108840D02*
D03*
X40670Y106300D02*
D03*
Y108840D02*
D03*
X43210Y106300D02*
D03*
Y108840D02*
D03*
X20350D02*
D03*
X5522Y39018D02*
D03*
X4002Y36508D02*
D03*
X5522Y28938D02*
D03*
X4002Y26398D02*
D03*
X17802Y37153D02*
D03*
Y34613D02*
D03*
X15252Y33343D02*
D03*
X17802Y32073D02*
D03*
X15252Y30803D02*
D03*
X17802Y29533D02*
D03*
X15252Y35883D02*
D03*
X84321Y54742D02*
D03*
Y52202D02*
D03*
X141481Y3960D02*
D03*
X146561Y3960D02*
D03*
X144021Y6500D02*
D03*
X144021Y3960D02*
D03*
X141481Y6500D02*
D03*
X138941D02*
D03*
X138941Y3960D02*
D03*
X136401Y6500D02*
D03*
Y3960D02*
D03*
X174814Y46630D02*
D03*
X107051Y39968D02*
D03*
X107051Y44968D02*
D03*
X120054Y6909D02*
D03*
X120054Y11909D02*
D03*
X174814Y49170D02*
D03*
X172274D02*
D03*
X172275Y51710D02*
D03*
X172274Y33930D02*
D03*
X172274Y64410D02*
D03*
X174814Y61870D02*
D03*
X172274Y61870D02*
D03*
X174814Y59330D02*
D03*
X172274D02*
D03*
X174814Y56790D02*
D03*
X172274D02*
D03*
X174814Y54250D02*
D03*
X172274Y54250D02*
D03*
X174814Y69490D02*
D03*
X172274Y69490D02*
D03*
X174814Y66950D02*
D03*
X172274D02*
D03*
X174814Y44090D02*
D03*
Y51710D02*
D03*
Y64410D02*
D03*
X172274Y39010D02*
D03*
X121334Y108840D02*
D03*
X116254D02*
D03*
X113714D02*
D03*
X113714Y106300D02*
D03*
X111174Y108840D02*
D03*
X126414Y106300D02*
D03*
X131494D02*
D03*
X118794Y108840D02*
D03*
X126075Y81942D02*
D03*
Y76942D02*
D03*
X134274Y80858D02*
D03*
Y85858D02*
D03*
X116254Y106300D02*
D03*
X118794D02*
D03*
X121334Y106300D02*
D03*
X123874Y106300D02*
D03*
X128954Y106300D02*
D03*
Y108840D02*
D03*
X131494D02*
D03*
X134034Y106300D02*
D03*
Y108840D02*
D03*
X123874Y108840D02*
D03*
X126414D02*
D03*
X133861Y6500D02*
D03*
X131321D02*
D03*
Y3960D02*
D03*
X133861D02*
D03*
X120441Y26307D02*
D03*
X122981Y28847D02*
D03*
X120441D02*
D03*
X122981Y31387D02*
D03*
X120441D02*
D03*
X122981Y33927D02*
D03*
X120441D02*
D03*
X122981Y36467D02*
D03*
X120441D02*
D03*
X89950Y105200D02*
D03*
Y103200D02*
D03*
X89950Y6750D02*
D03*
Y8750D02*
D03*
X38150Y95050D02*
D03*
X36150D02*
D03*
X38150Y61800D02*
D03*
X36150D02*
D03*
X89924Y8800D02*
D03*
Y6800D02*
D03*
X89874Y103250D02*
D03*
Y105250D02*
D03*
X89950Y8751D02*
D03*
Y6751D02*
D03*
X89950Y103201D02*
D03*
Y105201D02*
D03*
D94*
X32058Y26206D02*
D03*
X78809Y50101D02*
D03*
X20350Y106300D02*
D03*
X16500Y64200D02*
D03*
X14000D02*
D03*
X16500Y66700D02*
D03*
X14000D02*
D03*
X16500Y90200D02*
D03*
X14000D02*
D03*
X16500Y92700D02*
D03*
X14000D02*
D03*
X15252Y28263D02*
D03*
X84321Y49662D02*
D03*
X146561Y6500D02*
D03*
X172274Y28850D02*
D03*
X111174Y106300D02*
D03*
X94322Y19000D02*
D03*
Y16500D02*
D03*
X96822Y19000D02*
D03*
Y16500D02*
D03*
X120322Y19000D02*
D03*
Y16500D02*
D03*
X122822Y19000D02*
D03*
Y16500D02*
D03*
X122981Y26307D02*
D03*
D95*
X19185Y51935D02*
D03*
X173886Y12142D02*
D03*
D96*
X16685Y51935D02*
D03*
X176386Y12142D02*
D03*
X164180Y94540D02*
D03*
X174180D02*
D03*
X176680Y102040D02*
D03*
X161680D02*
D03*
X164180Y85240D02*
D03*
X174180D02*
D03*
X176680Y92740D02*
D03*
X161680D02*
D03*
D97*
X35433Y100131D02*
D03*
X27813D02*
D03*
X55753D02*
D03*
X53213D02*
D03*
X50673D02*
D03*
X48133D02*
D03*
X45593D02*
D03*
X43053D02*
D03*
X40513D02*
D03*
X37973D02*
D03*
X32893D02*
D03*
X20193D02*
D03*
X17653D02*
D03*
X25273D02*
D03*
X22733D02*
D03*
X58293D02*
D03*
X15113D02*
D03*
X30353D02*
D03*
X60833D02*
D03*
D98*
X12573D02*
D03*
D99*
X59980Y11500D02*
D03*
X59900Y24000D02*
D03*
X54900D02*
D03*
X74050Y25800D02*
D03*
X73970Y38300D02*
D03*
X68970Y38300D02*
D03*
X51150Y34400D02*
D03*
X63650Y34480D02*
D03*
X51150Y29400D02*
D03*
X45780Y25700D02*
D03*
X45700Y38200D02*
D03*
X40700D02*
D03*
X63600Y48830D02*
D03*
X51100Y48750D02*
D03*
Y43750D02*
D03*
D100*
X54900Y11500D02*
D03*
X68970Y25800D02*
D03*
X63650Y29400D02*
D03*
X40700Y25700D02*
D03*
X63600Y43750D02*
D03*
D101*
X35960Y80700D02*
D03*
Y76300D02*
D03*
X1675Y101425D02*
D03*
X1925Y47000D02*
D03*
X24000Y39200D02*
D03*
X25400Y28750D02*
D03*
X22500D02*
D03*
X26400Y41400D02*
D03*
X5325Y44125D02*
D03*
X26700Y43700D02*
D03*
X4002Y42627D02*
D03*
X26557Y34809D02*
D03*
X18555Y23256D02*
D03*
X17904Y82371D02*
D03*
X19255Y88122D02*
D03*
X17954Y79870D02*
D03*
X15854Y87322D02*
D03*
X17904Y78120D02*
D03*
X15004Y76269D02*
D03*
X38109Y71518D02*
D03*
X33358Y76269D02*
D03*
X32908Y71618D02*
D03*
X27557Y68367D02*
D03*
X31097Y66317D02*
D03*
X27607Y71218D02*
D03*
X24356Y68467D02*
D03*
X24456Y70268D02*
D03*
X27207Y83621D02*
D03*
X27057Y90223D02*
D03*
X28857Y84971D02*
D03*
X31258Y75119D02*
D03*
X35975Y78850D02*
D03*
X132557Y28557D02*
D03*
X126756Y18955D02*
D03*
X130507Y17304D02*
D03*
X129207Y45800D02*
D03*
X143560Y27657D02*
D03*
X125282Y30208D02*
D03*
X92597Y86972D02*
D03*
X105000Y8002D02*
D03*
X104526Y27957D02*
D03*
X93598Y27957D02*
D03*
X93297Y85071D02*
D03*
X94898Y29407D02*
D03*
X103350Y9202D02*
D03*
X103300Y29457D02*
D03*
X93748Y83571D02*
D03*
X93798Y36359D02*
D03*
X105751Y36459D02*
D03*
X105801Y6752D02*
D03*
X105601Y30758D02*
D03*
X94398Y81720D02*
D03*
X94348Y65616D02*
D03*
X95248Y66767D02*
D03*
X95598Y68267D02*
D03*
X97198Y67767D02*
D03*
X97098Y69817D02*
D03*
X98499Y69317D02*
D03*
X121155Y68417D02*
D03*
D102*
X11902Y24808D02*
D03*
Y40608D02*
D03*
D103*
X8902Y38408D02*
D03*
Y27008D02*
D03*
X83900Y62650D02*
D03*
X82400Y98600D02*
D03*
X4950Y62650D02*
D03*
X6500Y98600D02*
D03*
D104*
X6000Y106700D02*
D03*
X6000Y4700D02*
D03*
X74000Y4700D02*
D03*
X74000Y106700D02*
D03*
X164824Y106700D02*
D03*
X164824Y4700D02*
D03*
X96824D02*
D03*
X96824Y106700D02*
D03*
D105*
X172274Y46630D02*
D03*
X174814Y28850D02*
D03*
X172274Y31390D02*
D03*
X174814D02*
D03*
Y33930D02*
D03*
X172274Y36470D02*
D03*
X174814D02*
D03*
Y39010D02*
D03*
X172274Y41550D02*
D03*
X174814D02*
D03*
X172274Y44090D02*
D03*
D106*
X115797Y26244D02*
D03*
X100797Y26244D02*
D03*
D107*
X123074Y76747D02*
D03*
Y74247D02*
D03*
D108*
X98875Y88150D02*
D03*
X99971Y89171D02*
D03*
X97825Y87121D02*
D03*
X128682Y3850D02*
D03*
X133771Y9151D02*
D03*
X135671Y9201D02*
D03*
X130033Y9301D02*
D03*
X83050Y89923D02*
D03*
X83021Y84900D02*
D03*
Y79900D02*
D03*
Y74800D02*
D03*
Y69767D02*
D03*
X2786Y56414D02*
D03*
X4001Y48462D02*
D03*
X86250Y57764D02*
D03*
X8002Y92900D02*
D03*
X5501Y90473D02*
D03*
X68017Y52913D02*
D03*
X70518Y50463D02*
D03*
X83021Y94800D02*
D03*
X75519Y99025D02*
D03*
X70518D02*
D03*
X66017Y99900D02*
D03*
X63166Y102300D02*
D03*
X60350Y104726D02*
D03*
X56214Y102800D02*
D03*
X53550Y104876D02*
D03*
X60465Y110500D02*
D03*
X65216Y110400D02*
D03*
X67667Y108500D02*
D03*
X69967Y110428D02*
D03*
X83021Y105426D02*
D03*
X85471Y107977D02*
D03*
X83021Y110428D02*
D03*
X80470Y107977D02*
D03*
X78020Y110428D02*
D03*
X11903Y103226D02*
D03*
X16904Y104300D02*
D03*
X8002Y62966D02*
D03*
X63016Y57964D02*
D03*
X60450Y56614D02*
D03*
X58014Y57900D02*
D03*
X55514Y56664D02*
D03*
X53013Y57964D02*
D03*
X50450Y56614D02*
D03*
X48062Y57900D02*
D03*
X45511Y56764D02*
D03*
X43011Y57964D02*
D03*
X40510Y56700D02*
D03*
X38009Y57964D02*
D03*
X35509Y55400D02*
D03*
X33008Y57964D02*
D03*
X30550Y55414D02*
D03*
X28007Y57900D02*
D03*
X25506Y55500D02*
D03*
X23006Y57964D02*
D03*
X20450Y55464D02*
D03*
X18004Y57964D02*
D03*
X15504Y55464D02*
D03*
X5451Y50463D02*
D03*
X8102Y58665D02*
D03*
X80720Y55614D02*
D03*
X81750Y56650D02*
D03*
X41750Y54000D02*
D03*
Y42650D02*
D03*
X79125Y39900D02*
D03*
X84300Y43550D02*
D03*
X81150Y34750D02*
D03*
X87000Y30950D02*
D03*
X58293Y107900D02*
D03*
X68350Y42900D02*
D03*
X68400Y47900D02*
D03*
X87200Y48950D02*
D03*
X58250Y110300D02*
D03*
X2750Y95600D02*
D03*
X50450Y106200D02*
D03*
X48150Y107850D02*
D03*
X2250Y48950D02*
D03*
X3150Y101100D02*
D03*
X31750Y103450D02*
D03*
X34250Y102650D02*
D03*
X21600Y110500D02*
D03*
X53150Y45800D02*
D03*
X53450Y34400D02*
D03*
X61050Y52000D02*
D03*
X73050Y40400D02*
D03*
X46850Y40850D02*
D03*
X80570Y48862D02*
D03*
X9752Y110578D02*
D03*
X114879Y11250D02*
D03*
X108727Y11752D02*
D03*
X137309Y38610D02*
D03*
X126656Y40760D02*
D03*
X127806Y49062D02*
D03*
X126706Y42761D02*
D03*
Y50363D02*
D03*
X132207Y51313D02*
D03*
X148162Y52263D02*
D03*
X136058Y52563D02*
D03*
X142874Y52713D02*
D03*
X158414Y51963D02*
D03*
X152362D02*
D03*
X123155Y88172D02*
D03*
X116853Y37509D02*
D03*
X116903Y43661D02*
D03*
X113603Y63766D02*
D03*
X103390Y55148D02*
D03*
X103027Y51698D02*
D03*
X103577Y53249D02*
D03*
X102602Y62185D02*
D03*
X123824Y65050D02*
D03*
X103152Y60685D02*
D03*
X97776Y59650D02*
D03*
X98776Y48498D02*
D03*
X113728Y51247D02*
D03*
X111952Y63785D02*
D03*
X99676Y64101D02*
D03*
X136408Y95824D02*
D03*
X141460Y102276D02*
D03*
X138309Y102226D02*
D03*
X131357Y32908D02*
D03*
X136508Y30908D02*
D03*
X132583Y36108D02*
D03*
X135724Y57764D02*
D03*
X136558Y32708D02*
D03*
X151662Y91623D02*
D03*
X145311Y93357D02*
D03*
X144260Y91273D02*
D03*
X143410Y97324D02*
D03*
X133258Y96174D02*
D03*
X102300Y97124D02*
D03*
X93348Y97024D02*
D03*
X156663Y17550D02*
D03*
Y23950D02*
D03*
X116024Y86922D02*
D03*
X143960Y10653D02*
D03*
X126605Y89321D02*
D03*
X126705Y90672D02*
D03*
X156663Y27057D02*
D03*
X136074Y68650D02*
D03*
X136574Y79000D02*
D03*
X134924Y76450D02*
D03*
X125824Y79150D02*
D03*
X123524Y83550D02*
D03*
X103452Y65785D02*
D03*
X147724Y31600D02*
D03*
X159924Y86550D02*
D03*
X141760Y31358D02*
D03*
X142474Y75500D02*
D03*
X130274Y5300D02*
D03*
X100724Y78850D02*
D03*
X132374Y57200D02*
D03*
X113202Y57135D02*
D03*
X109352Y59135D02*
D03*
X107352Y56835D02*
D03*
X108451Y79920D02*
D03*
X114524Y81200D02*
D03*
X113024Y90450D02*
D03*
X109674Y92400D02*
D03*
X104800Y86150D02*
D03*
X105274Y82650D02*
D03*
X132574Y10750D02*
D03*
X134824Y17750D02*
D03*
X148124D02*
D03*
Y28500D02*
D03*
X135574Y21900D02*
D03*
X140324Y96600D02*
D03*
X164368Y43243D02*
D03*
X164374Y39950D02*
D03*
X164368Y36643D02*
D03*
X164115Y33308D02*
D03*
X164274Y46600D02*
D03*
X143710Y85271D02*
D03*
X132624Y101876D02*
D03*
X153513Y36650D02*
D03*
X138259Y53213D02*
D03*
X141724Y47000D02*
D03*
X141810Y24656D02*
D03*
X156663Y14253D02*
D03*
Y20743D02*
D03*
X137824Y48200D02*
D03*
X152012Y90023D02*
D03*
X153063Y105727D02*
D03*
X148474Y84050D02*
D03*
X142724Y20800D02*
D03*
X142110Y28457D02*
D03*
X141710Y26206D02*
D03*
X139924Y19250D02*
D03*
X141424Y15950D02*
D03*
X159474Y101550D02*
D03*
X154874Y68000D02*
D03*
X153513Y39950D02*
D03*
X142874Y41650D02*
D03*
X142510Y29957D02*
D03*
X153513Y46559D02*
D03*
Y43250D02*
D03*
X139024Y44850D02*
D03*
X138159Y28657D02*
D03*
X154874Y65272D02*
D03*
Y73593D02*
D03*
X174574Y78100D02*
D03*
X171024Y78119D02*
D03*
X170824Y92750D02*
D03*
X172374Y91550D02*
D03*
X159674Y90950D02*
D03*
X154874Y70793D02*
D03*
Y78800D02*
D03*
Y76250D02*
D03*
X153513Y33357D02*
D03*
X144824Y35050D02*
D03*
X144660Y22255D02*
D03*
X144774Y38250D02*
D03*
X137335Y23655D02*
D03*
X141610Y91873D02*
D03*
X122624Y100000D02*
D03*
X117724D02*
D03*
X123524Y98950D02*
D03*
X118324Y98800D02*
D03*
X123524Y96550D02*
D03*
X117752Y96423D02*
D03*
X118603Y95423D02*
D03*
X124974Y94350D02*
D03*
X117752Y94373D02*
D03*
X123904Y93172D02*
D03*
X116952Y93372D02*
D03*
X114774Y102150D02*
D03*
X113403Y102176D02*
D03*
X111951Y102375D02*
D03*
X130724Y80550D02*
D03*
X130074Y90200D02*
D03*
X136674Y105600D02*
D03*
X122254Y91122D02*
D03*
X129124Y91300D02*
D03*
X130574Y79150D02*
D03*
X131957Y69817D02*
D03*
X146774Y76350D02*
D03*
X143924Y73700D02*
D03*
X133924Y65000D02*
D03*
X136074Y66700D02*
D03*
X134074Y66950D02*
D03*
X120252Y50335D02*
D03*
X95425Y50448D02*
D03*
X121602Y50335D02*
D03*
X95425Y48998D02*
D03*
X122952Y50285D02*
D03*
X96825Y48948D02*
D03*
X101374Y74150D02*
D03*
X102174Y75200D02*
D03*
X101374Y76250D02*
D03*
X122174Y67300D02*
D03*
X102174Y77350D02*
D03*
X107451Y63766D02*
D03*
X102174Y79150D02*
D03*
X112324Y98750D02*
D03*
X128474Y100050D02*
D03*
X128624Y79550D02*
D03*
X123874Y95200D02*
D03*
X112724Y97350D02*
D03*
X127824Y98800D02*
D03*
X128574Y78150D02*
D03*
X92647Y102776D02*
D03*
X93848Y90873D02*
D03*
X92574Y90050D02*
D03*
X145261Y98625D02*
D03*
X152274Y98950D02*
D03*
X143074Y78700D02*
D03*
X144274Y110600D02*
D03*
X145261Y95874D02*
D03*
X143724Y100850D02*
D03*
X124374Y89950D02*
D03*
X169324Y87650D02*
D03*
X131324Y87050D02*
D03*
X132374Y80600D02*
D03*
X134024Y68850D02*
D03*
X140009Y33808D02*
D03*
X140609Y63216D02*
D03*
X127932Y72917D02*
D03*
X124624Y54350D02*
D03*
X106874Y96900D02*
D03*
X142674Y90850D02*
D03*
X144024Y77450D02*
D03*
X138309Y59915D02*
D03*
X129274Y58450D02*
D03*
X143760Y46061D02*
D03*
X110601Y102075D02*
D03*
X134058Y100775D02*
D03*
X100399Y98125D02*
D03*
X135608Y102726D02*
D03*
X99199Y100150D02*
D03*
X94698Y98875D02*
D03*
X96124Y99224D02*
D03*
X130557Y101926D02*
D03*
X98149Y99150D02*
D03*
X135258Y94724D02*
D03*
X113102Y96024D02*
D03*
X147711Y78920D02*
D03*
X145674Y78900D02*
D03*
X94998Y80320D02*
D03*
X96448Y79720D02*
D03*
X96298Y78270D02*
D03*
X96948Y76969D02*
D03*
X98499Y77369D02*
D03*
X110252Y50463D02*
D03*
X123105Y66317D02*
D03*
X125156Y64966D02*
D03*
X110502Y73518D02*
D03*
X114853Y65216D02*
D03*
X98099Y75419D02*
D03*
X94498Y38260D02*
D03*
X95598Y64566D02*
D03*
X105551D02*
D03*
X116003Y64516D02*
D03*
X102450Y64966D02*
D03*
X104750Y70118D02*
D03*
X99049Y74469D02*
D03*
X99199Y73068D02*
D03*
X101149Y71768D02*
D03*
X104950Y73268D02*
D03*
Y71968D02*
D03*
X102350Y71268D02*
D03*
X102950Y70118D02*
D03*
X158314Y62422D02*
D03*
X143010Y72518D02*
D03*
X144910Y72668D02*
D03*
X143910Y69417D02*
D03*
X144910Y68217D02*
D03*
X145911Y67117D02*
D03*
X146811Y66117D02*
D03*
X143924Y64866D02*
D03*
X152362Y62422D02*
D03*
X141910Y63716D02*
D03*
X141860Y58265D02*
D03*
X158364Y59915D02*
D03*
Y57264D02*
D03*
Y54664D02*
D03*
X152362Y59915D02*
D03*
Y54664D02*
D03*
Y57264D02*
D03*
X142935Y60875D02*
D03*
X142910Y55814D02*
D03*
X141724Y54499D02*
D03*
X115979Y36158D02*
D03*
X115879Y39859D02*
D03*
X99275Y24005D02*
D03*
X99625Y38108D02*
D03*
Y32907D02*
D03*
X111078Y16503D02*
D03*
X111178Y22655D02*
D03*
X111228Y9601D02*
D03*
X135934Y20381D02*
D03*
X97825Y21854D02*
D03*
X97124Y27356D02*
D03*
X125582Y20254D02*
D03*
X140835Y72017D02*
D03*
X128032Y74518D02*
D03*
X130533Y68266D02*
D03*
X126932Y68566D02*
D03*
X128482Y34808D02*
D03*
X131833Y67916D02*
D03*
X126682Y70016D02*
D03*
X128282Y33407D02*
D03*
X114779Y32957D02*
D03*
X114079Y13102D02*
D03*
X112778Y18053D02*
D03*
X112678Y20404D02*
D03*
X129683Y20704D02*
D03*
X115779Y13652D02*
D03*
X146537Y12952D02*
D03*
X150638Y3950D02*
D03*
X156940Y12052D02*
D03*
X157440Y6500D02*
D03*
X97149Y98200D02*
D03*
X132583Y15403D02*
D03*
X112878Y29906D02*
D03*
X121071Y9401D02*
D03*
X126532D02*
D03*
X117771Y18804D02*
D03*
X124331Y24705D02*
D03*
X125282Y26007D02*
D03*
X101826Y31250D02*
D03*
X102172Y38358D02*
D03*
X114329Y44710D02*
D03*
Y39709D02*
D03*
X106827Y42350D02*
D03*
X102172Y47011D02*
D03*
X99325Y51450D02*
D03*
X115572Y73767D02*
D03*
X118830Y76850D02*
D03*
X120971Y74468D02*
D03*
X96824Y84650D02*
D03*
X101326Y92450D02*
D03*
X103972Y96623D02*
D03*
X94524Y87921D02*
D03*
X96824Y90450D02*
D03*
X101826Y109726D02*
D03*
X106827Y109676D02*
D03*
X101876Y104725D02*
D03*
X106772D02*
D03*
X104326Y107226D02*
D03*
X102172Y101374D02*
D03*
X142436Y103825D02*
D03*
X137035Y103675D02*
D03*
X143336Y108050D02*
D03*
X133234Y92450D02*
D03*
X131533Y95750D02*
D03*
X161841Y82220D02*
D03*
X166142D02*
D03*
X146837Y80319D02*
D03*
X161841Y89221D02*
D03*
X166171D02*
D03*
X159490Y83520D02*
D03*
X159840Y93672D02*
D03*
X159771Y98074D02*
D03*
X153039Y92372D02*
D03*
X165371Y96623D02*
D03*
X167842Y98724D02*
D03*
X172293Y93522D02*
D03*
X172944Y96450D02*
D03*
X170643Y99124D02*
D03*
X160071Y103725D02*
D03*
X146837Y109676D02*
D03*
X151838D02*
D03*
X156840Y109726D02*
D03*
X160671Y110227D02*
D03*
X169693Y110250D02*
D03*
X168292Y102250D02*
D03*
X177771Y109826D02*
D03*
X177495Y103975D02*
D03*
X172844Y103175D02*
D03*
X175044Y88050D02*
D03*
X177495Y91150D02*
D03*
X167771Y74518D02*
D03*
X169693Y69616D02*
D03*
X161271Y76218D02*
D03*
Y70817D02*
D03*
Y65315D02*
D03*
X165392Y57863D02*
D03*
X165042Y53150D02*
D03*
X167742D02*
D03*
X177595Y69650D02*
D03*
Y59714D02*
D03*
Y49711D02*
D03*
X177445Y39050D02*
D03*
X166842Y47661D02*
D03*
X166392Y43510D02*
D03*
X177471Y28956D02*
D03*
X149338Y30106D02*
D03*
X149588Y26950D02*
D03*
X146587Y22150D02*
D03*
X149888Y23850D02*
D03*
X149938Y17503D02*
D03*
X135434Y15750D02*
D03*
X139471Y16403D02*
D03*
X149338Y13702D02*
D03*
X146371Y9801D02*
D03*
X137771Y12502D02*
D03*
X139435Y8801D02*
D03*
X133871Y12102D02*
D03*
X128871Y19104D02*
D03*
X129271Y16203D02*
D03*
X169371Y2199D02*
D03*
X169343Y7201D02*
D03*
X160290Y2199D02*
D03*
X160271Y7251D02*
D03*
X171843Y4700D02*
D03*
X174344Y2199D02*
D03*
X176845Y4700D02*
D03*
X176871Y9701D02*
D03*
X171843D02*
D03*
X166842D02*
D03*
X157971Y4700D02*
D03*
X152438Y4650D02*
D03*
X176845Y14703D02*
D03*
X168693Y13750D02*
D03*
X171843Y16803D02*
D03*
X145271Y1999D02*
D03*
X116529Y2199D02*
D03*
X106027D02*
D03*
X103572Y4700D02*
D03*
X101472Y2199D02*
D03*
X111128Y2950D02*
D03*
Y8001D02*
D03*
X108472Y17803D02*
D03*
X100775Y8901D02*
D03*
X93123D02*
D03*
X93173Y13850D02*
D03*
X96774Y11650D02*
D03*
X93374Y21350D02*
D03*
X108272Y21754D02*
D03*
X115729Y51550D02*
D03*
X120430Y52312D02*
D03*
X118980Y62050D02*
D03*
X122531Y59314D02*
D03*
X126682Y59464D02*
D03*
X138735Y20550D02*
D03*
X145937Y36650D02*
D03*
X150038Y20504D02*
D03*
X145737Y90750D02*
D03*
X140585Y93050D02*
D03*
X145971Y46110D02*
D03*
X145887Y63315D02*
D03*
X173971Y16704D02*
D03*
X106477Y47612D02*
D03*
X120130Y46112D02*
D03*
X118680Y48062D02*
D03*
X119030Y27550D02*
D03*
X117630Y14954D02*
D03*
X118130Y31358D02*
D03*
X107327Y25650D02*
D03*
X106127Y26450D02*
D03*
X116671Y28507D02*
D03*
X117430Y47162D02*
D03*
X108027Y47612D02*
D03*
X115479Y30058D02*
D03*
X163871Y17804D02*
D03*
X170543Y15450D02*
D03*
D109*
X26657Y73018D02*
D03*
X26997Y78770D02*
D03*
D110*
X172888Y80916D02*
D03*
Y82816D02*
D03*
X175238Y81867D02*
D03*
M02*
