METRIC,LZ
M48
T1F00S00C0.600
T2F00S00C0.700
T3F00S00C0.711
T4F00S00C0.850
T5F00S00C0.900
T6F00S00C0.950
T7F00S00C1.000
T8F00S00C1.200
T9F00S00C1.300
T10F00S00C1.800
T11F00S00C2.500
T12F00S00C3.500
%
T01
X0101472Y0002199
X0106027
X0103572Y00047
X0111128Y000295
X0116529Y0002199
X0128682Y000385
X0130274Y00053
X0145271Y0001999
X0150638Y000395
X0152438Y000465
X0157971Y00047
X015744Y00065
X0160271Y0007251
X016029Y0002199
X0169371
X0171843Y00047
X0169343Y0007201
X0174344Y0002199
X0176845Y00047
X0176871Y0009701
X0171843
X0166842
X0168693Y001375
X0170543Y001545
X0171843Y0016803
X0173971Y0016704
X0176845Y0014703
X0177471Y0028956
X0177445Y003905
X0164374Y003995
X0164368Y0043243
X0166392Y004351
X0164274Y00466
X0164368Y0036643
X0164115Y0033308
X0156663Y0027057
Y002395
Y0020743
Y001755
Y0014253
X015694Y0012052
X0163871Y0017804
X0149938Y0017503
X0148124Y001775
X0150038Y0020504
X0149888Y002385
X0149588Y002695
X0148124Y00285
X0149338Y0030106
X0147724Y00316
X014176Y0031358
X014251Y0029957
X014211Y0028457
X014356Y0027657
X014171Y0026206
X014181Y0024656
X0142724Y00208
X014466Y0022255
X0146587Y002215
X0146537Y0012952
X0146371Y0009801
X014396Y0010653
X0139435Y0008801
X0135671Y0009201
X0133771Y0009151
X0132574Y001075
X0133871Y0012102
X0137771Y0012502
X0135434Y001575
X0134824Y001775
X0135934Y0020381
X0135574Y00219
X0137335Y0023655
X0138735Y002055
X0139924Y001925
X0139471Y0016403
X0141424Y001595
X0132583Y0015403
X0129271Y0016203
X0128871Y0019104
X0129683Y0020704
X0125582Y0020254
X0124331Y0024705
X0125282Y0026007
X011903Y002755
X0116671Y0028507
X011813Y0031358
X0115979Y0036158
X0116853Y0037509
X0115879Y0039859
X0116903Y0043661
X011743Y0047162
X012013Y0046112
X0126706Y0042761
X0126656Y004076
X0128482Y0034808
X0128282Y0033407
X0131357Y0032908
X0132583Y0036108
X0137309Y003861
X0136558Y0032708
X0136508Y0030908
X0138159Y0028657
X0140009Y0033808
X0144824Y003505
X0145937Y003665
X0144774Y003825
X0142874Y004165
X014376Y0046061
X0145971Y004611
X0141724Y0047
X0139024Y004485
X0153513Y004325
Y003995
Y003665
Y0033357
Y0046559
X0149338Y0013702
X0130033Y0009301
X0126532Y0009401
X0121071
X011763Y0014954
X0115779Y0013652
X0117771Y0018804
X0112778Y0018053
X0112678Y0020404
X0111178Y0022655
X0108272Y0021754
X0108472Y0017803
X0111078Y0016503
X0114079Y0013102
X0114879Y001125
X0111228Y0009601
X0111128Y0008001
X0108727Y0011752
X0100775Y0008901
X0096774Y001165
X0093173Y001385
X0093123Y0008901
X0093374Y002135
X0097825Y0021854
X0099275Y0024005
X0097124Y0027356
X0099625Y0032907
X0101826Y003125
X0102172Y0038358
X0099625Y0038108
X0094498Y003826
X0087Y003095
X008115Y003475
X0079125Y00399
X00843Y004355
X0102172Y0047011
X0106477Y0047612
X0108027
X0106827Y004235
X0114329Y004471
Y0039709
X0114779Y0032957
X0112878Y0029906
X0107327Y002565
X0106127Y002645
X007305Y00404
X006835Y00429
X005315Y00458
X004685Y004085
X004175Y004265
X005345Y00344
X0035509Y00554
X003055Y0055414
X0033008Y0057964
X0028007Y00579
X0025506Y00555
X0023006Y0057964
X0018004
X002045Y0055464
X0015504
X0008102Y0058665
X0008002Y0062966
X0002786Y0056414
X000225Y004895
X0004001Y0048462
X0005451Y0050463
X004175Y0054
X004051Y00567
X0043011Y0057964
X0045511Y0056764
X0048062Y00579
X005045Y0056614
X0053013Y0057964
X0055514Y0056664
X0058014Y00579
X006045Y0056614
X0063016Y0057964
X006105Y0052
X0068017Y0052913
X0070518Y0050463
X00684Y00479
X0038009Y0057964
X008175Y005665
X008072Y0055614
X008057Y0048862
X00872Y004895
X0095425Y0048998
Y0050448
X0096825Y0048948
X0098776Y0048498
X0099325Y005145
X0103027Y0051698
X0103577Y0053249
X010339Y0055148
X0107352Y0056835
X0109352Y0059135
X0113202Y0057135
X0113728Y0051247
X0110252Y0050463
X0111952Y0063785
X0113603Y0063766
X0114853Y0065216
X0107451Y0063766
X0105551Y0064566
X0103452Y0065785
X010245Y0064966
X0102602Y0062185
X0103152Y0060685
X0097776Y005965
X0099676Y0064101
X0095598Y0064566
X0099199Y0073068
X0099049Y0074469
X0098099Y0075419
X0098499Y0077369
X0096948Y0076969
X0096298Y007827
X0096448Y007972
X0094998Y008032
X0096824Y008465
X0097825Y0087121
X01048Y008615
X0105274Y008265
X0108451Y007992
X0102174Y007915
X0100724Y007885
X0102174Y007735
X0101374Y007625
X0102174Y00752
X0101374Y007415
X0101149Y0071768
X010235Y0071268
X010295Y0070118
X010475
X010495Y0071968
Y0073268
X0110502Y0073518
X0115572Y0073767
X0114524Y00812
X0083021Y00799
Y00849
Y00748
Y0069767
X008625Y0057764
X0115729Y005155
X012043Y0052312
X0120252Y0050335
X0121602
X0122952Y0050285
X0126706Y0050363
X0127806Y0049062
X0132207Y0051313
X0136058Y0052563
X0138259Y0053213
X0141724Y0054499
X014291Y0055814
X0142874Y0052713
X0148162Y0052263
X0152362Y0051963
Y0054664
Y0057264
Y0059915
Y0062422
X0154874Y0065272
Y0068
Y0070793
Y0073593
Y007625
Y00788
X0147711Y007892
X0145674Y00789
X0146837Y0080319
X0146774Y007635
X0144024Y007745
X0143074Y00787
X0142474Y00755
X0143924Y00737
X014491Y0072668
X014301Y0072518
X0140835Y0072017
X014391Y0069417
X014491Y0068217
X0145911Y0067117
X0146811Y0066117
X0145887Y0063315
X0143924Y0064866
X014191Y0063716
X0140609Y0063216
X0142935Y0060875
X014186Y0058265
X0138309Y0059915
X0135724Y0057764
X0132374Y00572
X0129274Y005845
X0126682Y0059464
X0122531Y0059314
X011898Y006205
X0116003Y0064516
X0123824Y006505
X0125156Y0064966
X0123105Y0066317
X0122174Y00673
X0126932Y0068566
X0126682Y0070016
X0127932Y0072917
X0128032Y0074518
X0128574Y007815
X0128624Y007955
X0130574Y007915
X0130724Y008055
X0132374Y00806
X0136574Y0079
X0134924Y007645
X0134024Y006885
X0134074Y006695
X0133924Y0065
X0136074Y00667
Y006865
X0131833Y0067916
X0130533Y0068266
X0131957Y0069817
X0125824Y007915
X0123524Y008355
X0116024Y0086922
X011883Y007685
X0120971Y0074468
X0131324Y008705
X014371Y0085271
X0148474Y008405
X0137824Y00482
X011868Y0048062
X0124624Y005435
X0158364Y0054664
Y0057264
Y0059915
X0158314Y0062422
X0161271Y0065315
Y0070817
Y0076218
X0161841Y008222
X015949Y008352
X0159924Y008655
X0166142Y008222
X0171024Y0078119
X0174574Y00781
X0167771Y0074518
X0169693Y0069616
X0177595Y006965
Y0059714
Y0049711
X0166842Y0047661
X0167742Y005315
X0165042
X0165392Y0057863
X0158414Y0051963
X0159674Y009095
X015984Y0093672
X0159771Y0098074
X0159474Y010155
X0160071Y0103725
X0160671Y0110227
X015684Y0109726
X0169693Y011025
X0177771Y0109826
X0177495Y0103975
X0172844Y0103175
X0168292Y010225
X0167842Y0098724
X0170643Y0099124
X0172944Y009645
X0172293Y0093522
X0172374Y009155
X0170824Y009275
X0169324Y008765
X0166171Y0089221
X0161841
X0165371Y0096623
X0177495Y009115
X0175044Y008805
X0152012Y0090023
X0151662Y0091623
X0153039Y0092372
X0152274Y009895
X0145261Y0098625
Y0095874
X0145311Y0093357
X0145737Y009075
X014426Y0091273
X0142674Y009085
X014161Y0091873
X0140585Y009305
X0140324Y00966
X014341Y0097324
X0143724Y010085
X014146Y0102276
X0142436Y0103825
X0143336Y010805
X0144274Y01106
X0146837Y0109676
X0151838
X0153063Y0105727
X0136674Y01056
X0137035Y0103675
X0135608Y0102726
X0138309Y0102226
X0134058Y0100775
X0132624Y0101876
X0130557Y0101926
X0128474Y010005
X0127824Y00988
X0123524Y009895
X0122624Y01
X0123524Y009655
X0123874Y00952
X0124974Y009435
X0123904Y0093172
X0124374Y008995
X0126605Y0089321
X0126705Y0090672
X0129124Y00913
X0130074Y00902
X0133234Y009245
X0133258Y0096174
X0131533Y009575
X0135258Y0094724
X0136408Y0095824
X0118603Y0095423
X0117752Y0096423
Y0094373
X0116952Y0093372
X0118324Y00988
X0117724Y01
X0122254Y0091122
X0123155Y0088172
X0113024Y009045
X0109674Y00924
X0113102Y0096024
X0112724Y009735
X0112324Y009875
X0111951Y0102375
X0110601Y0102075
X0113403Y0102176
X0114774Y010215
X0106772Y0104725
X0101876
X0102172Y0101374
X0099199Y010015
X0098149Y009915
X0097149Y00982
X0096124Y0099224
X0094698Y0098875
X0093348Y0097024
X0092647Y0102776
X0083021Y0105426
X0085471Y0107977
X0083021Y0110428
X008047Y0107977
X007802Y0110428
X0083021Y00948
X008305Y0089923
X0092574Y009005
X0093848Y0090873
X0096824Y009045
X0098875Y008815
X0099971Y0089171
X0101326Y009245
X01023Y0097124
X0103972Y0096623
X0106874Y00969
X0100399Y0098125
X0101826Y0109726
X0104326Y0107226
X0106827Y0109676
X0094524Y0087921
X0075519Y0099025
X0070518
X0066017Y00999
X0063166Y01023
X006035Y0104726
X0058293Y01079
X005825Y01103
X0060465Y01105
X0065216Y01104
X0067667Y01085
X0069967Y0110428
X0056214Y01028
X005355Y0104876
X005045Y01062
X004815Y010785
X003425Y010265
X003175Y010345
X0016904Y01043
X0011903Y0103226
X0009752Y0110578
X00216Y01105
X000315Y01011
X000275Y00956
X0005501Y0090473
X0008002Y00929
T02
X0105801Y0006752
X0126756Y0018955
X0130507Y0017304
X0132557Y0028557
X0125282Y0030208
X0129207Y00458
X0115479Y0030058
X0105601Y0030758
X01033Y0029457
X0104526Y0027957
X0105751Y0036459
X0093798Y0036359
X0094898Y0029407
X0093598Y0027957
X010335Y0009202
X0105Y0008002
X00254Y002875
X00225
X0018555Y0023256
X0026557Y0034809
X00264Y00414
X00267Y00437
X0024Y00392
X0004002Y0042627
X0005325Y0044125
X0001925Y0047
X0015004Y0076269
X0017904Y007812
X0017954Y007987
X0017904Y0082371
X0027207Y0083621
X0028857Y0084971
X0031258Y0075119
X0033358Y0076269
X0032908Y0071618
X0027607Y0071218
X0027557Y0068367
X0024356Y0068467
X0024456Y0070268
X0031097Y0066317
X0035975Y007885
X0038109Y0071518
X0097098Y0069817
X0098499Y0069317
X0097198Y0067767
X0095598Y0068267
X0095248Y0066767
X0094348Y0065616
X0094398Y008172
X0093748Y0083571
X0093297Y0085071
X0092597Y0086972
X0121155Y0068417
X0027057Y0090223
X0019255Y0088122
X0015854Y0087322
X0001675Y0101425
T03
X0026657Y0073018
X0026997Y007877
T04
X0173886Y0012142
X0176386Y0012142
X0019185Y0051935
X0016685
X0123074Y0074247
Y0076747
X016418Y008524
X017418
Y009454
X017668Y009274
Y010204
X016168
Y009274
X016418Y009454
T05
X0120322Y00165
Y0019
X0122822
Y00165
X0122981Y0026307
X0120441
Y0028847
X0122981
Y0031387
X0120441
Y0033927
X0122981
X0122981Y0036467
X0120441
X0096822Y0019
X0094322
Y00165
X0096822Y00165
X0032058Y0026206
Y0028746
Y0031286
Y0033826
Y0036366
X0029518
Y0033826
Y0031286
Y0028746
Y0026206
X00165Y00642
X0014
Y00667
X00165
Y00902
X0014
Y00927
X00165
T06
X0004002Y0026398
X0005522Y0028938
X0004002Y0036508
X0005522Y0039018
X0015252Y0035883
Y0033343
Y0030803
Y0028263
X0017802Y0029533
X0017802Y0032073
X0017802Y0034613
Y0037153
X0037973Y0100131
X0040513
X0043053
X0045593
X0048133
X0050673
X0053213
X0055753
X0058293
X0060833
X0035433
X0032893
X0030353
X0027813
X0025273
X0022733
X0020193
X0017653
X0015113
X0012573
T07
X008995Y000675
X008995Y0006751
X0089924Y00068
X0120054Y0006909
X0131321Y00065
X0133861
X0136401
X0138941
X0141481
X0141481Y000396
X0138941
X0136401
X0133861
X0131321
X0144021Y000396
X0146561Y000396
Y00065
X0144021Y00065
X0172274Y002885
X0172274Y003139
X0174814
Y002885
Y003393
Y003647
X0172274
X0172274Y003393
X0172274Y003901
X0174814
Y004155
X0172274
Y004409
Y004663
X0174814Y004663
X0174814Y004409
X0120054Y0011909
X0089924Y00088
X008995Y0008751
X008995Y000875
X0107051Y0039968
X0107051Y0044968
X003615Y00618
X003815
X0072809Y0055101
Y0050101
X0078809
X0078809Y0055101
X0084321Y0054742
Y0052202
Y0049662
X0126075Y0076942
Y0081942
X0134274Y0080858
Y0085858
X0172274Y006949
X0174814Y006949
Y006695
X0172274
Y006441
Y006187
X0174814Y006187
X0174814Y006441
Y005933
X0172274
Y005679
X0174814
X0174814Y005425
X0172274Y005425
X0172275Y005171
X0174814Y005171
X0174814Y004917
X0172274
X0134034Y01063
Y010884
X0131494
X0128954
Y01063
X0131494Y01063
X0126414
X0123874
X0121334Y01063
X0121334Y010884
X0123874
X0126414
X0118794
X0116254
Y01063
X0118794
X0113714Y01063
X0113714Y010884
X0111174
Y01063
X008995Y0105201
X008995Y01052
X0089874Y010525
Y010325
X008995Y0103201
X008995Y01032
X004321Y01063
X004067
X003813
Y010884
X004067
X004321
X003815Y009505
X003615
X003559Y01063
X003305Y01063
X003051
X002797
X002543
X002289
X002035
Y010884
X002289
X002543
X002797
X003051
X003305
X003559
T08
X003596Y00763
Y00807
T09
X0115797Y0026244
X0100797Y0026244
X007405Y00258
X006897Y00258
X006365Y00294
Y003448
X006897Y00383
X007397Y00383
X00636Y004375
X00511
X005115Y00344
Y00294
X004578Y00257
X00407Y00257
X00407Y00382
X00457
X00549Y0024
X00599
X005998Y00115
X00549Y00115
X00511Y004875
X00636Y004883
T10
X0011902Y0024808
Y0040608
T11
X000495Y006265
X00839
X00824Y00986
X00065
T12
X0006Y00047
X0074Y00047
X0096824Y00047
X0164824
X0008902Y0027008
Y0038408
X0164824Y01067
X0096824
X0074Y01067
X0006
M30
