%FSLAX43Y43*%
%MOMM*%
G71*
G01*
G75*
%ADD10C,0.300*%
%ADD11R,1.600X1.800*%
%ADD12R,1.800X1.600*%
%ADD13R,1.300X0.850*%
%ADD14R,1.450X0.550*%
%ADD15R,1.450X0.550*%
%ADD16R,0.850X1.300*%
%ADD17R,2.150X0.600*%
%ADD18R,2.150X0.600*%
%ADD19R,2.500X0.500*%
%ADD20R,2.500X2.000*%
%ADD21O,1.800X0.350*%
%ADD22O,1.800X0.350*%
%ADD23R,1.500X1.300*%
%ADD24R,1.650X0.300*%
%ADD25C,0.250*%
%ADD26R,0.300X1.600*%
%ADD27R,2.700X2.500*%
%ADD28R,0.600X2.150*%
%ADD29R,1.550X0.600*%
%ADD30R,0.600X1.700*%
%ADD31R,1.300X1.500*%
%ADD32R,1.550X0.600*%
%ADD33R,2.200X0.550*%
%ADD34R,2.200X0.550*%
%ADD35R,2.200X0.600*%
%ADD36R,2.200X0.600*%
%ADD37C,0.063*%
%ADD38R,0.600X2.150*%
%ADD39R,1.700X0.600*%
%ADD40R,1.700X0.600*%
%ADD41C,0.500*%
%ADD42C,0.400*%
%ADD43C,0.600*%
%ADD44C,1.000*%
%ADD45C,0.800*%
%ADD46C,1.500*%
%ADD47R,1.500X1.500*%
%ADD48R,1.400X1.400*%
%ADD49C,1.400*%
%ADD50O,1.500X2.000*%
%ADD51R,1.500X2.000*%
%ADD52C,1.800*%
%ADD53R,1.800X1.800*%
%ADD54C,1.200*%
%ADD55C,2.500*%
%ADD56C,3.500*%
%ADD57C,5.000*%
%ADD58C,1.500*%
%ADD59C,2.000*%
%ADD60C,1.300*%
%ADD61C,1.100*%
%ADD62C,1.270*%
%ADD63R,0.950X0.900*%
%ADD64C,0.700*%
%ADD65R,1.803X2.003*%
%ADD66R,2.003X1.803*%
%ADD67R,1.503X1.053*%
%ADD68R,1.653X0.753*%
%ADD69R,1.653X0.753*%
%ADD70R,1.053X1.503*%
%ADD71R,2.353X0.803*%
%ADD72R,2.353X0.803*%
%ADD73R,2.703X0.703*%
%ADD74R,2.703X2.203*%
%ADD75O,2.003X0.553*%
%ADD76O,2.003X0.553*%
%ADD77R,1.703X1.503*%
%ADD78R,1.853X0.503*%
%ADD79R,0.503X1.803*%
%ADD80R,2.903X2.703*%
%ADD81R,0.803X2.353*%
%ADD82R,1.753X0.803*%
%ADD83R,0.803X1.903*%
%ADD84R,1.503X1.703*%
%ADD85R,1.753X0.803*%
%ADD86R,2.403X0.753*%
%ADD87R,2.403X0.753*%
%ADD88R,2.403X0.803*%
%ADD89R,2.403X0.803*%
%ADD90R,0.803X2.353*%
%ADD91R,1.903X0.803*%
%ADD92R,1.903X0.803*%
%ADD93C,1.703*%
%ADD94R,1.703X1.703*%
%ADD95R,1.603X1.603*%
%ADD96C,1.603*%
%ADD97O,1.703X2.203*%
%ADD98R,1.703X2.203*%
%ADD99C,2.003*%
%ADD100R,2.003X2.003*%
%ADD101C,1.403*%
%ADD102C,2.703*%
%ADD103C,3.703*%
%ADD104C,5.203*%
%ADD105C,1.703*%
%ADD106C,2.203*%
%ADD107C,1.503*%
%ADD108C,1.303*%
%ADD109C,1.473*%
D37*
X112548Y74968D02*
X112271Y74691D01*
X111111Y75852D01*
X111388Y76128D01*
X112548Y74968D01*
X112474D02*
X112271Y74765D01*
X111185Y75852D01*
X111388Y76054D01*
X112474Y74968D01*
X112400D02*
X112271Y74839D01*
X111259Y75852D01*
X111388Y75980D01*
X112400Y74968D01*
X112327D02*
X112271Y74912D01*
X111332Y75852D01*
X111388Y75907D01*
X112327Y74968D01*
X112271Y74986D02*
X111388Y75833D01*
D42*
X119483Y86318D02*
X120367Y87202D01*
X120404Y87164D02*
G03*
X120367Y87202I-19J19D01*
G01*
X119520Y86280D02*
X120404Y87164D01*
X119483Y86318D02*
G03*
X119520Y86280I19J-19D01*
G01*
X116535Y61113D02*
X115402Y62247D01*
X116394Y63239D01*
X117528Y62105D01*
X116535Y61113D01*
Y61585D02*
X115873Y62247D01*
X116394Y62768D01*
X117056Y62105D01*
X116535Y61585D01*
Y62056D02*
X116345Y62247D01*
X116394Y62296D01*
X116585Y62105D01*
X116535Y62056D01*
X116465Y62158D02*
Y62194D01*
X114555Y59133D02*
X113422Y60267D01*
X114414Y61259D01*
X115548Y60126D01*
X114555Y59133D01*
Y59605D02*
X113893Y60267D01*
X114414Y60788D01*
X115076Y60126D01*
X114555Y59605D01*
Y60076D02*
X114365Y60267D01*
X114414Y60316D01*
X114605Y60126D01*
X114555Y60076D01*
X114485Y60178D02*
Y60214D01*
X103611Y90030D02*
X104494Y89146D01*
X104457Y89109D02*
G03*
X104494Y89146I19J19D01*
G01*
X103573Y89993D02*
X104457Y89109D01*
X103611Y90030D02*
G03*
X103573Y89993I-19J-19D01*
G01*
X100782Y87202D02*
X101666Y86318D01*
X101628Y86280D02*
G03*
X101666Y86318I19J19D01*
G01*
X100745Y87164D02*
X101628Y86280D01*
X100782Y87202D02*
G03*
X100745Y87164I-19J-19D01*
G01*
X100429Y86848D02*
X101312Y85964D01*
X101275Y85927D02*
G03*
X101312Y85964I19J19D01*
G01*
X100391Y86811D02*
X101275Y85927D01*
X100429Y86848D02*
G03*
X100391Y86811I-19J-19D01*
G01*
X113510Y78009D02*
X114394Y77125D01*
X114356Y77088D02*
G03*
X114394Y77125I19J19D01*
G01*
X113472Y77972D02*
X114356Y77088D01*
X113510Y78009D02*
G03*
X113472Y77972I-19J-19D01*
G01*
X119874Y84373D02*
X120758Y83489D01*
X120720Y83452D02*
G03*
X120758Y83489I19J19D01*
G01*
X119836Y84336D02*
X120720Y83452D01*
X119874Y84373D02*
G03*
X119836Y84336I-19J-19D01*
G01*
X119521Y84020D02*
X120404Y83136D01*
X120367Y83098D02*
G03*
X120404Y83136I19J19D01*
G01*
X119483Y83982D02*
X120367Y83098D01*
X119521Y84020D02*
G03*
X119483Y83982I-19J-19D01*
G01*
X118460Y82959D02*
X119344Y82075D01*
X119306Y82038D02*
G03*
X119344Y82075I19J19D01*
G01*
X118422Y82922D02*
X119306Y82038D01*
X118460Y82959D02*
G03*
X118422Y82922I-19J-19D01*
G01*
X118106Y82606D02*
X118990Y81722D01*
X118952Y81684D02*
G03*
X118990Y81722I19J19D01*
G01*
X118069Y82568D02*
X118952Y81684D01*
X118106Y82606D02*
G03*
X118069Y82568I-19J-19D01*
G01*
X117753Y82252D02*
X118637Y81368D01*
X118599Y81330D02*
G03*
X118637Y81368I19J19D01*
G01*
X117715Y82214D02*
X118599Y81330D01*
X117753Y82252D02*
G03*
X117715Y82214I-19J-19D01*
G01*
X117046Y81545D02*
X117929Y80661D01*
X117892Y80623D02*
G03*
X117929Y80661I19J19D01*
G01*
X117008Y81507D02*
X117892Y80623D01*
X117046Y81545D02*
G03*
X117008Y81507I-19J-19D01*
G01*
X116339Y80838D02*
X117222Y79954D01*
X117185Y79916D02*
G03*
X117222Y79954I19J19D01*
G01*
X116301Y80800D02*
X117185Y79916D01*
X116339Y80838D02*
G03*
X116301Y80800I-19J-19D01*
G01*
X115985Y80484D02*
X116869Y79600D01*
X116831Y79563D02*
G03*
X116869Y79600I19J19D01*
G01*
X115947Y80447D02*
X116831Y79563D01*
X115985Y80484D02*
G03*
X115947Y80447I-19J-19D01*
G01*
X115631Y80131D02*
X116515Y79247D01*
X116478Y79209D02*
G03*
X116515Y79247I19J19D01*
G01*
X115594Y80093D02*
X116478Y79209D01*
X115631Y80131D02*
G03*
X115594Y80093I-19J-19D01*
G01*
X115278Y79777D02*
X116162Y78893D01*
X116124Y78856D02*
G03*
X116162Y78893I19J19D01*
G01*
X115240Y79740D02*
X116124Y78856D01*
X115278Y79777D02*
G03*
X115240Y79740I-19J-19D01*
G01*
X114924Y79424D02*
X115808Y78540D01*
X115771Y78502D02*
G03*
X115808Y78540I19J19D01*
G01*
X114887Y79386D02*
X115771Y78502D01*
X114924Y79424D02*
G03*
X114887Y79386I-19J-19D01*
G01*
X114571Y79070D02*
X115455Y78186D01*
X115417Y78149D02*
G03*
X115455Y78186I19J19D01*
G01*
X114533Y79032D02*
X115417Y78149D01*
X114571Y79070D02*
G03*
X114533Y79032I-19J-19D01*
G01*
X114217Y78716D02*
X115101Y77833D01*
X115063Y77795D02*
G03*
X115101Y77833I19J19D01*
G01*
X114180Y78679D02*
X115063Y77795D01*
X114217Y78716D02*
G03*
X114180Y78679I-19J-19D01*
G01*
X113864Y78363D02*
X114747Y77479D01*
X114710Y77441D02*
G03*
X114747Y77479I19J19D01*
G01*
X113826Y78325D02*
X114710Y77441D01*
X113864Y78363D02*
G03*
X113826Y78325I-19J-19D01*
G01*
X113157Y77656D02*
X114040Y76772D01*
X114003Y76734D02*
G03*
X114040Y76772I19J19D01*
G01*
X113119Y77618D02*
X114003Y76734D01*
X113157Y77656D02*
G03*
X113119Y77618I-19J-19D01*
G01*
X112803Y77302D02*
X113687Y76418D01*
X113649Y76381D02*
G03*
X113687Y76418I19J19D01*
G01*
X112765Y77265D02*
X113649Y76381D01*
X112803Y77302D02*
G03*
X112765Y77265I-19J-19D01*
G01*
X112449Y76949D02*
X113333Y76065D01*
X113296Y76027D02*
G03*
X113333Y76065I19J19D01*
G01*
X112412Y76911D02*
X113296Y76027D01*
X112449Y76949D02*
G03*
X112412Y76911I-19J-19D01*
G01*
X112096Y76595D02*
X112980Y75711D01*
X112942Y75674D02*
G03*
X112980Y75711I19J19D01*
G01*
X112058Y76558D02*
X112942Y75674D01*
X112096Y76595D02*
G03*
X112058Y76558I-19J-19D01*
G01*
X111742Y76242D02*
X112626Y75358D01*
X112589Y75320D02*
G03*
X112626Y75358I19J19D01*
G01*
X111705Y76204D02*
X112589Y75320D01*
X111742Y76242D02*
G03*
X111705Y76204I-19J-19D01*
G01*
X111351Y94450D02*
X112235Y95333D01*
X112273Y95296D02*
G03*
X112235Y95333I-19J19D01*
G01*
X111389Y94412D02*
X112273Y95296D01*
X111351Y94450D02*
G03*
X111389Y94412I19J-19D01*
G01*
X111705Y94096D02*
X112589Y94980D01*
X112626Y94942D02*
G03*
X112589Y94980I-19J19D01*
G01*
X111742Y94058D02*
X112626Y94942D01*
X111705Y94096D02*
G03*
X111742Y94058I19J-19D01*
G01*
X112058Y93742D02*
X112942Y94626D01*
X112980Y94589D02*
G03*
X112942Y94626I-19J19D01*
G01*
X112096Y93705D02*
X112980Y94589D01*
X112058Y93742D02*
G03*
X112096Y93705I19J-19D01*
G01*
X112412Y93389D02*
X113296Y94273D01*
X113333Y94235D02*
G03*
X113296Y94273I-19J19D01*
G01*
X112449Y93351D02*
X113333Y94235D01*
X112412Y93389D02*
G03*
X112449Y93351I19J-19D01*
G01*
X112765Y93035D02*
X113649Y93919D01*
X113687Y93882D02*
G03*
X113649Y93919I-19J19D01*
G01*
X112803Y92998D02*
X113687Y93882D01*
X112765Y93035D02*
G03*
X112803Y92998I19J-19D01*
G01*
X113472Y92328D02*
X114356Y93212D01*
X114394Y93175D02*
G03*
X114356Y93212I-19J19D01*
G01*
X113510Y92291D02*
X114394Y93175D01*
X113472Y92328D02*
G03*
X113510Y92291I19J-19D01*
G01*
X113826Y91975D02*
X114710Y92859D01*
X114747Y92821D02*
G03*
X114710Y92859I-19J19D01*
G01*
X113864Y91937D02*
X114747Y92821D01*
X113826Y91975D02*
G03*
X113864Y91937I19J-19D01*
G01*
X114180Y91621D02*
X115063Y92505D01*
X115101Y92467D02*
G03*
X115063Y92505I-19J19D01*
G01*
X114217Y91584D02*
X115101Y92467D01*
X114180Y91621D02*
G03*
X114217Y91584I19J-19D01*
G01*
X114533Y91268D02*
X115417Y92151D01*
X115455Y92114D02*
G03*
X115417Y92151I-19J19D01*
G01*
X114571Y91230D02*
X115455Y92114D01*
X114533Y91268D02*
G03*
X114571Y91230I19J-19D01*
G01*
X114887Y90914D02*
X115771Y91798D01*
X115808Y91760D02*
G03*
X115771Y91798I-19J19D01*
G01*
X114924Y90876D02*
X115808Y91760D01*
X114887Y90914D02*
G03*
X114924Y90876I19J-19D01*
G01*
X115947Y89853D02*
X116831Y90737D01*
X116869Y90700D02*
G03*
X116831Y90737I-19J19D01*
G01*
X115985Y89816D02*
X116869Y90700D01*
X115947Y89853D02*
G03*
X115985Y89816I19J-19D01*
G01*
X116301Y89500D02*
X117185Y90384D01*
X117222Y90346D02*
G03*
X117185Y90384I-19J19D01*
G01*
X116339Y89462D02*
X117222Y90346D01*
X116301Y89500D02*
G03*
X116339Y89462I19J-19D01*
G01*
X117008Y88793D02*
X117892Y89677D01*
X117929Y89639D02*
G03*
X117892Y89677I-19J19D01*
G01*
X117046Y88755D02*
X117929Y89639D01*
X117008Y88793D02*
G03*
X117046Y88755I19J-19D01*
G01*
X117362Y88439D02*
X118245Y89323D01*
X118283Y89285D02*
G03*
X118245Y89323I-19J19D01*
G01*
X117399Y88402D02*
X118283Y89285D01*
X117362Y88439D02*
G03*
X117399Y88402I19J-19D01*
G01*
X117715Y88086D02*
X118599Y88970D01*
X118637Y88932D02*
G03*
X118599Y88970I-19J19D01*
G01*
X117753Y88048D02*
X118637Y88932D01*
X117715Y88086D02*
G03*
X117753Y88048I19J-19D01*
G01*
X118069Y87732D02*
X118952Y88616D01*
X118990Y88578D02*
G03*
X118952Y88616I-19J19D01*
G01*
X118106Y87694D02*
X118990Y88578D01*
X118069Y87732D02*
G03*
X118106Y87694I19J-19D01*
G01*
X118422Y87379D02*
X119306Y88262D01*
X119344Y88225D02*
G03*
X119306Y88262I-19J19D01*
G01*
X118460Y87341D02*
X119344Y88225D01*
X118422Y87379D02*
G03*
X118460Y87341I19J-19D01*
G01*
X118776Y87025D02*
X119660Y87909D01*
X119697Y87871D02*
G03*
X119660Y87909I-19J19D01*
G01*
X118813Y86987D02*
X119697Y87871D01*
X118776Y87025D02*
G03*
X118813Y86987I19J-19D01*
G01*
X119129Y86671D02*
X120013Y87555D01*
X120051Y87518D02*
G03*
X120013Y87555I-19J19D01*
G01*
X119167Y86634D02*
X120051Y87518D01*
X119129Y86671D02*
G03*
X119167Y86634I19J-19D01*
G01*
X119836Y85964D02*
X120720Y86848D01*
X120758Y86811D02*
G03*
X120720Y86848I-19J19D01*
G01*
X119874Y85927D02*
X120758Y86811D01*
X119836Y85964D02*
G03*
X119874Y85927I19J-19D01*
G01*
X101489Y87909D02*
X102373Y87025D01*
X102336Y86987D02*
G03*
X102373Y87025I19J19D01*
G01*
X101452Y87871D02*
X102336Y86987D01*
X101489Y87909D02*
G03*
X101452Y87871I-19J-19D01*
G01*
X101843Y88262D02*
X102727Y87379D01*
X102689Y87341D02*
G03*
X102727Y87379I19J19D01*
G01*
X101805Y88225D02*
X102689Y87341D01*
X101843Y88262D02*
G03*
X101805Y88225I-19J-19D01*
G01*
X102196Y88616D02*
X103080Y87732D01*
X103043Y87694D02*
G03*
X103080Y87732I19J19D01*
G01*
X102159Y88578D02*
X103043Y87694D01*
X102196Y88616D02*
G03*
X102159Y88578I-19J-19D01*
G01*
X102550Y88970D02*
X103434Y88086D01*
X103396Y88048D02*
G03*
X103434Y88086I19J19D01*
G01*
X102512Y88932D02*
X103396Y88048D01*
X102550Y88970D02*
G03*
X102512Y88932I-19J-19D01*
G01*
X102903Y89323D02*
X103787Y88439D01*
X103750Y88402D02*
G03*
X103787Y88439I19J19D01*
G01*
X102866Y89285D02*
X103750Y88402D01*
X102903Y89323D02*
G03*
X102866Y89285I-19J-19D01*
G01*
X103257Y89677D02*
X104141Y88793D01*
X104103Y88755D02*
G03*
X104141Y88793I19J19D01*
G01*
X103219Y89639D02*
X104103Y88755D01*
X103257Y89677D02*
G03*
X103219Y89639I-19J-19D01*
G01*
X103964Y90384D02*
X104848Y89500D01*
X104810Y89462D02*
G03*
X104848Y89500I19J19D01*
G01*
X103926Y90346D02*
X104810Y89462D01*
X103964Y90384D02*
G03*
X103926Y90346I-19J-19D01*
G01*
X104318Y90737D02*
X105202Y89853D01*
X105164Y89816D02*
G03*
X105202Y89853I19J19D01*
G01*
X104280Y90700D02*
X105164Y89816D01*
X104318Y90737D02*
G03*
X104280Y90700I-19J-19D01*
G01*
X104671Y91091D02*
X105555Y90207D01*
X105517Y90169D02*
G03*
X105555Y90207I19J19D01*
G01*
X104634Y91053D02*
X105517Y90169D01*
X104671Y91091D02*
G03*
X104634Y91053I-19J-19D01*
G01*
X105025Y91444D02*
X105909Y90560D01*
X105871Y90523D02*
G03*
X105909Y90560I19J19D01*
G01*
X104987Y91407D02*
X105871Y90523D01*
X105025Y91444D02*
G03*
X104987Y91407I-19J-19D01*
G01*
X105378Y91798D02*
X106262Y90914D01*
X106225Y90876D02*
G03*
X106262Y90914I19J19D01*
G01*
X105341Y91760D02*
X106225Y90876D01*
X105378Y91798D02*
G03*
X105341Y91760I-19J-19D01*
G01*
X105732Y92151D02*
X106616Y91268D01*
X106578Y91230D02*
G03*
X106616Y91268I19J19D01*
G01*
X105694Y92114D02*
X106578Y91230D01*
X105732Y92151D02*
G03*
X105694Y92114I-19J-19D01*
G01*
X106085Y92505D02*
X106969Y91621D01*
X106932Y91584D02*
G03*
X106969Y91621I19J19D01*
G01*
X106048Y92467D02*
X106932Y91584D01*
X106085Y92505D02*
G03*
X106048Y92467I-19J-19D01*
G01*
X106439Y92859D02*
X107323Y91975D01*
X107285Y91937D02*
G03*
X107323Y91975I19J19D01*
G01*
X106401Y92821D02*
X107285Y91937D01*
X106439Y92859D02*
G03*
X106401Y92821I-19J-19D01*
G01*
X106793Y93212D02*
X107676Y92328D01*
X107639Y92291D02*
G03*
X107676Y92328I19J19D01*
G01*
X106755Y93175D02*
X107639Y92291D01*
X106793Y93212D02*
G03*
X106755Y93175I-19J-19D01*
G01*
X107146Y93566D02*
X108030Y92682D01*
X107992Y92644D02*
G03*
X108030Y92682I19J19D01*
G01*
X107108Y93528D02*
X107992Y92644D01*
X107146Y93566D02*
G03*
X107108Y93528I-19J-19D01*
G01*
X107500Y93919D02*
X108384Y93035D01*
X108346Y92998D02*
G03*
X108384Y93035I19J19D01*
G01*
X107462Y93882D02*
X108346Y92998D01*
X107500Y93919D02*
G03*
X107462Y93882I-19J-19D01*
G01*
X107853Y94273D02*
X108737Y93389D01*
X108699Y93351D02*
G03*
X108737Y93389I19J19D01*
G01*
X107816Y94235D02*
X108699Y93351D01*
X107853Y94273D02*
G03*
X107816Y94235I-19J-19D01*
G01*
X108207Y94626D02*
X109091Y93742D01*
X109053Y93705D02*
G03*
X109091Y93742I19J19D01*
G01*
X108169Y94589D02*
X109053Y93705D01*
X108207Y94626D02*
G03*
X108169Y94589I-19J-19D01*
G01*
X108560Y94980D02*
X109444Y94096D01*
X109407Y94058D02*
G03*
X109444Y94096I19J19D01*
G01*
X108523Y94942D02*
X109407Y94058D01*
X108560Y94980D02*
G03*
X108523Y94942I-19J-19D01*
G01*
X108914Y95333D02*
X109798Y94450D01*
X109760Y94412D02*
G03*
X109798Y94450I19J19D01*
G01*
X108876Y95296D02*
X109760Y94412D01*
X108914Y95333D02*
G03*
X108876Y95296I-19J-19D01*
G01*
X108876Y75004D02*
X109760Y75888D01*
X109798Y75850D02*
G03*
X109760Y75888I-19J19D01*
G01*
X108914Y74967D02*
X109798Y75850D01*
X108876Y75004D02*
G03*
X108914Y74967I19J-19D01*
G01*
X107816Y76065D02*
X108699Y76949D01*
X108737Y76911D02*
G03*
X108699Y76949I-19J19D01*
G01*
X107853Y76027D02*
X108737Y76911D01*
X107816Y76065D02*
G03*
X107853Y76027I19J-19D01*
G01*
X107462Y76418D02*
X108346Y77302D01*
X108384Y77265D02*
G03*
X108346Y77302I-19J19D01*
G01*
X107500Y76381D02*
X108384Y77265D01*
X107462Y76418D02*
G03*
X107500Y76381I19J-19D01*
G01*
X107108Y76772D02*
X107992Y77656D01*
X108030Y77618D02*
G03*
X107992Y77656I-19J19D01*
G01*
X107146Y76734D02*
X108030Y77618D01*
X107108Y76772D02*
G03*
X107146Y76734I19J-19D01*
G01*
X106755Y77090D02*
X107639Y77974D01*
X107676Y77936D02*
G03*
X107639Y77974I-19J19D01*
G01*
X106793Y77052D02*
X107676Y77936D01*
X106755Y77090D02*
G03*
X106793Y77052I19J-19D01*
G01*
X106401Y77479D02*
X107285Y78363D01*
X107323Y78325D02*
G03*
X107285Y78363I-19J19D01*
G01*
X106439Y77441D02*
X107323Y78325D01*
X106401Y77479D02*
G03*
X106439Y77441I19J-19D01*
G01*
X106048Y77833D02*
X106932Y78716D01*
X106969Y78679D02*
G03*
X106932Y78716I-19J19D01*
G01*
X106085Y77795D02*
X106969Y78679D01*
X106048Y77833D02*
G03*
X106085Y77795I19J-19D01*
G01*
X105694Y78186D02*
X106578Y79070D01*
X106616Y79032D02*
G03*
X106578Y79070I-19J19D01*
G01*
X105732Y78149D02*
X106616Y79032D01*
X105694Y78186D02*
G03*
X105732Y78149I19J-19D01*
G01*
X105341Y78540D02*
X106225Y79424D01*
X106262Y79386D02*
G03*
X106225Y79424I-19J19D01*
G01*
X105378Y78502D02*
X106262Y79386D01*
X105341Y78540D02*
G03*
X105378Y78502I19J-19D01*
G01*
X104987Y78893D02*
X105871Y79777D01*
X105909Y79740D02*
G03*
X105871Y79777I-19J19D01*
G01*
X105025Y78856D02*
X105909Y79740D01*
X104987Y78893D02*
G03*
X105025Y78856I19J-19D01*
G01*
X104634Y79247D02*
X105517Y80131D01*
X105555Y80093D02*
G03*
X105517Y80131I-19J19D01*
G01*
X104671Y79209D02*
X105555Y80093D01*
X104634Y79247D02*
G03*
X104671Y79209I19J-19D01*
G01*
X104280Y79600D02*
X105164Y80484D01*
X105202Y80447D02*
G03*
X105164Y80484I-19J19D01*
G01*
X104318Y79563D02*
X105202Y80447D01*
X104280Y79600D02*
G03*
X104318Y79563I19J-19D01*
G01*
X103926Y79954D02*
X104810Y80838D01*
X104848Y80800D02*
G03*
X104810Y80838I-19J19D01*
G01*
X103964Y79916D02*
X104848Y80800D01*
X103926Y79954D02*
G03*
X103964Y79916I19J-19D01*
G01*
X103573Y80307D02*
X104457Y81191D01*
X104494Y81154D02*
G03*
X104457Y81191I-19J19D01*
G01*
X103611Y80270D02*
X104494Y81154D01*
X103573Y80307D02*
G03*
X103611Y80270I19J-19D01*
G01*
X103219Y80661D02*
X104103Y81545D01*
X104141Y81507D02*
G03*
X104103Y81545I-19J19D01*
G01*
X103257Y80623D02*
X104141Y81507D01*
X103219Y80661D02*
G03*
X103257Y80623I19J-19D01*
G01*
X102866Y81015D02*
X103750Y81898D01*
X103787Y81861D02*
G03*
X103750Y81898I-19J19D01*
G01*
X102903Y80977D02*
X103787Y81861D01*
X102866Y81015D02*
G03*
X102903Y80977I19J-19D01*
G01*
X102512Y81368D02*
X103396Y82252D01*
X103434Y82214D02*
G03*
X103396Y82252I-19J19D01*
G01*
X102550Y81330D02*
X103434Y82214D01*
X102512Y81368D02*
G03*
X102550Y81330I19J-19D01*
G01*
X102159Y81722D02*
X103043Y82606D01*
X103080Y82568D02*
G03*
X103043Y82606I-19J19D01*
G01*
X102196Y81684D02*
X103080Y82568D01*
X102159Y81722D02*
G03*
X102196Y81684I19J-19D01*
G01*
X101805Y82075D02*
X102689Y82959D01*
X102727Y82921D02*
G03*
X102689Y82959I-19J19D01*
G01*
X101843Y82038D02*
X102727Y82921D01*
X101805Y82075D02*
G03*
X101843Y82038I19J-19D01*
G01*
X101452Y82393D02*
X102336Y83277D01*
X102373Y83240D02*
G03*
X102336Y83277I-19J19D01*
G01*
X101489Y82356D02*
X102373Y83240D01*
X101452Y82393D02*
G03*
X101489Y82356I19J-19D01*
G01*
X101098Y82782D02*
X101982Y83666D01*
X102020Y83629D02*
G03*
X101982Y83666I-19J19D01*
G01*
X101136Y82745D02*
X102020Y83629D01*
X101098Y82782D02*
G03*
X101136Y82745I19J-19D01*
G01*
X116654Y89146D02*
X117538Y90030D01*
X117576Y89993D02*
G03*
X117538Y90030I-19J19D01*
G01*
X116692Y89109D02*
X117576Y89993D01*
X116654Y89146D02*
G03*
X116692Y89109I19J-19D01*
G01*
X115240Y90561D02*
X116124Y91444D01*
X116162Y91407D02*
G03*
X116124Y91444I-19J19D01*
G01*
X115278Y90523D02*
X116162Y91407D01*
X115240Y90561D02*
G03*
X115278Y90523I19J-19D01*
G01*
X115594Y90207D02*
X116478Y91091D01*
X116515Y91053D02*
G03*
X116478Y91091I-19J19D01*
G01*
X115631Y90169D02*
X116515Y91053D01*
X115594Y90207D02*
G03*
X115631Y90169I19J-19D01*
G01*
X118813Y83313D02*
X119697Y82429D01*
X119660Y82391D02*
G03*
X119697Y82429I19J19D01*
G01*
X118776Y83275D02*
X119660Y82391D01*
X118813Y83313D02*
G03*
X118776Y83275I-19J-19D01*
G01*
X119167Y83666D02*
X120051Y82782D01*
X120013Y82745D02*
G03*
X120051Y82782I19J19D01*
G01*
X119129Y83629D02*
X120013Y82745D01*
X119167Y83666D02*
G03*
X119129Y83629I-19J-19D01*
G01*
X100391Y83489D02*
X101275Y84373D01*
X101312Y84336D02*
G03*
X101275Y84373I-19J19D01*
G01*
X100429Y83452D02*
X101312Y84336D01*
X100391Y83489D02*
G03*
X100429Y83452I19J-19D01*
G01*
X100745Y83136D02*
X101628Y84020D01*
X101666Y83982D02*
G03*
X101628Y84020I-19J19D01*
G01*
X100782Y83098D02*
X101666Y83982D01*
X100745Y83136D02*
G03*
X100782Y83098I19J-19D01*
G01*
X108523Y75358D02*
X109407Y76242D01*
X109444Y76204D02*
G03*
X109407Y76242I-19J19D01*
G01*
X108560Y75320D02*
X109444Y76204D01*
X108523Y75358D02*
G03*
X108560Y75320I19J-19D01*
G01*
X116692Y81191D02*
X117576Y80307D01*
X117538Y80270D02*
G03*
X117576Y80307I19J19D01*
G01*
X116654Y81154D02*
X117538Y80270D01*
X116692Y81191D02*
G03*
X116654Y81154I-19J-19D01*
G01*
X117399Y81898D02*
X118283Y81015D01*
X118245Y80977D02*
G03*
X118283Y81015I19J19D01*
G01*
X117361Y81861D02*
X118245Y80977D01*
X117399Y81898D02*
G03*
X117361Y81861I-19J-19D01*
G01*
X113119Y92682D02*
X114003Y93566D01*
X114040Y93528D02*
G03*
X114003Y93566I-19J19D01*
G01*
X113157Y92644D02*
X114040Y93528D01*
X113119Y92682D02*
G03*
X113157Y92644I19J-19D01*
G01*
X108169Y75711D02*
X109053Y76595D01*
X109091Y76558D02*
G03*
X109053Y76595I-19J19D01*
G01*
X108207Y75674D02*
X109091Y76558D01*
X108169Y75711D02*
G03*
X108207Y75674I19J-19D01*
G01*
X101136Y87555D02*
X102020Y86671D01*
X101982Y86634D02*
G03*
X102020Y86671I19J19D01*
G01*
X101098Y87518D02*
X101982Y86634D01*
X101136Y87555D02*
G03*
X101098Y87518I-19J-19D01*
G01*
D65*
X24150Y37500D02*
D03*
X21350D02*
D03*
X29388Y40543D02*
D03*
X32188D02*
D03*
X29388Y43543D02*
D03*
X32188D02*
D03*
X85610Y40767D02*
D03*
X82810Y40767D02*
D03*
X25494Y52712D02*
D03*
X22694Y52712D02*
D03*
X4206Y53542D02*
D03*
X7006Y53542D02*
D03*
X6945Y56294D02*
D03*
X4145D02*
D03*
X9711Y56429D02*
D03*
X12512Y56429D02*
D03*
X82012Y31757D02*
D03*
X79213Y31757D02*
D03*
X44000Y51700D02*
D03*
X46800D02*
D03*
X70162Y42707D02*
D03*
X72962Y42707D02*
D03*
X44062Y45807D02*
D03*
X46862D02*
D03*
X44062Y42707D02*
D03*
X46862D02*
D03*
X44062Y48907D02*
D03*
X46862D02*
D03*
X14900Y110000D02*
D03*
X12100D02*
D03*
X29695Y75812D02*
D03*
X26895Y75812D02*
D03*
X113334Y16512D02*
D03*
X116134D02*
D03*
X126218Y11959D02*
D03*
X123418Y11959D02*
D03*
X98375Y62401D02*
D03*
X95575D02*
D03*
X129670Y36701D02*
D03*
X126870Y36701D02*
D03*
X130720Y24348D02*
D03*
X127920Y24348D02*
D03*
X130694Y27200D02*
D03*
X127894Y27200D02*
D03*
X127894Y30001D02*
D03*
X130694Y30001D02*
D03*
X159677Y59872D02*
D03*
X162477Y59871D02*
D03*
X155387Y46557D02*
D03*
X158187Y46557D02*
D03*
X175730Y109884D02*
D03*
X172930Y109884D02*
D03*
X158562Y27043D02*
D03*
X137287Y25708D02*
D03*
X134487D02*
D03*
X148259Y107324D02*
D03*
X151059D02*
D03*
X137161Y55667D02*
D03*
X134361D02*
D03*
X152127Y82403D02*
D03*
X149327Y82403D02*
D03*
X154779Y30159D02*
D03*
X151979Y30159D02*
D03*
X154937Y82407D02*
D03*
X157737D02*
D03*
X176487Y7357D02*
D03*
X173687D02*
D03*
X154787Y14257D02*
D03*
X151987D02*
D03*
X158562Y14746D02*
D03*
X161362D02*
D03*
X154787Y17557D02*
D03*
X151987D02*
D03*
X158562Y17543D02*
D03*
X161362D02*
D03*
X154787Y20757D02*
D03*
X151987Y20757D02*
D03*
X158562Y20743D02*
D03*
X161362D02*
D03*
X153012Y73593D02*
D03*
X152962Y67943D02*
D03*
X154787Y23957D02*
D03*
X151987D02*
D03*
X158562Y23943D02*
D03*
X161362D02*
D03*
X154276Y51970D02*
D03*
X157076D02*
D03*
X162502Y52006D02*
D03*
X159702D02*
D03*
X153012Y70793D02*
D03*
X153024Y65300D02*
D03*
X154787Y27057D02*
D03*
X151987Y27057D02*
D03*
X161362Y27043D02*
D03*
X155387Y33357D02*
D03*
X158187D02*
D03*
X151662Y33343D02*
D03*
X148862D02*
D03*
X162477Y54670D02*
D03*
X159677Y54670D02*
D03*
X158187Y36657D02*
D03*
X155387D02*
D03*
X148862Y36643D02*
D03*
X151662D02*
D03*
X147137Y98807D02*
D03*
X149937Y98807D02*
D03*
X155387Y39957D02*
D03*
X158187D02*
D03*
X148862Y39943D02*
D03*
X151662D02*
D03*
X149987Y95907D02*
D03*
X147187Y95907D02*
D03*
X174818Y73618D02*
D03*
X172018D02*
D03*
X155387Y43257D02*
D03*
X158187D02*
D03*
X157737Y107307D02*
D03*
X154937D02*
D03*
X148862Y43243D02*
D03*
X151662D02*
D03*
X158562Y30143D02*
D03*
X161362Y30143D02*
D03*
X151674Y46550D02*
D03*
X148874D02*
D03*
X150162Y78843D02*
D03*
X152962Y78843D02*
D03*
X150162Y76243D02*
D03*
X152962Y76243D02*
D03*
X147137Y93357D02*
D03*
X149937D02*
D03*
X171980Y76426D02*
D03*
X174780D02*
D03*
X149912Y90793D02*
D03*
X147112Y90793D02*
D03*
X150212Y73593D02*
D03*
X150162Y67943D02*
D03*
X150212Y70793D02*
D03*
X150224Y65300D02*
D03*
X96337Y92707D02*
D03*
X93537D02*
D03*
X132896Y34664D02*
D03*
X135696Y34664D02*
D03*
X123418Y6808D02*
D03*
X126218Y6808D02*
D03*
X159627Y62422D02*
D03*
X162427D02*
D03*
X157068Y62425D02*
D03*
X154268D02*
D03*
X157068Y59874D02*
D03*
X154268D02*
D03*
X157068Y54673D02*
D03*
X154268D02*
D03*
X157068Y57273D02*
D03*
X154268Y57273D02*
D03*
X162477Y57271D02*
D03*
X159677D02*
D03*
D66*
X22512Y24644D02*
D03*
Y27444D02*
D03*
X25400Y24669D02*
D03*
X25400Y27469D02*
D03*
X22499Y32870D02*
D03*
Y30070D02*
D03*
X25413Y32895D02*
D03*
Y30095D02*
D03*
X9382Y50485D02*
D03*
X9382Y53285D02*
D03*
X17400Y106200D02*
D03*
Y109000D02*
D03*
X81338Y53755D02*
D03*
X81338Y50955D02*
D03*
X28957Y81670D02*
D03*
Y78870D02*
D03*
X19255Y68768D02*
D03*
Y71568D02*
D03*
X32902Y67980D02*
D03*
X32902Y70780D02*
D03*
X38103Y67980D02*
D03*
X38103Y70780D02*
D03*
X35502Y67980D02*
D03*
X35502Y70780D02*
D03*
X33515Y90460D02*
D03*
Y87660D02*
D03*
X101332Y11890D02*
D03*
X101332Y14690D02*
D03*
X110246Y52148D02*
D03*
X110246Y54948D02*
D03*
X102983Y43947D02*
D03*
X102983Y41147D02*
D03*
X121309Y57073D02*
D03*
X121309Y54273D02*
D03*
X100770Y59298D02*
D03*
X100770Y62098D02*
D03*
X101659Y56623D02*
D03*
Y53823D02*
D03*
X99059Y56623D02*
D03*
Y53823D02*
D03*
X96181Y55285D02*
D03*
X96181Y52485D02*
D03*
X118946Y57148D02*
D03*
X118946Y59948D02*
D03*
X104133Y19042D02*
D03*
X154881Y98938D02*
D03*
Y96138D02*
D03*
X157671Y98953D02*
D03*
Y96153D02*
D03*
X157678Y101547D02*
D03*
Y104347D02*
D03*
X138971Y80853D02*
D03*
Y78053D02*
D03*
X157671Y88153D02*
D03*
X157671Y85353D02*
D03*
X157678Y90747D02*
D03*
Y93547D02*
D03*
X106643Y98686D02*
D03*
Y101486D02*
D03*
X170810Y80083D02*
D03*
Y82883D02*
D03*
X174981Y18138D02*
D03*
Y20938D02*
D03*
X128453Y43163D02*
D03*
Y40363D02*
D03*
X155892Y3597D02*
D03*
Y6397D02*
D03*
X101032Y21842D02*
D03*
Y19042D02*
D03*
X168210Y82883D02*
D03*
Y80083D02*
D03*
X176018Y82870D02*
D03*
X176018Y80070D02*
D03*
X154874Y101550D02*
D03*
Y104350D02*
D03*
X137768Y85962D02*
D03*
X137768Y83162D02*
D03*
X170667Y106526D02*
D03*
X154881Y88138D02*
D03*
Y85338D02*
D03*
X173411Y80083D02*
D03*
Y82883D02*
D03*
X154868Y90762D02*
D03*
Y93562D02*
D03*
X140568Y83162D02*
D03*
Y85962D02*
D03*
X170667Y103726D02*
D03*
X152421Y94177D02*
D03*
X152421Y96977D02*
D03*
X126562Y57137D02*
D03*
Y54337D02*
D03*
X104133Y21842D02*
D03*
D67*
X14094Y51870D02*
D03*
X11894Y52820D02*
D03*
Y50920D02*
D03*
X76402Y42652D02*
D03*
X78602Y41702D02*
D03*
Y43602D02*
D03*
X93822Y23253D02*
D03*
Y25153D02*
D03*
X96022Y24203D02*
D03*
X173422Y105425D02*
D03*
X173422Y107325D02*
D03*
X175622Y106375D02*
D03*
D68*
X81275Y38300D02*
D03*
Y36400D02*
D03*
X79125D02*
D03*
Y37350D02*
D03*
X141633Y107150D02*
D03*
Y108100D02*
D03*
Y109050D02*
D03*
X139483D02*
D03*
D69*
X79125Y38300D02*
D03*
X139483Y107150D02*
D03*
D70*
X13452Y105698D02*
D03*
X12502Y107898D02*
D03*
X11552Y105698D02*
D03*
D71*
X24880Y78595D02*
D03*
Y79865D02*
D03*
Y81135D02*
D03*
Y82405D02*
D03*
Y83675D02*
D03*
Y86215D02*
D03*
X15630Y78595D02*
D03*
Y79865D02*
D03*
Y81135D02*
D03*
Y82405D02*
D03*
Y83675D02*
D03*
Y86215D02*
D03*
X24880Y77325D02*
D03*
X15630D02*
D03*
X24880Y84945D02*
D03*
D72*
X15630Y84946D02*
D03*
D73*
X33380Y76900D02*
D03*
Y77700D02*
D03*
Y78500D02*
D03*
Y79300D02*
D03*
X33360Y80100D02*
D03*
D74*
X33380Y74050D02*
D03*
X38653D02*
D03*
X33380Y82950D02*
D03*
X38653D02*
D03*
D75*
X29261Y64448D02*
D03*
Y65098D02*
D03*
Y65748D02*
D03*
Y66398D02*
D03*
Y67048D02*
D03*
Y67698D02*
D03*
Y68348D02*
D03*
Y68998D02*
D03*
Y69648D02*
D03*
Y70298D02*
D03*
Y70948D02*
D03*
Y71598D02*
D03*
Y72248D02*
D03*
Y72898D02*
D03*
X22461Y64448D02*
D03*
Y65098D02*
D03*
Y65748D02*
D03*
Y66398D02*
D03*
Y67048D02*
D03*
Y67698D02*
D03*
Y68348D02*
D03*
Y68998D02*
D03*
Y69648D02*
D03*
Y70298D02*
D03*
Y70948D02*
D03*
Y71598D02*
D03*
Y72248D02*
D03*
D76*
X22461Y72898D02*
D03*
D77*
X28807Y90223D02*
D03*
Y92723D02*
D03*
X19807D02*
D03*
X19807Y90223D02*
D03*
D78*
X108477Y9627D02*
D03*
Y8977D02*
D03*
Y8327D02*
D03*
Y7677D02*
D03*
Y7027D02*
D03*
Y6377D02*
D03*
Y5727D02*
D03*
Y5077D02*
D03*
X114027Y9627D02*
D03*
Y8977D02*
D03*
Y8327D02*
D03*
Y7677D02*
D03*
Y7027D02*
D03*
Y6377D02*
D03*
Y5727D02*
D03*
Y5077D02*
D03*
D79*
X107377Y31709D02*
D03*
X108027D02*
D03*
X108677D02*
D03*
X109327D02*
D03*
X109977D02*
D03*
X110627D02*
D03*
X111277D02*
D03*
X112577D02*
D03*
X113227D02*
D03*
X107377Y37409D02*
D03*
X108027D02*
D03*
X108677D02*
D03*
X109327D02*
D03*
X109977D02*
D03*
X110627D02*
D03*
X111277D02*
D03*
X111927D02*
D03*
X112577D02*
D03*
X113227D02*
D03*
X111927Y31709D02*
D03*
D80*
X99474Y44259D02*
D03*
X94474D02*
D03*
X94474Y40259D02*
D03*
X99474Y40259D02*
D03*
D81*
X136609Y89425D02*
D03*
X140419Y98675D02*
D03*
X132799D02*
D03*
X134069Y98675D02*
D03*
X131529Y89425D02*
D03*
D82*
X139999Y59605D02*
D03*
X139954Y29948D02*
D03*
X139999Y60875D02*
D03*
X145804Y26138D02*
D03*
X145804Y24868D02*
D03*
X139999Y58335D02*
D03*
Y54525D02*
D03*
X145849Y55795D02*
D03*
X139999Y57065D02*
D03*
Y55795D02*
D03*
Y62145D02*
D03*
D83*
X93319Y95200D02*
D03*
X95859D02*
D03*
X97129D02*
D03*
X93319Y100900D02*
D03*
X94589D02*
D03*
X97129D02*
D03*
X94589Y95200D02*
D03*
X95859Y100900D02*
D03*
D84*
X160433Y43206D02*
D03*
X162333D02*
D03*
X160433Y46607D02*
D03*
X162333D02*
D03*
Y33345D02*
D03*
X160433D02*
D03*
X162333Y36645D02*
D03*
X160433D02*
D03*
X162333Y39945D02*
D03*
X160433D02*
D03*
D85*
X139954Y31218D02*
D03*
Y23598D02*
D03*
Y28678D02*
D03*
Y27408D02*
D03*
Y26138D02*
D03*
X145804Y32488D02*
D03*
Y31218D02*
D03*
Y29948D02*
D03*
X139954Y24868D02*
D03*
X145804Y23598D02*
D03*
Y28678D02*
D03*
Y27408D02*
D03*
X139999Y53255D02*
D03*
X145849Y62145D02*
D03*
Y60875D02*
D03*
Y59605D02*
D03*
Y58335D02*
D03*
Y57065D02*
D03*
Y54525D02*
D03*
Y53255D02*
D03*
X139954Y32488D02*
D03*
D86*
X163336Y64800D02*
D03*
Y66070D02*
D03*
Y68610D02*
D03*
X158136Y64800D02*
D03*
Y66070D02*
D03*
Y67340D02*
D03*
Y68610D02*
D03*
X163324Y70295D02*
D03*
Y71565D02*
D03*
Y72835D02*
D03*
Y74105D02*
D03*
X158124Y70295D02*
D03*
Y71565D02*
D03*
Y72835D02*
D03*
Y74105D02*
D03*
X163324Y75695D02*
D03*
Y76965D02*
D03*
Y78235D02*
D03*
Y79505D02*
D03*
X158124Y75695D02*
D03*
Y76965D02*
D03*
Y78235D02*
D03*
Y79505D02*
D03*
D87*
X163336Y67340D02*
D03*
D88*
X151574Y84945D02*
D03*
X146385Y100748D02*
D03*
Y102018D02*
D03*
Y103288D02*
D03*
X151585Y100748D02*
D03*
D89*
X146374Y88755D02*
D03*
Y87485D02*
D03*
Y86215D02*
D03*
Y84945D02*
D03*
X151574Y88755D02*
D03*
Y87485D02*
D03*
Y86215D02*
D03*
X151585Y102018D02*
D03*
Y103288D02*
D03*
Y104558D02*
D03*
X146385D02*
D03*
D90*
X139149Y98675D02*
D03*
X137879D02*
D03*
X131529D02*
D03*
X140419Y89425D02*
D03*
X139149D02*
D03*
X137879D02*
D03*
X134069D02*
D03*
X132799D02*
D03*
X136609Y98675D02*
D03*
X135339D02*
D03*
Y89425D02*
D03*
D91*
X124905Y39855D02*
D03*
Y43665D02*
D03*
X119205Y42395D02*
D03*
Y43665D02*
D03*
D92*
X124905Y41125D02*
D03*
Y42395D02*
D03*
X119205Y41125D02*
D03*
Y39855D02*
D03*
D93*
X29518Y36366D02*
D03*
X32058D02*
D03*
X29518Y33826D02*
D03*
X32058D02*
D03*
X29518Y31286D02*
D03*
X32058D02*
D03*
X29518Y28746D02*
D03*
X32058D02*
D03*
X29518Y26206D02*
D03*
X78809Y55101D02*
D03*
X72809Y55101D02*
D03*
Y50101D02*
D03*
X35590Y106300D02*
D03*
X22890Y106300D02*
D03*
X22890Y108840D02*
D03*
X25430Y106300D02*
D03*
Y108840D02*
D03*
X27970Y106300D02*
D03*
X27970Y108840D02*
D03*
X30510Y106300D02*
D03*
Y108840D02*
D03*
X33050Y106300D02*
D03*
Y108840D02*
D03*
X35590D02*
D03*
X38130Y106300D02*
D03*
Y108840D02*
D03*
X40670Y106300D02*
D03*
Y108840D02*
D03*
X43210Y106300D02*
D03*
Y108840D02*
D03*
X20350D02*
D03*
X5522Y39018D02*
D03*
X4002Y36508D02*
D03*
X5522Y28938D02*
D03*
X4002Y26398D02*
D03*
X17802Y37153D02*
D03*
Y34613D02*
D03*
X15252Y33343D02*
D03*
X17802Y32073D02*
D03*
X15252Y30803D02*
D03*
X17802Y29533D02*
D03*
X15252Y35883D02*
D03*
X84321Y54742D02*
D03*
Y52202D02*
D03*
X141481Y3960D02*
D03*
X146561Y3960D02*
D03*
X144021Y6500D02*
D03*
X144021Y3960D02*
D03*
X141481Y6500D02*
D03*
X138941D02*
D03*
X138941Y3960D02*
D03*
X136401Y6500D02*
D03*
Y3960D02*
D03*
X174814Y46630D02*
D03*
X107051Y39968D02*
D03*
X107051Y44968D02*
D03*
X120054Y6909D02*
D03*
X120054Y11909D02*
D03*
X174814Y49170D02*
D03*
X172274D02*
D03*
X172275Y51710D02*
D03*
X172274Y33930D02*
D03*
X172274Y64410D02*
D03*
X174814Y61870D02*
D03*
X172274Y61870D02*
D03*
X174814Y59330D02*
D03*
X172274D02*
D03*
X174814Y56790D02*
D03*
X172274D02*
D03*
X174814Y54250D02*
D03*
X172274Y54250D02*
D03*
X174814Y69490D02*
D03*
X172274Y69490D02*
D03*
X174814Y66950D02*
D03*
X172274D02*
D03*
X174814Y44090D02*
D03*
Y51710D02*
D03*
Y64410D02*
D03*
X172274Y39010D02*
D03*
X121334Y108840D02*
D03*
X116254D02*
D03*
X113714D02*
D03*
X113714Y106300D02*
D03*
X111174Y108840D02*
D03*
X126414Y106300D02*
D03*
X131494D02*
D03*
X118794Y108840D02*
D03*
X126075Y81942D02*
D03*
Y76942D02*
D03*
X134274Y80858D02*
D03*
Y85858D02*
D03*
X116254Y106300D02*
D03*
X118794D02*
D03*
X121334Y106300D02*
D03*
X123874Y106300D02*
D03*
X128954Y106300D02*
D03*
Y108840D02*
D03*
X131494D02*
D03*
X134034Y106300D02*
D03*
Y108840D02*
D03*
X123874Y108840D02*
D03*
X126414D02*
D03*
X133861Y6500D02*
D03*
X131321D02*
D03*
Y3960D02*
D03*
X133861D02*
D03*
X120441Y26307D02*
D03*
X122981Y28847D02*
D03*
X120441D02*
D03*
X122981Y31387D02*
D03*
X120441D02*
D03*
X122981Y33927D02*
D03*
X120441D02*
D03*
X122981Y36467D02*
D03*
X120441D02*
D03*
X89950Y105200D02*
D03*
Y103200D02*
D03*
X89950Y6750D02*
D03*
Y8750D02*
D03*
X38150Y95050D02*
D03*
X36150D02*
D03*
X38150Y61800D02*
D03*
X36150D02*
D03*
X89924Y8800D02*
D03*
Y6800D02*
D03*
X89874Y103250D02*
D03*
Y105250D02*
D03*
X89950Y8751D02*
D03*
Y6751D02*
D03*
X89950Y103201D02*
D03*
Y105201D02*
D03*
D94*
X32058Y26206D02*
D03*
X78809Y50101D02*
D03*
X20350Y106300D02*
D03*
X16500Y64200D02*
D03*
X14000D02*
D03*
X16500Y66700D02*
D03*
X14000D02*
D03*
X16500Y90200D02*
D03*
X14000D02*
D03*
X16500Y92700D02*
D03*
X14000D02*
D03*
X15252Y28263D02*
D03*
X84321Y49662D02*
D03*
X146561Y6500D02*
D03*
X172274Y28850D02*
D03*
X111174Y106300D02*
D03*
X94322Y19000D02*
D03*
Y16500D02*
D03*
X96822Y19000D02*
D03*
Y16500D02*
D03*
X120322Y19000D02*
D03*
Y16500D02*
D03*
X122822Y19000D02*
D03*
Y16500D02*
D03*
X122981Y26307D02*
D03*
D95*
X19185Y51935D02*
D03*
X173886Y12142D02*
D03*
D96*
X16685Y51935D02*
D03*
X176386Y12142D02*
D03*
X164180Y94540D02*
D03*
X174180D02*
D03*
X176680Y102040D02*
D03*
X161680D02*
D03*
X164180Y85240D02*
D03*
X174180D02*
D03*
X176680Y92740D02*
D03*
X161680D02*
D03*
D97*
X35433Y100131D02*
D03*
X27813D02*
D03*
X55753D02*
D03*
X53213D02*
D03*
X50673D02*
D03*
X48133D02*
D03*
X45593D02*
D03*
X43053D02*
D03*
X40513D02*
D03*
X37973D02*
D03*
X32893D02*
D03*
X20193D02*
D03*
X17653D02*
D03*
X25273D02*
D03*
X22733D02*
D03*
X58293D02*
D03*
X15113D02*
D03*
X30353D02*
D03*
X60833D02*
D03*
D98*
X12573D02*
D03*
D99*
X59980Y11500D02*
D03*
X59900Y24000D02*
D03*
X54900D02*
D03*
X74050Y25800D02*
D03*
X73970Y38300D02*
D03*
X68970Y38300D02*
D03*
X51150Y34400D02*
D03*
X63650Y34480D02*
D03*
X51150Y29400D02*
D03*
X45780Y25700D02*
D03*
X45700Y38200D02*
D03*
X40700D02*
D03*
X63600Y48830D02*
D03*
X51100Y48750D02*
D03*
Y43750D02*
D03*
D100*
X54900Y11500D02*
D03*
X68970Y25800D02*
D03*
X63650Y29400D02*
D03*
X40700Y25700D02*
D03*
X63600Y43750D02*
D03*
D101*
X35960Y80700D02*
D03*
Y76300D02*
D03*
X1675Y101425D02*
D03*
X1925Y47000D02*
D03*
X24000Y39200D02*
D03*
X25400Y28750D02*
D03*
X22500D02*
D03*
X26400Y41400D02*
D03*
X5325Y44125D02*
D03*
X26700Y43700D02*
D03*
X4002Y42627D02*
D03*
X26557Y34809D02*
D03*
X18555Y23256D02*
D03*
X17904Y82371D02*
D03*
X19255Y88122D02*
D03*
X17954Y79870D02*
D03*
X15854Y87322D02*
D03*
X17904Y78120D02*
D03*
X15004Y76269D02*
D03*
X38109Y71518D02*
D03*
X33358Y76269D02*
D03*
X32908Y71618D02*
D03*
X27557Y68367D02*
D03*
X31097Y66317D02*
D03*
X27607Y71218D02*
D03*
X24356Y68467D02*
D03*
X24456Y70268D02*
D03*
X27207Y83621D02*
D03*
X27057Y90223D02*
D03*
X28857Y84971D02*
D03*
X31258Y75119D02*
D03*
X35975Y78850D02*
D03*
X132557Y28557D02*
D03*
X126756Y18955D02*
D03*
X130507Y17304D02*
D03*
X129207Y45800D02*
D03*
X143560Y27657D02*
D03*
X125282Y30208D02*
D03*
X92597Y86972D02*
D03*
X105000Y8002D02*
D03*
X104526Y27957D02*
D03*
X93598Y27957D02*
D03*
X93297Y85071D02*
D03*
X94898Y29407D02*
D03*
X103350Y9202D02*
D03*
X103300Y29457D02*
D03*
X93748Y83571D02*
D03*
X93798Y36359D02*
D03*
X105751Y36459D02*
D03*
X105801Y6752D02*
D03*
X105601Y30758D02*
D03*
X94398Y81720D02*
D03*
X94348Y65616D02*
D03*
X95248Y66767D02*
D03*
X95598Y68267D02*
D03*
X97198Y67767D02*
D03*
X97098Y69817D02*
D03*
X98499Y69317D02*
D03*
X121155Y68417D02*
D03*
D102*
X11902Y24808D02*
D03*
Y40608D02*
D03*
D103*
X8902Y38408D02*
D03*
Y27008D02*
D03*
X83900Y62650D02*
D03*
X82400Y98600D02*
D03*
X4950Y62650D02*
D03*
X6500Y98600D02*
D03*
D104*
X6000Y106700D02*
D03*
X6000Y4700D02*
D03*
X74000Y4700D02*
D03*
X74000Y106700D02*
D03*
X164824Y106700D02*
D03*
X164824Y4700D02*
D03*
X96824D02*
D03*
X96824Y106700D02*
D03*
D105*
X172274Y46630D02*
D03*
X174814Y28850D02*
D03*
X172274Y31390D02*
D03*
X174814D02*
D03*
Y33930D02*
D03*
X172274Y36470D02*
D03*
X174814D02*
D03*
Y39010D02*
D03*
X172274Y41550D02*
D03*
X174814D02*
D03*
X172274Y44090D02*
D03*
D106*
X115797Y26244D02*
D03*
X100797Y26244D02*
D03*
D107*
X123074Y76747D02*
D03*
Y74247D02*
D03*
D108*
X98875Y88150D02*
D03*
X99971Y89171D02*
D03*
X97825Y87121D02*
D03*
X128682Y3850D02*
D03*
X133771Y9151D02*
D03*
X135671Y9201D02*
D03*
X130033Y9301D02*
D03*
X83050Y89923D02*
D03*
X83021Y84900D02*
D03*
Y79900D02*
D03*
Y74800D02*
D03*
Y69767D02*
D03*
X2786Y56414D02*
D03*
X4001Y48462D02*
D03*
X86250Y57764D02*
D03*
X8002Y92900D02*
D03*
X5501Y90473D02*
D03*
X68017Y52913D02*
D03*
X70518Y50463D02*
D03*
X83021Y94800D02*
D03*
X75519Y99025D02*
D03*
X70518D02*
D03*
X66017Y99900D02*
D03*
X63166Y102300D02*
D03*
X60350Y104726D02*
D03*
X56214Y102800D02*
D03*
X53550Y104876D02*
D03*
X60465Y110500D02*
D03*
X65216Y110400D02*
D03*
X67667Y108500D02*
D03*
X69967Y110428D02*
D03*
X83021Y105426D02*
D03*
X85471Y107977D02*
D03*
X83021Y110428D02*
D03*
X80470Y107977D02*
D03*
X78020Y110428D02*
D03*
X11903Y103226D02*
D03*
X16904Y104300D02*
D03*
X8002Y62966D02*
D03*
X63016Y57964D02*
D03*
X60450Y56614D02*
D03*
X58014Y57900D02*
D03*
X55514Y56664D02*
D03*
X53013Y57964D02*
D03*
X50450Y56614D02*
D03*
X48062Y57900D02*
D03*
X45511Y56764D02*
D03*
X43011Y57964D02*
D03*
X40510Y56700D02*
D03*
X38009Y57964D02*
D03*
X35509Y55400D02*
D03*
X33008Y57964D02*
D03*
X30550Y55414D02*
D03*
X28007Y57900D02*
D03*
X25506Y55500D02*
D03*
X23006Y57964D02*
D03*
X20450Y55464D02*
D03*
X18004Y57964D02*
D03*
X15504Y55464D02*
D03*
X5451Y50463D02*
D03*
X8102Y58665D02*
D03*
X80720Y55614D02*
D03*
X81750Y56650D02*
D03*
X41750Y54000D02*
D03*
Y42650D02*
D03*
X79125Y39900D02*
D03*
X84300Y43550D02*
D03*
X81150Y34750D02*
D03*
X87000Y30950D02*
D03*
X58293Y107900D02*
D03*
X68350Y42900D02*
D03*
X68400Y47900D02*
D03*
X87200Y48950D02*
D03*
X58250Y110300D02*
D03*
X2750Y95600D02*
D03*
X50450Y106200D02*
D03*
X48150Y107850D02*
D03*
X2250Y48950D02*
D03*
X3150Y101100D02*
D03*
X31750Y103450D02*
D03*
X34250Y102650D02*
D03*
X21600Y110500D02*
D03*
X53150Y45800D02*
D03*
X53450Y34400D02*
D03*
X61050Y52000D02*
D03*
X73050Y40400D02*
D03*
X46850Y40850D02*
D03*
X80570Y48862D02*
D03*
X9752Y110578D02*
D03*
X114879Y11250D02*
D03*
X108727Y11752D02*
D03*
X137309Y38610D02*
D03*
X126656Y40760D02*
D03*
X127806Y49062D02*
D03*
X126706Y42761D02*
D03*
Y50363D02*
D03*
X132207Y51313D02*
D03*
X148162Y52263D02*
D03*
X136058Y52563D02*
D03*
X142874Y52713D02*
D03*
X158414Y51963D02*
D03*
X152362D02*
D03*
X123155Y88172D02*
D03*
X116853Y37509D02*
D03*
X116903Y43661D02*
D03*
X113603Y63766D02*
D03*
X103390Y55148D02*
D03*
X103027Y51698D02*
D03*
X103577Y53249D02*
D03*
X102602Y62185D02*
D03*
X123824Y65050D02*
D03*
X103152Y60685D02*
D03*
X97776Y59650D02*
D03*
X98776Y48498D02*
D03*
X113728Y51247D02*
D03*
X111952Y63785D02*
D03*
X99676Y64101D02*
D03*
X136408Y95824D02*
D03*
X141460Y102276D02*
D03*
X138309Y102226D02*
D03*
X131357Y32908D02*
D03*
X136508Y30908D02*
D03*
X132583Y36108D02*
D03*
X135724Y57764D02*
D03*
X136558Y32708D02*
D03*
X151662Y91623D02*
D03*
X145311Y93357D02*
D03*
X144260Y91273D02*
D03*
X143410Y97324D02*
D03*
X133258Y96174D02*
D03*
X102300Y97124D02*
D03*
X93348Y97024D02*
D03*
X156663Y17550D02*
D03*
Y23950D02*
D03*
X116024Y86922D02*
D03*
X143960Y10653D02*
D03*
X126605Y89321D02*
D03*
X126705Y90672D02*
D03*
X156663Y27057D02*
D03*
X136074Y68650D02*
D03*
X136574Y79000D02*
D03*
X134924Y76450D02*
D03*
X125824Y79150D02*
D03*
X123524Y83550D02*
D03*
X103452Y65785D02*
D03*
X147724Y31600D02*
D03*
X159924Y86550D02*
D03*
X141760Y31358D02*
D03*
X142474Y75500D02*
D03*
X130274Y5300D02*
D03*
X100724Y78850D02*
D03*
X132374Y57200D02*
D03*
X113202Y57135D02*
D03*
X109352Y59135D02*
D03*
X107352Y56835D02*
D03*
X108451Y79920D02*
D03*
X114524Y81200D02*
D03*
X113024Y90450D02*
D03*
X109674Y92400D02*
D03*
X104800Y86150D02*
D03*
X105274Y82650D02*
D03*
X132574Y10750D02*
D03*
X134824Y17750D02*
D03*
X148124D02*
D03*
Y28500D02*
D03*
X135574Y21900D02*
D03*
X140324Y96600D02*
D03*
X164368Y43243D02*
D03*
X164374Y39950D02*
D03*
X164368Y36643D02*
D03*
X164115Y33308D02*
D03*
X164274Y46600D02*
D03*
X143710Y85271D02*
D03*
X132624Y101876D02*
D03*
X153513Y36650D02*
D03*
X138259Y53213D02*
D03*
X141724Y47000D02*
D03*
X141810Y24656D02*
D03*
X156663Y14253D02*
D03*
Y20743D02*
D03*
X137824Y48200D02*
D03*
X152012Y90023D02*
D03*
X153063Y105727D02*
D03*
X148474Y84050D02*
D03*
X142724Y20800D02*
D03*
X142110Y28457D02*
D03*
X141710Y26206D02*
D03*
X139924Y19250D02*
D03*
X141424Y15950D02*
D03*
X159474Y101550D02*
D03*
X154874Y68000D02*
D03*
X153513Y39950D02*
D03*
X142874Y41650D02*
D03*
X142510Y29957D02*
D03*
X153513Y46559D02*
D03*
Y43250D02*
D03*
X139024Y44850D02*
D03*
X138159Y28657D02*
D03*
X154874Y65272D02*
D03*
Y73593D02*
D03*
X174574Y78100D02*
D03*
X171024Y78119D02*
D03*
X170824Y92750D02*
D03*
X172374Y91550D02*
D03*
X159674Y90950D02*
D03*
X154874Y70793D02*
D03*
Y78800D02*
D03*
Y76250D02*
D03*
X153513Y33357D02*
D03*
X144824Y35050D02*
D03*
X144660Y22255D02*
D03*
X144774Y38250D02*
D03*
X137335Y23655D02*
D03*
X141610Y91873D02*
D03*
X122624Y100000D02*
D03*
X117724D02*
D03*
X123524Y98950D02*
D03*
X118324Y98800D02*
D03*
X123524Y96550D02*
D03*
X117752Y96423D02*
D03*
X118603Y95423D02*
D03*
X124974Y94350D02*
D03*
X117752Y94373D02*
D03*
X123904Y93172D02*
D03*
X116952Y93372D02*
D03*
X114774Y102150D02*
D03*
X113403Y102176D02*
D03*
X111951Y102375D02*
D03*
X130724Y80550D02*
D03*
X130074Y90200D02*
D03*
X136674Y105600D02*
D03*
X122254Y91122D02*
D03*
X129124Y91300D02*
D03*
X130574Y79150D02*
D03*
X131957Y69817D02*
D03*
X146774Y76350D02*
D03*
X143924Y73700D02*
D03*
X133924Y65000D02*
D03*
X136074Y66700D02*
D03*
X134074Y66950D02*
D03*
X120252Y50335D02*
D03*
X95425Y50448D02*
D03*
X121602Y50335D02*
D03*
X95425Y48998D02*
D03*
X122952Y50285D02*
D03*
X96825Y48948D02*
D03*
X101374Y74150D02*
D03*
X102174Y75200D02*
D03*
X101374Y76250D02*
D03*
X122174Y67300D02*
D03*
X102174Y77350D02*
D03*
X107451Y63766D02*
D03*
X102174Y79150D02*
D03*
X112324Y98750D02*
D03*
X128474Y100050D02*
D03*
X128624Y79550D02*
D03*
X123874Y95200D02*
D03*
X112724Y97350D02*
D03*
X127824Y98800D02*
D03*
X128574Y78150D02*
D03*
X92647Y102776D02*
D03*
X93848Y90873D02*
D03*
X92574Y90050D02*
D03*
X145261Y98625D02*
D03*
X152274Y98950D02*
D03*
X143074Y78700D02*
D03*
X144274Y110600D02*
D03*
X145261Y95874D02*
D03*
X143724Y100850D02*
D03*
X124374Y89950D02*
D03*
X169324Y87650D02*
D03*
X131324Y87050D02*
D03*
X132374Y80600D02*
D03*
X134024Y68850D02*
D03*
X140009Y33808D02*
D03*
X140609Y63216D02*
D03*
X127932Y72917D02*
D03*
X124624Y54350D02*
D03*
X106874Y96900D02*
D03*
X142674Y90850D02*
D03*
X144024Y77450D02*
D03*
X138309Y59915D02*
D03*
X129274Y58450D02*
D03*
X143760Y46061D02*
D03*
X110601Y102075D02*
D03*
X134058Y100775D02*
D03*
X100399Y98125D02*
D03*
X135608Y102726D02*
D03*
X99199Y100150D02*
D03*
X94698Y98875D02*
D03*
X96124Y99224D02*
D03*
X130557Y101926D02*
D03*
X98149Y99150D02*
D03*
X135258Y94724D02*
D03*
X113102Y96024D02*
D03*
X147711Y78920D02*
D03*
X145674Y78900D02*
D03*
X94998Y80320D02*
D03*
X96448Y79720D02*
D03*
X96298Y78270D02*
D03*
X96948Y76969D02*
D03*
X98499Y77369D02*
D03*
X110252Y50463D02*
D03*
X123105Y66317D02*
D03*
X125156Y64966D02*
D03*
X110502Y73518D02*
D03*
X114853Y65216D02*
D03*
X98099Y75419D02*
D03*
X94498Y38260D02*
D03*
X95598Y64566D02*
D03*
X105551D02*
D03*
X116003Y64516D02*
D03*
X102450Y64966D02*
D03*
X104750Y70118D02*
D03*
X99049Y74469D02*
D03*
X99199Y73068D02*
D03*
X101149Y71768D02*
D03*
X104950Y73268D02*
D03*
Y71968D02*
D03*
X102350Y71268D02*
D03*
X102950Y70118D02*
D03*
X158314Y62422D02*
D03*
X143010Y72518D02*
D03*
X144910Y72668D02*
D03*
X143910Y69417D02*
D03*
X144910Y68217D02*
D03*
X145911Y67117D02*
D03*
X146811Y66117D02*
D03*
X143924Y64866D02*
D03*
X152362Y62422D02*
D03*
X141910Y63716D02*
D03*
X141860Y58265D02*
D03*
X158364Y59915D02*
D03*
Y57264D02*
D03*
Y54664D02*
D03*
X152362Y59915D02*
D03*
Y54664D02*
D03*
Y57264D02*
D03*
X142935Y60875D02*
D03*
X142910Y55814D02*
D03*
X141724Y54499D02*
D03*
X115979Y36158D02*
D03*
X115879Y39859D02*
D03*
X99275Y24005D02*
D03*
X99625Y38108D02*
D03*
Y32907D02*
D03*
X111078Y16503D02*
D03*
X111178Y22655D02*
D03*
X111228Y9601D02*
D03*
X135934Y20381D02*
D03*
X97825Y21854D02*
D03*
X97124Y27356D02*
D03*
X125582Y20254D02*
D03*
X140835Y72017D02*
D03*
X128032Y74518D02*
D03*
X130533Y68266D02*
D03*
X126932Y68566D02*
D03*
X128482Y34808D02*
D03*
X131833Y67916D02*
D03*
X126682Y70016D02*
D03*
X128282Y33407D02*
D03*
X114779Y32957D02*
D03*
X114079Y13102D02*
D03*
X112778Y18053D02*
D03*
X112678Y20404D02*
D03*
X129683Y20704D02*
D03*
X115779Y13652D02*
D03*
X146537Y12952D02*
D03*
X150638Y3950D02*
D03*
X156940Y12052D02*
D03*
X157440Y6500D02*
D03*
X97149Y98200D02*
D03*
X132583Y15403D02*
D03*
X112878Y29906D02*
D03*
X121071Y9401D02*
D03*
X126532D02*
D03*
X117771Y18804D02*
D03*
X124331Y24705D02*
D03*
X125282Y26007D02*
D03*
X101826Y31250D02*
D03*
X102172Y38358D02*
D03*
X114329Y44710D02*
D03*
Y39709D02*
D03*
X106827Y42350D02*
D03*
X102172Y47011D02*
D03*
X99325Y51450D02*
D03*
X115572Y73767D02*
D03*
X118830Y76850D02*
D03*
X120971Y74468D02*
D03*
X96824Y84650D02*
D03*
X101326Y92450D02*
D03*
X103972Y96623D02*
D03*
X94524Y87921D02*
D03*
X96824Y90450D02*
D03*
X101826Y109726D02*
D03*
X106827Y109676D02*
D03*
X101876Y104725D02*
D03*
X106772D02*
D03*
X104326Y107226D02*
D03*
X102172Y101374D02*
D03*
X142436Y103825D02*
D03*
X137035Y103675D02*
D03*
X143336Y108050D02*
D03*
X133234Y92450D02*
D03*
X131533Y95750D02*
D03*
X161841Y82220D02*
D03*
X166142D02*
D03*
X146837Y80319D02*
D03*
X161841Y89221D02*
D03*
X166171D02*
D03*
X159490Y83520D02*
D03*
X159840Y93672D02*
D03*
X159771Y98074D02*
D03*
X153039Y92372D02*
D03*
X165371Y96623D02*
D03*
X167842Y98724D02*
D03*
X172293Y93522D02*
D03*
X172944Y96450D02*
D03*
X170643Y99124D02*
D03*
X160071Y103725D02*
D03*
X146837Y109676D02*
D03*
X151838D02*
D03*
X156840Y109726D02*
D03*
X160671Y110227D02*
D03*
X169693Y110250D02*
D03*
X168292Y102250D02*
D03*
X177771Y109826D02*
D03*
X177495Y103975D02*
D03*
X172844Y103175D02*
D03*
X175044Y88050D02*
D03*
X177495Y91150D02*
D03*
X167771Y74518D02*
D03*
X169693Y69616D02*
D03*
X161271Y76218D02*
D03*
Y70817D02*
D03*
Y65315D02*
D03*
X165392Y57863D02*
D03*
X165042Y53150D02*
D03*
X167742D02*
D03*
X177595Y69650D02*
D03*
Y59714D02*
D03*
Y49711D02*
D03*
X177445Y39050D02*
D03*
X166842Y47661D02*
D03*
X166392Y43510D02*
D03*
X177471Y28956D02*
D03*
X149338Y30106D02*
D03*
X149588Y26950D02*
D03*
X146587Y22150D02*
D03*
X149888Y23850D02*
D03*
X149938Y17503D02*
D03*
X135434Y15750D02*
D03*
X139471Y16403D02*
D03*
X149338Y13702D02*
D03*
X146371Y9801D02*
D03*
X137771Y12502D02*
D03*
X139435Y8801D02*
D03*
X133871Y12102D02*
D03*
X128871Y19104D02*
D03*
X129271Y16203D02*
D03*
X169371Y2199D02*
D03*
X169343Y7201D02*
D03*
X160290Y2199D02*
D03*
X160271Y7251D02*
D03*
X171843Y4700D02*
D03*
X174344Y2199D02*
D03*
X176845Y4700D02*
D03*
X176871Y9701D02*
D03*
X171843D02*
D03*
X166842D02*
D03*
X157971Y4700D02*
D03*
X152438Y4650D02*
D03*
X176845Y14703D02*
D03*
X168693Y13750D02*
D03*
X171843Y16803D02*
D03*
X145271Y1999D02*
D03*
X116529Y2199D02*
D03*
X106027D02*
D03*
X103572Y4700D02*
D03*
X101472Y2199D02*
D03*
X111128Y2950D02*
D03*
Y8001D02*
D03*
X108472Y17803D02*
D03*
X100775Y8901D02*
D03*
X93123D02*
D03*
X93173Y13850D02*
D03*
X96774Y11650D02*
D03*
X93374Y21350D02*
D03*
X108272Y21754D02*
D03*
X115729Y51550D02*
D03*
X120430Y52312D02*
D03*
X118980Y62050D02*
D03*
X122531Y59314D02*
D03*
X126682Y59464D02*
D03*
X138735Y20550D02*
D03*
X145937Y36650D02*
D03*
X150038Y20504D02*
D03*
X145737Y90750D02*
D03*
X140585Y93050D02*
D03*
X145971Y46110D02*
D03*
X145887Y63315D02*
D03*
X173971Y16704D02*
D03*
X106477Y47612D02*
D03*
X120130Y46112D02*
D03*
X118680Y48062D02*
D03*
X119030Y27550D02*
D03*
X117630Y14954D02*
D03*
X118130Y31358D02*
D03*
X107327Y25650D02*
D03*
X106127Y26450D02*
D03*
X116671Y28507D02*
D03*
X117430Y47162D02*
D03*
X108027Y47612D02*
D03*
X115479Y30058D02*
D03*
X163871Y17804D02*
D03*
X170543Y15450D02*
D03*
D109*
X26657Y73018D02*
D03*
X26997Y78770D02*
D03*
M02*
