METRIC,LZ
M48
T1F00S00C0.600
T2F00S00C0.700
T3F00S00C0.711
T4F00S00C0.850
T5F00S00C0.900
T6F00S00C0.950
T7F00S00C1.000
T8F00S00C1.200
T9F00S00C1.300
T10F00S00C1.800
T11F00S00C2.500
T12F00S00C3.500
%
T01
X0101472Y0002199
X0106027
X0103572Y00047
X0111128Y000295
X0116529Y0002199
X0128682Y000385
X0130274Y00053
X0145271Y0001999
X0150638Y000395
X0152438Y000465
X0157971Y00047
X015744Y00065
X0160271Y0007251
X016029Y0002199
X0169371
X0174344
X0176845Y00047
X0171843
X0169343Y0007201
X0166842Y0009701
X0171843
X0176871
X0176845Y0014703
X0173971Y0016704
X0171843Y0016803
X0170543Y001545
X0168693Y001375
X0163871Y0017804
X0156663Y001755
Y0020743
Y002395
Y0027057
Y0014253
X015694Y0012052
X0164115Y0033308
X0164368Y0036643
X0164374Y003995
X0164368Y0043243
X0166392Y004351
X0164274Y00466
X0177445Y003905
X0177471Y0028956
X0153513Y0033357
Y003665
Y003995
Y004325
Y0046559
X0145971Y004611
X014376Y0046061
X0141724Y0047
X0139024Y004485
X0142874Y004165
X0144774Y003825
X0145937Y003665
X0144824Y003505
X0140009Y0033808
X014176Y0031358
X014251Y0029957
X014211Y0028457
X014356Y0027657
X014171Y0026206
X014181Y0024656
X0142724Y00208
X014466Y0022255
X0146587Y002215
X0149888Y002385
X0149588Y002695
X0148124Y00285
X0149338Y0030106
X0147724Y00316
X0136508Y0030908
X0136558Y0032708
X0131357Y0032908
X0128282Y0033407
X0128482Y0034808
X0132583Y0036108
X0137309Y003861
X0138159Y0028657
X0137335Y0023655
X0135574Y00219
X0135934Y0020381
X0138735Y002055
X0139924Y001925
X0139471Y0016403
X0141424Y001595
X0135434Y001575
X0134824Y001775
X0132583Y0015403
X0129271Y0016203
X0128871Y0019104
X0129683Y0020704
X0125582Y0020254
X0124331Y0024705
X0125282Y0026007
X011903Y002755
X0116671Y0028507
X011813Y0031358
X0115979Y0036158
X0116853Y0037509
X0115879Y0039859
X0116903Y0043661
X011743Y0047162
X012013Y0046112
X0126706Y0042761
X0126656Y004076
X0117771Y0018804
X011763Y0014954
X0115779Y0013652
X0121071Y0009401
X0126532
X0130033Y0009301
X0133771Y0009151
X0135671Y0009201
X0139435Y0008801
X0137771Y0012502
X0133871Y0012102
X0132574Y001075
X014396Y0010653
X0146371Y0009801
X0146537Y0012952
X0149338Y0013702
X0149938Y0017503
X0148124Y001775
X0150038Y0020504
X0112678Y0020404
X0112778Y0018053
X0111078Y0016503
X0108472Y0017803
X0108272Y0021754
X0111178Y0022655
X0107327Y002565
X0106127Y002645
X0101826Y003125
X0099625Y0032907
Y0038108
X0102172Y0038358
X0094498Y003826
X0097124Y0027356
X0099275Y0024005
X0097825Y0021854
X0093374Y002135
X0093173Y001385
X0093123Y0008901
X0096774Y001165
X0100775Y0008901
X0108727Y0011752
X0111228Y0009601
X0111128Y0008001
X0114879Y001125
X0114079Y0013102
X0112878Y0029906
X0114779Y0032957
X0114329Y0039709
Y004471
X0108027Y0047612
X0106477
X0102172Y0047011
X0106827Y004235
X00843Y0043551
X0079125Y0039901
X008115Y0034751
X0087Y0030951
X007305Y0040401
X006835Y0042901
X005315Y0045801
X004685Y0040851
X004175Y0042651
X005345Y0034401
X0035509Y0055401
X003055Y0055415
X0033008Y0057966
X0028007Y0057901
X0025506Y0055501
X0023006Y0057966
X0018004
X002045Y0055465
X0015504
X0008102Y0058666
X0008002Y0062967
X0002786Y0056415
X000225Y0048951
X0004001Y0048463
X0005451Y0050464
X004175Y0054001
X004051Y0056701
X0043011Y0057966
X0045511Y0056765
X0048062Y0057901
X005045Y0056615
X0053013Y0057966
X0055514Y0056665
X0058014Y0057901
X006045Y0056615
X0063016Y0057966
X006105Y0052001
X0068017Y0052914
X0070518Y0050464
X00684Y0047901
X0038009Y0057966
X008175Y0056651
X008072Y0055615
X008057Y0048863
X00872Y0048951
X0095425Y0048998
X0096825Y0048948
X0098776Y0048498
X0099325Y005145
X0103027Y0051698
X0103577Y0053249
X010339Y0055148
X0107352Y0056835
X0109352Y0059135
X0113202Y0057135
X0113728Y0051247
X0110252Y0050463
X0095425Y0050448
X0097776Y005965
X0099676Y0064101
X010245Y0064966
X0103452Y0065785
X0105551Y0064566
X0107451Y0063766
X0111952Y0063785
X0113603Y0063766
X0114853Y0065216
X0115572Y0073767
X0110502Y0073518
X010495Y0073268
Y0071968
X010475Y0070118
X010295
X010235Y0071268
X0101149Y0071768
X0101374Y007415
X0102174Y00752
X0101374Y007625
X0102174Y007735
Y007915
X0100724Y007885
X0098499Y0077369
X0096948Y0076969
X0096298Y007827
X0096448Y007972
X0094998Y008032
X0096824Y008465
X0097825Y0087121
X01048Y008615
X0105274Y008265
X0108451Y007992
X0114524Y00812
X0099049Y0074469
X0099199Y0073068
X0098099Y0075419
X0095598Y0064566
X0102602Y0062185
X0103152Y0060685
X008625Y0057766
X0083021Y0069769
Y0074801
Y0079901
Y0084901
X0116024Y0086922
X0123524Y008355
X0125824Y007915
X0128624Y007955
X0128574Y007815
X0130574Y007915
X0130724Y008055
X0132374Y00806
X0136574Y0079
X0134924Y007645
X0142474Y00755
X0143924Y00737
X014491Y0072668
X014301Y0072518
X0140835Y0072017
X014391Y0069417
X014491Y0068217
X0145911Y0067117
X0146811Y0066117
X0145887Y0063315
X0143924Y0064866
X014191Y0063716
X0140609Y0063216
X0142935Y0060875
X014186Y0058265
X014291Y0055814
X0141724Y0054499
X0142874Y0052713
X0138259Y0053213
X0136058Y0052563
X0132207Y0051313
X0132374Y00572
X0135724Y0057764
X0138309Y0059915
X0136074Y00667
Y006865
X0134024Y006885
X0134074Y006695
X0133924Y0065
X0131833Y0067916
X0130533Y0068266
X0131957Y0069817
X0126682Y0070016
X0126932Y0068566
X0127932Y0072917
X0128032Y0074518
X0120971Y0074468
X011883Y007685
X0122174Y00673
X0123105Y0066317
X0123824Y006505
X0125156Y0064966
X0126682Y0059464
X0129274Y005845
X0122531Y0059314
X011898Y006205
X0116003Y0064516
X0115729Y005155
X012043Y0052312
X0120252Y0050335
X0121602
X0122952Y0050285
X0126706Y0050363
X0127806Y0049062
X0124624Y005435
X011868Y0048062
X0137824Y00482
X0148162Y0052263
X0152362Y0051963
Y0054664
Y0057264
Y0059915
Y0062422
X0154874Y0065272
Y0068
Y0070793
Y0073593
Y007625
Y00788
X0147711Y007892
X0145674Y00789
X0146837Y0080319
X0146774Y007635
X0144024Y007745
X0143074Y00787
X014371Y0085271
X0148474Y008405
X0131324Y008705
X0159924Y008655
X015949Y008352
X0161841Y008222
X0166142
X0171024Y0078119
X0174574Y00781
X0167771Y0074518
X0169693Y0069616
X0177595Y006965
Y0059714
Y0049711
X0166842Y0047661
X0167742Y005315
X0165042
X0165392Y0057863
X0158364Y0057264
Y0054664
X0158414Y0051963
X0158364Y0059915
X0158314Y0062422
X0161271Y0065315
Y0070817
Y0076218
X0161841Y0089221
X0159674Y009095
X015984Y0093672
X0159771Y0098074
X0159474Y010155
X0160071Y0103725
X0160671Y0110227
X015684Y0109726
X0169693Y011025
X0177771Y0109826
X0177495Y0103975
X0172844Y0103175
X0168292Y010225
X0167842Y0098724
X0170643Y0099124
X0172944Y009645
X0172293Y0093522
X0172374Y009155
X0170824Y009275
X0169324Y008765
X0166171Y0089221
X0165371Y0096623
X0177495Y009115
X0175044Y008805
X0152012Y0090023
X0151662Y0091623
X0153039Y0092372
X0152274Y009895
X0145261Y0098625
Y0095874
X0145311Y0093357
X0145737Y009075
X014426Y0091273
X0142674Y009085
X014161Y0091873
X0140585Y009305
X0140324Y00966
X014341Y0097324
X0143724Y010085
X014146Y0102276
X0142436Y0103825
X0143336Y010805
X0144274Y01106
X0146837Y0109676
X0151838
X0153063Y0105727
X0136674Y01056
X0137035Y0103675
X0135608Y0102726
X0138309Y0102226
X0134058Y0100775
X0132624Y0101876
X0130557Y0101926
X0128474Y010005
X0127824Y00988
X0123524Y009895
X0122624Y01
X0123524Y009655
X0123874Y00952
X0124974Y009435
X0123904Y0093172
X0124374Y008995
X0126605Y0089321
X0126705Y0090672
X0129124Y00913
X0130074Y00902
X0133234Y009245
X0133258Y0096174
X0131533Y009575
X0135258Y0094724
X0136408Y0095824
X0118603Y0095423
X0117752Y0096423
Y0094373
X0116952Y0093372
X0118324Y00988
X0117724Y01
X0122254Y0091122
X0123155Y0088172
X0113024Y009045
X0109674Y00924
X0113102Y0096024
X0112724Y009735
X0112324Y009875
X0111951Y0102375
X0110601Y0102075
X0113403Y0102176
X0114774Y010215
X0106772Y0104725
X0101876
X0102172Y0101374
X0099199Y010015
X0098149Y009915
X0097149Y00982
X0096124Y0099224
X0094698Y0098875
X0093348Y0097024
X0092647Y0102776
X0083021Y0105428
X0085471Y0107978
X0083021Y0110429
X008047Y0107978
X007802Y0110429
X0083021Y0094801
X008305Y0089924
X0092574Y009005
X0093848Y0090873
X0096824Y009045
X0098875Y008815
X0099972Y0089171
X0101326Y009245
X01023Y0097124
X0103972Y0096623
X0106874Y00969
X0100399Y0098125
X0104326Y0107226
X0106827Y0109676
X0101826Y0109726
X0094524Y0087921
X0075519Y0099026
X0070518
X0066017Y0099901
X0063166Y0102301
X006035Y0104727
X0058293Y0107901
X005825Y0110301
X0060465Y0110501
X0065216Y0110401
X0067667Y0108501
X0069967Y0110429
X0056214Y0102801
X005355Y0104877
X005045Y0106201
X004815Y0107851
X003425Y0102651
X003175Y0103451
X0016904Y0104301
X0011903Y0103227
X0009752Y0110579
X00216Y0110501
X000315Y0101101
X000275Y0095601
X0005501Y0090474
X0008002Y0092901
T02
X0012503Y0002501
X0017504
X0022506
X0027457
X0025006Y0005051
X0027457Y0007552
X0022506
X0020005Y0005051
X0015004
X0017504Y0007552
X0012503
X0032508
X0030008Y0005051
X0032508Y0002501
X0037509
X0042511
X0047512
X0052463
X0050013Y0005001
X0052463Y0007502
X0047512
X0045011Y0005001
X004001
X0042511Y0007502
X0037509
X0057514
X0062466
Y0002501
X0057514
X0055014Y0005001
X0064966
X0067467Y0002501
Y0007502
X0082471
X0084971Y0005001
X0082471Y0002501
X007997Y0005001
X0105801Y0006752
X0126756Y0018955
X0130507Y0017304
X0132557Y0028557
X0125282Y0030208
X0129207Y00458
X0115479Y0030058
X0105601Y0030758
X01033Y0029457
X0104526Y0027957
X0105751Y0036459
X0093798Y0036359
X0094898Y0029407
X0093598Y0027957
X0084971Y0025006
X0082521Y0022506
X0084971Y0019955
X0082571Y0017504
X0084971Y0015004
X008007Y0015004
X0082521Y0012503
X0084971Y0010003
X008002
X007747Y0012503
X007752Y0017504
X008002Y0020005
X007747Y0022506
X010335Y0009202
X0105Y0008002
X0075019Y0010003
X0070018
X0065016
X0067517Y0012503
X0065066Y0015004
X0070068
X0072518Y0012503
X0075069Y0015004
X0072568Y0017504
X0075019Y0020005
X0070018
X0067567Y0017504
X0062566
X0065016Y0020005
X0067517Y0022506
X0072518
X0062516
X0057514
X0055014Y0020005
X0050013
X0052463Y0022506
X0047512
X0045011Y0020005
X004001
X0042511Y0022506
X0037509
Y0017454
X0037459Y0012503
X003996Y0010003
X0044961
X0049963
X0052413Y0012503
X0050013Y0014954
X0052463Y0017454
X0047512
X0047462Y0012503
X0045011Y0014954
X0042461Y0012503
X004001Y0014954
X0042511Y0017454
X0057514
X0057464Y0012503
X0055014Y0014954
X0054964Y0010003
X0062516Y0012503
X00254Y0028751
X00225
X0018555Y0023257
X0026557Y003481
X00264Y0041401
X00267Y0043701
X0024Y0039201
X0004002Y0042628
X0005325Y0044126
X0001925Y0047001
X0008002Y0067867
X0005501Y0070368
Y0075369
X0008002Y0072918
Y007787
Y0082871
X0005501Y0085372
X0005501Y008037
X0017954Y0079871
X0017904Y0078121
Y0082372
X0015004Y007627
X0024456Y0070269
X0024356Y0068468
X0027557Y0068368
X0027607Y0071219
X0032908Y0071619
X0035509
X0033358Y007627
X0031258Y007512
X0031097Y0066318
X0028857Y0084972
X0027207Y0083622
X003896Y0078671
X0038109Y007692
Y0071519
X0097098Y0069817
X0098499Y0069317
X0097198Y0067767
X0095598Y0068267
X0095248Y0066767
X0094348Y0065616
X0094398Y008172
X0093748Y0083571
X0093297Y0085071
X0092597Y0086972
X0121155Y0068417
X0027057Y0090224
X0019255Y0088123
X0015854Y0087323
X0008002Y0087872
X0001675Y0101426
T03
X0026657Y0073019
X0026997Y0078771
X0035759Y007412
T04
X0173886Y0012142
X0176386Y0012142
X0019185Y0051937
X0016685
X0123074Y0074247
Y0076747
X016418Y008524
X017418
Y009454
X017668Y009274
Y010204
X016168
Y009274
X016418Y009454
T05
X0120322Y00165
X0122822
Y0019
X0120322
X0120441Y0026307
Y0028847
Y0031387
Y0033927
X0122981
Y0031387
Y0028847
Y0026307
X0122981Y0036467
X0120441
X0096822Y0019
X0094322
Y00165
X0096822Y00165
X0032058Y0026208
X0029518
Y0028748
X0032058
Y0031288
X0029518
Y0033828
X0032058
Y0036368
X0029518
X00165Y0064201
X0014
Y0066701
X00165
Y0090201
X0014
Y0092701
X00165
T06
X0004002Y0026399
X0005522Y0028939
X0004002Y0036509
X0005522Y0039019
X0015252Y0035884
Y0033344
Y0030804
Y0028264
X0017802Y0029534
X0017802Y0032074
X0017802Y0034614
Y0037154
X0037973Y0100132
X0040513
X0043053
X0045593
X0048133
X0050673
X0053213
X0055753
X0058293
X0060833
X0035433
X0032893
X0030353
X0027813
X0025273
X0022733
X0020193
X0017653
X0015113
X0012573
T07
X008995Y0006751
X0089924Y00068
X0120054Y0006909
X0131321Y00065
Y000396
X0133861
Y00065
X0136401
Y000396
X0138941
X0141481
X0141481Y00065
X0138941
X0144021
X0146561Y00065
Y000396
X0144021Y000396
X0172274Y002885
X0172274Y003139
X0174814
Y003393
Y003647
Y003901
X0172274
Y004155
Y004409
X0174814
Y004155
X0174814Y004663
X0172274Y004663
Y003647
X0172274Y003393
X0174814Y002885
X0120054Y0011909
X0089924Y00088
X008995Y0008751
X0107051Y0039968
X0107051Y0044968
X003615Y0061801
X003815
X0072809Y0055102
Y0050102
X0078809
X0078809Y0055102
X0084321Y0054744
Y0052204
Y0049664
X0126075Y0076942
Y0081942
X0134274Y0080858
Y0085858
X0172274Y006949
X0172274Y006695
X0174814
Y006441
X0172274
Y006187
X0174814Y006187
X0174814Y005933
Y005679
X0172274
Y005425
X0172275Y005171
X0174814Y005171
X0174814Y004917
X0172274
X0174814Y005425
X0172274Y005933
X0174814Y006949
X0134034Y01063
Y010884
X0131494
X0128954
Y01063
X0131494Y01063
X0126414
X0123874
X0121334Y01063
X0121334Y010884
X0123874
X0126414
X0118794
Y01063
X0116254
Y010884
X0113714
X0113714Y01063
X0111174Y01063
Y010884
X008995Y0105201
X0089874Y010525
Y010325
X008995Y0103201
X004321Y0106301
X004067
X003813
Y0108841
X004067
X004321
X003815Y0095051
X003615
X003559Y0106301
X003305Y0106301
X003051
X002797
X002543
X002289
X002035
Y0108841
X002289
X002543
X002797
X003051
X003305
X003559
T08
X003596Y0076301
Y0080701
T09
X0115797Y0026244
X0100797Y0026244
X007405Y0025801
X006897Y0025801
X006365Y0029401
Y0034481
X006897Y0038301
X007397Y0038301
X00636Y0043751
X00511
X005115Y0034401
Y0029401
X004578Y0025701
X00407Y0025701
X00407Y0038201
X00457
X00549Y0024001
X00599
X005998Y0011501
X00549Y0011501
X00511Y0048751
X00636Y0048831
T10
X0011902Y0024809
Y0040609
T11
X000495Y0062651
X00839
X00824Y0098601
X00065
T12
X0006Y0004701
X0074Y0004701
X0096824Y00047
X0164824
X0008902Y0027009
Y0038409
X0164824Y01067
X0096824
X0074Y0106701
X0006
M30
