%FSLAX43Y43*%
%MOMM*%
G71*
G01*
G75*
G04 Layer_Physical_Order=1*
%ADD10R,1.650X0.300*%
%ADD11C,0.254*%
%ADD12R,1.300X1.300*%
%ADD13C,1.300*%
%ADD14R,1.500X1.500*%
%ADD15C,1.270*%
D10*
X8050Y6525D02*
D03*
Y5875D02*
D03*
Y5225D02*
D03*
Y4575D02*
D03*
Y3925D02*
D03*
Y3275D02*
D03*
Y2625D02*
D03*
Y1975D02*
D03*
X13600Y6525D02*
D03*
Y5875D02*
D03*
Y5225D02*
D03*
Y4575D02*
D03*
Y3925D02*
D03*
Y3275D02*
D03*
Y2625D02*
D03*
Y1975D02*
D03*
D11*
X14650Y6525D02*
X15600Y7475D01*
X16800Y11075D02*
X18100D01*
X13600Y6525D02*
X14650D01*
X5900Y1975D02*
X13600D01*
X6600Y3275D02*
X8050D01*
X6175Y1975D02*
Y2850D01*
X4075Y1375D02*
X5300D01*
X15600Y7475D02*
Y9875D01*
X16800Y11075D01*
X13600Y5875D02*
X17900D01*
X18100Y6075D01*
X19725Y6425D02*
X21450Y8150D01*
X22250D01*
X13600Y4575D02*
X19350D01*
X19725Y4950D01*
Y6425D01*
X19800Y3925D02*
X21200Y5325D01*
X13600Y3925D02*
X19800D01*
X21200Y5325D02*
X22275D01*
X13600Y2625D02*
X22175D01*
X22275Y2525D01*
X10550Y6525D02*
X11850Y5225D01*
X7000Y11925D02*
X9275Y9650D01*
X1425Y11925D02*
X7000D01*
X11850Y5225D02*
X13600D01*
X9275Y6525D02*
Y9650D01*
X8050Y6525D02*
X10550D01*
X9900Y5875D02*
X10625Y5150D01*
X8050Y5875D02*
X9900D01*
X10625Y4500D02*
Y5150D01*
X6075Y6050D02*
X6900Y5225D01*
X6075Y6050D02*
Y7750D01*
X4700Y9125D02*
X6075Y7750D01*
X2150Y9125D02*
X4700D01*
X1375Y8350D02*
X2150Y9125D01*
X6900Y5225D02*
X8050D01*
X4800Y7200D02*
X5400Y6600D01*
Y5600D02*
Y6600D01*
Y5600D02*
X6425Y4575D01*
X3025Y7200D02*
X4800D01*
X6425Y4575D02*
X8050D01*
X3900Y5700D02*
X5675Y3925D01*
X8050D01*
X5300Y1375D02*
X5900Y1975D01*
X6175Y2850D02*
X6600Y3275D01*
D12*
X4075Y1375D02*
D03*
X22275Y2525D02*
D03*
Y5325D02*
D03*
X22250Y8150D02*
D03*
X18100Y6075D02*
D03*
X9275Y9650D02*
D03*
X18100Y11075D02*
D03*
X12100Y11975D02*
D03*
D13*
X3900Y5700D02*
D03*
X3025Y7200D02*
D03*
X1375Y8350D02*
D03*
D14*
X1425Y11925D02*
D03*
D15*
X15600Y7450D02*
D03*
X10900Y1975D02*
D03*
X10625Y4500D02*
D03*
M02*
