%FSLAX43Y43*%
%MOMM*%
G71*
G01*
G75*
%ADD10C,0.300*%
%ADD11R,1.800X1.600*%
%ADD12R,1.500X1.300*%
%ADD13O,1.800X0.350*%
%ADD14O,1.800X0.350*%
%ADD15R,2.500X0.500*%
%ADD16R,2.500X2.000*%
%ADD17R,1.600X1.800*%
%ADD18R,2.150X0.600*%
%ADD19R,2.150X0.600*%
%ADD20R,0.850X1.300*%
%ADD21R,1.300X0.850*%
%ADD22R,1.450X0.550*%
%ADD23R,1.450X0.550*%
%ADD24C,0.250*%
%ADD25R,0.300X1.600*%
%ADD26R,2.200X0.600*%
%ADD27R,2.700X2.500*%
%ADD28R,0.600X2.150*%
%ADD29R,1.550X0.600*%
%ADD30R,0.600X1.700*%
%ADD31R,1.300X1.500*%
%ADD32R,1.550X0.600*%
%ADD33R,2.200X0.550*%
%ADD34R,2.200X0.550*%
%ADD35R,2.200X0.600*%
%ADD36C,0.063*%
%ADD37R,0.600X2.150*%
%ADD38R,1.700X0.600*%
%ADD39R,1.700X0.600*%
%ADD40C,0.500*%
%ADD41C,1.000*%
%ADD42C,0.400*%
%ADD43C,0.600*%
%ADD44C,0.800*%
%ADD45C,0.100*%
%ADD46C,1.200*%
%ADD47R,1.500X1.500*%
%ADD48C,1.500*%
%ADD49C,1.800*%
%ADD50R,1.800X1.800*%
%ADD51O,1.500X2.000*%
%ADD52R,1.500X2.000*%
%ADD53R,1.400X1.400*%
%ADD54C,1.400*%
%ADD55C,2.500*%
%ADD56C,3.500*%
%ADD57C,5.000*%
%ADD58C,1.100*%
%ADD59C,1.500*%
%ADD60C,2.000*%
%ADD61C,1.300*%
%ADD62C,1.270*%
%ADD63R,0.950X0.900*%
%ADD64C,0.700*%
%ADD65R,2.003X1.803*%
%ADD66R,1.703X1.503*%
%ADD67O,2.003X0.553*%
%ADD68O,2.003X0.553*%
%ADD69R,2.703X0.703*%
%ADD70R,2.703X2.203*%
%ADD71R,1.803X2.003*%
%ADD72R,2.353X0.803*%
%ADD73R,2.353X0.803*%
%ADD74R,1.053X1.503*%
%ADD75R,1.503X1.053*%
%ADD76R,1.653X0.753*%
%ADD77R,1.653X0.753*%
%ADD78R,0.503X1.803*%
%ADD79R,2.403X0.803*%
%ADD80R,2.903X2.703*%
%ADD81R,0.803X2.353*%
%ADD82R,1.753X0.803*%
%ADD83R,0.803X1.903*%
%ADD84R,1.503X1.703*%
%ADD85R,1.753X0.803*%
%ADD86R,2.403X0.753*%
%ADD87R,2.403X0.753*%
%ADD88R,2.403X0.803*%
%ADD89R,0.803X2.353*%
%ADD90R,1.903X0.803*%
%ADD91R,1.903X0.803*%
%ADD92C,1.403*%
%ADD93R,1.703X1.703*%
%ADD94C,1.703*%
%ADD95C,2.003*%
%ADD96R,2.003X2.003*%
%ADD97O,1.703X2.203*%
%ADD98R,1.703X2.203*%
%ADD99R,1.603X1.603*%
%ADD100C,1.603*%
%ADD101C,2.703*%
%ADD102C,3.703*%
%ADD103C,5.203*%
%ADD104C,1.303*%
%ADD105C,1.703*%
%ADD106C,2.203*%
%ADD107C,1.503*%
%ADD108C,1.473*%
D42*
X101136Y87556D02*
X102020Y86673D01*
X101982Y86635D02*
G03*
X102020Y86673I19J19D01*
G01*
X101098Y87519D02*
X101982Y86635D01*
X101136Y87556D02*
G03*
X101098Y87519I-19J-19D01*
G01*
X119483Y86319D02*
X120367Y87203D01*
X120404Y87165D02*
G03*
X120367Y87203I-19J19D01*
G01*
X119520Y86281D02*
X120404Y87165D01*
X119483Y86319D02*
G03*
X119520Y86281I19J-19D01*
G01*
X116535Y61114D02*
X115402Y62248D01*
X116394Y63240D01*
X117528Y62107D01*
X116535Y61114D01*
Y61586D02*
X115873Y62248D01*
X116394Y62769D01*
X117056Y62107D01*
X116535Y61586D01*
Y62057D02*
X116345Y62248D01*
X116394Y62297D01*
X116585Y62107D01*
X116535Y62057D01*
X116465Y62159D02*
Y62195D01*
X114555Y59134D02*
X113422Y60268D01*
X114414Y61260D01*
X115548Y60127D01*
X114555Y59134D01*
Y59606D02*
X113893Y60268D01*
X114414Y60789D01*
X115076Y60127D01*
X114555Y59606D01*
Y60077D02*
X114365Y60268D01*
X114414Y60318D01*
X114605Y60127D01*
X114555Y60077D01*
X114485Y60179D02*
Y60215D01*
X103611Y90031D02*
X104494Y89147D01*
X104457Y89110D02*
G03*
X104494Y89147I19J19D01*
G01*
X103573Y89994D02*
X104457Y89110D01*
X103611Y90031D02*
G03*
X103573Y89994I-19J-19D01*
G01*
X100782Y87203D02*
X101666Y86319D01*
X101628Y86281D02*
G03*
X101666Y86319I19J19D01*
G01*
X100745Y87165D02*
X101628Y86281D01*
X100782Y87203D02*
G03*
X100745Y87165I-19J-19D01*
G01*
X100429Y86849D02*
X101312Y85965D01*
X101275Y85928D02*
G03*
X101312Y85965I19J19D01*
G01*
X100391Y86812D02*
X101275Y85928D01*
X100429Y86849D02*
G03*
X100391Y86812I-19J-19D01*
G01*
X113510Y78011D02*
X114394Y77127D01*
X114356Y77089D02*
G03*
X114394Y77127I19J19D01*
G01*
X113472Y77973D02*
X114356Y77089D01*
X113510Y78011D02*
G03*
X113472Y77973I-19J-19D01*
G01*
X119874Y84375D02*
X120758Y83491D01*
X120720Y83453D02*
G03*
X120758Y83491I19J19D01*
G01*
X119836Y84337D02*
X120720Y83453D01*
X119874Y84375D02*
G03*
X119836Y84337I-19J-19D01*
G01*
X119520Y84021D02*
X120404Y83137D01*
X120367Y83099D02*
G03*
X120404Y83137I19J19D01*
G01*
X119483Y83983D02*
X120367Y83099D01*
X119520Y84021D02*
G03*
X119483Y83983I-19J-19D01*
G01*
X118460Y82960D02*
X119344Y82076D01*
X119306Y82039D02*
G03*
X119344Y82076I19J19D01*
G01*
X118422Y82923D02*
X119306Y82039D01*
X118460Y82960D02*
G03*
X118422Y82923I-19J-19D01*
G01*
X118106Y82607D02*
X118990Y81723D01*
X118952Y81685D02*
G03*
X118990Y81723I19J19D01*
G01*
X118069Y82569D02*
X118952Y81685D01*
X118106Y82607D02*
G03*
X118069Y82569I-19J-19D01*
G01*
X117753Y82253D02*
X118637Y81369D01*
X118599Y81332D02*
G03*
X118637Y81369I19J19D01*
G01*
X117715Y82216D02*
X118599Y81332D01*
X117753Y82253D02*
G03*
X117715Y82216I-19J-19D01*
G01*
X117046Y81546D02*
X117929Y80662D01*
X117892Y80625D02*
G03*
X117929Y80662I19J19D01*
G01*
X117008Y81508D02*
X117892Y80625D01*
X117046Y81546D02*
G03*
X117008Y81508I-19J-19D01*
G01*
X116338Y80839D02*
X117222Y79955D01*
X117185Y79917D02*
G03*
X117222Y79955I19J19D01*
G01*
X116301Y80801D02*
X117185Y79917D01*
X116338Y80839D02*
G03*
X116301Y80801I-19J-19D01*
G01*
X115985Y80485D02*
X116869Y79602D01*
X116831Y79564D02*
G03*
X116869Y79602I19J19D01*
G01*
X115947Y80448D02*
X116831Y79564D01*
X115985Y80485D02*
G03*
X115947Y80448I-19J-19D01*
G01*
X115631Y80132D02*
X116515Y79248D01*
X116478Y79210D02*
G03*
X116515Y79248I19J19D01*
G01*
X115594Y80094D02*
X116478Y79210D01*
X115631Y80132D02*
G03*
X115594Y80094I-19J-19D01*
G01*
X115278Y79778D02*
X116162Y78894D01*
X116124Y78857D02*
G03*
X116162Y78894I19J19D01*
G01*
X115240Y79741D02*
X116124Y78857D01*
X115278Y79778D02*
G03*
X115240Y79741I-19J-19D01*
G01*
X114924Y79425D02*
X115808Y78541D01*
X115771Y78503D02*
G03*
X115808Y78541I19J19D01*
G01*
X114887Y79387D02*
X115771Y78503D01*
X114924Y79425D02*
G03*
X114887Y79387I-19J-19D01*
G01*
X114571Y79071D02*
X115455Y78187D01*
X115417Y78150D02*
G03*
X115455Y78187I19J19D01*
G01*
X114533Y79034D02*
X115417Y78150D01*
X114571Y79071D02*
G03*
X114533Y79034I-19J-19D01*
G01*
X114217Y78718D02*
X115101Y77834D01*
X115063Y77796D02*
G03*
X115101Y77834I19J19D01*
G01*
X114180Y78680D02*
X115063Y77796D01*
X114217Y78718D02*
G03*
X114180Y78680I-19J-19D01*
G01*
X113864Y78364D02*
X114747Y77480D01*
X114710Y77443D02*
G03*
X114747Y77480I19J19D01*
G01*
X113826Y78326D02*
X114710Y77443D01*
X113864Y78364D02*
G03*
X113826Y78326I-19J-19D01*
G01*
X113157Y77657D02*
X114040Y76773D01*
X114003Y76735D02*
G03*
X114040Y76773I19J19D01*
G01*
X113119Y77619D02*
X114003Y76735D01*
X113157Y77657D02*
G03*
X113119Y77619I-19J-19D01*
G01*
X112803Y77303D02*
X113687Y76420D01*
X113649Y76382D02*
G03*
X113687Y76420I19J19D01*
G01*
X112765Y77266D02*
X113649Y76382D01*
X112803Y77303D02*
G03*
X112765Y77266I-19J-19D01*
G01*
X112449Y76950D02*
X113333Y76066D01*
X113296Y76028D02*
G03*
X113333Y76066I19J19D01*
G01*
X112412Y76912D02*
X113296Y76028D01*
X112449Y76950D02*
G03*
X112412Y76912I-19J-19D01*
G01*
X112096Y76596D02*
X112980Y75712D01*
X112942Y75675D02*
G03*
X112980Y75712I19J19D01*
G01*
X112058Y76559D02*
X112942Y75675D01*
X112096Y76596D02*
G03*
X112058Y76559I-19J-19D01*
G01*
X111742Y76243D02*
X112626Y75359D01*
X112589Y75321D02*
G03*
X112626Y75359I19J19D01*
G01*
X111705Y76205D02*
X112589Y75321D01*
X111742Y76243D02*
G03*
X111705Y76205I-19J-19D01*
G01*
X111351Y94451D02*
X112235Y95335D01*
X112273Y95297D02*
G03*
X112235Y95335I-19J19D01*
G01*
X111389Y94413D02*
X112273Y95297D01*
X111351Y94451D02*
G03*
X111389Y94413I19J-19D01*
G01*
X111705Y94097D02*
X112589Y94981D01*
X112626Y94944D02*
G03*
X112589Y94981I-19J19D01*
G01*
X111742Y94060D02*
X112626Y94944D01*
X111705Y94097D02*
G03*
X111742Y94060I19J-19D01*
G01*
X112058Y93744D02*
X112942Y94628D01*
X112980Y94590D02*
G03*
X112942Y94628I-19J19D01*
G01*
X112096Y93706D02*
X112980Y94590D01*
X112058Y93744D02*
G03*
X112096Y93706I19J-19D01*
G01*
X112412Y93390D02*
X113296Y94274D01*
X113333Y94236D02*
G03*
X113296Y94274I-19J19D01*
G01*
X112449Y93353D02*
X113333Y94236D01*
X112412Y93390D02*
G03*
X112449Y93353I19J-19D01*
G01*
X112765Y93037D02*
X113649Y93920D01*
X113687Y93883D02*
G03*
X113649Y93920I-19J19D01*
G01*
X112803Y92999D02*
X113687Y93883D01*
X112765Y93037D02*
G03*
X112803Y92999I19J-19D01*
G01*
X113472Y92329D02*
X114356Y93213D01*
X114394Y93176D02*
G03*
X114356Y93213I-19J19D01*
G01*
X113510Y92292D02*
X114394Y93176D01*
X113472Y92329D02*
G03*
X113510Y92292I19J-19D01*
G01*
X113826Y91976D02*
X114710Y92860D01*
X114747Y92822D02*
G03*
X114710Y92860I-19J19D01*
G01*
X113864Y91938D02*
X114747Y92822D01*
X113826Y91976D02*
G03*
X113864Y91938I19J-19D01*
G01*
X114180Y91622D02*
X115063Y92506D01*
X115101Y92469D02*
G03*
X115063Y92506I-19J19D01*
G01*
X114217Y91585D02*
X115101Y92469D01*
X114180Y91622D02*
G03*
X114217Y91585I19J-19D01*
G01*
X114533Y91269D02*
X115417Y92153D01*
X115455Y92115D02*
G03*
X115417Y92153I-19J19D01*
G01*
X114571Y91231D02*
X115455Y92115D01*
X114533Y91269D02*
G03*
X114571Y91231I19J-19D01*
G01*
X114887Y90915D02*
X115771Y91799D01*
X115808Y91761D02*
G03*
X115771Y91799I-19J19D01*
G01*
X114924Y90878D02*
X115808Y91761D01*
X114887Y90915D02*
G03*
X114924Y90878I19J-19D01*
G01*
X115947Y89855D02*
X116831Y90738D01*
X116869Y90701D02*
G03*
X116831Y90738I-19J19D01*
G01*
X115985Y89817D02*
X116869Y90701D01*
X115947Y89855D02*
G03*
X115985Y89817I19J-19D01*
G01*
X116301Y89501D02*
X117185Y90385D01*
X117222Y90347D02*
G03*
X117185Y90385I-19J19D01*
G01*
X116338Y89463D02*
X117222Y90347D01*
X116301Y89501D02*
G03*
X116338Y89463I19J-19D01*
G01*
X117008Y88794D02*
X117892Y89678D01*
X117929Y89640D02*
G03*
X117892Y89678I-19J19D01*
G01*
X117046Y88756D02*
X117929Y89640D01*
X117008Y88794D02*
G03*
X117046Y88756I19J-19D01*
G01*
X117362Y88440D02*
X118245Y89324D01*
X118283Y89287D02*
G03*
X118245Y89324I-19J19D01*
G01*
X117399Y88403D02*
X118283Y89287D01*
X117362Y88440D02*
G03*
X117399Y88403I19J-19D01*
G01*
X117715Y88087D02*
X118599Y88971D01*
X118637Y88933D02*
G03*
X118599Y88971I-19J19D01*
G01*
X117753Y88049D02*
X118637Y88933D01*
X117715Y88087D02*
G03*
X117753Y88049I19J-19D01*
G01*
X118069Y87733D02*
X118952Y88617D01*
X118990Y88580D02*
G03*
X118952Y88617I-19J19D01*
G01*
X118106Y87696D02*
X118990Y88580D01*
X118069Y87733D02*
G03*
X118106Y87696I19J-19D01*
G01*
X118422Y87380D02*
X119306Y88264D01*
X119344Y88226D02*
G03*
X119306Y88264I-19J19D01*
G01*
X118460Y87342D02*
X119344Y88226D01*
X118422Y87380D02*
G03*
X118460Y87342I19J-19D01*
G01*
X118776Y87026D02*
X119660Y87910D01*
X119697Y87872D02*
G03*
X119660Y87910I-19J19D01*
G01*
X118813Y86989D02*
X119697Y87872D01*
X118776Y87026D02*
G03*
X118813Y86989I19J-19D01*
G01*
X119129Y86673D02*
X120013Y87556D01*
X120051Y87519D02*
G03*
X120013Y87556I-19J19D01*
G01*
X119167Y86635D02*
X120051Y87519D01*
X119129Y86673D02*
G03*
X119167Y86635I19J-19D01*
G01*
X119836Y85965D02*
X120720Y86849D01*
X120758Y86812D02*
G03*
X120720Y86849I-19J19D01*
G01*
X119874Y85928D02*
X120758Y86812D01*
X119836Y85965D02*
G03*
X119874Y85928I19J-19D01*
G01*
X101489Y87910D02*
X102373Y87026D01*
X102336Y86989D02*
G03*
X102373Y87026I19J19D01*
G01*
X101452Y87872D02*
X102336Y86989D01*
X101489Y87910D02*
G03*
X101452Y87872I-19J-19D01*
G01*
X101843Y88264D02*
X102727Y87380D01*
X102689Y87342D02*
G03*
X102727Y87380I19J19D01*
G01*
X101805Y88226D02*
X102689Y87342D01*
X101843Y88264D02*
G03*
X101805Y88226I-19J-19D01*
G01*
X102196Y88617D02*
X103080Y87733D01*
X103043Y87696D02*
G03*
X103080Y87733I19J19D01*
G01*
X102159Y88580D02*
X103043Y87696D01*
X102196Y88617D02*
G03*
X102159Y88580I-19J-19D01*
G01*
X102550Y88971D02*
X103434Y88087D01*
X103396Y88049D02*
G03*
X103434Y88087I19J19D01*
G01*
X102512Y88933D02*
X103396Y88049D01*
X102550Y88971D02*
G03*
X102512Y88933I-19J-19D01*
G01*
X102903Y89324D02*
X103787Y88440D01*
X103750Y88403D02*
G03*
X103787Y88440I19J19D01*
G01*
X102866Y89287D02*
X103750Y88403D01*
X102903Y89324D02*
G03*
X102866Y89287I-19J-19D01*
G01*
X103257Y89678D02*
X104141Y88794D01*
X104103Y88756D02*
G03*
X104141Y88794I19J19D01*
G01*
X103219Y89640D02*
X104103Y88756D01*
X103257Y89678D02*
G03*
X103219Y89640I-19J-19D01*
G01*
X103964Y90385D02*
X104848Y89501D01*
X104810Y89463D02*
G03*
X104848Y89501I19J19D01*
G01*
X103926Y90347D02*
X104810Y89463D01*
X103964Y90385D02*
G03*
X103926Y90347I-19J-19D01*
G01*
X104318Y90738D02*
X105202Y89855D01*
X105164Y89817D02*
G03*
X105202Y89855I19J19D01*
G01*
X104280Y90701D02*
X105164Y89817D01*
X104318Y90738D02*
G03*
X104280Y90701I-19J-19D01*
G01*
X104671Y91092D02*
X105555Y90208D01*
X105517Y90171D02*
G03*
X105555Y90208I19J19D01*
G01*
X104634Y91054D02*
X105517Y90171D01*
X104671Y91092D02*
G03*
X104634Y91054I-19J-19D01*
G01*
X105025Y91446D02*
X105909Y90562D01*
X105871Y90524D02*
G03*
X105909Y90562I19J19D01*
G01*
X104987Y91408D02*
X105871Y90524D01*
X105025Y91446D02*
G03*
X104987Y91408I-19J-19D01*
G01*
X105378Y91799D02*
X106262Y90915D01*
X106225Y90878D02*
G03*
X106262Y90915I19J19D01*
G01*
X105341Y91762D02*
X106225Y90878D01*
X105378Y91799D02*
G03*
X105341Y91762I-19J-19D01*
G01*
X105732Y92153D02*
X106616Y91269D01*
X106578Y91231D02*
G03*
X106616Y91269I19J19D01*
G01*
X105694Y92115D02*
X106578Y91231D01*
X105732Y92153D02*
G03*
X105694Y92115I-19J-19D01*
G01*
X106085Y92506D02*
X106969Y91622D01*
X106932Y91585D02*
G03*
X106969Y91622I19J19D01*
G01*
X106048Y92469D02*
X106932Y91585D01*
X106085Y92506D02*
G03*
X106048Y92469I-19J-19D01*
G01*
X106439Y92860D02*
X107323Y91976D01*
X107285Y91938D02*
G03*
X107323Y91976I19J19D01*
G01*
X106401Y92822D02*
X107285Y91938D01*
X106439Y92860D02*
G03*
X106401Y92822I-19J-19D01*
G01*
X106793Y93213D02*
X107676Y92329D01*
X107639Y92292D02*
G03*
X107676Y92329I19J19D01*
G01*
X106755Y93176D02*
X107639Y92292D01*
X106793Y93213D02*
G03*
X106755Y93176I-19J-19D01*
G01*
X107146Y93567D02*
X108030Y92683D01*
X107992Y92645D02*
G03*
X108030Y92683I19J19D01*
G01*
X107108Y93529D02*
X107992Y92645D01*
X107146Y93567D02*
G03*
X107108Y93529I-19J-19D01*
G01*
X107500Y93920D02*
X108384Y93037D01*
X108346Y92999D02*
G03*
X108384Y93037I19J19D01*
G01*
X107462Y93883D02*
X108346Y92999D01*
X107500Y93920D02*
G03*
X107462Y93883I-19J-19D01*
G01*
X107853Y94274D02*
X108737Y93390D01*
X108699Y93352D02*
G03*
X108737Y93390I19J19D01*
G01*
X107816Y94236D02*
X108699Y93352D01*
X107853Y94274D02*
G03*
X107816Y94236I-19J-19D01*
G01*
X108207Y94628D02*
X109091Y93744D01*
X109053Y93706D02*
G03*
X109091Y93744I19J19D01*
G01*
X108169Y94590D02*
X109053Y93706D01*
X108207Y94628D02*
G03*
X108169Y94590I-19J-19D01*
G01*
X108560Y94981D02*
X109444Y94097D01*
X109407Y94060D02*
G03*
X109444Y94097I19J19D01*
G01*
X108523Y94943D02*
X109407Y94060D01*
X108560Y94981D02*
G03*
X108523Y94943I-19J-19D01*
G01*
X108914Y95335D02*
X109798Y94451D01*
X109760Y94413D02*
G03*
X109798Y94451I19J19D01*
G01*
X108876Y95297D02*
X109760Y94413D01*
X108914Y95335D02*
G03*
X108876Y95297I-19J-19D01*
G01*
X108876Y75005D02*
X109760Y75889D01*
X109798Y75852D02*
G03*
X109760Y75889I-19J19D01*
G01*
X108914Y74968D02*
X109798Y75852D01*
X108876Y75005D02*
G03*
X108914Y74968I19J-19D01*
G01*
X107816Y76066D02*
X108699Y76950D01*
X108737Y76912D02*
G03*
X108699Y76950I-19J19D01*
G01*
X107853Y76028D02*
X108737Y76912D01*
X107816Y76066D02*
G03*
X107853Y76028I19J-19D01*
G01*
X107462Y76420D02*
X108346Y77303D01*
X108384Y77266D02*
G03*
X108346Y77303I-19J19D01*
G01*
X107500Y76382D02*
X108384Y77266D01*
X107462Y76420D02*
G03*
X107500Y76382I19J-19D01*
G01*
X107108Y76773D02*
X107992Y77657D01*
X108030Y77619D02*
G03*
X107992Y77657I-19J19D01*
G01*
X107146Y76735D02*
X108030Y77619D01*
X107108Y76773D02*
G03*
X107146Y76735I19J-19D01*
G01*
X106755Y77091D02*
X107639Y77975D01*
X107676Y77938D02*
G03*
X107639Y77975I-19J19D01*
G01*
X106793Y77054D02*
X107676Y77938D01*
X106755Y77091D02*
G03*
X106793Y77054I19J-19D01*
G01*
X106401Y77480D02*
X107285Y78364D01*
X107323Y78326D02*
G03*
X107285Y78364I-19J19D01*
G01*
X106439Y77443D02*
X107323Y78326D01*
X106401Y77480D02*
G03*
X106439Y77443I19J-19D01*
G01*
X106048Y77834D02*
X106932Y78718D01*
X106969Y78680D02*
G03*
X106932Y78718I-19J19D01*
G01*
X106085Y77796D02*
X106969Y78680D01*
X106048Y77834D02*
G03*
X106085Y77796I19J-19D01*
G01*
X105694Y78187D02*
X106578Y79071D01*
X106616Y79034D02*
G03*
X106578Y79071I-19J19D01*
G01*
X105732Y78150D02*
X106616Y79034D01*
X105694Y78187D02*
G03*
X105732Y78150I19J-19D01*
G01*
X105341Y78541D02*
X106225Y79425D01*
X106262Y79387D02*
G03*
X106225Y79425I-19J19D01*
G01*
X105378Y78503D02*
X106262Y79387D01*
X105341Y78541D02*
G03*
X105378Y78503I19J-19D01*
G01*
X104987Y78894D02*
X105871Y79778D01*
X105909Y79741D02*
G03*
X105871Y79778I-19J19D01*
G01*
X105025Y78857D02*
X105909Y79741D01*
X104987Y78894D02*
G03*
X105025Y78857I19J-19D01*
G01*
X104634Y79248D02*
X105517Y80132D01*
X105555Y80094D02*
G03*
X105517Y80132I-19J19D01*
G01*
X104671Y79210D02*
X105555Y80094D01*
X104634Y79248D02*
G03*
X104671Y79210I19J-19D01*
G01*
X104280Y79602D02*
X105164Y80485D01*
X105202Y80448D02*
G03*
X105164Y80485I-19J19D01*
G01*
X104318Y79564D02*
X105202Y80448D01*
X104280Y79602D02*
G03*
X104318Y79564I19J-19D01*
G01*
X103926Y79955D02*
X104810Y80839D01*
X104848Y80801D02*
G03*
X104810Y80839I-19J19D01*
G01*
X103964Y79917D02*
X104848Y80801D01*
X103926Y79955D02*
G03*
X103964Y79917I19J-19D01*
G01*
X103573Y80309D02*
X104457Y81193D01*
X104494Y81155D02*
G03*
X104457Y81193I-19J19D01*
G01*
X103611Y80271D02*
X104494Y81155D01*
X103573Y80309D02*
G03*
X103611Y80271I19J-19D01*
G01*
X103219Y80662D02*
X104103Y81546D01*
X104141Y81508D02*
G03*
X104103Y81546I-19J19D01*
G01*
X103257Y80625D02*
X104141Y81508D01*
X103219Y80662D02*
G03*
X103257Y80625I19J-19D01*
G01*
X102866Y81016D02*
X103750Y81900D01*
X103787Y81862D02*
G03*
X103750Y81900I-19J19D01*
G01*
X102903Y80978D02*
X103787Y81862D01*
X102866Y81016D02*
G03*
X102903Y80978I19J-19D01*
G01*
X102512Y81369D02*
X103396Y82253D01*
X103434Y82216D02*
G03*
X103396Y82253I-19J19D01*
G01*
X102550Y81332D02*
X103434Y82216D01*
X102512Y81369D02*
G03*
X102550Y81332I19J-19D01*
G01*
X102159Y81723D02*
X103043Y82607D01*
X103080Y82569D02*
G03*
X103043Y82607I-19J19D01*
G01*
X102196Y81685D02*
X103080Y82569D01*
X102159Y81723D02*
G03*
X102196Y81685I19J-19D01*
G01*
X101805Y82076D02*
X102689Y82960D01*
X102727Y82923D02*
G03*
X102689Y82960I-19J19D01*
G01*
X101843Y82039D02*
X102727Y82923D01*
X101805Y82076D02*
G03*
X101843Y82039I19J-19D01*
G01*
X101452Y82395D02*
X102336Y83278D01*
X102373Y83241D02*
G03*
X102336Y83278I-19J19D01*
G01*
X101489Y82357D02*
X102373Y83241D01*
X101452Y82395D02*
G03*
X101489Y82357I19J-19D01*
G01*
X101098Y82784D02*
X101982Y83667D01*
X102020Y83630D02*
G03*
X101982Y83667I-19J19D01*
G01*
X101136Y82746D02*
X102020Y83630D01*
X101098Y82784D02*
G03*
X101136Y82746I19J-19D01*
G01*
X116654Y89147D02*
X117538Y90031D01*
X117576Y89994D02*
G03*
X117538Y90031I-19J19D01*
G01*
X116692Y89110D02*
X117576Y89994D01*
X116654Y89147D02*
G03*
X116692Y89110I19J-19D01*
G01*
X115240Y90562D02*
X116124Y91446D01*
X116162Y91408D02*
G03*
X116124Y91446I-19J19D01*
G01*
X115278Y90524D02*
X116162Y91408D01*
X115240Y90562D02*
G03*
X115278Y90524I19J-19D01*
G01*
X115594Y90208D02*
X116478Y91092D01*
X116515Y91054D02*
G03*
X116478Y91092I-19J19D01*
G01*
X115631Y90171D02*
X116515Y91054D01*
X115594Y90208D02*
G03*
X115631Y90171I19J-19D01*
G01*
X118813Y83314D02*
X119697Y82430D01*
X119660Y82392D02*
G03*
X119697Y82430I19J19D01*
G01*
X118776Y83276D02*
X119660Y82392D01*
X118813Y83314D02*
G03*
X118776Y83276I-19J-19D01*
G01*
X119167Y83667D02*
X120051Y82784D01*
X120013Y82746D02*
G03*
X120051Y82784I19J19D01*
G01*
X119129Y83630D02*
X120013Y82746D01*
X119167Y83667D02*
G03*
X119129Y83630I-19J-19D01*
G01*
X100391Y83491D02*
X101275Y84374D01*
X101312Y84337D02*
G03*
X101275Y84374I-19J19D01*
G01*
X100429Y83453D02*
X101312Y84337D01*
X100391Y83491D02*
G03*
X100429Y83453I19J-19D01*
G01*
X100745Y83137D02*
X101628Y84021D01*
X101666Y83983D02*
G03*
X101628Y84021I-19J19D01*
G01*
X100782Y83099D02*
X101666Y83983D01*
X100745Y83137D02*
G03*
X100782Y83099I19J-19D01*
G01*
X108523Y75359D02*
X109407Y76243D01*
X109444Y76205D02*
G03*
X109407Y76243I-19J19D01*
G01*
X108560Y75321D02*
X109444Y76205D01*
X108523Y75359D02*
G03*
X108560Y75321I19J-19D01*
G01*
X116692Y81193D02*
X117576Y80309D01*
X117538Y80271D02*
G03*
X117576Y80309I19J19D01*
G01*
X116654Y81155D02*
X117538Y80271D01*
X116692Y81193D02*
G03*
X116654Y81155I-19J-19D01*
G01*
X117399Y81900D02*
X118283Y81016D01*
X118245Y80978D02*
G03*
X118283Y81016I19J19D01*
G01*
X117361Y81862D02*
X118245Y80978D01*
X117399Y81900D02*
G03*
X117361Y81862I-19J-19D01*
G01*
X113119Y92683D02*
X114003Y93567D01*
X114040Y93529D02*
G03*
X114003Y93567I-19J19D01*
G01*
X113157Y92645D02*
X114040Y93529D01*
X113119Y92683D02*
G03*
X113157Y92645I19J-19D01*
G01*
X108169Y75712D02*
X109053Y76596D01*
X109091Y76559D02*
G03*
X109053Y76596I-19J19D01*
G01*
X108207Y75675D02*
X109091Y76559D01*
X108169Y75712D02*
G03*
X108207Y75675I19J-19D01*
G01*
D45*
X112521Y74969D02*
X112271Y74719D01*
X111138Y75853D01*
X111388Y76102D01*
X112521Y74969D01*
X112403D02*
X112271Y74837D01*
X111256Y75853D01*
X111388Y75985D01*
X112403Y74969D01*
X112285D02*
X112271Y74955D01*
X111373Y75853D01*
X111388Y75867D01*
X112285Y74969D01*
X112229Y75030D02*
X111430Y75792D01*
D65*
X33515Y90460D02*
D03*
Y87660D02*
D03*
X35502Y67980D02*
D03*
X35502Y70780D02*
D03*
X38103Y67980D02*
D03*
X38103Y70780D02*
D03*
X32902Y67980D02*
D03*
X32902Y70780D02*
D03*
X19255Y68768D02*
D03*
Y71568D02*
D03*
X28957Y81670D02*
D03*
Y78870D02*
D03*
X81338Y53755D02*
D03*
X81338Y50955D02*
D03*
X17404Y105177D02*
D03*
Y107977D02*
D03*
X61816Y81520D02*
D03*
Y78720D02*
D03*
X72169Y76716D02*
D03*
Y73916D02*
D03*
Y79616D02*
D03*
Y82416D02*
D03*
X101332Y11891D02*
D03*
X101332Y14691D02*
D03*
X110246Y52149D02*
D03*
X110246Y54949D02*
D03*
X102983Y43948D02*
D03*
X102983Y41148D02*
D03*
X121309Y57074D02*
D03*
X121309Y54274D02*
D03*
X100770Y59299D02*
D03*
X100770Y62099D02*
D03*
X101659Y56624D02*
D03*
Y53824D02*
D03*
X99059Y56624D02*
D03*
Y53824D02*
D03*
X96181Y55287D02*
D03*
X96181Y52487D02*
D03*
X118946Y57149D02*
D03*
X118946Y59949D02*
D03*
X104133Y19043D02*
D03*
X154881Y98939D02*
D03*
Y96139D02*
D03*
X157671Y98954D02*
D03*
Y96154D02*
D03*
X157678Y101548D02*
D03*
Y104348D02*
D03*
X138971Y80854D02*
D03*
Y78054D02*
D03*
X157671Y88154D02*
D03*
X157671Y85354D02*
D03*
X157678Y90748D02*
D03*
Y93548D02*
D03*
X106643Y98688D02*
D03*
Y101488D02*
D03*
X170810Y80084D02*
D03*
Y82884D02*
D03*
X174981Y18139D02*
D03*
Y20939D02*
D03*
X128453Y43164D02*
D03*
Y40364D02*
D03*
X155892Y3598D02*
D03*
Y6398D02*
D03*
X101032Y21843D02*
D03*
Y19043D02*
D03*
X168210Y82884D02*
D03*
Y80084D02*
D03*
X176018Y82872D02*
D03*
X176018Y80072D02*
D03*
X154874Y101551D02*
D03*
Y104351D02*
D03*
X137768Y85964D02*
D03*
X137768Y83164D02*
D03*
X170667Y106528D02*
D03*
X154881Y88139D02*
D03*
Y85339D02*
D03*
X173411Y80084D02*
D03*
Y82884D02*
D03*
X154868Y90764D02*
D03*
Y93564D02*
D03*
X140568Y83164D02*
D03*
Y85964D02*
D03*
X170667Y103728D02*
D03*
X152421Y94178D02*
D03*
X152421Y96978D02*
D03*
X126562Y57139D02*
D03*
Y54339D02*
D03*
X104133Y21843D02*
D03*
D66*
X28807Y90223D02*
D03*
Y92723D02*
D03*
X19807D02*
D03*
X19807Y90223D02*
D03*
D67*
X29261Y64448D02*
D03*
Y65099D02*
D03*
Y65748D02*
D03*
Y66398D02*
D03*
Y67048D02*
D03*
Y67698D02*
D03*
Y68349D02*
D03*
Y68998D02*
D03*
Y69648D02*
D03*
Y70298D02*
D03*
Y70949D02*
D03*
Y71598D02*
D03*
Y72248D02*
D03*
Y72898D02*
D03*
X22461Y64448D02*
D03*
Y65099D02*
D03*
Y65748D02*
D03*
Y66398D02*
D03*
Y67048D02*
D03*
Y67698D02*
D03*
Y68349D02*
D03*
Y68998D02*
D03*
Y69648D02*
D03*
Y70298D02*
D03*
Y70949D02*
D03*
Y71598D02*
D03*
Y72248D02*
D03*
D68*
X22461Y72898D02*
D03*
D69*
X33381Y76900D02*
D03*
Y77700D02*
D03*
Y78500D02*
D03*
Y79300D02*
D03*
X33361Y80100D02*
D03*
D70*
X33381Y74050D02*
D03*
X38653D02*
D03*
X33381Y82950D02*
D03*
X38653D02*
D03*
D71*
X29695Y75812D02*
D03*
X26895Y75813D02*
D03*
X14753Y108927D02*
D03*
X11953D02*
D03*
X44063Y48907D02*
D03*
X46863D02*
D03*
X44063Y42707D02*
D03*
X46863D02*
D03*
X44063Y45807D02*
D03*
X46863D02*
D03*
X70163Y42707D02*
D03*
X72963Y42707D02*
D03*
X44000Y51700D02*
D03*
X46800D02*
D03*
X82013Y31757D02*
D03*
X79213Y31757D02*
D03*
X70068Y86472D02*
D03*
X72868D02*
D03*
X57957Y76709D02*
D03*
X55157D02*
D03*
X57957Y79809D02*
D03*
X55157D02*
D03*
X10262Y56329D02*
D03*
X13062Y56329D02*
D03*
X6945Y56295D02*
D03*
X4145D02*
D03*
X4206Y53542D02*
D03*
X7006Y53542D02*
D03*
X13094Y53499D02*
D03*
X10294Y53499D02*
D03*
X25494Y52712D02*
D03*
X22694Y52712D02*
D03*
X85610Y40767D02*
D03*
X82810Y40767D02*
D03*
X113334Y16513D02*
D03*
X116133D02*
D03*
X126218Y11961D02*
D03*
X123418Y11961D02*
D03*
X98375Y62402D02*
D03*
X95575D02*
D03*
X129670Y36703D02*
D03*
X126870Y36703D02*
D03*
X130720Y24350D02*
D03*
X127920Y24350D02*
D03*
X130694Y27201D02*
D03*
X127894Y27201D02*
D03*
Y30002D02*
D03*
X130694Y30002D02*
D03*
X159677Y59873D02*
D03*
X162477Y59873D02*
D03*
X155387Y46558D02*
D03*
X158187Y46558D02*
D03*
X175730Y109885D02*
D03*
X172930Y109885D02*
D03*
X158562Y27045D02*
D03*
X137287Y25710D02*
D03*
X134487D02*
D03*
X148259Y107325D02*
D03*
X151059D02*
D03*
X137161Y55668D02*
D03*
X134361D02*
D03*
X152127Y82404D02*
D03*
X149327Y82404D02*
D03*
X154779Y30160D02*
D03*
X151979Y30160D02*
D03*
X154937Y82408D02*
D03*
X157737D02*
D03*
X176487Y7358D02*
D03*
X173687D02*
D03*
X154787Y14258D02*
D03*
X151987D02*
D03*
X158562Y14747D02*
D03*
X161362D02*
D03*
X154787Y17558D02*
D03*
X151987D02*
D03*
X158562Y17545D02*
D03*
X161362D02*
D03*
X154787Y20758D02*
D03*
X151987Y20758D02*
D03*
X158562Y20745D02*
D03*
X161362D02*
D03*
X153012Y73595D02*
D03*
X152962Y67945D02*
D03*
X154787Y23958D02*
D03*
X151987D02*
D03*
X158562Y23945D02*
D03*
X161362D02*
D03*
X154276Y51971D02*
D03*
X157076D02*
D03*
X162502Y52008D02*
D03*
X159702D02*
D03*
X153012Y70795D02*
D03*
X153024Y65301D02*
D03*
X154787Y27058D02*
D03*
X151987Y27058D02*
D03*
X161362Y27045D02*
D03*
X155387Y33358D02*
D03*
X158187D02*
D03*
X151662Y33345D02*
D03*
X148862D02*
D03*
X162477Y54671D02*
D03*
X159677Y54671D02*
D03*
X158187Y36658D02*
D03*
X155387D02*
D03*
X148862Y36645D02*
D03*
X151662D02*
D03*
X147137Y98808D02*
D03*
X149937Y98808D02*
D03*
X155387Y39958D02*
D03*
X158187D02*
D03*
X148862Y39945D02*
D03*
X151662D02*
D03*
X149987Y95908D02*
D03*
X147187Y95908D02*
D03*
X174818Y73620D02*
D03*
X172018D02*
D03*
X155387Y43258D02*
D03*
X158187D02*
D03*
X157737Y107308D02*
D03*
X154937D02*
D03*
X148862Y43245D02*
D03*
X151662D02*
D03*
X158562Y30145D02*
D03*
X161362Y30145D02*
D03*
X151674Y46551D02*
D03*
X148874D02*
D03*
X150162Y78845D02*
D03*
X152962Y78845D02*
D03*
X150162Y76245D02*
D03*
X152962Y76245D02*
D03*
X147137Y93358D02*
D03*
X149937D02*
D03*
X171980Y76427D02*
D03*
X174780D02*
D03*
X149912Y90795D02*
D03*
X147112Y90795D02*
D03*
X150212Y73595D02*
D03*
X150162Y67945D02*
D03*
X150212Y70795D02*
D03*
X150224Y65301D02*
D03*
X96337Y92708D02*
D03*
X93537D02*
D03*
X132896Y34665D02*
D03*
X135696Y34665D02*
D03*
X123418Y6809D02*
D03*
X126218Y6809D02*
D03*
X159627Y62423D02*
D03*
X162427D02*
D03*
X157068Y62426D02*
D03*
X154268D02*
D03*
X157068Y59875D02*
D03*
X154268D02*
D03*
X157068Y54674D02*
D03*
X154268D02*
D03*
X157068Y57274D02*
D03*
X154268Y57274D02*
D03*
X162477Y57272D02*
D03*
X159677D02*
D03*
D72*
X24880Y78596D02*
D03*
Y79866D02*
D03*
Y81136D02*
D03*
Y82406D02*
D03*
Y83676D02*
D03*
Y86216D02*
D03*
X15630Y78596D02*
D03*
Y79866D02*
D03*
Y81136D02*
D03*
Y82406D02*
D03*
Y83676D02*
D03*
Y86216D02*
D03*
X24880Y77326D02*
D03*
X15630D02*
D03*
X24880Y84946D02*
D03*
D73*
X15630Y84946D02*
D03*
D74*
X14305Y104298D02*
D03*
X13355Y106498D02*
D03*
X12405Y104298D02*
D03*
X16648Y54319D02*
D03*
X17598Y56519D02*
D03*
X15698D02*
D03*
D75*
X76402Y42652D02*
D03*
X78602Y41702D02*
D03*
Y43602D02*
D03*
X93822Y23255D02*
D03*
Y25154D02*
D03*
X96022Y24205D02*
D03*
X173422Y105426D02*
D03*
X173422Y107326D02*
D03*
X175622Y106376D02*
D03*
D76*
X81275Y38300D02*
D03*
Y36400D02*
D03*
X79125D02*
D03*
Y37350D02*
D03*
X141633Y107151D02*
D03*
Y108101D02*
D03*
Y109051D02*
D03*
X139483D02*
D03*
D77*
X79125Y38300D02*
D03*
X139483Y107151D02*
D03*
D78*
X107377Y31710D02*
D03*
X108027D02*
D03*
X108677D02*
D03*
X109327D02*
D03*
X109977D02*
D03*
X110627D02*
D03*
X111277D02*
D03*
X112577D02*
D03*
X113227D02*
D03*
X107377Y37410D02*
D03*
X108027D02*
D03*
X108677D02*
D03*
X109327D02*
D03*
X109977D02*
D03*
X110627D02*
D03*
X111277D02*
D03*
X111927D02*
D03*
X112577D02*
D03*
X113227D02*
D03*
X111927Y31710D02*
D03*
D79*
X113852Y2908D02*
D03*
Y5448D02*
D03*
Y9258D02*
D03*
X113852Y10528D02*
D03*
X113852Y11798D02*
D03*
X108652Y4178D02*
D03*
X108652Y5448D02*
D03*
Y11798D02*
D03*
X146374Y88756D02*
D03*
Y87486D02*
D03*
Y86216D02*
D03*
Y84946D02*
D03*
X151574Y88756D02*
D03*
Y87486D02*
D03*
Y86216D02*
D03*
X151585Y102019D02*
D03*
Y103289D02*
D03*
Y104559D02*
D03*
X146385D02*
D03*
X113852Y4178D02*
D03*
X108652Y2908D02*
D03*
Y9258D02*
D03*
X108652Y6718D02*
D03*
Y10528D02*
D03*
D80*
X99474Y44261D02*
D03*
X94474D02*
D03*
X94474Y40261D02*
D03*
X99474Y40261D02*
D03*
D81*
X136609Y89426D02*
D03*
X140419Y98676D02*
D03*
X132799D02*
D03*
X134069Y98676D02*
D03*
X131529Y89426D02*
D03*
D82*
X139999Y59606D02*
D03*
X139954Y29949D02*
D03*
X139999Y60876D02*
D03*
X145804Y26139D02*
D03*
X145804Y24869D02*
D03*
X139999Y58336D02*
D03*
Y54526D02*
D03*
X145849Y55796D02*
D03*
X139999Y57066D02*
D03*
Y55796D02*
D03*
Y62146D02*
D03*
D83*
X93319Y95201D02*
D03*
X95859D02*
D03*
X97129D02*
D03*
X93319Y100901D02*
D03*
X94589D02*
D03*
X97129D02*
D03*
X94589Y95201D02*
D03*
X95859Y100901D02*
D03*
D84*
X160433Y43207D02*
D03*
X162333D02*
D03*
X160433Y46608D02*
D03*
X162333D02*
D03*
Y33346D02*
D03*
X160433D02*
D03*
X162333Y36646D02*
D03*
X160433D02*
D03*
X162333Y39946D02*
D03*
X160433D02*
D03*
D85*
X139954Y31219D02*
D03*
Y23599D02*
D03*
Y28679D02*
D03*
Y27409D02*
D03*
Y26139D02*
D03*
X145804Y32489D02*
D03*
Y31219D02*
D03*
Y29949D02*
D03*
X139954Y24869D02*
D03*
X145804Y23599D02*
D03*
Y28679D02*
D03*
Y27409D02*
D03*
X139999Y53256D02*
D03*
X145849Y62146D02*
D03*
Y60876D02*
D03*
Y59606D02*
D03*
Y58336D02*
D03*
Y57066D02*
D03*
Y54526D02*
D03*
Y53256D02*
D03*
X139954Y32489D02*
D03*
D86*
X163336Y64801D02*
D03*
Y66071D02*
D03*
Y68611D02*
D03*
X158136Y64801D02*
D03*
Y66071D02*
D03*
Y67341D02*
D03*
Y68611D02*
D03*
X163324Y70296D02*
D03*
Y71566D02*
D03*
Y72836D02*
D03*
Y74106D02*
D03*
X158124Y70296D02*
D03*
Y71566D02*
D03*
Y72836D02*
D03*
Y74106D02*
D03*
X163324Y75696D02*
D03*
Y76966D02*
D03*
Y78236D02*
D03*
Y79506D02*
D03*
X158124Y75696D02*
D03*
Y76966D02*
D03*
Y78236D02*
D03*
Y79506D02*
D03*
D87*
X163336Y67341D02*
D03*
D88*
X151574Y84946D02*
D03*
X146385Y100749D02*
D03*
Y102019D02*
D03*
Y103289D02*
D03*
X151585Y100749D02*
D03*
X113852Y6718D02*
D03*
Y7988D02*
D03*
X108652D02*
D03*
D89*
X139149Y98676D02*
D03*
X137879D02*
D03*
X131529D02*
D03*
X140419Y89426D02*
D03*
X139149D02*
D03*
X137879D02*
D03*
X134069D02*
D03*
X132799D02*
D03*
X136609Y98676D02*
D03*
X135339D02*
D03*
Y89426D02*
D03*
D90*
X124905Y39857D02*
D03*
Y43667D02*
D03*
X119205Y42397D02*
D03*
Y43667D02*
D03*
D91*
X124905Y41127D02*
D03*
Y42397D02*
D03*
X119205Y41127D02*
D03*
Y39857D02*
D03*
D92*
X35961Y80700D02*
D03*
Y76300D02*
D03*
X10053Y109900D02*
D03*
X16997Y109828D02*
D03*
X4051Y58115D02*
D03*
X3351Y95324D02*
D03*
X86722Y47300D02*
D03*
X85422Y30858D02*
D03*
X17905Y82371D02*
D03*
X19255Y88122D02*
D03*
X17955Y79870D02*
D03*
X15854Y87322D02*
D03*
X17905Y78120D02*
D03*
X15004Y76269D02*
D03*
X38110Y71518D02*
D03*
X35509Y71618D02*
D03*
X37659Y76419D02*
D03*
X33358Y76269D02*
D03*
X32908Y71618D02*
D03*
X27557Y68367D02*
D03*
X31097Y66317D02*
D03*
X27607Y71218D02*
D03*
X24356Y68467D02*
D03*
X24456Y70268D02*
D03*
X27207Y83621D02*
D03*
X27057Y90223D02*
D03*
X28857Y84971D02*
D03*
X31258Y75119D02*
D03*
X2401Y50163D02*
D03*
X3901D02*
D03*
X4051Y51763D02*
D03*
X10253Y58565D02*
D03*
X17554Y58600D02*
D03*
X37409Y78020D02*
D03*
X68317Y86372D02*
D03*
X68717Y83421D02*
D03*
X122855Y27208D02*
D03*
X132557Y28558D02*
D03*
X126756Y18956D02*
D03*
X130507Y17305D02*
D03*
X129207Y45801D02*
D03*
X143560Y27658D02*
D03*
X125005Y30009D02*
D03*
X92597Y86973D02*
D03*
X105000Y8003D02*
D03*
Y27558D02*
D03*
X93598Y27958D02*
D03*
X93297Y85072D02*
D03*
X94898Y29408D02*
D03*
X103350Y9203D02*
D03*
X103300Y29458D02*
D03*
X93748Y83572D02*
D03*
X93798Y36360D02*
D03*
X105751Y36460D02*
D03*
X105801Y6753D02*
D03*
X105601Y30759D02*
D03*
X94398Y81722D02*
D03*
X94348Y65618D02*
D03*
X95248Y66768D02*
D03*
X95598Y68268D02*
D03*
X97198Y67768D02*
D03*
X97098Y69819D02*
D03*
X98499Y69319D02*
D03*
X104550Y35360D02*
D03*
X103350Y34460D02*
D03*
X121155Y68418D02*
D03*
D93*
X14000Y92700D02*
D03*
X16500D02*
D03*
X14000Y90200D02*
D03*
X16500D02*
D03*
X14000Y66700D02*
D03*
X16500D02*
D03*
X14000Y64200D02*
D03*
X16500D02*
D03*
X20350Y106300D02*
D03*
X78809Y50101D02*
D03*
X75069Y66716D02*
D03*
X72269Y66716D02*
D03*
X72269Y64216D02*
D03*
Y90016D02*
D03*
Y92416D02*
D03*
X75069Y64216D02*
D03*
X75069Y90016D02*
D03*
X64419Y73871D02*
D03*
X75069Y92416D02*
D03*
X84321Y49663D02*
D03*
X146561Y6501D02*
D03*
X96822Y34001D02*
D03*
X120322D02*
D03*
X122822D02*
D03*
X94322Y31501D02*
D03*
X120322D02*
D03*
X122822D02*
D03*
X172274Y28851D02*
D03*
X111174Y106301D02*
D03*
X94322Y19001D02*
D03*
Y16501D02*
D03*
X96822Y19001D02*
D03*
Y16501D02*
D03*
X120322Y19001D02*
D03*
Y16501D02*
D03*
X122822Y19001D02*
D03*
Y16501D02*
D03*
X94322Y34001D02*
D03*
X96822Y31501D02*
D03*
D94*
X22890Y106300D02*
D03*
X22890Y108840D02*
D03*
X25430Y106300D02*
D03*
Y108840D02*
D03*
X27970Y106300D02*
D03*
X27970Y108840D02*
D03*
X30510Y106300D02*
D03*
Y108840D02*
D03*
X33050Y106300D02*
D03*
Y108840D02*
D03*
X35590Y106300D02*
D03*
Y108840D02*
D03*
X38130Y106300D02*
D03*
Y108840D02*
D03*
X40670Y106300D02*
D03*
Y108840D02*
D03*
X43210Y106300D02*
D03*
Y108840D02*
D03*
X20350D02*
D03*
X78809Y55101D02*
D03*
X72809Y55101D02*
D03*
Y50101D02*
D03*
X53169Y82116D02*
D03*
X54689Y74546D02*
D03*
X66969Y80221D02*
D03*
X64419Y76411D02*
D03*
X66969Y75141D02*
D03*
X54689Y84626D02*
D03*
X53169Y72006D02*
D03*
X64419Y78951D02*
D03*
X66969Y77681D02*
D03*
X66969Y82761D02*
D03*
X64419Y81491D02*
D03*
X84321Y54743D02*
D03*
Y52203D02*
D03*
X133861Y3961D02*
D03*
Y6501D02*
D03*
X131321Y3961D02*
D03*
Y6501D02*
D03*
X141481Y3961D02*
D03*
X146561Y3961D02*
D03*
X144021Y6501D02*
D03*
X144021Y3961D02*
D03*
X141481Y6501D02*
D03*
X138941D02*
D03*
Y3961D02*
D03*
X136401Y6501D02*
D03*
Y3961D02*
D03*
X174814Y46631D02*
D03*
X107051Y39969D02*
D03*
X107051Y44969D02*
D03*
X120054Y6911D02*
D03*
X120054Y11911D02*
D03*
X174814Y49171D02*
D03*
X172274D02*
D03*
X172274Y51711D02*
D03*
X172274Y33931D02*
D03*
X172274Y64411D02*
D03*
X174814Y61871D02*
D03*
X172274Y61871D02*
D03*
X174814Y59331D02*
D03*
X172274D02*
D03*
X174814Y56791D02*
D03*
X172274D02*
D03*
X174814Y54251D02*
D03*
X172274Y54251D02*
D03*
X174814Y69491D02*
D03*
X172274Y69491D02*
D03*
X174814Y66951D02*
D03*
X172274D02*
D03*
X174814Y44091D02*
D03*
Y51711D02*
D03*
Y64411D02*
D03*
X172274Y39011D02*
D03*
X121334Y108841D02*
D03*
X116254D02*
D03*
X113714D02*
D03*
X113714Y106301D02*
D03*
X111174Y108841D02*
D03*
X126414Y106301D02*
D03*
X131494D02*
D03*
X118794Y108841D02*
D03*
X126075Y81943D02*
D03*
Y76943D02*
D03*
X134274Y80859D02*
D03*
Y85859D02*
D03*
X116254Y106301D02*
D03*
X118794D02*
D03*
X121334Y106301D02*
D03*
X123874Y106301D02*
D03*
X128954Y106301D02*
D03*
Y108841D02*
D03*
X131494D02*
D03*
X134034Y106301D02*
D03*
Y108841D02*
D03*
X123874Y108841D02*
D03*
X126414D02*
D03*
X53500Y61785D02*
D03*
X55000D02*
D03*
X53500Y95065D02*
D03*
X55000D02*
D03*
X38000Y95065D02*
D03*
X36500D02*
D03*
X38000Y61800D02*
D03*
X36500D02*
D03*
X89924Y8801D02*
D03*
Y6801D02*
D03*
X89874Y103251D02*
D03*
Y105251D02*
D03*
D95*
X63600Y48830D02*
D03*
X51100Y48750D02*
D03*
Y43750D02*
D03*
X45780Y25700D02*
D03*
X45700Y38200D02*
D03*
X40700D02*
D03*
X51150Y34400D02*
D03*
X63650Y34480D02*
D03*
X51150Y29400D02*
D03*
X74050Y25800D02*
D03*
X73970Y38300D02*
D03*
X68970Y38300D02*
D03*
X59980Y11500D02*
D03*
X59900Y24000D02*
D03*
X54900D02*
D03*
D96*
X63600Y43750D02*
D03*
X40700Y25700D02*
D03*
X63650Y29400D02*
D03*
X68970Y25800D02*
D03*
X54900Y11500D02*
D03*
D97*
X27813Y100131D02*
D03*
X55753D02*
D03*
X53213D02*
D03*
X50673D02*
D03*
X48133D02*
D03*
X45593D02*
D03*
X43053D02*
D03*
X40513D02*
D03*
X37973D02*
D03*
X35433D02*
D03*
X32893D02*
D03*
X20193D02*
D03*
X17653D02*
D03*
X25273D02*
D03*
X22733D02*
D03*
X58293D02*
D03*
X15113D02*
D03*
X30353D02*
D03*
X60833D02*
D03*
D98*
X12573D02*
D03*
D99*
X19185Y51936D02*
D03*
X173886Y12143D02*
D03*
D100*
X16685Y51936D02*
D03*
X176386Y12143D02*
D03*
X164180Y94541D02*
D03*
X174180D02*
D03*
X176680Y102041D02*
D03*
X161680D02*
D03*
X164180Y85241D02*
D03*
X174180D02*
D03*
X176680Y92741D02*
D03*
X161680D02*
D03*
D101*
X61069Y70416D02*
D03*
Y86216D02*
D03*
D102*
X58069Y84016D02*
D03*
Y72616D02*
D03*
X82400Y98600D02*
D03*
X83900Y62650D02*
D03*
X4950D02*
D03*
X6500Y98600D02*
D03*
D103*
X6000Y106700D02*
D03*
X6000Y4700D02*
D03*
X74000Y4700D02*
D03*
X74000Y106700D02*
D03*
X164824Y106701D02*
D03*
X164824Y4701D02*
D03*
X96824D02*
D03*
X96824Y106701D02*
D03*
D104*
X135534Y9002D02*
D03*
X133871D02*
D03*
X128682Y3951D02*
D03*
X130633Y9002D02*
D03*
X98872Y88122D02*
D03*
X97772Y87022D02*
D03*
X99925Y89151D02*
D03*
X85472Y57865D02*
D03*
X8002Y92900D02*
D03*
X5501Y90473D02*
D03*
X68017Y52913D02*
D03*
X70518Y50463D02*
D03*
X83021Y69768D02*
D03*
Y74800D02*
D03*
Y79900D02*
D03*
Y84900D02*
D03*
X83050Y89923D02*
D03*
X83021Y94800D02*
D03*
X75519Y99025D02*
D03*
X70518D02*
D03*
X66017Y99900D02*
D03*
X63166Y102300D02*
D03*
X60350Y104726D02*
D03*
X56214Y102800D02*
D03*
X53550Y104876D02*
D03*
X67667Y108500D02*
D03*
X83021Y105427D02*
D03*
X85472Y107977D02*
D03*
X80470D02*
D03*
X8002Y62966D02*
D03*
X63016Y57965D02*
D03*
X60450Y56614D02*
D03*
X58015Y57900D02*
D03*
X55514Y56664D02*
D03*
X53013Y57965D02*
D03*
X50450Y56614D02*
D03*
X48062Y57900D02*
D03*
X45511Y56764D02*
D03*
X43011Y57965D02*
D03*
X40510Y56700D02*
D03*
X38010Y57965D02*
D03*
X35509Y55400D02*
D03*
X33008Y57965D02*
D03*
X30550Y55414D02*
D03*
X28007Y57900D02*
D03*
X25506Y55500D02*
D03*
X23006Y57965D02*
D03*
X20450Y55464D02*
D03*
X8102Y58665D02*
D03*
X72218Y78170D02*
D03*
X52863Y78270D02*
D03*
X80720Y55614D02*
D03*
X81750Y56650D02*
D03*
X41750Y54000D02*
D03*
Y42650D02*
D03*
X79125Y39900D02*
D03*
X84300Y43550D02*
D03*
X81150Y34750D02*
D03*
X58315Y107727D02*
D03*
X68350Y42900D02*
D03*
X68400Y47900D02*
D03*
X58293Y109678D02*
D03*
X50450Y106200D02*
D03*
X48150Y107850D02*
D03*
X3751Y100275D02*
D03*
X2598Y101476D02*
D03*
X31750Y103450D02*
D03*
X34250Y102650D02*
D03*
X53150Y45800D02*
D03*
X53450Y34400D02*
D03*
X61050Y52000D02*
D03*
X73050Y40400D02*
D03*
X46850Y40850D02*
D03*
X80570Y48862D02*
D03*
X68717Y65466D02*
D03*
Y70918D02*
D03*
X173944Y16554D02*
D03*
X170593Y14954D02*
D03*
X163541Y18155D02*
D03*
X137309Y38611D02*
D03*
X126656Y40761D02*
D03*
X127806Y49063D02*
D03*
X126706Y42762D02*
D03*
Y50364D02*
D03*
X132207Y51314D02*
D03*
X148162Y52264D02*
D03*
X136058Y52564D02*
D03*
X142874Y52714D02*
D03*
X158414Y51964D02*
D03*
X152362D02*
D03*
X123155Y88173D02*
D03*
X116853Y37511D02*
D03*
X116903Y43662D02*
D03*
X113603Y63767D02*
D03*
X103390Y55149D02*
D03*
X103027Y51699D02*
D03*
X103577Y53250D02*
D03*
X102602Y62187D02*
D03*
X123824Y65051D02*
D03*
X123224Y48101D02*
D03*
X103152Y60687D02*
D03*
X97776Y59651D02*
D03*
X98776Y48499D02*
D03*
X113728Y51248D02*
D03*
X111952Y63787D02*
D03*
X99676Y64103D02*
D03*
X136408Y95825D02*
D03*
X141460Y102277D02*
D03*
X138309Y102227D02*
D03*
X131357Y32909D02*
D03*
X136508Y30909D02*
D03*
X132583Y36109D02*
D03*
X135724Y57766D02*
D03*
X136558Y32709D02*
D03*
X151662Y91624D02*
D03*
X145311Y93358D02*
D03*
X144260Y91274D02*
D03*
X143410Y97326D02*
D03*
X133258Y96175D02*
D03*
X102300Y97126D02*
D03*
X93348Y97025D02*
D03*
X156663Y17551D02*
D03*
Y23951D02*
D03*
X116024Y86923D02*
D03*
X143960Y10654D02*
D03*
X126605Y89322D02*
D03*
X126705Y90673D02*
D03*
X156663Y27058D02*
D03*
X136074Y68651D02*
D03*
X136574Y79001D02*
D03*
X134924Y76451D02*
D03*
X125824Y79151D02*
D03*
X123524Y83551D02*
D03*
X103452Y65787D02*
D03*
X147724Y31601D02*
D03*
X159924Y86551D02*
D03*
X141760Y31359D02*
D03*
X142474Y75501D02*
D03*
X130274Y5301D02*
D03*
X100724Y78851D02*
D03*
X132374Y57201D02*
D03*
X113202Y57137D02*
D03*
X109352Y59137D02*
D03*
X107352Y56837D02*
D03*
X108451Y79921D02*
D03*
X114524Y81201D02*
D03*
X113024Y90451D02*
D03*
X109674Y92401D02*
D03*
X104800Y86151D02*
D03*
X105274Y82651D02*
D03*
X132574Y10751D02*
D03*
X134824Y17751D02*
D03*
X148124D02*
D03*
Y28501D02*
D03*
X135574Y21901D02*
D03*
X140324Y96601D02*
D03*
X164368Y43245D02*
D03*
X164374Y39951D02*
D03*
X164368Y36645D02*
D03*
X164115Y33309D02*
D03*
X164274Y46601D02*
D03*
X143710Y85273D02*
D03*
X132624Y101877D02*
D03*
X153513Y36651D02*
D03*
X138259Y53214D02*
D03*
X141724Y47001D02*
D03*
X141810Y24657D02*
D03*
X156663Y14255D02*
D03*
Y20745D02*
D03*
X137824Y48201D02*
D03*
X152012Y90024D02*
D03*
X153063Y105728D02*
D03*
X148474Y84051D02*
D03*
X142724Y20801D02*
D03*
X142110Y28458D02*
D03*
X141710Y26208D02*
D03*
X139924Y19251D02*
D03*
X141424Y15951D02*
D03*
X159474Y101551D02*
D03*
X154874Y68001D02*
D03*
X153513Y39951D02*
D03*
X142874Y41651D02*
D03*
X142510Y29959D02*
D03*
X153513Y46560D02*
D03*
Y43251D02*
D03*
X139024Y44851D02*
D03*
X138159Y28658D02*
D03*
X154874Y65273D02*
D03*
Y73595D02*
D03*
X174574Y78101D02*
D03*
X171024Y78120D02*
D03*
X170824Y92751D02*
D03*
X172374Y91551D02*
D03*
X159674Y90951D02*
D03*
X154874Y70795D02*
D03*
Y78801D02*
D03*
Y76251D02*
D03*
X153513Y33358D02*
D03*
X144824Y35051D02*
D03*
X144660Y22257D02*
D03*
X144774Y38251D02*
D03*
X137335Y23656D02*
D03*
X141610Y91874D02*
D03*
X122624Y100001D02*
D03*
X117724D02*
D03*
X123524Y98951D02*
D03*
X118324Y98801D02*
D03*
X123524Y96551D02*
D03*
X117752Y96424D02*
D03*
X118603Y95424D02*
D03*
X124974Y94351D02*
D03*
X117752Y94374D02*
D03*
X123904Y93173D02*
D03*
X116952Y93374D02*
D03*
X114774Y102151D02*
D03*
X113403Y102177D02*
D03*
X111951Y102376D02*
D03*
X130724Y80551D02*
D03*
X130074Y90201D02*
D03*
X136674Y105601D02*
D03*
X122253Y91123D02*
D03*
X129124Y91301D02*
D03*
X130574Y79151D02*
D03*
X131957Y69819D02*
D03*
X146774Y76351D02*
D03*
X143924Y73701D02*
D03*
X133924Y65001D02*
D03*
X136074Y66701D02*
D03*
X134074Y66951D02*
D03*
X120252Y50337D02*
D03*
X95425Y50449D02*
D03*
X121602Y50337D02*
D03*
X95425Y48999D02*
D03*
X122952Y50287D02*
D03*
X96825Y48949D02*
D03*
X101374Y74151D02*
D03*
X102174Y75201D02*
D03*
X101374Y76251D02*
D03*
X122174Y67301D02*
D03*
X102174Y77351D02*
D03*
X107451Y63767D02*
D03*
X102174Y79151D02*
D03*
X112324Y98751D02*
D03*
X128474Y100051D02*
D03*
X128624Y79551D02*
D03*
X123874Y95201D02*
D03*
X112724Y97351D02*
D03*
X127824Y98801D02*
D03*
X128574Y78151D02*
D03*
X92647Y102777D02*
D03*
X93848Y90874D02*
D03*
X92574Y90051D02*
D03*
X145261Y98626D02*
D03*
X152274Y98951D02*
D03*
X143074Y78701D02*
D03*
X144274Y110601D02*
D03*
X145261Y95875D02*
D03*
X143724Y100851D02*
D03*
X124374Y89951D02*
D03*
X169324Y87651D02*
D03*
X131324Y87051D02*
D03*
X132374Y80601D02*
D03*
X134024Y68851D02*
D03*
X140009Y33810D02*
D03*
X140609Y63217D02*
D03*
X127932Y72918D02*
D03*
X124624Y54351D02*
D03*
X106874Y96901D02*
D03*
X142674Y90851D02*
D03*
X144024Y77451D02*
D03*
X138309Y59916D02*
D03*
X129274Y58451D02*
D03*
X143760Y46063D02*
D03*
X110601Y102076D02*
D03*
X134058Y100776D02*
D03*
X100399Y98126D02*
D03*
X135608Y102727D02*
D03*
X99199Y100151D02*
D03*
X94698Y98876D02*
D03*
X96124Y99225D02*
D03*
X130557Y101927D02*
D03*
X98149Y99151D02*
D03*
X135258Y94725D02*
D03*
X113102Y96025D02*
D03*
X147711Y78921D02*
D03*
X145674Y78901D02*
D03*
X94998Y80321D02*
D03*
X96448Y79721D02*
D03*
X96298Y78271D02*
D03*
X96948Y76970D02*
D03*
X98499Y77371D02*
D03*
X121905Y46863D02*
D03*
X120154Y46113D02*
D03*
X110252Y50464D02*
D03*
X108001Y47663D02*
D03*
X106501D02*
D03*
X123105Y66318D02*
D03*
X125156Y64967D02*
D03*
X110502Y73520D02*
D03*
X114853Y65217D02*
D03*
X98099Y75420D02*
D03*
X94498Y38261D02*
D03*
X95598Y64567D02*
D03*
X105551D02*
D03*
X116003Y64517D02*
D03*
X102450Y64967D02*
D03*
X104750Y70119D02*
D03*
X99049Y74470D02*
D03*
X99199Y73069D02*
D03*
X101149Y71769D02*
D03*
X104950Y73270D02*
D03*
Y71969D02*
D03*
X102350Y71269D02*
D03*
X102950Y70119D02*
D03*
X158314Y62423D02*
D03*
X143010Y72519D02*
D03*
X144910Y72669D02*
D03*
X143910Y69419D02*
D03*
X144910Y68218D02*
D03*
X145911Y67118D02*
D03*
X146811Y66118D02*
D03*
X143924Y64867D02*
D03*
X152362Y62423D02*
D03*
X141910Y63717D02*
D03*
X141860Y58266D02*
D03*
X158364Y59916D02*
D03*
Y57265D02*
D03*
Y54665D02*
D03*
X152362Y59916D02*
D03*
Y54665D02*
D03*
Y57265D02*
D03*
X142935Y60876D02*
D03*
X142910Y55815D02*
D03*
X141724Y54500D02*
D03*
X115979Y36159D02*
D03*
X115879Y39860D02*
D03*
X99275Y24006D02*
D03*
X99625Y38110D02*
D03*
Y32908D02*
D03*
X111078Y16504D02*
D03*
X111178Y22656D02*
D03*
X111228Y10453D02*
D03*
X135934Y20382D02*
D03*
X97825Y21856D02*
D03*
X97124Y27357D02*
D03*
X125582Y20255D02*
D03*
X140835Y72018D02*
D03*
X128032Y74519D02*
D03*
X130533Y68267D02*
D03*
X126932Y68567D02*
D03*
X128482Y34809D02*
D03*
X131833Y67917D02*
D03*
X126682Y70018D02*
D03*
X128282Y33408D02*
D03*
X114779Y32958D02*
D03*
X114079Y13103D02*
D03*
X112778Y18055D02*
D03*
X112678Y20405D02*
D03*
X129683Y20705D02*
D03*
X115779Y13653D02*
D03*
X146537Y12953D02*
D03*
X150638Y3951D02*
D03*
X156940Y12053D02*
D03*
X157440Y6502D02*
D03*
X97149Y98201D02*
D03*
X98725Y14704D02*
D03*
X132583Y15404D02*
D03*
X112878Y29908D02*
D03*
X121071Y9402D02*
D03*
X126532D02*
D03*
X117771Y18805D02*
D03*
X124331Y24706D02*
D03*
X119330D02*
D03*
X116829Y29707D02*
D03*
X108627Y26051D02*
D03*
X101826Y31251D02*
D03*
X102172Y38360D02*
D03*
X118680Y38210D02*
D03*
X114329Y44711D02*
D03*
Y39710D02*
D03*
X106827Y42351D02*
D03*
X102172Y47012D02*
D03*
X99325Y51451D02*
D03*
X115571Y73769D02*
D03*
X118830Y76851D02*
D03*
X120971Y74469D02*
D03*
X96824Y84651D02*
D03*
X101326Y92451D02*
D03*
X103972Y96624D02*
D03*
X94524Y87922D02*
D03*
X96824Y90451D02*
D03*
X101826Y109728D02*
D03*
X106827Y109678D02*
D03*
X101876Y104726D02*
D03*
X106772D02*
D03*
X104326Y107227D02*
D03*
X102172Y101376D02*
D03*
X142436Y103826D02*
D03*
X137035Y103676D02*
D03*
X143336Y108051D02*
D03*
X133234Y92451D02*
D03*
X131533Y95751D02*
D03*
X161841Y82221D02*
D03*
X166142D02*
D03*
X146837Y80320D02*
D03*
X161841Y89222D02*
D03*
X166171D02*
D03*
X159490Y83521D02*
D03*
X159840Y93674D02*
D03*
X159771Y98075D02*
D03*
X153039Y92373D02*
D03*
X165371Y96624D02*
D03*
X167842Y98725D02*
D03*
X172293Y93524D02*
D03*
X172944Y96451D02*
D03*
X170643Y99125D02*
D03*
X160071Y103726D02*
D03*
X146837Y109678D02*
D03*
X151838D02*
D03*
X156840Y109728D02*
D03*
X160671Y110228D02*
D03*
X169693Y110251D02*
D03*
X168292Y102251D02*
D03*
X177771Y109828D02*
D03*
X177495Y103976D02*
D03*
X172844Y103176D02*
D03*
X175044Y88051D02*
D03*
X177495Y91151D02*
D03*
X167771Y74519D02*
D03*
X169693Y69618D02*
D03*
X161271Y76219D02*
D03*
Y70818D02*
D03*
Y65316D02*
D03*
X165392Y57865D02*
D03*
X165042Y53151D02*
D03*
X167742D02*
D03*
X177595Y69651D02*
D03*
Y59715D02*
D03*
Y49713D02*
D03*
X177445Y39051D02*
D03*
X166842Y47662D02*
D03*
X166392Y43511D02*
D03*
X177471Y28957D02*
D03*
X149338Y30108D02*
D03*
X149588Y26951D02*
D03*
X146587Y22151D02*
D03*
X149888Y23851D02*
D03*
X149938Y17504D02*
D03*
X135434Y15751D02*
D03*
X139471Y16404D02*
D03*
X149338Y13703D02*
D03*
X146371Y9802D02*
D03*
X137771Y12503D02*
D03*
X139435Y8802D02*
D03*
X133871Y12103D02*
D03*
X128871Y19105D02*
D03*
X129271Y16204D02*
D03*
X169371Y2201D02*
D03*
X169343Y7202D02*
D03*
X160290Y2201D02*
D03*
X160271Y7252D02*
D03*
X171843Y4701D02*
D03*
X174344Y2201D02*
D03*
X176845Y4701D02*
D03*
X176871Y9702D02*
D03*
X171843D02*
D03*
X166842D02*
D03*
X157971Y4701D02*
D03*
X152438Y4651D02*
D03*
X176845Y14704D02*
D03*
X168693Y13751D02*
D03*
X171843Y16804D02*
D03*
X145271Y2000D02*
D03*
X116529Y2201D02*
D03*
X106027D02*
D03*
X103572Y4701D02*
D03*
X101472Y2201D02*
D03*
X111128Y2951D02*
D03*
Y8002D02*
D03*
X108472Y17804D02*
D03*
X100775Y8902D02*
D03*
X93123D02*
D03*
X93173Y13851D02*
D03*
X96774Y11651D02*
D03*
X93374Y21351D02*
D03*
X108272Y21755D02*
D03*
X115729Y51551D02*
D03*
X120430Y52313D02*
D03*
X118980Y62051D02*
D03*
X122531Y59315D02*
D03*
X126682Y59465D02*
D03*
X138735Y20551D02*
D03*
X145937Y36651D02*
D03*
X150038Y20505D02*
D03*
X145737Y90751D02*
D03*
X140585Y93051D02*
D03*
X145971Y46112D02*
D03*
X145887Y63316D02*
D03*
D105*
X172274Y46631D02*
D03*
X174814Y28851D02*
D03*
X172274Y31391D02*
D03*
X174814D02*
D03*
Y33931D02*
D03*
X172274Y36471D02*
D03*
X174814D02*
D03*
Y39011D02*
D03*
X172274Y41551D02*
D03*
X174814D02*
D03*
X172274Y44091D02*
D03*
D106*
X115797Y26245D02*
D03*
X100797Y26245D02*
D03*
D107*
X123074Y76748D02*
D03*
Y74248D02*
D03*
D108*
X35759Y74119D02*
D03*
X26657Y73018D02*
D03*
X26997Y78770D02*
D03*
M02*
