METRIC,LZ
M48
T1F00S00C0.600
T2F00S00C0.700
T3F00S00C0.850
T4F00S00C0.900
T5F00S00C0.950
T6F00S00C1.000
T7F00S00C1.200
T8F00S00C1.300
T9F00S00C1.800
T10F00S00C2.500
T11F00S00C3.500
%
T01
X0101472Y0002201
X0106027
X0103572Y0004701
X0111128Y0002951
X0116529Y0002201
X0128682Y0003951
X0130274Y0005301
X0145271Y0002
X0150638Y0003951
X0152438Y0004651
X0157971Y0004701
X015744Y0006502
X0160271Y0007252
X016029Y0002201
X0169371
X0171843Y0004701
X0169343Y0007202
X0174344Y0002201
X0176845Y0004701
X0176871Y0009702
X0171843
X0166842
X0168693Y0013751
X0170593Y0014954
X0171843Y0016804
X0173944Y0016554
X0176845Y0014704
X0177471Y0028957
X0177445Y0039051
X0164374Y0039951
X0164368Y0043245
X0166392Y0043511
X0164274Y0046601
X0164368Y0036645
X0164115Y0033309
X0156663Y0027058
Y0023951
Y0020745
Y0017551
Y0014255
X015694Y0012053
X0163541Y0018155
X0149938Y0017504
X0148124Y0017751
X0150038Y0020505
X0149888Y0023851
X0149588Y0026951
X0148124Y0028501
X0149338Y0030108
X0147724Y0031601
X014176Y0031359
X014251Y0029959
X014211Y0028458
X014356Y0027658
X014171Y0026208
X014181Y0024657
X0142724Y0020801
X014466Y0022257
X0146587Y0022151
X0146537Y0012953
X0146371Y0009802
X014396Y0010654
X0139435Y0008802
X0135534Y0009002
X0133871
X0132574Y0010751
X0133871Y0012103
X0137771Y0012503
X0135434Y0015751
X0134824Y0017751
X0135934Y0020382
X0135574Y0021901
X0137335Y0023656
X0138735Y0020551
X0139924Y0019251
X0139471Y0016404
X0141424Y0015951
X0132583Y0015404
X0129271Y0016204
X0128871Y0019105
X0129683Y0020705
X0125582Y0020255
X0124331Y0024706
X011933
X0117771Y0018805
X0115779Y0013653
X0121071Y0009402
X0126532
X0130633Y0009002
X0149338Y0013703
X0153513Y0033358
Y0036651
Y0039951
Y0043251
Y004656
X0145971Y0046112
X014376Y0046063
X0141724Y0047001
X0139024Y0044851
X0142874Y0041651
X0144774Y0038251
X0145937Y0036651
X0144824Y0035051
X0140009Y003381
X0136558Y0032709
X0136508Y0030909
X0138159Y0028658
X0137309Y0038611
X0132583Y0036109
X0131357Y0032909
X0128282Y0033408
X0128482Y0034809
X0126656Y0040761
X0126706Y0042762
X0121905Y0046863
X0120154Y0046113
X0116903Y0043662
X0115879Y003986
X0116853Y0037511
X0115979Y0036159
X011868Y003821
X0116829Y0029707
X0112878Y0029908
X0114779Y0032958
X0114329Y003971
Y0044711
X0106827Y0042351
X0102172Y003836
X0099625Y003811
Y0032908
X0101826Y0031251
X0097124Y0027357
X0099275Y0024006
X0097825Y0021856
X0093374Y0021351
X0093173Y0013851
X0093123Y0008902
X0096774Y0011651
X0098725Y0014704
X0100775Y0008902
X0111128Y0008002
X0111228Y0010453
X0114079Y0013103
X0112778Y0018055
X0112678Y0020405
X0111178Y0022656
X0108272Y0021755
X0108472Y0017804
X0111078Y0016504
X0108627Y0026051
X0094498Y0038261
X00843Y004355
X0079125Y00399
X008115Y003475
X0102172Y0047012
X007305Y00404
X006835Y00429
X005315Y00458
X004685Y004085
X004175Y004265
X005345Y00344
X0035509Y00554
X003055Y0055414
X0033008Y0057965
X0028007Y00579
X0025506Y00555
X0023006Y0057965
X002045Y0055464
X0008102Y0058665
X0008002Y0062966
X003801Y0057965
X004051Y00567
X0043011Y0057965
X0045511Y0056764
X0048062Y00579
X005045Y0056614
X0053013Y0057965
X0055514Y0056664
X0058015Y00579
X006045Y0056614
X0063016Y0057965
X006105Y0052
X0068017Y0052913
X0070518Y0050463
X00684Y00479
X0068717Y0065466
Y0070918
X0072218Y007817
X0052863Y007827
X004175Y0054
X008072Y0055614
X008175Y005665
X0085472Y0057865
X008057Y0048862
X0095425Y0048999
Y0050449
X0096825Y0048949
X0098776Y0048499
X0099325Y0051451
X0103027Y0051699
X0103577Y005325
X010339Y0055149
X0107352Y0056837
X0109352Y0059137
X0113202Y0057137
X0113728Y0051248
X0110252Y0050464
X0108001Y0047663
X0106501
X0103152Y0060687
X0102602Y0062187
X010245Y0064967
X0103452Y0065787
X0105551Y0064567
X0107451Y0063767
X0111952Y0063787
X0113603Y0063767
X0114853Y0065217
X0115571Y0073769
X0110502Y007352
X010495Y007327
Y0071969
X010475Y0070119
X010295
X010235Y0071269
X0101149Y0071769
X0101374Y0074151
X0102174Y0075201
X0101374Y0076251
X0102174Y0077351
Y0079151
X0100724Y0078851
X0098499Y0077371
X0096948Y007697
X0096298Y0078271
X0096448Y0079721
X0094998Y0080321
X0096824Y0084651
X0097772Y0087022
X01048Y0086151
X0105274Y0082651
X0108451Y0079921
X0114524Y0081201
X0098099Y007542
X0099049Y007447
X0099199Y0073069
X0099676Y0064103
X0095598Y0064567
X0097776Y0059651
X0083021Y0069768
Y00748
Y00799
Y00849
X0116024Y0086923
X0123524Y0083551
X0125824Y0079151
X0128624Y0079551
X0128574Y0078151
X0130574Y0079151
X0130724Y0080551
X0132374Y0080601
X0136574Y0079001
X0134924Y0076451
X0142474Y0075501
X0143924Y0073701
X014491Y0072669
X014301Y0072519
X0140835Y0072018
X014391Y0069419
X014491Y0068218
X0145911Y0067118
X0146811Y0066118
X0145887Y0063316
X0143924Y0064867
X014191Y0063717
X0140609Y0063217
X0142935Y0060876
X014186Y0058266
X014291Y0055815
X0141724Y00545
X0142874Y0052714
X0138259Y0053214
X0136058Y0052564
X0132207Y0051314
X0132374Y0057201
X0135724Y0057766
X0138309Y0059916
X0136074Y0066701
Y0068651
X0134024Y0068851
X0134074Y0066951
X0133924Y0065001
X0131833Y0067917
X0130533Y0068267
X0131957Y0069819
X0126682Y0070018
X0126932Y0068567
X0127932Y0072918
X0128032Y0074519
X0120971Y0074469
X011883Y0076851
X0122174Y0067301
X0123105Y0066318
X0123824Y0065051
X0125156Y0064967
X0126682Y0059465
X0129274Y0058451
X0122531Y0059315
X011898Y0062051
X0116003Y0064517
X0115729Y0051551
X012043Y0052313
X0120252Y0050337
X0121602
X0122952Y0050287
X0123224Y0048101
X0127806Y0049063
X0126706Y0050364
X0124624Y0054351
X0137824Y0048201
X0148162Y0052264
X0152362Y0051964
Y0054665
Y0057265
Y0059916
Y0062423
X0154874Y0065273
Y0068001
Y0070795
Y0073595
Y0076251
Y0078801
X0147711Y0078921
X0145674Y0078901
X0146837Y008032
X0146774Y0076351
X0144024Y0077451
X0143074Y0078701
X014371Y0085273
X0148474Y0084051
X0131324Y0087051
X0159924Y0086551
X015949Y0083521
X0161841Y0082221
X0166142
X0171024Y007812
X0174574Y0078101
X0167771Y0074519
X0169693Y0069618
X0177595Y0069651
Y0059715
Y0049713
X0166842Y0047662
X0167742Y0053151
X0165042
X0165392Y0057865
X0158364Y0057265
Y0054665
X0158414Y0051964
X0158364Y0059916
X0158314Y0062423
X0161271Y0065316
Y0070818
Y0076219
X0161841Y0089222
X0159674Y0090951
X015984Y0093674
X0159771Y0098075
X0159474Y0101551
X0160071Y0103726
X0160671Y0110228
X015684Y0109728
X0169693Y0110251
X0177771Y0109828
X0177495Y0103976
X0172844Y0103176
X0168292Y0102251
X0167842Y0098725
X0170643Y0099125
X0172944Y0096451
X0172293Y0093524
X0172374Y0091551
X0170824Y0092751
X0169324Y0087651
X0166171Y0089222
X0165371Y0096624
X0177495Y0091151
X0175044Y0088051
X0152012Y0090024
X0151662Y0091624
X0153039Y0092373
X0152274Y0098951
X0145261Y0098626
Y0095875
X0145311Y0093358
X0145737Y0090751
X014426Y0091274
X0142674Y0090851
X014161Y0091874
X0140585Y0093051
X0140324Y0096601
X014341Y0097326
X0143724Y0100851
X014146Y0102277
X0142436Y0103826
X0143336Y0108051
X0144274Y0110601
X0146837Y0109678
X0151838
X0153063Y0105728
X0136674Y0105601
X0137035Y0103676
X0135608Y0102727
X0138309Y0102227
X0134058Y0100776
X0132624Y0101877
X0130557Y0101927
X0128474Y0100051
X0127824Y0098801
X0123524Y0098951
X0122624Y0100001
X0123524Y0096551
X0123874Y0095201
X0124974Y0094351
X0123904Y0093173
X0124374Y0089951
X0126605Y0089322
X0126705Y0090673
X0129124Y0091301
X0130074Y0090201
X0133234Y0092451
X0133258Y0096175
X0131533Y0095751
X0135258Y0094725
X0136408Y0095825
X0118603Y0095424
X0117752Y0096424
Y0094374
X0116952Y0093374
X0118324Y0098801
X0117724Y0100001
X0122253Y0091123
X0123155Y0088173
X0113024Y0090451
X0109674Y0092401
X0113102Y0096025
X0112724Y0097351
X0112324Y0098751
X0111951Y0102376
X0110601Y0102076
X0113403Y0102177
X0114774Y0102151
X0106772Y0104726
X0101876
X0102172Y0101376
X0099199Y0100151
X0098149Y0099151
X0097149Y0098201
X0096124Y0099225
X0094698Y0098876
X0093348Y0097025
X0092647Y0102777
X0083021Y0105427
X0085472Y0107977
X008047
X0083021Y00948
X008305Y0089923
X0092574Y0090051
X0093848Y0090874
X0096824Y0090451
X0098872Y0088122
X0099925Y0089151
X0101326Y0092451
X01023Y0097126
X0103972Y0096624
X0106874Y0096901
X0100399Y0098126
X0101826Y0109728
X0104326Y0107227
X0106827Y0109678
X0094524Y0087922
X0075519Y0099025
X0070518
X0066017Y00999
X0063166Y01023
X006035Y0104726
X0058315Y0107727
X0058293Y0109678
X0056214Y01028
X005355Y0104876
X005045Y01062
X004815Y010785
X0067667Y01085
X003425Y010265
X003175Y010345
X0002598Y0101476
X0003751Y0100275
X0005501Y0090473
X0008002Y00929
T02
X0105801Y0006753
X0126756Y0018956
X0130507Y0017305
X0132557Y0028558
X0125005Y0030009
X0122855Y0027208
X0129207Y0045801
X0105751Y003646
X010455Y003536
X010335Y003446
X01033Y0029458
X0105Y0027558
X0105601Y0030759
X0094898Y0029408
X0093598Y0027958
X0093798Y003636
X0085422Y0030858
X0086722Y00473
X010335Y0009203
X0105Y0008003
X0031097Y0066317
X0027557Y0068367
X0027607Y0071218
X0026657Y0073018
X0024456Y0070268
X0024356Y0068467
X0032908Y0071618
X0035509
X0035759Y0074119
X0033358Y0076269
X0031258Y0075119
X0026997Y007877
X0027207Y0083621
X0028857Y0084971
X0017905Y0082371
X0017955Y007987
X0017905Y007812
X0015004Y0076269
X0017554Y00586
X0010253Y0058565
X0004051Y0058115
Y0051763
X0003901Y0050163
X0002401
X003811Y0071518
X0037659Y0076419
X0037409Y007802
X0068717Y0083421
X0068317Y0086372
X0092597Y0086973
X0093297Y0085072
X0093748Y0083572
X0094398Y0081722
X0097098Y0069819
X0098499Y0069319
X0097198Y0067768
X0095598Y0068268
X0095248Y0066768
X0094348Y0065618
X0121155Y0068418
X0027057Y0090223
X0019255Y0088122
X0015854Y0087322
X0003351Y0095324
X0010053Y01099
X0016997Y0109828
T03
X0173886Y0012143
X0176386Y0012143
X0019185Y0051936
X0016685
X0123074Y0074248
Y0076748
X016418Y0085241
X017418
Y0094541
X017668Y0092741
Y0102041
X016168
Y0092741
X016418Y0094541
T04
X0131321Y0003961
X0133861
Y0006501
X0131321
X0122822Y0016501
X0120322
Y0019001
X0122822
X0096822
X0094322
Y0016501
X0096822Y0016501
T05
X0120322Y0031501
X0122822
Y0034001
X0096822Y0031501
X0094322
X00165Y00642
Y00667
X0014
Y00642
X0053169Y0072006
X0054689Y0074546
X0053169Y0082116
X0054689Y0084626
X0064419Y0081491
Y0078951
Y0076411
Y0073871
X0066969Y0075141
X0066969Y0077681
X0066969Y0080221
Y0082761
X0060833Y0100131
X0058293
X0055753
X0053213
X0050673
X0048133
X0045593
X0043053
X0040513
X0037973
X0035433
X0032893
X0030353
X0027813
X0025273
X0022733
X0020193
X0017653
X0015113
X0012573
X0014Y00927
X00165
Y00902
X0014
T06
X0089924Y0006801
X0120054Y0006911
X0136401Y0006501
X0138941
X0141481
X0141481Y0003961
X0138941
X0136401
X0144021Y0003961
X0146561Y0003961
Y0006501
X0144021Y0006501
X0172274Y0028851
X0172274Y0031391
X0174814
Y0028851
Y0033931
Y0036471
X0172274
X0172274Y0033931
X0172274Y0039011
X0174814
Y0041551
X0172274
Y0044091
Y0046631
X0174814Y0046631
X0174814Y0044091
X0120322Y0034001
X0120054Y0011911
X0089924Y0008801
X0094322Y0034001
X0096822
X0107051Y0039969
X0107051Y0044969
X0072809Y0050101
Y0055101
X0072269Y0064216
X0072269Y0066716
X0075069Y0066716
X0075069Y0064216
X0055Y0061785
X00535
X0038Y00618
X00365
X0078809Y0055101
X0078809Y0050101
X0084321Y0049663
Y0052203
Y0054743
X0126075Y0076943
Y0081943
X0134274Y0080859
Y0085859
X0172274Y0069491
X0174814Y0069491
Y0066951
X0172274
Y0064411
Y0061871
X0174814Y0061871
X0174814Y0064411
Y0059331
X0172274
Y0056791
X0174814
X0174814Y0054251
X0172274Y0054251
X0172274Y0051711
X0174814Y0051711
X0174814Y0049171
X0172274
X0134034Y0106301
Y0108841
X0131494
X0128954
Y0106301
X0131494Y0106301
X0126414
X0123874
X0121334Y0106301
X0121334Y0108841
X0123874
X0126414
X0118794
X0116254
Y0106301
X0118794
X0113714Y0106301
X0113714Y0108841
X0111174
Y0106301
X0089874Y0105251
Y0103251
X0075069Y0092416
Y0090016
X0072269
Y0092416
X0055Y0095065
X00535
X0038Y0095065
X00365
X003813Y01063
Y010884
X004067
Y01063
X004321
Y010884
X003559
X003305
X003051
Y01063
X002797
X002543
X002289
X002035
Y010884
X002289
X002543
X002797
X003305Y01063
X003559
T07
X0035961Y00763
Y00807
T08
X0115797Y0026245
X0100797Y0026245
X007405Y00258
X006897Y00258
X006365Y00294
Y003448
X006897Y00383
X007397Y00383
X00636Y004375
X00511
X005115Y00344
Y00294
X004578Y00257
X00407Y00257
X00407Y00382
X00457
X00549Y0024
X00599
X005998Y00115
X00549Y00115
X00511Y004875
X00636Y004883
T09
X0061069Y0070416
Y0086216
T10
X000495Y006265
X00839
X00824Y00986
X00065
T11
X0006Y00047
X0074Y00047
X0096824Y0004701
X0164824
X0058069Y0072616
Y0084016
X0164824Y0106701
X0096824
X0074Y01067
X0006
M30
