%FSLAX43Y43*%
%MOMM*%
G71*
G01*
G75*
%ADD10C,0.300*%
%ADD11R,1.600X1.800*%
%ADD12R,1.800X1.600*%
%ADD13R,1.300X0.850*%
%ADD14R,1.450X0.550*%
%ADD15R,1.450X0.550*%
%ADD16R,0.850X1.300*%
%ADD17R,2.150X0.600*%
%ADD18R,2.150X0.600*%
%ADD19R,1.500X1.300*%
%ADD20O,1.800X0.350*%
%ADD21O,1.800X0.350*%
%ADD22R,2.500X0.500*%
%ADD23R,2.500X2.000*%
%ADD24R,0.600X2.200*%
%ADD25R,0.600X2.200*%
%ADD26R,1.100X2.150*%
%ADD27R,3.500X2.150*%
%ADD28R,1.300X1.500*%
%ADD29R,2.200X0.600*%
%ADD30R,2.200X0.600*%
%ADD31R,4.000X3.000*%
%ADD32R,3.000X4.000*%
%ADD33R,8.000X3.500*%
%ADD34R,2.150X3.500*%
%ADD35R,2.150X1.100*%
%ADD36O,2.000X1.000*%
%ADD37R,2.000X1.000*%
%ADD38R,0.300X1.600*%
%ADD39R,2.700X2.500*%
%ADD40R,2.200X0.550*%
%ADD41R,2.200X0.550*%
%ADD42R,1.550X0.600*%
%ADD43R,1.550X0.600*%
%ADD44R,1.700X0.600*%
%ADD45R,1.700X0.600*%
%ADD46C,0.250*%
%ADD47C,0.063*%
%ADD48R,0.600X1.700*%
%ADD49R,0.600X2.150*%
%ADD50R,0.600X2.150*%
%ADD51C,0.500*%
%ADD52C,1.000*%
%ADD53C,1.500*%
%ADD54C,0.800*%
%ADD55C,3.000*%
%ADD56C,0.880*%
%ADD57C,2.000*%
%ADD58C,0.600*%
%ADD59C,0.400*%
%ADD60C,0.180*%
%ADD61C,3.500*%
%ADD62C,2.500*%
%ADD63C,1.200*%
%ADD64R,1.400X1.400*%
%ADD65C,1.400*%
%ADD66C,1.500*%
%ADD67R,1.500X1.500*%
%ADD68O,1.500X2.000*%
%ADD69R,1.500X2.000*%
%ADD70C,5.000*%
%ADD71C,4.000*%
%ADD72C,3.000*%
%ADD73R,2.000X2.000*%
%ADD74C,2.000*%
%ADD75R,2.500X2.500*%
%ADD76C,1.800*%
%ADD77R,1.800X1.800*%
%ADD78R,3.000X3.000*%
%ADD79C,1.500*%
%ADD80C,1.300*%
%ADD81C,1.270*%
%ADD82C,1.100*%
%ADD83R,0.950X0.900*%
%ADD84C,0.700*%
%ADD85R,1.803X2.003*%
%ADD86R,2.003X1.803*%
%ADD87R,1.503X1.053*%
%ADD88R,1.653X0.753*%
%ADD89R,1.653X0.753*%
%ADD90R,1.053X1.503*%
%ADD91R,2.353X0.803*%
%ADD92R,2.353X0.803*%
%ADD93R,1.703X1.503*%
%ADD94O,2.003X0.553*%
%ADD95O,2.003X0.553*%
%ADD96R,2.703X0.703*%
%ADD97R,2.703X2.203*%
%ADD98R,0.803X2.403*%
%ADD99R,0.803X2.403*%
%ADD100R,1.303X2.353*%
%ADD101R,3.703X2.353*%
%ADD102R,1.503X1.703*%
%ADD103R,2.403X0.803*%
%ADD104R,2.403X0.803*%
%ADD105R,4.203X3.203*%
%ADD106R,3.203X4.203*%
%ADD107R,8.203X3.703*%
%ADD108R,2.353X3.703*%
%ADD109R,2.353X1.303*%
%ADD110O,2.203X1.203*%
%ADD111R,2.203X1.203*%
%ADD112R,0.503X1.803*%
%ADD113R,2.903X2.703*%
%ADD114R,2.403X0.753*%
%ADD115R,2.403X0.753*%
%ADD116R,1.753X0.803*%
%ADD117R,1.753X0.803*%
%ADD118R,1.903X0.803*%
%ADD119R,1.903X0.803*%
%ADD120R,0.803X1.903*%
%ADD121R,0.803X2.353*%
%ADD122R,0.803X2.353*%
%ADD123C,3.703*%
%ADD124C,2.703*%
%ADD125C,1.403*%
%ADD126R,1.603X1.603*%
%ADD127C,1.603*%
%ADD128C,1.703*%
%ADD129R,1.703X1.703*%
%ADD130O,1.703X2.203*%
%ADD131R,1.703X2.203*%
%ADD132C,5.203*%
%ADD133C,4.203*%
%ADD134C,3.203*%
%ADD135R,2.203X2.203*%
%ADD136C,2.203*%
%ADD137R,2.703X2.703*%
%ADD138C,2.003*%
%ADD139R,2.003X2.003*%
%ADD140R,3.203X3.203*%
%ADD141C,1.703*%
%ADD142C,1.503*%
%ADD143C,1.473*%
%ADD144C,1.303*%
%ADD145R,1.153X1.103*%
D47*
X107753Y52584D02*
X107442Y52896D01*
X108637Y54091D01*
X108949Y53780D01*
X107753Y52584D01*
Y52658D02*
X107515Y52896D01*
X108637Y54018D01*
X108875Y53780D01*
X107753Y52658D01*
Y52731D02*
X107589Y52896D01*
X108637Y53944D01*
X108802Y53780D01*
X107753Y52731D01*
Y52805D02*
X107663Y52896D01*
X108637Y53870D01*
X108728Y53780D01*
X107753Y52805D01*
Y52879D02*
X107736Y52896D01*
X108637Y53797D01*
X108654Y53780D01*
X107753Y52879D01*
X107791Y52915D02*
X108600Y53760D01*
X115560Y55371D02*
X115249Y55059D01*
X114053Y56254D01*
X114365Y56566D01*
X115560Y55371D01*
X115487D02*
X115249Y55133D01*
X114127Y56254D01*
X114365Y56492D01*
X115487Y55371D01*
X115413D02*
X115249Y55206D01*
X114201Y56254D01*
X114365Y56419D01*
X115413Y55371D01*
X115339D02*
X115249Y55280D01*
X114274Y56254D01*
X114365Y56345D01*
X115339Y55371D01*
X115266D02*
X115249Y55354D01*
X114348Y56254D01*
X114365Y56271D01*
X115266Y55371D01*
X115229Y55408D02*
X114384Y56217D01*
X115207Y55017D02*
X114895Y54705D01*
X113700Y55901D01*
X114011Y56213D01*
X115207Y55017D01*
X115133D02*
X114895Y54779D01*
X113773Y55901D01*
X114011Y56139D01*
X115133Y55017D01*
X115059D02*
X114895Y54853D01*
X113847Y55901D01*
X114011Y56065D01*
X115059Y55017D01*
X114986D02*
X114895Y54926D01*
X113921Y55901D01*
X114011Y55992D01*
X114986Y55017D01*
X114912D02*
X114895Y55000D01*
X113994Y55901D01*
X114011Y55918D01*
X114912Y55017D01*
X114876Y55054D02*
X114031Y55864D01*
X114853Y54663D02*
X114542Y54352D01*
X113346Y55547D01*
X113658Y55859D01*
X114853Y54663D01*
X114780D02*
X114542Y54425D01*
X113420Y55547D01*
X113658Y55785D01*
X114780Y54663D01*
X114706D02*
X114542Y54499D01*
X113493Y55547D01*
X113658Y55712D01*
X114706Y54663D01*
X114632D02*
X114542Y54573D01*
X113567Y55547D01*
X113658Y55638D01*
X114632Y54663D01*
X114559D02*
X114542Y54646D01*
X113641Y55547D01*
X113658Y55564D01*
X114559Y54663D01*
X114522Y54701D02*
X113677Y55510D01*
X114500Y54310D02*
X114188Y53998D01*
X112992Y55194D01*
X113304Y55505D01*
X114500Y54310D01*
X114426D02*
X114188Y54072D01*
X113066Y55194D01*
X113304Y55432D01*
X114426Y54310D01*
X114352D02*
X114188Y54146D01*
X113140Y55194D01*
X113304Y55358D01*
X114352Y54310D01*
X114279D02*
X114188Y54219D01*
X113213Y55194D01*
X113304Y55284D01*
X114279Y54310D01*
X114205D02*
X114188Y54293D01*
X113287Y55194D01*
X113304Y55211D01*
X114205Y54310D01*
X114169Y54347D02*
X113323Y55156D01*
X114146Y53956D02*
X113834Y53645D01*
X112639Y54840D01*
X112951Y55152D01*
X114146Y53956D01*
X114072D02*
X113834Y53718D01*
X112713Y54840D01*
X112951Y55078D01*
X114072Y53956D01*
X113999D02*
X113834Y53792D01*
X112786Y54840D01*
X112951Y55005D01*
X113999Y53956D01*
X113925D02*
X113834Y53866D01*
X112860Y54840D01*
X112951Y54931D01*
X113925Y53956D01*
X113851D02*
X113834Y53939D01*
X112934Y54840D01*
X112951Y54857D01*
X113851Y53956D01*
X113815Y53994D02*
X112970Y54803D01*
X113793Y53603D02*
X113481Y53291D01*
X112285Y54487D01*
X112597Y54798D01*
X113793Y53603D01*
X113719D02*
X113481Y53365D01*
X112359Y54487D01*
X112597Y54725D01*
X113719Y53603D01*
X113645D02*
X113481Y53438D01*
X112433Y54487D01*
X112597Y54651D01*
X113645Y53603D01*
X113572D02*
X113481Y53512D01*
X112506Y54487D01*
X112597Y54577D01*
X113572Y53603D01*
X113498D02*
X113481Y53586D01*
X112580Y54487D01*
X112597Y54504D01*
X113498Y53603D01*
X113462Y53640D02*
X112616Y54449D01*
X113439Y53249D02*
X113127Y52938D01*
X111932Y54133D01*
X112243Y54445D01*
X113439Y53249D01*
X113365D02*
X113127Y53011D01*
X112006Y54133D01*
X112243Y54371D01*
X113365Y53249D01*
X113292D02*
X113127Y53085D01*
X112079Y54133D01*
X112243Y54297D01*
X113292Y53249D01*
X113218D02*
X113127Y53159D01*
X112153Y54133D01*
X112243Y54224D01*
X113218Y53249D01*
X113144D02*
X113127Y53232D01*
X112227Y54133D01*
X112243Y54150D01*
X113144Y53249D01*
X113108Y53287D02*
X112263Y54096D01*
X113085Y52896D02*
X112774Y52584D01*
X111578Y53780D01*
X111890Y54091D01*
X113085Y52896D01*
X113012D02*
X112774Y52658D01*
X111652Y53780D01*
X111890Y54018D01*
X113012Y52896D01*
X112938D02*
X112774Y52731D01*
X111726Y53780D01*
X111890Y53944D01*
X112938Y52896D01*
X112864D02*
X112774Y52805D01*
X111799Y53780D01*
X111890Y53870D01*
X112864Y52896D01*
X112791D02*
X112774Y52879D01*
X111873Y53780D01*
X111890Y53797D01*
X112791Y52896D01*
X112754Y52933D02*
X111909Y53742D01*
X112732Y52542D02*
X112420Y52231D01*
X111225Y53426D01*
X111536Y53738D01*
X112732Y52542D01*
X112658D02*
X112420Y52304D01*
X111298Y53426D01*
X111536Y53664D01*
X112658Y52542D01*
X112585D02*
X112420Y52378D01*
X111372Y53426D01*
X111536Y53590D01*
X112585Y52542D01*
X112511D02*
X112420Y52451D01*
X111446Y53426D01*
X111536Y53517D01*
X112511Y52542D01*
X112437D02*
X112420Y52525D01*
X111519Y53426D01*
X111536Y53443D01*
X112437Y52542D01*
X112401Y52579D02*
X111556Y53389D01*
X112378Y52189D02*
X112067Y51877D01*
X110871Y53072D01*
X111183Y53384D01*
X112378Y52189D01*
X112305D02*
X112067Y51951D01*
X110945Y53072D01*
X111183Y53310D01*
X112305Y52189D01*
X112231D02*
X112067Y52024D01*
X111019Y53072D01*
X111183Y53237D01*
X112231Y52189D01*
X112157D02*
X112067Y52098D01*
X111092Y53072D01*
X111183Y53163D01*
X112157Y52189D01*
X112084D02*
X112067Y52172D01*
X111166Y53072D01*
X111183Y53089D01*
X112084Y52189D01*
X112047Y52226D02*
X111202Y53035D01*
X112025Y51835D02*
X111713Y51523D01*
X110518Y52719D01*
X110829Y53031D01*
X112025Y51835D01*
X111951D02*
X111713Y51597D01*
X110591Y52719D01*
X110829Y52957D01*
X111951Y51835D01*
X111877D02*
X111713Y51671D01*
X110665Y52719D01*
X110829Y52883D01*
X111877Y51835D01*
X111804D02*
X111713Y51744D01*
X110739Y52719D01*
X110829Y52810D01*
X111804Y51835D01*
X111730D02*
X111713Y51818D01*
X110812Y52719D01*
X110829Y52736D01*
X111730Y51835D01*
X111694Y51872D02*
X110849Y52682D01*
X108814Y51523D02*
X108502Y51835D01*
X109698Y53031D01*
X110010Y52719D01*
X108814Y51523D01*
Y51597D02*
X108576Y51835D01*
X109698Y52957D01*
X109936Y52719D01*
X108814Y51597D01*
Y51671D02*
X108650Y51835D01*
X109698Y52883D01*
X109862Y52719D01*
X108814Y51671D01*
Y51744D02*
X108723Y51835D01*
X109698Y52810D01*
X109789Y52719D01*
X108814Y51744D01*
Y51818D02*
X108797Y51835D01*
X109698Y52736D01*
X109715Y52719D01*
X108814Y51818D01*
X108851Y51854D02*
X109661Y52700D01*
X108460Y51877D02*
X108149Y52189D01*
X109344Y53384D01*
X109656Y53072D01*
X108460Y51877D01*
Y51951D02*
X108223Y52189D01*
X109344Y53310D01*
X109582Y53072D01*
X108460Y51951D01*
Y52024D02*
X108296Y52189D01*
X109344Y53237D01*
X109509Y53072D01*
X108460Y52024D01*
Y52098D02*
X108370Y52189D01*
X109344Y53163D01*
X109435Y53072D01*
X108460Y52098D01*
Y52172D02*
X108443Y52189D01*
X109344Y53089D01*
X109361Y53072D01*
X108460Y52172D01*
X108498Y52208D02*
X109307Y53053D01*
X108107Y52230D02*
X107795Y52542D01*
X108991Y53738D01*
X109302Y53426D01*
X108107Y52230D01*
Y52304D02*
X107869Y52542D01*
X108991Y53664D01*
X109229Y53426D01*
X108107Y52304D01*
Y52378D02*
X107943Y52542D01*
X108991Y53590D01*
X109155Y53426D01*
X108107Y52378D01*
Y52451D02*
X108016Y52542D01*
X108991Y53517D01*
X109081Y53426D01*
X108107Y52451D01*
Y52525D02*
X108090Y52542D01*
X108991Y53443D01*
X109008Y53426D01*
X108107Y52525D01*
X108144Y52561D02*
X108953Y53407D01*
X107400Y52938D02*
X107088Y53249D01*
X108284Y54445D01*
X108595Y54133D01*
X107400Y52938D01*
Y53011D02*
X107162Y53249D01*
X108284Y54371D01*
X108522Y54133D01*
X107400Y53011D01*
Y53085D02*
X107236Y53249D01*
X108284Y54297D01*
X108448Y54133D01*
X107400Y53085D01*
Y53159D02*
X107309Y53249D01*
X108284Y54224D01*
X108374Y54133D01*
X107400Y53159D01*
Y53232D02*
X107383Y53249D01*
X108284Y54150D01*
X108301Y54133D01*
X107400Y53232D01*
X107437Y53269D02*
X108246Y54114D01*
X107046Y53291D02*
X106735Y53603D01*
X107930Y54798D01*
X108242Y54487D01*
X107046Y53291D01*
Y53365D02*
X106808Y53603D01*
X107930Y54725D01*
X108168Y54487D01*
X107046Y53365D01*
Y53438D02*
X106882Y53603D01*
X107930Y54651D01*
X108094Y54487D01*
X107046Y53438D01*
Y53512D02*
X106956Y53603D01*
X107930Y54577D01*
X108021Y54487D01*
X107046Y53512D01*
Y53586D02*
X107029Y53603D01*
X107930Y54504D01*
X107947Y54487D01*
X107046Y53586D01*
X107084Y53622D02*
X107893Y54467D01*
X106693Y53645D02*
X106381Y53956D01*
X107577Y55152D01*
X107888Y54840D01*
X106693Y53645D01*
Y53718D02*
X106455Y53956D01*
X107577Y55078D01*
X107815Y54840D01*
X106693Y53718D01*
Y53792D02*
X106528Y53956D01*
X107577Y55005D01*
X107741Y54840D01*
X106693Y53792D01*
Y53866D02*
X106602Y53956D01*
X107577Y54931D01*
X107667Y54840D01*
X106693Y53866D01*
Y53939D02*
X106676Y53956D01*
X107577Y54857D01*
X107594Y54840D01*
X106693Y53939D01*
X106730Y53976D02*
X107539Y54821D01*
X106339Y53998D02*
X106028Y54310D01*
X107223Y55505D01*
X107535Y55194D01*
X106339Y53998D01*
Y54072D02*
X106101Y54310D01*
X107223Y55432D01*
X107461Y55194D01*
X106339Y54072D01*
Y54146D02*
X106175Y54310D01*
X107223Y55358D01*
X107387Y55194D01*
X106339Y54146D01*
Y54219D02*
X106248Y54310D01*
X107223Y55284D01*
X107314Y55194D01*
X106339Y54219D01*
Y54293D02*
X106322Y54310D01*
X107223Y55211D01*
X107240Y55194D01*
X106339Y54293D01*
X106376Y54329D02*
X107186Y55174D01*
X105986Y54352D02*
X105674Y54663D01*
X106869Y55859D01*
X107181Y55547D01*
X105986Y54352D01*
Y54425D02*
X105748Y54663D01*
X106869Y55785D01*
X107107Y55547D01*
X105986Y54425D01*
Y54499D02*
X105821Y54663D01*
X106869Y55712D01*
X107034Y55547D01*
X105986Y54499D01*
Y54573D02*
X105895Y54663D01*
X106869Y55638D01*
X106960Y55547D01*
X105986Y54573D01*
Y54646D02*
X105969Y54663D01*
X106869Y55564D01*
X106886Y55547D01*
X105986Y54646D01*
X106023Y54683D02*
X106832Y55528D01*
X105632Y54705D02*
X105320Y55017D01*
X106516Y56213D01*
X106828Y55901D01*
X105632Y54705D01*
Y54779D02*
X105394Y55017D01*
X106516Y56139D01*
X106754Y55901D01*
X105632Y54779D01*
Y54853D02*
X105468Y55017D01*
X106516Y56065D01*
X106680Y55901D01*
X105632Y54853D01*
Y54926D02*
X105541Y55017D01*
X106516Y55992D01*
X106607Y55901D01*
X105632Y54926D01*
Y55000D02*
X105615Y55017D01*
X106516Y55918D01*
X106533Y55901D01*
X105632Y55000D01*
X105669Y55036D02*
X106479Y55882D01*
X105279Y55059D02*
X104967Y55371D01*
X106162Y56566D01*
X106474Y56254D01*
X105279Y55059D01*
Y55133D02*
X105041Y55371D01*
X106162Y56492D01*
X106400Y56254D01*
X105279Y55133D01*
Y55206D02*
X105114Y55371D01*
X106162Y56419D01*
X106327Y56254D01*
X105279Y55206D01*
Y55280D02*
X105188Y55371D01*
X106162Y56345D01*
X106253Y56254D01*
X105279Y55280D01*
Y55354D02*
X105261Y55371D01*
X106162Y56271D01*
X106179Y56254D01*
X105279Y55354D01*
X105316Y55390D02*
X106125Y56235D01*
X104925Y55412D02*
X104613Y55724D01*
X105809Y56920D01*
X106120Y56608D01*
X104925Y55412D01*
Y55486D02*
X104687Y55724D01*
X105809Y56846D01*
X106047Y56608D01*
X104925Y55486D01*
Y55560D02*
X104761Y55724D01*
X105809Y56772D01*
X105973Y56608D01*
X104925Y55560D01*
Y55633D02*
X104834Y55724D01*
X105809Y56699D01*
X105899Y56608D01*
X104925Y55633D01*
Y55707D02*
X104908Y55724D01*
X105809Y56625D01*
X105826Y56608D01*
X104925Y55707D01*
X104962Y55743D02*
X105772Y56589D01*
X110009Y61628D02*
X109698Y61317D01*
X108502Y62512D01*
X108814Y62824D01*
X110009Y61628D01*
X109936D02*
X109698Y61390D01*
X108576Y62512D01*
X108814Y62750D01*
X109936Y61628D01*
X109862D02*
X109698Y61464D01*
X108650Y62512D01*
X108814Y62677D01*
X109862Y61628D01*
X109788D02*
X109698Y61538D01*
X108723Y62512D01*
X108814Y62603D01*
X109788Y61628D01*
X109715D02*
X109698Y61611D01*
X108797Y62512D01*
X108814Y62529D01*
X109715Y61628D01*
X109678Y61666D02*
X108833Y62475D01*
X109656Y61275D02*
X109344Y60963D01*
X108149Y62159D01*
X108460Y62470D01*
X109656Y61275D01*
X109582D02*
X109344Y61037D01*
X108223Y62159D01*
X108460Y62397D01*
X109582Y61275D01*
X109509D02*
X109344Y61111D01*
X108296Y62159D01*
X108460Y62323D01*
X109509Y61275D01*
X109435D02*
X109344Y61184D01*
X108370Y62159D01*
X108460Y62249D01*
X109435Y61275D01*
X109361D02*
X109344Y61258D01*
X108443Y62159D01*
X108460Y62176D01*
X109361Y61275D01*
X109325Y61312D02*
X108480Y62121D01*
X109302Y60921D02*
X108991Y60610D01*
X107795Y61805D01*
X108107Y62117D01*
X109302Y60921D01*
X109229D02*
X108991Y60683D01*
X107869Y61805D01*
X108107Y62043D01*
X109229Y60921D01*
X109155D02*
X108991Y60757D01*
X107943Y61805D01*
X108107Y61970D01*
X109155Y60921D01*
X109081D02*
X108991Y60831D01*
X108016Y61805D01*
X108107Y61896D01*
X109081Y60921D01*
X109008D02*
X108991Y60904D01*
X108090Y61805D01*
X108107Y61822D01*
X109008Y60921D01*
X108971Y60959D02*
X108126Y61768D01*
X108242Y59861D02*
X107930Y59549D01*
X106735Y60745D01*
X107046Y61056D01*
X108242Y59861D01*
X108168D02*
X107930Y59623D01*
X106808Y60745D01*
X107046Y60983D01*
X108168Y59861D01*
X108094D02*
X107930Y59696D01*
X106882Y60745D01*
X107046Y60909D01*
X108094Y59861D01*
X108021D02*
X107930Y59770D01*
X106956Y60745D01*
X107046Y60835D01*
X108021Y59861D01*
X107947D02*
X107930Y59844D01*
X107029Y60745D01*
X107046Y60762D01*
X107947Y59861D01*
X107911Y59898D02*
X107066Y60707D01*
X107888Y59507D02*
X107577Y59196D01*
X106381Y60391D01*
X106693Y60703D01*
X107888Y59507D01*
X107815D02*
X107577Y59269D01*
X106455Y60391D01*
X106693Y60629D01*
X107815Y59507D01*
X107741D02*
X107577Y59343D01*
X106528Y60391D01*
X106693Y60555D01*
X107741Y59507D01*
X107667D02*
X107577Y59416D01*
X106602Y60391D01*
X106693Y60482D01*
X107667Y59507D01*
X107594D02*
X107577Y59490D01*
X106676Y60391D01*
X106693Y60408D01*
X107594Y59507D01*
X107557Y59544D02*
X106712Y60354D01*
X107535Y59154D02*
X107223Y58842D01*
X106027Y60037D01*
X106339Y60349D01*
X107535Y59154D01*
X107461D02*
X107223Y58916D01*
X106101Y60037D01*
X106339Y60275D01*
X107461Y59154D01*
X107387D02*
X107223Y58989D01*
X106175Y60037D01*
X106339Y60202D01*
X107387Y59154D01*
X107314D02*
X107223Y59063D01*
X106248Y60037D01*
X106339Y60128D01*
X107314Y59154D01*
X107240D02*
X107223Y59137D01*
X106322Y60037D01*
X106339Y60054D01*
X107240Y59154D01*
X107204Y59191D02*
X106358Y60000D01*
X107181Y58800D02*
X106869Y58488D01*
X105674Y59684D01*
X105986Y59996D01*
X107181Y58800D01*
X107107D02*
X106869Y58562D01*
X105748Y59684D01*
X105986Y59922D01*
X107107Y58800D01*
X107034D02*
X106869Y58636D01*
X105821Y59684D01*
X105986Y59848D01*
X107034Y58800D01*
X106960D02*
X106869Y58709D01*
X105895Y59684D01*
X105986Y59775D01*
X106960Y58800D01*
X106886D02*
X106869Y58783D01*
X105969Y59684D01*
X105986Y59701D01*
X106886Y58800D01*
X106850Y58837D02*
X106005Y59647D01*
X106828Y58446D02*
X106516Y58135D01*
X105320Y59330D01*
X105632Y59642D01*
X106828Y58446D01*
X106754D02*
X106516Y58209D01*
X105394Y59330D01*
X105632Y59568D01*
X106754Y58446D01*
X106680D02*
X106516Y58282D01*
X105468Y59330D01*
X105632Y59495D01*
X106680Y58446D01*
X106607D02*
X106516Y58356D01*
X105541Y59330D01*
X105632Y59421D01*
X106607Y58446D01*
X106533D02*
X106516Y58429D01*
X105615Y59330D01*
X105632Y59347D01*
X106533Y58446D01*
X106497Y58484D02*
X105651Y59293D01*
X106474Y58093D02*
X106162Y57781D01*
X104967Y58977D01*
X105279Y59288D01*
X106474Y58093D01*
X106400D02*
X106162Y57855D01*
X105041Y58977D01*
X105279Y59215D01*
X106400Y58093D01*
X106327D02*
X106162Y57929D01*
X105114Y58977D01*
X105279Y59141D01*
X106327Y58093D01*
X106253D02*
X106162Y58002D01*
X105188Y58977D01*
X105279Y59067D01*
X106253Y58093D01*
X106179D02*
X106162Y58076D01*
X105261Y58977D01*
X105279Y58994D01*
X106179Y58093D01*
X106143Y58130D02*
X105298Y58939D01*
X106120Y57739D02*
X105809Y57428D01*
X104613Y58623D01*
X104925Y58935D01*
X106120Y57739D01*
X106047D02*
X105809Y57501D01*
X104687Y58623D01*
X104925Y58861D01*
X106047Y57739D01*
X105973D02*
X105809Y57575D01*
X104761Y58623D01*
X104925Y58788D01*
X105973Y57739D01*
X105899D02*
X105809Y57649D01*
X104834Y58623D01*
X104925Y58714D01*
X105899Y57739D01*
X105826D02*
X105809Y57722D01*
X104908Y58623D01*
X104925Y58640D01*
X105826Y57739D01*
X105789Y57777D02*
X104944Y58586D01*
X114365Y57781D02*
X114053Y58093D01*
X115249Y59288D01*
X115560Y58977D01*
X114365Y57781D01*
Y57855D02*
X114127Y58093D01*
X115249Y59215D01*
X115487Y58977D01*
X114365Y57855D01*
Y57929D02*
X114201Y58093D01*
X115249Y59141D01*
X115413Y58977D01*
X114365Y57929D01*
Y58002D02*
X114274Y58093D01*
X115249Y59067D01*
X115339Y58977D01*
X114365Y58002D01*
Y58076D02*
X114348Y58093D01*
X115249Y58994D01*
X115266Y58977D01*
X114365Y58076D01*
X114402Y58112D02*
X115211Y58957D01*
X114011Y58135D02*
X113700Y58446D01*
X114895Y59642D01*
X115207Y59330D01*
X114011Y58135D01*
Y58209D02*
X113773Y58446D01*
X114895Y59568D01*
X115133Y59330D01*
X114011Y58209D01*
Y58282D02*
X113847Y58446D01*
X114895Y59495D01*
X115059Y59330D01*
X114011Y58282D01*
Y58356D02*
X113921Y58446D01*
X114895Y59421D01*
X114986Y59330D01*
X114011Y58356D01*
Y58429D02*
X113994Y58446D01*
X114895Y59347D01*
X114912Y59330D01*
X114011Y58429D01*
X114049Y58466D02*
X114858Y59311D01*
X113658Y58488D02*
X113346Y58800D01*
X114542Y59996D01*
X114853Y59684D01*
X113658Y58488D01*
Y58562D02*
X113420Y58800D01*
X114542Y59922D01*
X114780Y59684D01*
X113658Y58562D01*
Y58636D02*
X113493Y58800D01*
X114542Y59848D01*
X114706Y59684D01*
X113658Y58636D01*
Y58709D02*
X113567Y58800D01*
X114542Y59775D01*
X114632Y59684D01*
X113658Y58709D01*
Y58783D02*
X113641Y58800D01*
X114542Y59701D01*
X114559Y59684D01*
X113658Y58783D01*
X113695Y58819D02*
X114504Y59665D01*
X113304Y58842D02*
X112993Y59154D01*
X114188Y60349D01*
X114500Y60037D01*
X113304Y58842D01*
Y58916D02*
X113066Y59154D01*
X114188Y60275D01*
X114426Y60037D01*
X113304Y58916D01*
Y58989D02*
X113140Y59154D01*
X114188Y60202D01*
X114352Y60037D01*
X113304Y58989D01*
Y59063D02*
X113214Y59154D01*
X114188Y60128D01*
X114279Y60037D01*
X113304Y59063D01*
Y59137D02*
X113287Y59154D01*
X114188Y60054D01*
X114205Y60037D01*
X113304Y59137D01*
X113342Y59173D02*
X114151Y60018D01*
X112951Y59195D02*
X112639Y59507D01*
X113835Y60703D01*
X114146Y60391D01*
X112951Y59195D01*
Y59269D02*
X112713Y59507D01*
X113835Y60629D01*
X114072Y60391D01*
X112951Y59269D01*
Y59343D02*
X112786Y59507D01*
X113835Y60555D01*
X113999Y60391D01*
X112951Y59343D01*
Y59416D02*
X112860Y59507D01*
X113835Y60482D01*
X113925Y60391D01*
X112951Y59416D01*
Y59490D02*
X112934Y59507D01*
X113835Y60408D01*
X113852Y60391D01*
X112951Y59490D01*
X112988Y59526D02*
X113797Y60372D01*
X112597Y59549D02*
X112285Y59861D01*
X113481Y61056D01*
X113793Y60745D01*
X112597Y59549D01*
Y59623D02*
X112359Y59861D01*
X113481Y60983D01*
X113719Y60745D01*
X112597Y59623D01*
Y59696D02*
X112433Y59861D01*
X113481Y60909D01*
X113645Y60745D01*
X112597Y59696D01*
Y59770D02*
X112506Y59861D01*
X113481Y60835D01*
X113572Y60745D01*
X112597Y59770D01*
Y59844D02*
X112580Y59861D01*
X113481Y60762D01*
X113498Y60745D01*
X112597Y59844D01*
X112634Y59880D02*
X113444Y60725D01*
X112244Y59903D02*
X111932Y60214D01*
X113127Y61410D01*
X113439Y61098D01*
X112244Y59903D01*
Y59976D02*
X112006Y60214D01*
X113127Y61336D01*
X113365Y61098D01*
X112244Y59976D01*
Y60050D02*
X112079Y60214D01*
X113127Y61262D01*
X113292Y61098D01*
X112244Y60050D01*
Y60124D02*
X112153Y60214D01*
X113127Y61189D01*
X113218Y61098D01*
X112244Y60124D01*
Y60197D02*
X112227Y60214D01*
X113127Y61115D01*
X113144Y61098D01*
X112244Y60197D01*
X112281Y60234D02*
X113090Y61079D01*
X111890Y60256D02*
X111578Y60568D01*
X112774Y61763D01*
X113085Y61452D01*
X111890Y60256D01*
Y60330D02*
X111652Y60568D01*
X112774Y61690D01*
X113012Y61452D01*
X111890Y60330D01*
Y60403D02*
X111726Y60568D01*
X112774Y61616D01*
X112938Y61452D01*
X111890Y60403D01*
Y60477D02*
X111799Y60568D01*
X112774Y61542D01*
X112864Y61452D01*
X111890Y60477D01*
Y60551D02*
X111873Y60568D01*
X112774Y61469D01*
X112791Y61452D01*
X111890Y60551D01*
X111927Y60587D02*
X112737Y61432D01*
X111536Y60610D02*
X111225Y60921D01*
X112420Y62117D01*
X112732Y61805D01*
X111536Y60610D01*
Y60683D02*
X111298Y60921D01*
X112420Y62043D01*
X112658Y61805D01*
X111536Y60683D01*
Y60757D02*
X111372Y60921D01*
X112420Y61970D01*
X112585Y61805D01*
X111536Y60757D01*
Y60831D02*
X111446Y60921D01*
X112420Y61896D01*
X112511Y61805D01*
X111536Y60831D01*
Y60904D02*
X111519Y60921D01*
X112420Y61822D01*
X112437Y61805D01*
X111536Y60904D01*
X111574Y60941D02*
X112383Y61786D01*
X111183Y60963D02*
X110871Y61275D01*
X112067Y62470D01*
X112378Y62159D01*
X111183Y60963D01*
Y61037D02*
X110945Y61275D01*
X112067Y62397D01*
X112305Y62159D01*
X111183Y61037D01*
Y61111D02*
X111019Y61275D01*
X112067Y62323D01*
X112231Y62159D01*
X111183Y61111D01*
Y61184D02*
X111092Y61275D01*
X112067Y62249D01*
X112157Y62159D01*
X111183Y61184D01*
Y61258D02*
X111166Y61275D01*
X112067Y62176D01*
X112084Y62159D01*
X111183Y61258D01*
X111220Y61294D02*
X112029Y62139D01*
X110829Y61317D02*
X110518Y61628D01*
X111713Y62824D01*
X112025Y62512D01*
X110829Y61317D01*
Y61390D02*
X110591Y61628D01*
X111713Y62750D01*
X111951Y62512D01*
X110829Y61390D01*
Y61464D02*
X110665Y61628D01*
X111713Y62677D01*
X111878Y62512D01*
X110829Y61464D01*
Y61538D02*
X110739Y61628D01*
X111713Y62603D01*
X111804Y62512D01*
X110829Y61538D01*
Y61611D02*
X110812Y61628D01*
X111713Y62529D01*
X111730Y62512D01*
X110829Y61611D01*
X110867Y61648D02*
X111676Y62493D01*
X108949Y60568D02*
X108637Y60256D01*
X107442Y61452D01*
X107753Y61763D01*
X108949Y60568D01*
X108875D02*
X108637Y60330D01*
X107515Y61452D01*
X107753Y61690D01*
X108875Y60568D01*
X108802D02*
X108637Y60403D01*
X107589Y61452D01*
X107753Y61616D01*
X108802Y60568D01*
X108728D02*
X108637Y60477D01*
X107663Y61452D01*
X107753Y61542D01*
X108728Y60568D01*
X108654D02*
X108637Y60551D01*
X107736Y61452D01*
X107753Y61469D01*
X108654Y60568D01*
X108618Y60605D02*
X107773Y61414D01*
X108595Y60214D02*
X108284Y59903D01*
X107088Y61098D01*
X107400Y61410D01*
X108595Y60214D01*
X108522D02*
X108284Y59976D01*
X107162Y61098D01*
X107400Y61336D01*
X108522Y60214D01*
X108448D02*
X108284Y60050D01*
X107236Y61098D01*
X107400Y61262D01*
X108448Y60214D01*
X108374D02*
X108284Y60124D01*
X107309Y61098D01*
X107400Y61189D01*
X108374Y60214D01*
X108301D02*
X108284Y60197D01*
X107383Y61098D01*
X107400Y61115D01*
X108301Y60214D01*
X108264Y60252D02*
X107419Y61061D01*
X114718Y57428D02*
X114407Y57739D01*
X115602Y58935D01*
X115914Y58623D01*
X114718Y57428D01*
Y57501D02*
X114480Y57739D01*
X115602Y58861D01*
X115840Y58623D01*
X114718Y57501D01*
Y57575D02*
X114554Y57739D01*
X115602Y58788D01*
X115767Y58623D01*
X114718Y57575D01*
Y57649D02*
X114628Y57739D01*
X115602Y58714D01*
X115693Y58623D01*
X114718Y57649D01*
Y57722D02*
X114701Y57739D01*
X115602Y58640D01*
X115619Y58623D01*
X114718Y57722D01*
X114756Y57759D02*
X115565Y58604D01*
X115914Y55724D02*
X115602Y55412D01*
X114407Y56608D01*
X114718Y56920D01*
X115914Y55724D01*
X115840D02*
X115602Y55486D01*
X114480Y56608D01*
X114718Y56846D01*
X115840Y55724D01*
X115767D02*
X115602Y55560D01*
X114554Y56608D01*
X114718Y56772D01*
X115767Y55724D01*
X115693D02*
X115602Y55633D01*
X114628Y56608D01*
X114718Y56699D01*
X115693Y55724D01*
X115619D02*
X115602Y55707D01*
X114701Y56608D01*
X114718Y56625D01*
X115619Y55724D01*
X115583Y55761D02*
X114738Y56571D01*
D85*
X111964Y40055D02*
D03*
X109164Y40055D02*
D03*
X111864Y45006D02*
D03*
X109064Y45006D02*
D03*
X147177Y98748D02*
D03*
X149977Y98748D02*
D03*
X150022Y90804D02*
D03*
X147222Y90804D02*
D03*
X154822Y14204D02*
D03*
X152022D02*
D03*
Y17504D02*
D03*
X154822D02*
D03*
X152022Y20704D02*
D03*
X154822D02*
D03*
X152022Y23904D02*
D03*
X154822D02*
D03*
X162567Y51911D02*
D03*
X159767D02*
D03*
X148922Y33304D02*
D03*
X151722D02*
D03*
X148922Y36604D02*
D03*
X151722D02*
D03*
X148922Y39904D02*
D03*
X151722D02*
D03*
X147172Y95854D02*
D03*
X149972Y95854D02*
D03*
X154122Y89104D02*
D03*
X156922D02*
D03*
X148922Y43204D02*
D03*
X151722D02*
D03*
X148922Y46504D02*
D03*
X151722D02*
D03*
X152022Y27004D02*
D03*
X154822D02*
D03*
X136437Y80795D02*
D03*
X139237Y80795D02*
D03*
X136437Y85795D02*
D03*
X139237D02*
D03*
X146522Y103004D02*
D03*
X149322D02*
D03*
X140607Y13258D02*
D03*
X143407D02*
D03*
X152222Y82404D02*
D03*
X149422Y82404D02*
D03*
X147222Y93304D02*
D03*
X150022D02*
D03*
X167724Y94901D02*
D03*
X170524D02*
D03*
X155420Y33310D02*
D03*
X158220D02*
D03*
X155420Y36610D02*
D03*
X158220D02*
D03*
X158224Y39901D02*
D03*
X155424D02*
D03*
X158224Y43201D02*
D03*
X155424D02*
D03*
X158220Y46510D02*
D03*
X155420D02*
D03*
X156737Y67945D02*
D03*
X159537D02*
D03*
Y65245D02*
D03*
X156737D02*
D03*
Y73545D02*
D03*
X159537D02*
D03*
X156737Y70745D02*
D03*
X159537D02*
D03*
X159537Y78795D02*
D03*
X156737D02*
D03*
X159537Y76195D02*
D03*
X156737Y76195D02*
D03*
X96412Y92658D02*
D03*
X93612D02*
D03*
X135620Y98069D02*
D03*
X132820D02*
D03*
X151012Y54571D02*
D03*
X148212D02*
D03*
X151012Y57172D02*
D03*
X148212D02*
D03*
X151012Y62358D02*
D03*
X148212Y62358D02*
D03*
X151012Y59773D02*
D03*
X148212Y59773D02*
D03*
X103137Y84995D02*
D03*
X100337Y84995D02*
D03*
X162502Y62373D02*
D03*
X159702Y62373D02*
D03*
X162552Y57222D02*
D03*
X159752Y57222D02*
D03*
X162502Y59823D02*
D03*
X159702Y59823D02*
D03*
X162502Y54621D02*
D03*
X159702Y54621D02*
D03*
D86*
X70863Y82404D02*
D03*
X73576Y82428D02*
D03*
X73576Y73928D02*
D03*
X70863Y73904D02*
D03*
Y79604D02*
D03*
X73576Y79628D02*
D03*
X73576Y76728D02*
D03*
X70863Y76704D02*
D03*
X170774Y83234D02*
D03*
X170774Y80434D02*
D03*
X110607Y78082D02*
D03*
X110607Y75282D02*
D03*
X112002Y70819D02*
D03*
Y68019D02*
D03*
X123131Y81614D02*
D03*
X123131Y78814D02*
D03*
X123168Y69339D02*
D03*
Y72139D02*
D03*
X161762Y39959D02*
D03*
Y42759D02*
D03*
X138712Y95157D02*
D03*
X138712Y92357D02*
D03*
X126071Y83798D02*
D03*
Y86598D02*
D03*
X126128Y74804D02*
D03*
Y72004D02*
D03*
X145828Y85104D02*
D03*
Y82304D02*
D03*
X152628Y103704D02*
D03*
Y100904D02*
D03*
X168163Y83219D02*
D03*
Y80419D02*
D03*
D123*
X82400Y98600D02*
D03*
X83900Y62650D02*
D03*
X4950D02*
D03*
X6500Y98600D02*
D03*
X58069Y84016D02*
D03*
Y72616D02*
D03*
D124*
X61069Y70416D02*
D03*
Y86216D02*
D03*
X186446Y29891D02*
D03*
Y34971D02*
D03*
X206203Y80514D02*
D03*
Y98294D02*
D03*
X226602Y92122D02*
D03*
Y77122D02*
D03*
X222093Y93310D02*
D03*
Y75530D02*
D03*
D125*
X35961Y80700D02*
D03*
Y76300D02*
D03*
X17905Y82371D02*
D03*
X19255Y88122D02*
D03*
X17955Y79870D02*
D03*
X15854Y87322D02*
D03*
X17905Y78120D02*
D03*
X15004Y76269D02*
D03*
X38110Y71518D02*
D03*
X38960Y78670D02*
D03*
X35509Y71618D02*
D03*
X38110Y76919D02*
D03*
X33358Y76269D02*
D03*
X32908Y71618D02*
D03*
X27557Y68367D02*
D03*
X31097Y66317D02*
D03*
X27607Y71218D02*
D03*
X24356Y68467D02*
D03*
X24456Y70268D02*
D03*
X27207Y83621D02*
D03*
X27057Y90223D02*
D03*
X28857Y84971D02*
D03*
X31258Y75119D02*
D03*
X223746Y56751D02*
D03*
X122905Y27158D02*
D03*
X132607Y28508D02*
D03*
X126806Y18906D02*
D03*
X130557Y17255D02*
D03*
X129257Y45751D02*
D03*
X143610Y27608D02*
D03*
X125055Y29959D02*
D03*
X92647Y86923D02*
D03*
X105050Y7953D02*
D03*
Y27508D02*
D03*
X93648Y27908D02*
D03*
X93348Y85022D02*
D03*
X94948Y29358D02*
D03*
X103400Y9153D02*
D03*
X103350Y29408D02*
D03*
X93798Y83522D02*
D03*
X93848Y36310D02*
D03*
X105801Y36410D02*
D03*
X105851Y6703D02*
D03*
X105651Y30709D02*
D03*
X94448Y81672D02*
D03*
X94398Y65568D02*
D03*
X95298Y66718D02*
D03*
X95648Y68218D02*
D03*
X97248Y67718D02*
D03*
X97148Y69769D02*
D03*
X98549Y69269D02*
D03*
X104600Y35310D02*
D03*
X103400Y34410D02*
D03*
X121205Y68368D02*
D03*
D126*
X19185Y51936D02*
D03*
X173936Y12093D02*
D03*
D127*
X16685Y51936D02*
D03*
X176436Y12093D02*
D03*
X164230Y94491D02*
D03*
X174230D02*
D03*
X176730Y101991D02*
D03*
X161730D02*
D03*
X164230Y85191D02*
D03*
X174230D02*
D03*
X176730Y92691D02*
D03*
X161730D02*
D03*
D128*
X53169Y82116D02*
D03*
X54689Y74546D02*
D03*
X66969Y80221D02*
D03*
X64419Y76411D02*
D03*
X66969Y75141D02*
D03*
X54689Y84626D02*
D03*
X53169Y72006D02*
D03*
X64419Y78951D02*
D03*
X66969Y77681D02*
D03*
X66969Y82761D02*
D03*
X64419Y81491D02*
D03*
X78809Y55101D02*
D03*
X72809Y55101D02*
D03*
X22890Y106300D02*
D03*
X22890Y108840D02*
D03*
X25430Y106300D02*
D03*
Y108840D02*
D03*
X27970Y106300D02*
D03*
X27970Y108840D02*
D03*
X30510Y106300D02*
D03*
Y108840D02*
D03*
X33050Y106300D02*
D03*
Y108840D02*
D03*
X35590Y106300D02*
D03*
Y108840D02*
D03*
X38130Y106300D02*
D03*
Y108840D02*
D03*
X40670Y106300D02*
D03*
Y108840D02*
D03*
X43210Y106300D02*
D03*
Y108840D02*
D03*
X20350D02*
D03*
X72809Y50101D02*
D03*
X84321Y54743D02*
D03*
Y52203D02*
D03*
X231813Y3961D02*
D03*
Y6501D02*
D03*
X234353Y3961D02*
D03*
Y6501D02*
D03*
X236893Y3961D02*
D03*
X229273Y6501D02*
D03*
Y3961D02*
D03*
X226733D02*
D03*
Y6501D02*
D03*
X188606Y87561D02*
D03*
X191146Y87561D02*
D03*
X188606Y85021D02*
D03*
X191146D02*
D03*
X188606Y82481D02*
D03*
X191146D02*
D03*
X188606Y79941D02*
D03*
X191146D02*
D03*
X188606Y77401D02*
D03*
X107101Y39919D02*
D03*
X107101Y44919D02*
D03*
X120104Y6861D02*
D03*
X120104Y11861D02*
D03*
X141531Y3911D02*
D03*
X146611Y3911D02*
D03*
X144071Y6451D02*
D03*
X144071Y3911D02*
D03*
X141531Y6451D02*
D03*
X138991D02*
D03*
Y3911D02*
D03*
X136451Y6451D02*
D03*
Y3911D02*
D03*
X121384Y108791D02*
D03*
X116304D02*
D03*
X113764D02*
D03*
X113764Y106251D02*
D03*
X111224Y108791D02*
D03*
X126464Y106251D02*
D03*
X131544D02*
D03*
X118844Y108791D02*
D03*
X116304Y106251D02*
D03*
X118844D02*
D03*
X121384Y106251D02*
D03*
X123924Y106251D02*
D03*
X129004Y106251D02*
D03*
Y108791D02*
D03*
X131544D02*
D03*
X134084Y106251D02*
D03*
Y108791D02*
D03*
X123924Y108791D02*
D03*
X126464D02*
D03*
X126125Y81893D02*
D03*
Y76893D02*
D03*
X134324Y80809D02*
D03*
Y85809D02*
D03*
X174864Y46581D02*
D03*
X174864Y49121D02*
D03*
X172324D02*
D03*
X172324Y51661D02*
D03*
X172324Y33881D02*
D03*
X172324Y64361D02*
D03*
X174864Y61821D02*
D03*
X172324Y61821D02*
D03*
X174864Y59281D02*
D03*
X172324D02*
D03*
X174864Y56741D02*
D03*
X172324D02*
D03*
X174865Y54201D02*
D03*
X172324Y54201D02*
D03*
X174864Y69441D02*
D03*
X172324Y69441D02*
D03*
X174864Y66901D02*
D03*
X172324D02*
D03*
X174864Y44041D02*
D03*
Y51661D02*
D03*
Y64361D02*
D03*
X172324Y38961D02*
D03*
X89950Y105200D02*
D03*
Y103200D02*
D03*
X89950Y6750D02*
D03*
Y8750D02*
D03*
X38150Y95050D02*
D03*
X36150D02*
D03*
X38150Y61800D02*
D03*
X36150D02*
D03*
X255993Y79851D02*
D03*
Y83901D02*
D03*
Y87951D02*
D03*
Y92051D02*
D03*
Y96101D02*
D03*
X201546Y90151D02*
D03*
Y92051D02*
D03*
X195844D02*
D03*
X195846Y90151D02*
D03*
X180800Y6702D02*
D03*
Y103201D02*
D03*
Y105201D02*
D03*
Y8801D02*
D03*
D129*
X64419Y73871D02*
D03*
X16500Y92700D02*
D03*
X14000D02*
D03*
X16500Y64200D02*
D03*
Y66700D02*
D03*
X14000Y90200D02*
D03*
X16500D02*
D03*
X14000Y64200D02*
D03*
Y66700D02*
D03*
X72269Y66716D02*
D03*
X75069Y66716D02*
D03*
X72269Y64216D02*
D03*
X75069Y64216D02*
D03*
X72269Y90016D02*
D03*
X75069D02*
D03*
X72269Y92416D02*
D03*
X75069D02*
D03*
X20350Y106300D02*
D03*
X78809Y50101D02*
D03*
X84321Y49663D02*
D03*
X236893Y6501D02*
D03*
X191146Y77401D02*
D03*
X122872Y16451D02*
D03*
Y18951D02*
D03*
X120372Y16451D02*
D03*
Y18951D02*
D03*
X96872Y16451D02*
D03*
Y18951D02*
D03*
X94372Y16451D02*
D03*
Y18951D02*
D03*
Y33951D02*
D03*
X96872D02*
D03*
X120372D02*
D03*
X122872D02*
D03*
X94372Y31451D02*
D03*
X96872D02*
D03*
X120372D02*
D03*
X122872D02*
D03*
X146611Y6451D02*
D03*
X111224Y106251D02*
D03*
X172324Y28801D02*
D03*
D130*
X27813Y100131D02*
D03*
X55753D02*
D03*
X53213D02*
D03*
X50673D02*
D03*
X48133D02*
D03*
X45593D02*
D03*
X43053D02*
D03*
X40513D02*
D03*
X37973D02*
D03*
X35433D02*
D03*
X32893D02*
D03*
X20193D02*
D03*
X17653D02*
D03*
X25273D02*
D03*
X22733D02*
D03*
X58293D02*
D03*
X15113D02*
D03*
X30353D02*
D03*
X60833D02*
D03*
D131*
X12573D02*
D03*
D132*
X6000Y106700D02*
D03*
X6000Y4700D02*
D03*
X74000Y4700D02*
D03*
X74000Y106700D02*
D03*
X255196Y4701D02*
D03*
X255196Y106701D02*
D03*
X187196Y106701D02*
D03*
X187196Y4701D02*
D03*
X220490Y15010D02*
D03*
X242096Y62401D02*
D03*
X164874Y106651D02*
D03*
X164874Y4651D02*
D03*
X96874D02*
D03*
X96874Y106651D02*
D03*
D133*
X199490Y15010D02*
D03*
D134*
X230296Y40651D02*
D03*
X236496Y92201D02*
D03*
X231696D02*
D03*
X210146Y52751D02*
D03*
X205146D02*
D03*
X225346Y40651D02*
D03*
X240893Y86201D02*
D03*
X243393Y90201D02*
D03*
X245893Y86201D02*
D03*
X240946Y40551D02*
D03*
X245946Y40501D02*
D03*
X211796Y107301D02*
D03*
D135*
X244018Y3944D02*
D03*
X241934Y33575D02*
D03*
X243757Y22643D02*
D03*
X227341Y12913D02*
D03*
X229234Y29859D02*
D03*
X190573Y61482D02*
D03*
X190581Y56222D02*
D03*
X231657Y14043D02*
D03*
X185338Y82407D02*
D03*
X188330Y68064D02*
D03*
D136*
X246518Y3944D02*
D03*
X239434Y33575D02*
D03*
X246257Y22643D02*
D03*
X224841Y12913D02*
D03*
X226734Y29859D02*
D03*
X188073Y61482D02*
D03*
X188081Y56222D02*
D03*
X234157Y14043D02*
D03*
X203599Y107004D02*
D03*
X198599D02*
D03*
X185338Y87407D02*
D03*
X188330Y73064D02*
D03*
X115847Y26195D02*
D03*
X100847Y26195D02*
D03*
D137*
X186446Y40051D02*
D03*
D138*
X59980Y11500D02*
D03*
X59900Y24000D02*
D03*
X54900D02*
D03*
X74050Y25800D02*
D03*
X73970Y38300D02*
D03*
X68970Y38300D02*
D03*
X51150Y34400D02*
D03*
X63650Y34480D02*
D03*
X51150Y29400D02*
D03*
X45780Y25700D02*
D03*
X45700Y38200D02*
D03*
X40700D02*
D03*
X63600Y48830D02*
D03*
X51100Y48750D02*
D03*
Y43750D02*
D03*
D139*
X54900Y11500D02*
D03*
X68970Y25800D02*
D03*
X63650Y29400D02*
D03*
X40700Y25700D02*
D03*
X63600Y43750D02*
D03*
D140*
X211796Y99801D02*
D03*
D141*
X172324Y46581D02*
D03*
X174864Y28801D02*
D03*
X172324Y31341D02*
D03*
X174864D02*
D03*
Y33881D02*
D03*
X172324Y36421D02*
D03*
X174864D02*
D03*
Y38961D02*
D03*
X172324Y41501D02*
D03*
X174864D02*
D03*
X172324Y44041D02*
D03*
D142*
X123124Y76698D02*
D03*
Y74198D02*
D03*
X221796Y27801D02*
D03*
X221793Y22851D02*
D03*
X211793Y22851D02*
D03*
X205446Y40401D02*
D03*
X211796D02*
D03*
D143*
X35759Y74119D02*
D03*
X26657Y73018D02*
D03*
X26997Y78770D02*
D03*
D144*
X2786Y56414D02*
D03*
X4001Y48462D02*
D03*
X86250Y57765D02*
D03*
X8002Y92900D02*
D03*
X5501Y90473D02*
D03*
X68017Y52913D02*
D03*
X70518Y50463D02*
D03*
X83021Y69768D02*
D03*
Y74800D02*
D03*
Y79900D02*
D03*
Y84900D02*
D03*
X83050Y89923D02*
D03*
X83021Y94800D02*
D03*
X75519Y99025D02*
D03*
X70518D02*
D03*
X66017Y99900D02*
D03*
X63166Y102300D02*
D03*
X60350Y104726D02*
D03*
X56214Y102800D02*
D03*
X53550Y104876D02*
D03*
X60465Y110500D02*
D03*
X65216Y110400D02*
D03*
X67667Y108500D02*
D03*
X69968Y110428D02*
D03*
X83021Y105427D02*
D03*
X85472Y107977D02*
D03*
X83021Y110428D02*
D03*
X80470Y107977D02*
D03*
X78020Y110428D02*
D03*
X11903Y103226D02*
D03*
X16904Y104300D02*
D03*
X8002Y62966D02*
D03*
X63016Y57965D02*
D03*
X60450Y56614D02*
D03*
X58015Y57900D02*
D03*
X55514Y56664D02*
D03*
X53013Y57965D02*
D03*
X50450Y56614D02*
D03*
X48062Y57900D02*
D03*
X45511Y56764D02*
D03*
X43011Y57965D02*
D03*
X40510Y56700D02*
D03*
X38010Y57965D02*
D03*
X35509Y55400D02*
D03*
X33008Y57965D02*
D03*
X30550Y55414D02*
D03*
X28007Y57900D02*
D03*
X25506Y55500D02*
D03*
X23006Y57965D02*
D03*
X20450Y55464D02*
D03*
X18005Y57965D02*
D03*
X15504Y55464D02*
D03*
X5451Y50463D02*
D03*
X8102Y58665D02*
D03*
X72218Y78170D02*
D03*
X53914Y90423D02*
D03*
X52863Y78270D02*
D03*
X62216Y84071D02*
D03*
X62816Y72468D02*
D03*
X80720Y55614D02*
D03*
X81750Y56650D02*
D03*
X41750Y54000D02*
D03*
Y42650D02*
D03*
X79125Y39900D02*
D03*
X84300Y43550D02*
D03*
X81150Y34750D02*
D03*
X87000Y30950D02*
D03*
X58293Y107900D02*
D03*
X68350Y42900D02*
D03*
X68400Y47900D02*
D03*
X87200Y48950D02*
D03*
X58250Y110300D02*
D03*
X2750Y95600D02*
D03*
X50450Y106200D02*
D03*
X48150Y107850D02*
D03*
X2250Y48950D02*
D03*
X3150Y101100D02*
D03*
X1900Y47250D02*
D03*
X1671Y101471D02*
D03*
X31750Y103450D02*
D03*
X34250Y102650D02*
D03*
X21600Y110500D02*
D03*
X53150Y45800D02*
D03*
X53450Y34400D02*
D03*
X61050Y52000D02*
D03*
X73050Y40400D02*
D03*
X46850Y40850D02*
D03*
X80570Y48862D02*
D03*
X9752Y110578D02*
D03*
X68717Y65466D02*
D03*
Y70918D02*
D03*
X203146Y72851D02*
D03*
X212946Y69701D02*
D03*
X213746Y74801D02*
D03*
X194238Y69194D02*
D03*
X208846Y61851D02*
D03*
X220596Y61751D02*
D03*
X224295Y64352D02*
D03*
X251095Y75101D02*
D03*
X201296Y64701D02*
D03*
X216496Y60101D02*
D03*
X220546Y31551D02*
D03*
X201743Y19201D02*
D03*
X218193Y19251D02*
D03*
X199893Y28551D02*
D03*
X204893Y28451D02*
D03*
X208946Y30001D02*
D03*
X186996Y47451D02*
D03*
X233496Y16801D02*
D03*
X231546Y16801D02*
D03*
X207546Y76251D02*
D03*
X237296Y78901D02*
D03*
X204196Y50001D02*
D03*
X218744Y74703D02*
D03*
X196496Y51951D02*
D03*
X227346Y10501D02*
D03*
X207096Y6501D02*
D03*
X206946Y33601D02*
D03*
X208696Y5001D02*
D03*
X208646Y36051D02*
D03*
X205646Y4301D02*
D03*
Y37501D02*
D03*
X217296Y88401D02*
D03*
X198646Y81232D02*
D03*
Y79751D02*
D03*
X197746Y69151D02*
D03*
X220546Y63651D02*
D03*
X228693Y8751D02*
D03*
X197196Y4701D02*
D03*
X202193Y4701D02*
D03*
X199693Y9701D02*
D03*
X212196Y9701D02*
D03*
X217196D02*
D03*
X212193Y14751D02*
D03*
X204793Y17801D02*
D03*
X199846Y26201D02*
D03*
X254693Y12201D02*
D03*
X249693Y7201D02*
D03*
X240896Y13401D02*
D03*
X233846Y10401D02*
D03*
X229946Y11601D02*
D03*
X224193Y8251D02*
D03*
X222196Y34701D02*
D03*
X229693Y35801D02*
D03*
X242193Y37201D02*
D03*
X249746Y19701D02*
D03*
X249693Y24701D02*
D03*
X241193Y23151D02*
D03*
X251396Y39701D02*
D03*
X204393Y31151D02*
D03*
X198296Y40401D02*
D03*
X137359Y38561D02*
D03*
X126706Y40711D02*
D03*
X127856Y49013D02*
D03*
X126756Y42712D02*
D03*
Y50314D02*
D03*
X132257Y51264D02*
D03*
X148212Y52214D02*
D03*
X136108Y52514D02*
D03*
X142924Y52664D02*
D03*
X158464Y51914D02*
D03*
X152412D02*
D03*
X123205Y88123D02*
D03*
X116903Y37460D02*
D03*
X116953Y43612D02*
D03*
X113653Y63717D02*
D03*
X103440Y55099D02*
D03*
X103077Y51649D02*
D03*
X103627Y53200D02*
D03*
X102652Y62137D02*
D03*
X123874Y65001D02*
D03*
X123274Y48051D02*
D03*
X103202Y60637D02*
D03*
X97826Y59601D02*
D03*
X98826Y48449D02*
D03*
X113778Y51198D02*
D03*
X112002Y63737D02*
D03*
X99726Y64053D02*
D03*
X136458Y95775D02*
D03*
X141510Y102227D02*
D03*
X138359Y102177D02*
D03*
X131407Y32859D02*
D03*
X136558Y30859D02*
D03*
X132633Y36059D02*
D03*
X135774Y57716D02*
D03*
X136608Y32659D02*
D03*
X151712Y91574D02*
D03*
X145361Y93308D02*
D03*
X144310Y91224D02*
D03*
X143460Y97276D02*
D03*
X133308Y96125D02*
D03*
X102350Y97076D02*
D03*
X93398Y96975D02*
D03*
X156713Y17501D02*
D03*
Y23901D02*
D03*
X116074Y86873D02*
D03*
X144010Y10604D02*
D03*
X126655Y89272D02*
D03*
X126755Y90623D02*
D03*
X156713Y27008D02*
D03*
X136124Y68601D02*
D03*
X136624Y78951D02*
D03*
X134974Y76401D02*
D03*
X125874Y79101D02*
D03*
X123574Y83501D02*
D03*
X103502Y65737D02*
D03*
X147774Y31551D02*
D03*
X159974Y86501D02*
D03*
X141810Y31309D02*
D03*
X142524Y75451D02*
D03*
X130324Y5251D02*
D03*
X100774Y78801D02*
D03*
X132424Y57151D02*
D03*
X113252Y57087D02*
D03*
X109402Y59087D02*
D03*
X107402Y56787D02*
D03*
X108501Y79871D02*
D03*
X114574Y81151D02*
D03*
X113074Y90401D02*
D03*
X109724Y92351D02*
D03*
X104850Y86101D02*
D03*
X105324Y82601D02*
D03*
X132624Y10701D02*
D03*
X134874Y17701D02*
D03*
X148174D02*
D03*
Y28451D02*
D03*
X135624Y21851D02*
D03*
X140374Y96551D02*
D03*
X164418Y43195D02*
D03*
X164424Y39901D02*
D03*
X164418Y36595D02*
D03*
X164165Y33259D02*
D03*
X164324Y46551D02*
D03*
X143760Y85223D02*
D03*
X132674Y101827D02*
D03*
X153563Y36601D02*
D03*
X138309Y53164D02*
D03*
X141774Y46951D02*
D03*
X141860Y24607D02*
D03*
X156713Y14205D02*
D03*
Y20695D02*
D03*
X137874Y48151D02*
D03*
X152062Y89974D02*
D03*
X153113Y105678D02*
D03*
X148524Y84001D02*
D03*
X142774Y20751D02*
D03*
X142160Y28408D02*
D03*
X141760Y26158D02*
D03*
X139974Y19201D02*
D03*
X141474Y15901D02*
D03*
X159524Y101501D02*
D03*
X154924Y67951D02*
D03*
X153563Y39901D02*
D03*
X142924Y41601D02*
D03*
X142560Y29909D02*
D03*
X153563Y46510D02*
D03*
Y43201D02*
D03*
X139074Y44801D02*
D03*
X138209Y28608D02*
D03*
X154924Y65223D02*
D03*
Y73545D02*
D03*
X174624Y78051D02*
D03*
X171074Y78070D02*
D03*
X170874Y92701D02*
D03*
X172424Y91501D02*
D03*
X159724Y90901D02*
D03*
X154924Y70745D02*
D03*
Y78751D02*
D03*
Y76201D02*
D03*
X153563Y33308D02*
D03*
X144874Y35001D02*
D03*
X144710Y22207D02*
D03*
X144824Y38201D02*
D03*
X137385Y23606D02*
D03*
X141660Y91824D02*
D03*
X122674Y99951D02*
D03*
X117774D02*
D03*
X123574Y98901D02*
D03*
X118374Y98751D02*
D03*
X123574Y96501D02*
D03*
X117802Y96374D02*
D03*
X118653Y95374D02*
D03*
X125024Y94301D02*
D03*
X117802Y94324D02*
D03*
X123954Y93123D02*
D03*
X117002Y93324D02*
D03*
X114824Y102101D02*
D03*
X113453Y102127D02*
D03*
X112001Y102326D02*
D03*
X130774Y80501D02*
D03*
X130124Y90151D02*
D03*
X136724Y105551D02*
D03*
X122304Y91073D02*
D03*
X129174Y91251D02*
D03*
X130624Y79101D02*
D03*
X132007Y69769D02*
D03*
X146824Y76301D02*
D03*
X143974Y73651D02*
D03*
X133974Y64951D02*
D03*
X136124Y66651D02*
D03*
X134124Y66901D02*
D03*
X120302Y50287D02*
D03*
X95475Y50399D02*
D03*
X121652Y50287D02*
D03*
X95475Y48949D02*
D03*
X123002Y50237D02*
D03*
X96875Y48899D02*
D03*
X101424Y74101D02*
D03*
X102224Y75151D02*
D03*
X101424Y76201D02*
D03*
X122224Y67251D02*
D03*
X102224Y77301D02*
D03*
X107501Y63717D02*
D03*
X102224Y79101D02*
D03*
X112374Y98701D02*
D03*
X128524Y100001D02*
D03*
X128674Y79501D02*
D03*
X123924Y95151D02*
D03*
X112774Y97301D02*
D03*
X127874Y98751D02*
D03*
X128624Y78101D02*
D03*
X92697Y102727D02*
D03*
X93898Y90824D02*
D03*
X92624Y90001D02*
D03*
X145311Y98576D02*
D03*
X152324Y98901D02*
D03*
X143124Y78651D02*
D03*
X144324Y110551D02*
D03*
X145311Y95825D02*
D03*
X143774Y100801D02*
D03*
X124424Y89901D02*
D03*
X169374Y87601D02*
D03*
X131374Y87001D02*
D03*
X132424Y80551D02*
D03*
X134074Y68801D02*
D03*
X140059Y33760D02*
D03*
X140659Y63167D02*
D03*
X127982Y72868D02*
D03*
X124674Y54301D02*
D03*
X106924Y96851D02*
D03*
X142724Y90801D02*
D03*
X144074Y77401D02*
D03*
X138359Y59866D02*
D03*
X129324Y58401D02*
D03*
X143810Y46013D02*
D03*
X110651Y102026D02*
D03*
X134108Y100726D02*
D03*
X100449Y98076D02*
D03*
X135658Y102677D02*
D03*
X99249Y100101D02*
D03*
X94748Y98826D02*
D03*
X96174Y99175D02*
D03*
X130607Y101877D02*
D03*
X98199Y99101D02*
D03*
X135308Y94675D02*
D03*
X113152Y95975D02*
D03*
X147761Y78871D02*
D03*
X145724Y78851D02*
D03*
X95048Y80271D02*
D03*
X96498Y79671D02*
D03*
X96348Y78221D02*
D03*
X96998Y76920D02*
D03*
X98549Y77321D02*
D03*
X121955Y46813D02*
D03*
X120204Y46063D02*
D03*
X110302Y50414D02*
D03*
X108051Y47613D02*
D03*
X106551D02*
D03*
X123155Y66268D02*
D03*
X125206Y64917D02*
D03*
X110552Y73470D02*
D03*
X114903Y65167D02*
D03*
X98149Y75370D02*
D03*
X94548Y38211D02*
D03*
X95648Y64517D02*
D03*
X105601D02*
D03*
X116053Y64467D02*
D03*
X102500Y64917D02*
D03*
X104800Y70069D02*
D03*
X99099Y74420D02*
D03*
X99249Y73019D02*
D03*
X101199Y71719D02*
D03*
X105000Y73220D02*
D03*
Y71919D02*
D03*
X102400Y71219D02*
D03*
X103000Y70069D02*
D03*
X158364Y62373D02*
D03*
X143060Y72469D02*
D03*
X144960Y72619D02*
D03*
X143960Y69369D02*
D03*
X144960Y68168D02*
D03*
X145961Y67068D02*
D03*
X146861Y66068D02*
D03*
X143974Y64817D02*
D03*
X152412Y62373D02*
D03*
X141960Y63667D02*
D03*
X141910Y58216D02*
D03*
X158414Y59866D02*
D03*
Y57215D02*
D03*
Y54615D02*
D03*
X152412Y59866D02*
D03*
Y54615D02*
D03*
Y57215D02*
D03*
X142985Y60826D02*
D03*
X142960Y55765D02*
D03*
X141774Y54450D02*
D03*
X116029Y36109D02*
D03*
X115929Y39810D02*
D03*
X99325Y23956D02*
D03*
X99675Y38060D02*
D03*
Y32858D02*
D03*
X111128Y16454D02*
D03*
X111228Y22606D02*
D03*
X111278Y10403D02*
D03*
X135984Y20332D02*
D03*
X97875Y21805D02*
D03*
X97174Y27307D02*
D03*
X125632Y20205D02*
D03*
X140885Y71968D02*
D03*
X128082Y74469D02*
D03*
X130583Y68217D02*
D03*
X126982Y68517D02*
D03*
X128532Y34759D02*
D03*
X131883Y67867D02*
D03*
X126732Y69968D02*
D03*
X128332Y33358D02*
D03*
X114829Y32908D02*
D03*
X114129Y13053D02*
D03*
X112828Y18005D02*
D03*
X112728Y20355D02*
D03*
X129733Y20655D02*
D03*
X115829Y13603D02*
D03*
X146587Y12903D02*
D03*
X150688Y3901D02*
D03*
X156990Y12003D02*
D03*
X157490Y6452D02*
D03*
X97199Y98151D02*
D03*
X98775Y14654D02*
D03*
X132633Y15354D02*
D03*
X112928Y29858D02*
D03*
X121121Y9352D02*
D03*
X126582D02*
D03*
X117822Y18755D02*
D03*
X124381Y24656D02*
D03*
X119380D02*
D03*
X116879Y29657D02*
D03*
X108677Y26001D02*
D03*
X101876Y31201D02*
D03*
X102222Y38310D02*
D03*
X118730Y38160D02*
D03*
X114379Y44661D02*
D03*
Y39660D02*
D03*
X106877Y42301D02*
D03*
X102222Y46962D02*
D03*
X99375Y51401D02*
D03*
X115621Y73719D02*
D03*
X118880Y76801D02*
D03*
X121021Y74419D02*
D03*
X96874Y84601D02*
D03*
X101376Y92401D02*
D03*
X104022Y96574D02*
D03*
X94574Y87872D02*
D03*
X96874Y90401D02*
D03*
X101876Y109678D02*
D03*
X106877Y109628D02*
D03*
X101926Y104676D02*
D03*
X106822D02*
D03*
X104376Y107177D02*
D03*
X102222Y101326D02*
D03*
X142486Y103776D02*
D03*
X137085Y103626D02*
D03*
X143386Y108001D02*
D03*
X133284Y92401D02*
D03*
X131583Y95701D02*
D03*
X161891Y82171D02*
D03*
X166192D02*
D03*
X146887Y80270D02*
D03*
X161891Y89172D02*
D03*
X166221D02*
D03*
X159540Y83471D02*
D03*
X159890Y93624D02*
D03*
X159821Y98025D02*
D03*
X153089Y92323D02*
D03*
X165421Y96574D02*
D03*
X167892Y98675D02*
D03*
X172343Y93474D02*
D03*
X172994Y96401D02*
D03*
X170693Y99075D02*
D03*
X160121Y103676D02*
D03*
X146887Y109628D02*
D03*
X151888D02*
D03*
X156890Y109678D02*
D03*
X160721Y110178D02*
D03*
X169743Y110201D02*
D03*
X168342Y102201D02*
D03*
X177821Y109778D02*
D03*
X177545Y103926D02*
D03*
X172894Y103126D02*
D03*
X175094Y88001D02*
D03*
X177545Y91101D02*
D03*
X167821Y74469D02*
D03*
X169743Y69568D02*
D03*
X161321Y76169D02*
D03*
Y70768D02*
D03*
Y65266D02*
D03*
X165442Y57815D02*
D03*
X165092Y53101D02*
D03*
X167792D02*
D03*
X177645Y69601D02*
D03*
Y59665D02*
D03*
Y49663D02*
D03*
X177495Y39001D02*
D03*
X166892Y47612D02*
D03*
X166442Y43461D02*
D03*
X177521Y28907D02*
D03*
X149388Y30058D02*
D03*
X149638Y26901D02*
D03*
X146637Y22101D02*
D03*
X149938Y23801D02*
D03*
X149988Y17454D02*
D03*
X135484Y15701D02*
D03*
X139521Y16354D02*
D03*
X149388Y13653D02*
D03*
X146421Y9752D02*
D03*
X137821Y12453D02*
D03*
X139485Y8752D02*
D03*
X134384Y8552D02*
D03*
X133921Y12053D02*
D03*
X128921Y19055D02*
D03*
X129321Y16154D02*
D03*
X169421Y2151D02*
D03*
X169393Y7152D02*
D03*
X160340Y2151D02*
D03*
X160321Y7202D02*
D03*
X171893Y4651D02*
D03*
X174394Y2151D02*
D03*
X176895Y4651D02*
D03*
X176921Y9652D02*
D03*
X171893D02*
D03*
X166892D02*
D03*
X158021Y4651D02*
D03*
X152488Y4601D02*
D03*
X176895Y14654D02*
D03*
X168743Y13701D02*
D03*
X171893Y16754D02*
D03*
X145321Y1950D02*
D03*
X116579Y2151D02*
D03*
X106077D02*
D03*
X103622Y4651D02*
D03*
X101522Y2151D02*
D03*
X111178Y2901D02*
D03*
Y7952D02*
D03*
X108522Y17754D02*
D03*
X100825Y8852D02*
D03*
X93173D02*
D03*
X93223Y13801D02*
D03*
X96824Y11601D02*
D03*
X93424Y21301D02*
D03*
X108322Y21705D02*
D03*
X115779Y51501D02*
D03*
X120480Y52263D02*
D03*
X119030Y62001D02*
D03*
X122581Y59265D02*
D03*
X126732Y59415D02*
D03*
X138785Y20501D02*
D03*
X145987Y36601D02*
D03*
X150088Y20455D02*
D03*
X145787Y90701D02*
D03*
X140635Y93001D02*
D03*
X146021Y46062D02*
D03*
X145937Y63266D02*
D03*
D145*
X172938Y80868D02*
D03*
Y82768D02*
D03*
X175288Y81818D02*
D03*
M02*
