%FSLAX43Y43*%
%MOMM*%
G71*
G01*
G75*
%ADD10C,0.300*%
%ADD11R,1.600X1.800*%
%ADD12R,1.800X1.600*%
%ADD13R,1.300X0.850*%
%ADD14R,1.450X0.550*%
%ADD15R,1.450X0.550*%
%ADD16R,0.850X1.300*%
%ADD17R,2.150X0.600*%
%ADD18R,2.150X0.600*%
%ADD19R,1.500X1.300*%
%ADD20O,1.800X0.350*%
%ADD21O,1.800X0.350*%
%ADD22R,2.500X0.500*%
%ADD23R,2.500X2.000*%
%ADD24R,0.600X2.200*%
%ADD25R,0.600X2.200*%
%ADD26R,1.100X2.150*%
%ADD27R,3.500X2.150*%
%ADD28R,1.300X1.500*%
%ADD29R,2.200X0.600*%
%ADD30R,2.200X0.600*%
%ADD31R,4.000X3.000*%
%ADD32R,3.000X4.000*%
%ADD33R,8.000X3.500*%
%ADD34R,2.150X3.500*%
%ADD35R,2.150X1.100*%
%ADD36O,2.000X1.000*%
%ADD37R,2.000X1.000*%
%ADD38R,0.300X1.600*%
%ADD39R,2.700X2.500*%
%ADD40R,2.200X0.550*%
%ADD41R,2.200X0.550*%
%ADD42R,1.550X0.600*%
%ADD43R,1.550X0.600*%
%ADD44R,1.700X0.600*%
%ADD45R,1.700X0.600*%
%ADD46C,0.250*%
%ADD47C,0.063*%
%ADD48R,0.600X1.700*%
%ADD49R,0.600X2.150*%
%ADD50R,0.600X2.150*%
%ADD51C,0.500*%
%ADD52C,1.000*%
%ADD53C,1.500*%
%ADD54C,0.800*%
%ADD55C,3.000*%
%ADD56C,0.880*%
%ADD57C,2.000*%
%ADD58C,0.600*%
%ADD59C,0.400*%
%ADD60C,0.180*%
%ADD61C,3.500*%
%ADD62C,2.500*%
%ADD63C,1.200*%
%ADD64R,1.400X1.400*%
%ADD65C,1.400*%
%ADD66C,1.500*%
%ADD67R,1.500X1.500*%
%ADD68O,1.500X2.000*%
%ADD69R,1.500X2.000*%
%ADD70C,5.000*%
%ADD71C,4.000*%
%ADD72C,3.000*%
%ADD73R,2.000X2.000*%
%ADD74C,2.000*%
%ADD75R,2.500X2.500*%
%ADD76C,1.800*%
%ADD77R,1.800X1.800*%
%ADD78R,3.000X3.000*%
%ADD79C,1.500*%
%ADD80C,1.300*%
%ADD81C,1.270*%
%ADD82C,1.100*%
%ADD83R,0.950X0.900*%
%ADD84C,0.700*%
%ADD85R,1.803X2.003*%
%ADD86R,2.003X1.803*%
%ADD87R,1.503X1.053*%
%ADD88R,1.653X0.753*%
%ADD89R,1.653X0.753*%
%ADD90R,1.053X1.503*%
%ADD91R,2.353X0.803*%
%ADD92R,2.353X0.803*%
%ADD93R,1.703X1.503*%
%ADD94O,2.003X0.553*%
%ADD95O,2.003X0.553*%
%ADD96R,2.703X0.703*%
%ADD97R,2.703X2.203*%
%ADD98R,0.803X2.403*%
%ADD99R,0.803X2.403*%
%ADD100R,1.303X2.353*%
%ADD101R,3.703X2.353*%
%ADD102R,1.503X1.703*%
%ADD103R,2.403X0.803*%
%ADD104R,2.403X0.803*%
%ADD105R,4.203X3.203*%
%ADD106R,3.203X4.203*%
%ADD107R,8.203X3.703*%
%ADD108R,2.353X3.703*%
%ADD109R,2.353X1.303*%
%ADD110O,2.203X1.203*%
%ADD111R,2.203X1.203*%
%ADD112R,0.503X1.803*%
%ADD113R,2.903X2.703*%
%ADD114R,2.403X0.753*%
%ADD115R,2.403X0.753*%
%ADD116R,1.753X0.803*%
%ADD117R,1.753X0.803*%
%ADD118R,1.903X0.803*%
%ADD119R,1.903X0.803*%
%ADD120R,0.803X1.903*%
%ADD121R,0.803X2.353*%
%ADD122R,0.803X2.353*%
%ADD123C,3.703*%
%ADD124C,2.703*%
%ADD125C,1.403*%
%ADD126R,1.603X1.603*%
%ADD127C,1.603*%
%ADD128C,1.703*%
%ADD129R,1.703X1.703*%
%ADD130O,1.703X2.203*%
%ADD131R,1.703X2.203*%
%ADD132C,5.203*%
%ADD133C,4.203*%
%ADD134C,3.203*%
%ADD135R,2.203X2.203*%
%ADD136C,2.203*%
%ADD137R,2.703X2.703*%
%ADD138C,2.003*%
%ADD139R,2.003X2.003*%
%ADD140R,3.203X3.203*%
%ADD141C,1.703*%
%ADD142C,1.503*%
%ADD143C,1.473*%
%ADD144C,1.303*%
%ADD145R,1.153X1.103*%
D46*
X181705Y4704D02*
G03*
X179786Y4699I-959J-53D01*
G01*
X179787Y10748D02*
G03*
X181705Y10753I959J53D01*
G01*
X179787Y107148D02*
G03*
X181705Y107153I959J53D01*
G01*
X181784Y101204D02*
G03*
X179865Y101199I-959J-53D01*
G01*
X16175Y121251D02*
G03*
X16175Y121251I0J0D01*
G01*
G03*
X16175Y121251I0J0D01*
G01*
G03*
X16175Y121251I0J0D01*
G01*
G03*
X16175Y121251I0J0D01*
G01*
G03*
X16175Y121251I0J0D01*
G01*
G03*
X16175Y121251I0J0D01*
G01*
G03*
X16175Y121251I0J0D01*
G01*
G03*
X16175Y121251I0J0D01*
G01*
X88991Y107247D02*
G03*
X90910Y107252I959J53D01*
G01*
X90909Y101203D02*
G03*
X88991Y101198I-959J-53D01*
G01*
X90909Y4753D02*
G03*
X88991Y4748I-959J-53D01*
G01*
X88991Y10797D02*
G03*
X90909Y10802I959J53D01*
G01*
X40147Y96009D02*
G03*
X40152Y94091I53J-959D01*
G01*
X34104Y94091D02*
G03*
X34098Y96009I-53J959D01*
G01*
X40147Y62809D02*
G03*
X40152Y60891I53J-959D01*
G01*
X34104Y60891D02*
G03*
X34098Y62809I-53J959D01*
G01*
X11800Y121250D02*
G03*
X11800Y121250I0J0D01*
G01*
G03*
X11800Y121250I0J0D01*
G01*
G03*
X11800Y121250I0J0D01*
G01*
G03*
X11800Y121250I0J0D01*
G01*
G03*
X11800Y121250I0J0D01*
G01*
G03*
X11800Y121250I0J0D01*
G01*
G03*
X11800Y121250I0J0D01*
G01*
G03*
X11800Y121250I0J0D01*
G01*
X90874Y107000D02*
Y112401D01*
X179870Y107051D02*
Y112400D01*
X259146Y0D02*
Y112400D01*
X181696Y0D02*
X259146D01*
X181696D02*
Y4701D01*
X181696Y112400D02*
X181696Y107051D01*
X181696Y112400D02*
X259096D01*
X181690Y10603D02*
Y101225D01*
X90845Y0D02*
X179845D01*
X90874Y112401D02*
X179874D01*
X90874Y-49D02*
Y4951D01*
Y10551D02*
Y101251D01*
X179874Y10651D02*
Y101451D01*
Y0D02*
Y4951D01*
X78800Y60800D02*
X78850Y60850D01*
X10300D02*
X10350Y60800D01*
X2250Y8900D02*
X33750D01*
X2250D02*
Y45200D01*
X33750Y8900D02*
Y45200D01*
X18000Y45200D02*
X33750D01*
X2250D02*
X18050D01*
X0Y0D02*
X89000D01*
X0D02*
Y112400D01*
X89000D01*
X10300Y60800D02*
Y95550D01*
X78850Y60800D02*
Y96050D01*
X10300Y95400D02*
Y96050D01*
X12300Y62900D02*
Y64150D01*
X12300Y63150D02*
Y94050D01*
X40000Y62800D02*
X76500D01*
X40200Y60800D02*
X78850D01*
X10300Y60800D02*
X34100D01*
X12300Y62800D02*
X34350D01*
X12350Y94050D02*
X34200D01*
X10350Y96050D02*
X34050D01*
X40300Y94050D02*
X76500D01*
X40300Y96050D02*
X78850D01*
X40300Y96050D02*
X40300Y96050D01*
X89000Y107050D02*
Y112400D01*
X89000Y10700D02*
Y101500D01*
X89000Y0D02*
Y4950D01*
X76500Y62800D02*
Y94000D01*
X41961Y96050D02*
X41961Y96050D01*
M02*
