%FSLAX43Y43*%
%MOMM*%
G71*
G01*
G75*
%ADD10C,0.300*%
%ADD11R,0.300X1.600*%
%ADD12R,1.600X1.800*%
%ADD13R,1.800X1.600*%
%ADD14R,1.650X0.300*%
%ADD15R,2.700X2.500*%
%ADD16R,1.300X0.850*%
%ADD17R,2.200X0.550*%
%ADD18R,2.200X0.550*%
%ADD19R,1.300X1.500*%
%ADD20R,2.200X0.600*%
%ADD21R,2.200X0.600*%
%ADD22R,1.450X0.550*%
%ADD23R,1.450X0.550*%
%ADD24R,1.550X0.600*%
%ADD25R,1.550X0.600*%
%ADD26R,1.700X0.600*%
%ADD27R,1.700X0.600*%
%ADD28C,0.250*%
%ADD29C,0.063*%
%ADD30R,0.600X1.700*%
%ADD31R,0.600X2.150*%
%ADD32R,0.600X2.150*%
%ADD33R,2.150X0.600*%
%ADD34R,2.150X0.600*%
%ADD35R,2.000X1.000*%
%ADD36O,2.000X1.000*%
%ADD37R,2.150X1.100*%
%ADD38R,2.150X3.500*%
%ADD39R,8.000X3.500*%
%ADD40R,3.000X4.000*%
%ADD41R,4.000X3.000*%
%ADD42R,0.600X2.200*%
%ADD43R,0.600X2.200*%
%ADD44R,0.850X1.300*%
%ADD45R,1.100X2.150*%
%ADD46R,3.500X2.150*%
%ADD47R,2.500X2.000*%
%ADD48R,2.500X0.500*%
%ADD49O,1.800X0.350*%
%ADD50O,1.800X0.350*%
%ADD51R,1.500X1.300*%
%ADD52C,0.500*%
%ADD53C,0.400*%
%ADD54C,0.600*%
%ADD55C,0.800*%
%ADD56C,1.000*%
%ADD57C,1.500*%
%ADD58C,2.000*%
%ADD59C,3.000*%
%ADD60C,0.880*%
%ADD61C,0.100*%
%ADD62C,1.500*%
%ADD63R,1.500X1.500*%
%ADD64C,1.400*%
%ADD65R,1.400X1.400*%
%ADD66C,2.000*%
%ADD67C,1.500*%
%ADD68C,1.300*%
%ADD69C,5.000*%
%ADD70R,2.000X2.000*%
%ADD71C,2.500*%
%ADD72C,3.000*%
%ADD73R,3.000X3.000*%
%ADD74R,1.800X1.800*%
%ADD75C,1.800*%
%ADD76R,2.500X2.500*%
%ADD77C,4.000*%
%ADD78C,3.500*%
%ADD79O,1.500X2.000*%
%ADD80R,1.500X2.000*%
%ADD81C,1.200*%
%ADD82C,1.100*%
%ADD83C,1.270*%
%ADD84R,0.950X0.900*%
%ADD85C,0.700*%
%ADD86R,0.503X1.803*%
%ADD87R,1.803X2.003*%
%ADD88R,2.003X1.803*%
%ADD89R,1.853X0.503*%
%ADD90R,2.903X2.703*%
%ADD91R,1.503X1.053*%
%ADD92R,2.403X0.753*%
%ADD93R,2.403X0.753*%
%ADD94R,1.503X1.703*%
%ADD95R,2.403X0.803*%
%ADD96R,2.403X0.803*%
%ADD97R,1.653X0.753*%
%ADD98R,1.653X0.753*%
%ADD99R,1.753X0.803*%
%ADD100R,1.753X0.803*%
%ADD101R,1.903X0.803*%
%ADD102R,1.903X0.803*%
%ADD103R,0.803X1.903*%
%ADD104R,0.803X2.353*%
%ADD105R,0.803X2.353*%
%ADD106R,2.353X0.803*%
%ADD107R,2.353X0.803*%
%ADD108R,2.203X1.203*%
%ADD109O,2.203X1.203*%
%ADD110R,2.353X1.303*%
%ADD111R,2.353X3.703*%
%ADD112R,8.203X3.703*%
%ADD113R,3.203X4.203*%
%ADD114R,4.203X3.203*%
%ADD115R,0.803X2.403*%
%ADD116R,0.803X2.403*%
%ADD117R,1.053X1.503*%
%ADD118R,1.303X2.353*%
%ADD119R,3.703X2.353*%
%ADD120R,2.703X2.203*%
%ADD121R,2.703X0.703*%
%ADD122O,2.003X0.553*%
%ADD123O,2.003X0.553*%
%ADD124R,1.703X1.503*%
%ADD125C,1.703*%
%ADD126R,1.703X1.703*%
%ADD127C,1.603*%
%ADD128R,1.603X1.603*%
%ADD129C,2.203*%
%ADD130C,1.703*%
%ADD131C,1.503*%
%ADD132C,5.203*%
%ADD133R,2.203X2.203*%
%ADD134C,2.703*%
%ADD135C,3.203*%
%ADD136R,3.203X3.203*%
%ADD137R,2.003X2.003*%
%ADD138C,2.003*%
%ADD139R,2.703X2.703*%
%ADD140C,4.203*%
%ADD141C,3.703*%
%ADD142O,1.703X2.203*%
%ADD143R,1.703X2.203*%
%ADD144C,1.403*%
%ADD145C,1.303*%
%ADD146C,1.473*%
D53*
X116585Y61064D02*
X115452Y62198D01*
X116444Y63190D01*
X117578Y62057D01*
X116585Y61064D01*
Y61536D02*
X115923Y62198D01*
X116444Y62719D01*
X117106Y62057D01*
X116585Y61536D01*
Y62007D02*
X116395Y62198D01*
X116444Y62247D01*
X116635Y62057D01*
X116585Y62007D01*
X116515Y62109D02*
Y62145D01*
X114605Y59084D02*
X113472Y60218D01*
X114464Y61210D01*
X115598Y60077D01*
X114605Y59084D01*
Y59556D02*
X113943Y60218D01*
X114464Y60739D01*
X115126Y60077D01*
X114605Y59556D01*
Y60027D02*
X114415Y60218D01*
X114464Y60268D01*
X114655Y60077D01*
X114605Y60027D01*
X114535Y60129D02*
Y60165D01*
X119533Y86269D02*
X120417Y87153D01*
X120454Y87115D02*
G03*
X120417Y87153I-19J19D01*
G01*
X119570Y86231D02*
X120454Y87115D01*
X119533Y86269D02*
G03*
X119570Y86231I19J-19D01*
G01*
X103661Y89981D02*
X104544Y89097D01*
X104507Y89060D02*
G03*
X104544Y89097I19J19D01*
G01*
X103623Y89944D02*
X104507Y89060D01*
X103661Y89981D02*
G03*
X103623Y89944I-19J-19D01*
G01*
X100832Y87153D02*
X101716Y86269D01*
X101678Y86231D02*
G03*
X101716Y86269I19J19D01*
G01*
X100795Y87115D02*
X101678Y86231D01*
X100832Y87153D02*
G03*
X100795Y87115I-19J-19D01*
G01*
X100479Y86799D02*
X101362Y85915D01*
X101325Y85878D02*
G03*
X101362Y85915I19J19D01*
G01*
X100441Y86762D02*
X101325Y85878D01*
X100479Y86799D02*
G03*
X100441Y86762I-19J-19D01*
G01*
X113560Y77961D02*
X114444Y77077D01*
X114406Y77039D02*
G03*
X114444Y77077I19J19D01*
G01*
X113522Y77923D02*
X114406Y77039D01*
X113560Y77961D02*
G03*
X113522Y77923I-19J-19D01*
G01*
X119924Y84325D02*
X120808Y83441D01*
X120770Y83403D02*
G03*
X120808Y83441I19J19D01*
G01*
X119886Y84287D02*
X120770Y83403D01*
X119924Y84325D02*
G03*
X119886Y84287I-19J-19D01*
G01*
X119571Y83971D02*
X120454Y83087D01*
X120417Y83049D02*
G03*
X120454Y83087I19J19D01*
G01*
X119533Y83933D02*
X120417Y83049D01*
X119571Y83971D02*
G03*
X119533Y83933I-19J-19D01*
G01*
X118510Y82910D02*
X119394Y82026D01*
X119356Y81989D02*
G03*
X119394Y82026I19J19D01*
G01*
X118472Y82873D02*
X119356Y81989D01*
X118510Y82910D02*
G03*
X118472Y82873I-19J-19D01*
G01*
X118156Y82557D02*
X119040Y81673D01*
X119002Y81635D02*
G03*
X119040Y81673I19J19D01*
G01*
X118119Y82519D02*
X119002Y81635D01*
X118156Y82557D02*
G03*
X118119Y82519I-19J-19D01*
G01*
X117803Y82203D02*
X118687Y81319D01*
X118649Y81282D02*
G03*
X118687Y81319I19J19D01*
G01*
X117765Y82165D02*
X118649Y81282D01*
X117803Y82203D02*
G03*
X117765Y82165I-19J-19D01*
G01*
X117096Y81496D02*
X117979Y80612D01*
X117942Y80575D02*
G03*
X117979Y80612I19J19D01*
G01*
X117058Y81458D02*
X117942Y80575D01*
X117096Y81496D02*
G03*
X117058Y81458I-19J-19D01*
G01*
X116388Y80789D02*
X117272Y79905D01*
X117235Y79867D02*
G03*
X117272Y79905I19J19D01*
G01*
X116351Y80751D02*
X117235Y79867D01*
X116388Y80789D02*
G03*
X116351Y80751I-19J-19D01*
G01*
X116035Y80435D02*
X116919Y79552D01*
X116881Y79514D02*
G03*
X116919Y79552I19J19D01*
G01*
X115997Y80398D02*
X116881Y79514D01*
X116035Y80435D02*
G03*
X115997Y80398I-19J-19D01*
G01*
X115681Y80082D02*
X116565Y79198D01*
X116528Y79160D02*
G03*
X116565Y79198I19J19D01*
G01*
X115644Y80044D02*
X116528Y79160D01*
X115681Y80082D02*
G03*
X115644Y80044I-19J-19D01*
G01*
X115328Y79728D02*
X116212Y78844D01*
X116174Y78807D02*
G03*
X116212Y78844I19J19D01*
G01*
X115290Y79691D02*
X116174Y78807D01*
X115328Y79728D02*
G03*
X115290Y79691I-19J-19D01*
G01*
X114974Y79375D02*
X115858Y78491D01*
X115821Y78453D02*
G03*
X115858Y78491I19J19D01*
G01*
X114937Y79337D02*
X115821Y78453D01*
X114974Y79375D02*
G03*
X114937Y79337I-19J-19D01*
G01*
X114621Y79021D02*
X115505Y78137D01*
X115467Y78100D02*
G03*
X115505Y78137I19J19D01*
G01*
X114583Y78984D02*
X115467Y78100D01*
X114621Y79021D02*
G03*
X114583Y78984I-19J-19D01*
G01*
X114267Y78668D02*
X115151Y77784D01*
X115113Y77746D02*
G03*
X115151Y77784I19J19D01*
G01*
X114230Y78630D02*
X115113Y77746D01*
X114267Y78668D02*
G03*
X114230Y78630I-19J-19D01*
G01*
X113914Y78314D02*
X114798Y77430D01*
X114760Y77393D02*
G03*
X114798Y77430I19J19D01*
G01*
X113876Y78276D02*
X114760Y77393D01*
X113914Y78314D02*
G03*
X113876Y78276I-19J-19D01*
G01*
X113207Y77607D02*
X114090Y76723D01*
X114053Y76685D02*
G03*
X114090Y76723I19J19D01*
G01*
X113169Y77569D02*
X114053Y76685D01*
X113207Y77607D02*
G03*
X113169Y77569I-19J-19D01*
G01*
X112853Y77253D02*
X113737Y76370D01*
X113699Y76332D02*
G03*
X113737Y76370I19J19D01*
G01*
X112815Y77216D02*
X113699Y76332D01*
X112853Y77253D02*
G03*
X112815Y77216I-19J-19D01*
G01*
X112499Y76900D02*
X113383Y76016D01*
X113346Y75978D02*
G03*
X113383Y76016I19J19D01*
G01*
X112462Y76862D02*
X113346Y75978D01*
X112499Y76900D02*
G03*
X112462Y76862I-19J-19D01*
G01*
X112146Y76546D02*
X113030Y75662D01*
X112992Y75625D02*
G03*
X113030Y75662I19J19D01*
G01*
X112108Y76509D02*
X112992Y75625D01*
X112146Y76546D02*
G03*
X112108Y76509I-19J-19D01*
G01*
X111792Y76193D02*
X112676Y75309D01*
X112639Y75271D02*
G03*
X112676Y75309I19J19D01*
G01*
X111755Y76155D02*
X112639Y75271D01*
X111792Y76193D02*
G03*
X111755Y76155I-19J-19D01*
G01*
X111401Y94401D02*
X112285Y95285D01*
X112323Y95247D02*
G03*
X112285Y95285I-19J19D01*
G01*
X111439Y94363D02*
X112323Y95247D01*
X111401Y94401D02*
G03*
X111439Y94363I19J-19D01*
G01*
X111755Y94047D02*
X112639Y94931D01*
X112676Y94894D02*
G03*
X112639Y94931I-19J19D01*
G01*
X111792Y94010D02*
X112676Y94894D01*
X111755Y94047D02*
G03*
X111792Y94010I19J-19D01*
G01*
X112108Y93694D02*
X112992Y94578D01*
X113030Y94540D02*
G03*
X112992Y94578I-19J19D01*
G01*
X112146Y93656D02*
X113030Y94540D01*
X112108Y93694D02*
G03*
X112146Y93656I19J-19D01*
G01*
X112462Y93340D02*
X113346Y94224D01*
X113383Y94186D02*
G03*
X113346Y94224I-19J19D01*
G01*
X112499Y93303D02*
X113383Y94186D01*
X112462Y93340D02*
G03*
X112499Y93303I19J-19D01*
G01*
X112815Y92987D02*
X113699Y93870D01*
X113737Y93833D02*
G03*
X113699Y93870I-19J19D01*
G01*
X112853Y92949D02*
X113737Y93833D01*
X112815Y92987D02*
G03*
X112853Y92949I19J-19D01*
G01*
X113522Y92279D02*
X114406Y93163D01*
X114444Y93126D02*
G03*
X114406Y93163I-19J19D01*
G01*
X113560Y92242D02*
X114444Y93126D01*
X113522Y92279D02*
G03*
X113560Y92242I19J-19D01*
G01*
X113876Y91926D02*
X114760Y92810D01*
X114798Y92772D02*
G03*
X114760Y92810I-19J19D01*
G01*
X113914Y91888D02*
X114798Y92772D01*
X113876Y91926D02*
G03*
X113914Y91888I19J-19D01*
G01*
X114230Y91572D02*
X115113Y92456D01*
X115151Y92419D02*
G03*
X115113Y92456I-19J19D01*
G01*
X114267Y91535D02*
X115151Y92419D01*
X114230Y91572D02*
G03*
X114267Y91535I19J-19D01*
G01*
X114583Y91219D02*
X115467Y92103D01*
X115505Y92065D02*
G03*
X115467Y92103I-19J19D01*
G01*
X114621Y91181D02*
X115505Y92065D01*
X114583Y91219D02*
G03*
X114621Y91181I19J-19D01*
G01*
X114937Y90865D02*
X115821Y91749D01*
X115858Y91711D02*
G03*
X115821Y91749I-19J19D01*
G01*
X114974Y90828D02*
X115858Y91711D01*
X114937Y90865D02*
G03*
X114974Y90828I19J-19D01*
G01*
X115997Y89805D02*
X116881Y90688D01*
X116919Y90651D02*
G03*
X116881Y90688I-19J19D01*
G01*
X116035Y89767D02*
X116919Y90651D01*
X115997Y89805D02*
G03*
X116035Y89767I19J-19D01*
G01*
X116351Y89451D02*
X117235Y90335D01*
X117272Y90297D02*
G03*
X117235Y90335I-19J19D01*
G01*
X116388Y89413D02*
X117272Y90297D01*
X116351Y89451D02*
G03*
X116388Y89413I19J-19D01*
G01*
X117058Y88744D02*
X117942Y89628D01*
X117979Y89590D02*
G03*
X117942Y89628I-19J19D01*
G01*
X117096Y88706D02*
X117979Y89590D01*
X117058Y88744D02*
G03*
X117096Y88706I19J-19D01*
G01*
X117412Y88390D02*
X118295Y89274D01*
X118333Y89237D02*
G03*
X118295Y89274I-19J19D01*
G01*
X117449Y88353D02*
X118333Y89237D01*
X117412Y88390D02*
G03*
X117449Y88353I19J-19D01*
G01*
X117765Y88037D02*
X118649Y88921D01*
X118687Y88883D02*
G03*
X118649Y88921I-19J19D01*
G01*
X117803Y87999D02*
X118687Y88883D01*
X117765Y88037D02*
G03*
X117803Y87999I19J-19D01*
G01*
X118119Y87683D02*
X119002Y88567D01*
X119040Y88530D02*
G03*
X119002Y88567I-19J19D01*
G01*
X118156Y87646D02*
X119040Y88530D01*
X118119Y87683D02*
G03*
X118156Y87646I19J-19D01*
G01*
X118472Y87330D02*
X119356Y88214D01*
X119394Y88176D02*
G03*
X119356Y88214I-19J19D01*
G01*
X118510Y87292D02*
X119394Y88176D01*
X118472Y87330D02*
G03*
X118510Y87292I19J-19D01*
G01*
X118826Y86976D02*
X119710Y87860D01*
X119747Y87822D02*
G03*
X119710Y87860I-19J19D01*
G01*
X118863Y86939D02*
X119747Y87822D01*
X118826Y86976D02*
G03*
X118863Y86939I19J-19D01*
G01*
X119179Y86623D02*
X120063Y87506D01*
X120101Y87469D02*
G03*
X120063Y87506I-19J19D01*
G01*
X119217Y86585D02*
X120101Y87469D01*
X119179Y86623D02*
G03*
X119217Y86585I19J-19D01*
G01*
X119886Y85915D02*
X120770Y86799D01*
X120808Y86762D02*
G03*
X120770Y86799I-19J19D01*
G01*
X119924Y85878D02*
X120808Y86762D01*
X119886Y85915D02*
G03*
X119924Y85878I19J-19D01*
G01*
X101186Y87506D02*
X102070Y86623D01*
X102032Y86585D02*
G03*
X102070Y86623I19J19D01*
G01*
X101148Y87469D02*
X102032Y86585D01*
X101186Y87506D02*
G03*
X101148Y87469I-19J-19D01*
G01*
X101539Y87860D02*
X102423Y86976D01*
X102386Y86939D02*
G03*
X102423Y86976I19J19D01*
G01*
X101502Y87822D02*
X102386Y86939D01*
X101539Y87860D02*
G03*
X101502Y87822I-19J-19D01*
G01*
X101893Y88214D02*
X102777Y87330D01*
X102739Y87292D02*
G03*
X102777Y87330I19J19D01*
G01*
X101855Y88176D02*
X102739Y87292D01*
X101893Y88214D02*
G03*
X101855Y88176I-19J-19D01*
G01*
X102246Y88567D02*
X103130Y87683D01*
X103093Y87646D02*
G03*
X103130Y87683I19J19D01*
G01*
X102209Y88530D02*
X103093Y87646D01*
X102246Y88567D02*
G03*
X102209Y88530I-19J-19D01*
G01*
X102600Y88921D02*
X103484Y88037D01*
X103446Y87999D02*
G03*
X103484Y88037I19J19D01*
G01*
X102562Y88883D02*
X103446Y87999D01*
X102600Y88921D02*
G03*
X102562Y88883I-19J-19D01*
G01*
X102953Y89274D02*
X103837Y88390D01*
X103800Y88353D02*
G03*
X103837Y88390I19J19D01*
G01*
X102916Y89237D02*
X103800Y88353D01*
X102953Y89274D02*
G03*
X102916Y89237I-19J-19D01*
G01*
X103307Y89628D02*
X104191Y88744D01*
X104153Y88706D02*
G03*
X104191Y88744I19J19D01*
G01*
X103269Y89590D02*
X104153Y88706D01*
X103307Y89628D02*
G03*
X103269Y89590I-19J-19D01*
G01*
X104014Y90335D02*
X104898Y89451D01*
X104860Y89413D02*
G03*
X104898Y89451I19J19D01*
G01*
X103976Y90297D02*
X104860Y89413D01*
X104014Y90335D02*
G03*
X103976Y90297I-19J-19D01*
G01*
X104368Y90688D02*
X105252Y89805D01*
X105214Y89767D02*
G03*
X105252Y89805I19J19D01*
G01*
X104330Y90651D02*
X105214Y89767D01*
X104368Y90688D02*
G03*
X104330Y90651I-19J-19D01*
G01*
X104721Y91042D02*
X105605Y90158D01*
X105567Y90121D02*
G03*
X105605Y90158I19J19D01*
G01*
X104684Y91004D02*
X105567Y90121D01*
X104721Y91042D02*
G03*
X104684Y91004I-19J-19D01*
G01*
X105075Y91396D02*
X105959Y90512D01*
X105921Y90474D02*
G03*
X105959Y90512I19J19D01*
G01*
X105037Y91358D02*
X105921Y90474D01*
X105075Y91396D02*
G03*
X105037Y91358I-19J-19D01*
G01*
X105428Y91749D02*
X106312Y90865D01*
X106275Y90828D02*
G03*
X106312Y90865I19J19D01*
G01*
X105391Y91712D02*
X106275Y90828D01*
X105428Y91749D02*
G03*
X105391Y91712I-19J-19D01*
G01*
X105782Y92103D02*
X106666Y91219D01*
X106628Y91181D02*
G03*
X106666Y91219I19J19D01*
G01*
X105744Y92065D02*
X106628Y91181D01*
X105782Y92103D02*
G03*
X105744Y92065I-19J-19D01*
G01*
X106135Y92456D02*
X107019Y91572D01*
X106982Y91535D02*
G03*
X107019Y91572I19J19D01*
G01*
X106098Y92419D02*
X106982Y91535D01*
X106135Y92456D02*
G03*
X106098Y92419I-19J-19D01*
G01*
X106489Y92810D02*
X107373Y91926D01*
X107335Y91888D02*
G03*
X107373Y91926I19J19D01*
G01*
X106451Y92772D02*
X107335Y91888D01*
X106489Y92810D02*
G03*
X106451Y92772I-19J-19D01*
G01*
X106843Y93163D02*
X107726Y92279D01*
X107689Y92242D02*
G03*
X107726Y92279I19J19D01*
G01*
X106805Y93126D02*
X107689Y92242D01*
X106843Y93163D02*
G03*
X106805Y93126I-19J-19D01*
G01*
X107196Y93517D02*
X108080Y92633D01*
X108042Y92595D02*
G03*
X108080Y92633I19J19D01*
G01*
X107158Y93479D02*
X108042Y92595D01*
X107196Y93517D02*
G03*
X107158Y93479I-19J-19D01*
G01*
X107550Y93870D02*
X108434Y92987D01*
X108396Y92949D02*
G03*
X108434Y92987I19J19D01*
G01*
X107512Y93833D02*
X108396Y92949D01*
X107550Y93870D02*
G03*
X107512Y93833I-19J-19D01*
G01*
X107903Y94224D02*
X108787Y93340D01*
X108749Y93302D02*
G03*
X108787Y93340I19J19D01*
G01*
X107866Y94186D02*
X108749Y93302D01*
X107903Y94224D02*
G03*
X107866Y94186I-19J-19D01*
G01*
X108257Y94578D02*
X109141Y93694D01*
X109103Y93656D02*
G03*
X109141Y93694I19J19D01*
G01*
X108219Y94540D02*
X109103Y93656D01*
X108257Y94578D02*
G03*
X108219Y94540I-19J-19D01*
G01*
X108610Y94931D02*
X109494Y94047D01*
X109457Y94010D02*
G03*
X109494Y94047I19J19D01*
G01*
X108573Y94893D02*
X109457Y94010D01*
X108610Y94931D02*
G03*
X108573Y94893I-19J-19D01*
G01*
X108964Y95285D02*
X109848Y94401D01*
X109810Y94363D02*
G03*
X109848Y94401I19J19D01*
G01*
X108926Y95247D02*
X109810Y94363D01*
X108964Y95285D02*
G03*
X108926Y95247I-19J-19D01*
G01*
X108926Y74955D02*
X109810Y75839D01*
X109848Y75802D02*
G03*
X109810Y75839I-19J19D01*
G01*
X108964Y74918D02*
X109848Y75802D01*
X108926Y74955D02*
G03*
X108964Y74918I19J-19D01*
G01*
X107866Y76016D02*
X108749Y76900D01*
X108787Y76862D02*
G03*
X108749Y76900I-19J19D01*
G01*
X107903Y75978D02*
X108787Y76862D01*
X107866Y76016D02*
G03*
X107903Y75978I19J-19D01*
G01*
X107512Y76370D02*
X108396Y77253D01*
X108434Y77216D02*
G03*
X108396Y77253I-19J19D01*
G01*
X107550Y76332D02*
X108434Y77216D01*
X107512Y76370D02*
G03*
X107550Y76332I19J-19D01*
G01*
X107158Y76723D02*
X108042Y77607D01*
X108080Y77569D02*
G03*
X108042Y77607I-19J19D01*
G01*
X107196Y76685D02*
X108080Y77569D01*
X107158Y76723D02*
G03*
X107196Y76685I19J-19D01*
G01*
X106805Y77041D02*
X107689Y77925D01*
X107726Y77888D02*
G03*
X107689Y77925I-19J19D01*
G01*
X106843Y77004D02*
X107726Y77888D01*
X106805Y77041D02*
G03*
X106843Y77004I19J-19D01*
G01*
X106451Y77430D02*
X107335Y78314D01*
X107373Y78276D02*
G03*
X107335Y78314I-19J19D01*
G01*
X106489Y77393D02*
X107373Y78276D01*
X106451Y77430D02*
G03*
X106489Y77393I19J-19D01*
G01*
X106098Y77784D02*
X106982Y78668D01*
X107019Y78630D02*
G03*
X106982Y78668I-19J19D01*
G01*
X106135Y77746D02*
X107019Y78630D01*
X106098Y77784D02*
G03*
X106135Y77746I19J-19D01*
G01*
X105744Y78137D02*
X106628Y79021D01*
X106666Y78984D02*
G03*
X106628Y79021I-19J19D01*
G01*
X105782Y78100D02*
X106666Y78984D01*
X105744Y78137D02*
G03*
X105782Y78100I19J-19D01*
G01*
X105391Y78491D02*
X106275Y79375D01*
X106312Y79337D02*
G03*
X106275Y79375I-19J19D01*
G01*
X105428Y78453D02*
X106312Y79337D01*
X105391Y78491D02*
G03*
X105428Y78453I19J-19D01*
G01*
X105037Y78844D02*
X105921Y79728D01*
X105959Y79691D02*
G03*
X105921Y79728I-19J19D01*
G01*
X105075Y78807D02*
X105959Y79691D01*
X105037Y78844D02*
G03*
X105075Y78807I19J-19D01*
G01*
X104684Y79198D02*
X105567Y80082D01*
X105605Y80044D02*
G03*
X105567Y80082I-19J19D01*
G01*
X104721Y79160D02*
X105605Y80044D01*
X104684Y79198D02*
G03*
X104721Y79160I19J-19D01*
G01*
X104330Y79552D02*
X105214Y80435D01*
X105252Y80398D02*
G03*
X105214Y80435I-19J19D01*
G01*
X104368Y79514D02*
X105252Y80398D01*
X104330Y79552D02*
G03*
X104368Y79514I19J-19D01*
G01*
X103977Y79905D02*
X104860Y80789D01*
X104898Y80751D02*
G03*
X104860Y80789I-19J19D01*
G01*
X104014Y79867D02*
X104898Y80751D01*
X103977Y79905D02*
G03*
X104014Y79867I19J-19D01*
G01*
X103623Y80259D02*
X104507Y81143D01*
X104544Y81105D02*
G03*
X104507Y81143I-19J19D01*
G01*
X103661Y80221D02*
X104544Y81105D01*
X103623Y80259D02*
G03*
X103661Y80221I19J-19D01*
G01*
X103269Y80612D02*
X104153Y81496D01*
X104191Y81458D02*
G03*
X104153Y81496I-19J19D01*
G01*
X103307Y80575D02*
X104191Y81458D01*
X103269Y80612D02*
G03*
X103307Y80575I19J-19D01*
G01*
X102916Y80966D02*
X103800Y81850D01*
X103837Y81812D02*
G03*
X103800Y81850I-19J19D01*
G01*
X102953Y80928D02*
X103837Y81812D01*
X102916Y80966D02*
G03*
X102953Y80928I19J-19D01*
G01*
X102562Y81319D02*
X103446Y82203D01*
X103484Y82166D02*
G03*
X103446Y82203I-19J19D01*
G01*
X102600Y81282D02*
X103484Y82166D01*
X102562Y81319D02*
G03*
X102600Y81282I19J-19D01*
G01*
X102209Y81673D02*
X103093Y82557D01*
X103130Y82519D02*
G03*
X103093Y82557I-19J19D01*
G01*
X102246Y81635D02*
X103130Y82519D01*
X102209Y81673D02*
G03*
X102246Y81635I19J-19D01*
G01*
X101855Y82026D02*
X102739Y82910D01*
X102777Y82873D02*
G03*
X102739Y82910I-19J19D01*
G01*
X101893Y81989D02*
X102777Y82873D01*
X101855Y82026D02*
G03*
X101893Y81989I19J-19D01*
G01*
X101502Y82345D02*
X102386Y83228D01*
X102423Y83191D02*
G03*
X102386Y83228I-19J19D01*
G01*
X101539Y82307D02*
X102423Y83191D01*
X101502Y82345D02*
G03*
X101539Y82307I19J-19D01*
G01*
X101148Y82733D02*
X102032Y83617D01*
X102070Y83580D02*
G03*
X102032Y83617I-19J19D01*
G01*
X101186Y82696D02*
X102070Y83580D01*
X101148Y82733D02*
G03*
X101186Y82696I19J-19D01*
G01*
X116704Y89097D02*
X117588Y89981D01*
X117626Y89944D02*
G03*
X117588Y89981I-19J19D01*
G01*
X116742Y89060D02*
X117626Y89944D01*
X116704Y89097D02*
G03*
X116742Y89060I19J-19D01*
G01*
X115290Y90512D02*
X116174Y91396D01*
X116212Y91358D02*
G03*
X116174Y91396I-19J19D01*
G01*
X115328Y90474D02*
X116212Y91358D01*
X115290Y90512D02*
G03*
X115328Y90474I19J-19D01*
G01*
X115644Y90158D02*
X116528Y91042D01*
X116565Y91004D02*
G03*
X116528Y91042I-19J19D01*
G01*
X115681Y90120D02*
X116565Y91004D01*
X115644Y90158D02*
G03*
X115681Y90120I19J-19D01*
G01*
X118863Y83264D02*
X119747Y82380D01*
X119710Y82342D02*
G03*
X119747Y82380I19J19D01*
G01*
X118826Y83226D02*
X119710Y82342D01*
X118863Y83264D02*
G03*
X118826Y83226I-19J-19D01*
G01*
X119217Y83617D02*
X120101Y82733D01*
X120063Y82696D02*
G03*
X120101Y82733I19J19D01*
G01*
X119179Y83580D02*
X120063Y82696D01*
X119217Y83617D02*
G03*
X119179Y83580I-19J-19D01*
G01*
X100441Y83441D02*
X101325Y84324D01*
X101362Y84287D02*
G03*
X101325Y84324I-19J19D01*
G01*
X100479Y83403D02*
X101362Y84287D01*
X100441Y83441D02*
G03*
X100479Y83403I19J-19D01*
G01*
X100795Y83087D02*
X101678Y83971D01*
X101716Y83933D02*
G03*
X101678Y83971I-19J19D01*
G01*
X100832Y83049D02*
X101716Y83933D01*
X100795Y83087D02*
G03*
X100832Y83049I19J-19D01*
G01*
X108573Y75309D02*
X109457Y76193D01*
X109494Y76155D02*
G03*
X109457Y76193I-19J19D01*
G01*
X108610Y75271D02*
X109494Y76155D01*
X108573Y75309D02*
G03*
X108610Y75271I19J-19D01*
G01*
X116742Y81143D02*
X117626Y80259D01*
X117588Y80221D02*
G03*
X117626Y80259I19J19D01*
G01*
X116704Y81105D02*
X117588Y80221D01*
X116742Y81143D02*
G03*
X116704Y81105I-19J-19D01*
G01*
X117449Y81850D02*
X118333Y80966D01*
X118295Y80928D02*
G03*
X118333Y80966I19J19D01*
G01*
X117411Y81812D02*
X118295Y80928D01*
X117449Y81850D02*
G03*
X117411Y81812I-19J-19D01*
G01*
X113169Y92633D02*
X114053Y93517D01*
X114090Y93479D02*
G03*
X114053Y93517I-19J19D01*
G01*
X113207Y92595D02*
X114090Y93479D01*
X113169Y92633D02*
G03*
X113207Y92595I19J-19D01*
G01*
X108219Y75662D02*
X109103Y76546D01*
X109141Y76509D02*
G03*
X109103Y76546I-19J19D01*
G01*
X108257Y75625D02*
X109141Y76509D01*
X108219Y75662D02*
G03*
X108257Y75625I19J-19D01*
G01*
D61*
X112571Y74919D02*
X112321Y74669D01*
X111188Y75803D01*
X111438Y76052D01*
X112571Y74919D01*
X112453D02*
X112321Y74787D01*
X111306Y75803D01*
X111438Y75935D01*
X112453Y74919D01*
X112335D02*
X112321Y74905D01*
X111424Y75803D01*
X111438Y75817D01*
X112335Y74919D01*
X112279Y74980D02*
X111480Y75742D01*
D86*
X107427Y31660D02*
D03*
X108077D02*
D03*
X108727D02*
D03*
X109377D02*
D03*
X110027D02*
D03*
X110677D02*
D03*
X111327D02*
D03*
X112627D02*
D03*
X113277D02*
D03*
X107427Y37360D02*
D03*
X108077D02*
D03*
X108727D02*
D03*
X109377D02*
D03*
X110027D02*
D03*
X110677D02*
D03*
X111327D02*
D03*
X111977D02*
D03*
X112627D02*
D03*
X113277D02*
D03*
X111977Y31660D02*
D03*
D87*
X113384Y16463D02*
D03*
X116184D02*
D03*
X126268Y11911D02*
D03*
X123468Y11911D02*
D03*
X98425Y62352D02*
D03*
X95625D02*
D03*
X129720Y36653D02*
D03*
X126920Y36653D02*
D03*
X130770Y24300D02*
D03*
X127970Y24300D02*
D03*
X130744Y27151D02*
D03*
X127944Y27151D02*
D03*
Y29952D02*
D03*
X130744Y29952D02*
D03*
X159727Y59823D02*
D03*
X162527Y59823D02*
D03*
X175780Y109835D02*
D03*
X172980Y109835D02*
D03*
X137337Y25660D02*
D03*
X134537D02*
D03*
X148309Y107275D02*
D03*
X151109D02*
D03*
X137211Y55618D02*
D03*
X134411D02*
D03*
X152177Y82354D02*
D03*
X149377Y82354D02*
D03*
X154829Y30110D02*
D03*
X152029Y30110D02*
D03*
X154987Y82358D02*
D03*
X157787D02*
D03*
X176537Y7308D02*
D03*
X173737D02*
D03*
X154837Y14208D02*
D03*
X152037D02*
D03*
X158612Y14697D02*
D03*
X161412D02*
D03*
X154837Y17508D02*
D03*
X152037D02*
D03*
X158612Y17495D02*
D03*
X161412D02*
D03*
X154837Y20708D02*
D03*
X152037Y20708D02*
D03*
X158612Y20695D02*
D03*
X161412D02*
D03*
X153062Y73545D02*
D03*
X150262D02*
D03*
X153012Y67895D02*
D03*
X150212D02*
D03*
X154837Y23908D02*
D03*
X152037D02*
D03*
X158612Y23895D02*
D03*
X161412D02*
D03*
X154326Y51921D02*
D03*
X157126D02*
D03*
X162552Y51958D02*
D03*
X159752D02*
D03*
X153062Y70745D02*
D03*
X150262D02*
D03*
X153074Y65251D02*
D03*
X150274D02*
D03*
X154837Y27008D02*
D03*
X152037Y27008D02*
D03*
X158612Y26995D02*
D03*
X161412Y26995D02*
D03*
X155437Y33308D02*
D03*
X158237D02*
D03*
X151712Y33295D02*
D03*
X148912D02*
D03*
X162527Y54621D02*
D03*
X159727Y54621D02*
D03*
X158237Y36608D02*
D03*
X155437D02*
D03*
X148912Y36595D02*
D03*
X151712D02*
D03*
X147187Y98758D02*
D03*
X149987Y98758D02*
D03*
X155437Y39908D02*
D03*
X158237D02*
D03*
X148912Y39895D02*
D03*
X151712D02*
D03*
X150037Y95858D02*
D03*
X147237Y95858D02*
D03*
X174868Y73570D02*
D03*
X172068D02*
D03*
X155437Y43208D02*
D03*
X158237D02*
D03*
X157787Y107258D02*
D03*
X154987D02*
D03*
X148912Y43195D02*
D03*
X151712D02*
D03*
X158612Y30095D02*
D03*
X161412Y30095D02*
D03*
X155437Y46508D02*
D03*
X158237Y46508D02*
D03*
X151724Y46501D02*
D03*
X148924D02*
D03*
X150212Y78795D02*
D03*
X153012Y78795D02*
D03*
X150212Y76195D02*
D03*
X153012Y76195D02*
D03*
X147187Y93308D02*
D03*
X149987D02*
D03*
X172030Y76377D02*
D03*
X174830D02*
D03*
X149962Y90745D02*
D03*
X147162Y90745D02*
D03*
X96387Y92658D02*
D03*
X93587D02*
D03*
X132946Y34615D02*
D03*
X135746Y34615D02*
D03*
X123468Y6759D02*
D03*
X126268Y6759D02*
D03*
X159677Y62373D02*
D03*
X162477D02*
D03*
X162527Y57222D02*
D03*
X159727D02*
D03*
X157118Y62376D02*
D03*
X154318D02*
D03*
X157118Y57224D02*
D03*
X154318Y57224D02*
D03*
X157118Y59825D02*
D03*
X154318D02*
D03*
X157118Y54624D02*
D03*
X154318D02*
D03*
X191283Y28495D02*
D03*
X194083D02*
D03*
X204508Y21808D02*
D03*
X201708D02*
D03*
X191088Y50944D02*
D03*
X188288Y50944D02*
D03*
X221642Y68061D02*
D03*
X218842Y68061D02*
D03*
X219358Y58173D02*
D03*
X222158Y58173D02*
D03*
X220138Y86094D02*
D03*
X217338Y86094D02*
D03*
X198336Y75956D02*
D03*
X195536Y75956D02*
D03*
X209253Y64809D02*
D03*
X212053Y64809D02*
D03*
X194853Y61859D02*
D03*
X197653Y61859D02*
D03*
X217352Y78209D02*
D03*
X220152Y78209D02*
D03*
X215503Y25659D02*
D03*
X212703Y25659D02*
D03*
X215400Y22659D02*
D03*
X218200Y22659D02*
D03*
X204638Y75956D02*
D03*
X201838Y75956D02*
D03*
X218857Y70976D02*
D03*
X221657Y70976D02*
D03*
X205938Y64810D02*
D03*
X203138Y64810D02*
D03*
X194853Y59309D02*
D03*
X197653Y59309D02*
D03*
X255993Y81873D02*
D03*
X253193Y81873D02*
D03*
X255993Y85937D02*
D03*
X253193Y85937D02*
D03*
X255993Y90000D02*
D03*
X253193Y90000D02*
D03*
X255993Y94064D02*
D03*
X253193Y94064D02*
D03*
X255993Y98127D02*
D03*
X253193Y98127D02*
D03*
X221688Y39844D02*
D03*
X218888Y39844D02*
D03*
X26895Y75813D02*
D03*
X29695Y75812D02*
D03*
X12100Y110000D02*
D03*
X14900D02*
D03*
X46863Y48907D02*
D03*
Y42707D02*
D03*
Y45807D02*
D03*
X72963Y42707D02*
D03*
X46800Y51700D02*
D03*
X44063Y48907D02*
D03*
Y42707D02*
D03*
Y45807D02*
D03*
X70163Y42707D02*
D03*
X44000Y51700D02*
D03*
X79213Y31757D02*
D03*
X82013Y31757D02*
D03*
X72868Y86472D02*
D03*
X70068D02*
D03*
X55157Y76709D02*
D03*
Y79809D02*
D03*
X57957Y76709D02*
D03*
Y79809D02*
D03*
X13062Y56329D02*
D03*
X10262Y56329D02*
D03*
X4145Y56295D02*
D03*
X6945D02*
D03*
X7006Y53542D02*
D03*
X4206Y53542D02*
D03*
X10294Y53499D02*
D03*
X13094Y53499D02*
D03*
X22694Y52712D02*
D03*
X25494Y52712D02*
D03*
X82810Y40767D02*
D03*
X85610Y40767D02*
D03*
D88*
X101382Y11841D02*
D03*
X101382Y14641D02*
D03*
X110296Y52099D02*
D03*
X110296Y54899D02*
D03*
X103033Y43898D02*
D03*
X103033Y41098D02*
D03*
X121359Y57024D02*
D03*
X121359Y54224D02*
D03*
X100820Y59249D02*
D03*
X100820Y62049D02*
D03*
X101709Y56574D02*
D03*
Y53774D02*
D03*
X99109Y56574D02*
D03*
Y53774D02*
D03*
X96231Y55237D02*
D03*
X96231Y52437D02*
D03*
X118996Y57099D02*
D03*
X118996Y59899D02*
D03*
X157721Y98904D02*
D03*
Y96104D02*
D03*
X157728Y101498D02*
D03*
Y104298D02*
D03*
X139021Y80804D02*
D03*
Y78004D02*
D03*
X157721Y88104D02*
D03*
X157721Y85304D02*
D03*
X157728Y90698D02*
D03*
Y93498D02*
D03*
X106693Y98638D02*
D03*
Y101438D02*
D03*
X170860Y80034D02*
D03*
Y82834D02*
D03*
X175031Y18089D02*
D03*
Y20889D02*
D03*
X128503Y43114D02*
D03*
Y40314D02*
D03*
X155942Y3548D02*
D03*
Y6348D02*
D03*
X101082Y21793D02*
D03*
Y18993D02*
D03*
X168260Y82834D02*
D03*
Y80034D02*
D03*
X154931Y98889D02*
D03*
Y96089D02*
D03*
X176068Y82822D02*
D03*
X176068Y80022D02*
D03*
X154924Y101501D02*
D03*
Y104301D02*
D03*
X137818Y85914D02*
D03*
X137818Y83114D02*
D03*
X170717Y106478D02*
D03*
X170717Y103678D02*
D03*
X154931Y88089D02*
D03*
Y85289D02*
D03*
X173461Y80034D02*
D03*
Y82834D02*
D03*
X154918Y90714D02*
D03*
Y93514D02*
D03*
X140618Y83114D02*
D03*
Y85914D02*
D03*
X152471Y94128D02*
D03*
X152471Y96928D02*
D03*
X104183Y18993D02*
D03*
X104183Y21793D02*
D03*
X126612Y57089D02*
D03*
Y54289D02*
D03*
X203602Y28489D02*
D03*
Y25689D02*
D03*
X206252D02*
D03*
Y28489D02*
D03*
X208952Y25689D02*
D03*
Y28489D02*
D03*
X217653Y32444D02*
D03*
X217653Y29644D02*
D03*
X192453Y70844D02*
D03*
X192453Y68044D02*
D03*
X210088Y56909D02*
D03*
X210088Y59709D02*
D03*
X255900Y77844D02*
D03*
X255900Y75044D02*
D03*
X220447Y8198D02*
D03*
Y10998D02*
D03*
X213153Y59744D02*
D03*
X213153Y56944D02*
D03*
X209811Y90767D02*
D03*
X209811Y93567D02*
D03*
X209811Y84465D02*
D03*
X209811Y87265D02*
D03*
Y80964D02*
D03*
X209811Y78164D02*
D03*
X214001Y90767D02*
D03*
X214001Y93567D02*
D03*
X214001Y84564D02*
D03*
X214001Y87364D02*
D03*
X214001Y78164D02*
D03*
X214001Y80964D02*
D03*
X204003Y59758D02*
D03*
X204003Y56958D02*
D03*
X237288Y82459D02*
D03*
X237288Y85259D02*
D03*
X253237Y77859D02*
D03*
X253237Y75059D02*
D03*
X207053Y59744D02*
D03*
X207053Y56944D02*
D03*
X33515Y87660D02*
D03*
Y90460D02*
D03*
X19255Y71568D02*
D03*
Y68768D02*
D03*
X32902Y70780D02*
D03*
X32902Y67980D02*
D03*
X38103Y70780D02*
D03*
X38103Y67980D02*
D03*
X35502Y70780D02*
D03*
X35502Y67980D02*
D03*
X28957Y78870D02*
D03*
Y81670D02*
D03*
X81338Y50955D02*
D03*
X81338Y53755D02*
D03*
X17400Y109000D02*
D03*
Y106200D02*
D03*
X61816Y78720D02*
D03*
Y81520D02*
D03*
X72169Y73916D02*
D03*
Y82416D02*
D03*
Y76716D02*
D03*
Y79616D02*
D03*
D89*
X108527Y9578D02*
D03*
Y8928D02*
D03*
Y8278D02*
D03*
Y7628D02*
D03*
Y6978D02*
D03*
Y6328D02*
D03*
Y5678D02*
D03*
Y5028D02*
D03*
X114077Y9578D02*
D03*
Y8928D02*
D03*
Y8278D02*
D03*
Y7628D02*
D03*
Y6978D02*
D03*
Y6328D02*
D03*
Y5678D02*
D03*
Y5028D02*
D03*
D90*
X99524Y44211D02*
D03*
X94524D02*
D03*
X94524Y40211D02*
D03*
X99524Y40211D02*
D03*
D91*
X93872Y23205D02*
D03*
Y25104D02*
D03*
X96072Y24155D02*
D03*
X173472Y105376D02*
D03*
X173472Y107276D02*
D03*
X175672Y106326D02*
D03*
X215193Y71850D02*
D03*
X212993Y72800D02*
D03*
Y70900D02*
D03*
X78602Y43602D02*
D03*
Y41702D02*
D03*
X76402Y42652D02*
D03*
D92*
X163386Y64751D02*
D03*
Y66021D02*
D03*
Y68561D02*
D03*
X158186Y64751D02*
D03*
Y66021D02*
D03*
Y67291D02*
D03*
Y68561D02*
D03*
X163374Y70246D02*
D03*
Y71516D02*
D03*
Y72786D02*
D03*
Y74056D02*
D03*
X158174Y70246D02*
D03*
Y71516D02*
D03*
Y72786D02*
D03*
Y74056D02*
D03*
X163374Y75646D02*
D03*
Y76916D02*
D03*
Y78186D02*
D03*
Y79456D02*
D03*
X158174Y75646D02*
D03*
Y76916D02*
D03*
Y78186D02*
D03*
Y79456D02*
D03*
D93*
X163386Y67291D02*
D03*
D94*
X162383Y33296D02*
D03*
X160483D02*
D03*
X162383Y36596D02*
D03*
X160483D02*
D03*
X162383Y39896D02*
D03*
X160483D02*
D03*
Y43157D02*
D03*
X162383D02*
D03*
X160483Y46558D02*
D03*
X162383D02*
D03*
X219596Y46151D02*
D03*
Y55151D02*
D03*
X222096D02*
D03*
Y46151D02*
D03*
D95*
X151624Y84896D02*
D03*
X146435Y100699D02*
D03*
Y101969D02*
D03*
Y103239D02*
D03*
X151635Y100699D02*
D03*
X217400Y65622D02*
D03*
D96*
X146424Y88706D02*
D03*
Y87436D02*
D03*
Y86166D02*
D03*
Y84896D02*
D03*
X151624Y88706D02*
D03*
Y87436D02*
D03*
Y86166D02*
D03*
X151635Y101969D02*
D03*
Y103239D02*
D03*
Y104509D02*
D03*
X146435D02*
D03*
X217400Y64352D02*
D03*
Y63082D02*
D03*
Y61812D02*
D03*
X222600Y65622D02*
D03*
Y64352D02*
D03*
Y63082D02*
D03*
Y61812D02*
D03*
D97*
X141683Y107101D02*
D03*
Y108051D02*
D03*
Y109001D02*
D03*
X139533D02*
D03*
X79125Y37350D02*
D03*
Y36400D02*
D03*
X81275D02*
D03*
Y38300D02*
D03*
D98*
X139533Y107101D02*
D03*
X79125Y38300D02*
D03*
D99*
X140004Y29899D02*
D03*
X145854Y26089D02*
D03*
X145854Y24819D02*
D03*
X140049Y59556D02*
D03*
Y60826D02*
D03*
Y58286D02*
D03*
Y54476D02*
D03*
X145899Y55746D02*
D03*
X140049Y57016D02*
D03*
Y55746D02*
D03*
Y62096D02*
D03*
D100*
X140004Y31169D02*
D03*
Y23549D02*
D03*
Y28629D02*
D03*
Y27359D02*
D03*
Y26089D02*
D03*
X145854Y32439D02*
D03*
Y31169D02*
D03*
Y29899D02*
D03*
X140004Y24819D02*
D03*
X145854Y23549D02*
D03*
Y28629D02*
D03*
Y27359D02*
D03*
X140004Y32439D02*
D03*
X140049Y53206D02*
D03*
X145899Y62096D02*
D03*
Y60826D02*
D03*
Y59556D02*
D03*
Y58286D02*
D03*
Y57016D02*
D03*
Y54476D02*
D03*
Y53206D02*
D03*
D101*
X124955Y39807D02*
D03*
Y43617D02*
D03*
X119255Y42347D02*
D03*
Y43617D02*
D03*
D102*
X124955Y41077D02*
D03*
Y42347D02*
D03*
X119255Y41077D02*
D03*
Y39807D02*
D03*
D103*
X93369Y95151D02*
D03*
X95909D02*
D03*
X97179D02*
D03*
X93369Y100851D02*
D03*
X94639D02*
D03*
X97179D02*
D03*
X94639Y95151D02*
D03*
X95909Y100851D02*
D03*
D104*
X136659Y89376D02*
D03*
X140469Y98626D02*
D03*
X132849D02*
D03*
X134119Y98626D02*
D03*
X131579Y89376D02*
D03*
D105*
X139199Y98626D02*
D03*
X137929D02*
D03*
X131579D02*
D03*
X140469Y89376D02*
D03*
X139199D02*
D03*
X137929D02*
D03*
X134119D02*
D03*
X132849D02*
D03*
X136659Y98626D02*
D03*
X135389D02*
D03*
Y89376D02*
D03*
D106*
X201718Y39846D02*
D03*
Y38576D02*
D03*
X15630Y84946D02*
D03*
D107*
X201718Y34766D02*
D03*
Y32226D02*
D03*
X192468Y39846D02*
D03*
Y38576D02*
D03*
Y37306D02*
D03*
Y36036D02*
D03*
Y34766D02*
D03*
Y33496D02*
D03*
Y32226D02*
D03*
Y30956D02*
D03*
X201718Y37306D02*
D03*
Y36036D02*
D03*
Y33496D02*
D03*
Y30956D02*
D03*
X24880Y84946D02*
D03*
X15630Y77326D02*
D03*
X24880D02*
D03*
X15630Y86216D02*
D03*
Y83676D02*
D03*
Y82406D02*
D03*
Y81136D02*
D03*
Y79866D02*
D03*
Y78596D02*
D03*
X24880Y86216D02*
D03*
Y83676D02*
D03*
Y82406D02*
D03*
Y81136D02*
D03*
Y79866D02*
D03*
Y78596D02*
D03*
D108*
X195085Y11659D02*
D03*
D109*
X185085Y24384D02*
D03*
X185110Y21834D02*
D03*
X195085Y24384D02*
D03*
Y21834D02*
D03*
X185085Y14209D02*
D03*
X185035Y16734D02*
D03*
X185085Y19284D02*
D03*
X195085D02*
D03*
X195085Y16734D02*
D03*
Y14209D02*
D03*
X185085Y11659D02*
D03*
D110*
X201146Y72519D02*
D03*
Y70219D02*
D03*
Y67919D02*
D03*
D111*
X207346Y70219D02*
D03*
D112*
X237081Y19637D02*
D03*
X235049Y26241D02*
D03*
D113*
X200487Y55407D02*
D03*
X194137D02*
D03*
X200487Y50707D02*
D03*
X194137D02*
D03*
D114*
X234190Y38892D02*
D03*
Y32542D02*
D03*
X195800Y94636D02*
D03*
Y100986D02*
D03*
X201551Y94736D02*
D03*
Y101086D02*
D03*
X232440Y86492D02*
D03*
Y80142D02*
D03*
X201551Y81260D02*
D03*
Y87610D02*
D03*
X195850Y81232D02*
D03*
X195850Y87582D02*
D03*
X247796Y28501D02*
D03*
Y36001D02*
D03*
D115*
X213781Y35001D02*
D03*
X212511D02*
D03*
X211241D02*
D03*
X215051Y29801D02*
D03*
X213781D02*
D03*
X212511D02*
D03*
X211241D02*
D03*
X226818Y18906D02*
D03*
X228087D02*
D03*
X229357D02*
D03*
X225548Y24106D02*
D03*
X226818D02*
D03*
X228087D02*
D03*
X229357D02*
D03*
X195508Y66468D02*
D03*
X196778D02*
D03*
X198048D02*
D03*
X194238Y71668D02*
D03*
X195508D02*
D03*
X196778D02*
D03*
X198048D02*
D03*
D116*
X215051Y35001D02*
D03*
X225548Y18906D02*
D03*
X194238Y66468D02*
D03*
D117*
X218744Y80953D02*
D03*
X219694Y83153D02*
D03*
X217794Y83153D02*
D03*
X11552Y105698D02*
D03*
X12502Y107898D02*
D03*
X13452Y105698D02*
D03*
X15698Y56519D02*
D03*
X17598D02*
D03*
X16648Y54319D02*
D03*
D118*
X247946Y16851D02*
D03*
X243346D02*
D03*
X245646D02*
D03*
D119*
Y10651D02*
D03*
D120*
X38653Y82950D02*
D03*
X33381D02*
D03*
X38653Y74050D02*
D03*
X33381D02*
D03*
D121*
X33361Y80100D02*
D03*
X33381Y79300D02*
D03*
Y78500D02*
D03*
Y77700D02*
D03*
Y76900D02*
D03*
D122*
X22461Y72898D02*
D03*
D123*
X22461Y72248D02*
D03*
Y71598D02*
D03*
Y70949D02*
D03*
Y70298D02*
D03*
Y69648D02*
D03*
Y68998D02*
D03*
Y68349D02*
D03*
Y67698D02*
D03*
Y67048D02*
D03*
Y66398D02*
D03*
Y65748D02*
D03*
Y65099D02*
D03*
Y64448D02*
D03*
X29261Y72898D02*
D03*
Y72248D02*
D03*
Y71598D02*
D03*
Y70949D02*
D03*
Y70298D02*
D03*
Y69648D02*
D03*
Y68998D02*
D03*
Y68349D02*
D03*
Y67698D02*
D03*
Y67048D02*
D03*
Y66398D02*
D03*
Y65748D02*
D03*
Y65099D02*
D03*
Y64448D02*
D03*
D124*
X19807Y90223D02*
D03*
X19807Y92723D02*
D03*
X28807D02*
D03*
Y90223D02*
D03*
D125*
X107101Y39919D02*
D03*
X107101Y44919D02*
D03*
X120104Y6861D02*
D03*
X120104Y11861D02*
D03*
X141531Y3911D02*
D03*
X146611Y3911D02*
D03*
X144071Y6451D02*
D03*
X144071Y3911D02*
D03*
X141531Y6451D02*
D03*
X138991D02*
D03*
Y3911D02*
D03*
X136451Y6451D02*
D03*
Y3911D02*
D03*
X121384Y108791D02*
D03*
X116304D02*
D03*
X113764D02*
D03*
X113764Y106251D02*
D03*
X111224Y108791D02*
D03*
X126464Y106251D02*
D03*
X131544D02*
D03*
X118844Y108791D02*
D03*
X116304Y106251D02*
D03*
X118844D02*
D03*
X121384Y106251D02*
D03*
X123924Y106251D02*
D03*
X129004Y106251D02*
D03*
Y108791D02*
D03*
X131544D02*
D03*
X134084Y106251D02*
D03*
Y108791D02*
D03*
X123924Y108791D02*
D03*
X126464D02*
D03*
X126125Y81893D02*
D03*
Y76893D02*
D03*
X134324Y80809D02*
D03*
Y85809D02*
D03*
X174864Y46581D02*
D03*
X174864Y49121D02*
D03*
X172324D02*
D03*
X172324Y51661D02*
D03*
X172324Y33881D02*
D03*
X172324Y64361D02*
D03*
X174864Y61821D02*
D03*
X172324Y61821D02*
D03*
X174864Y59281D02*
D03*
X172324D02*
D03*
X174864Y56741D02*
D03*
X172324D02*
D03*
X174865Y54201D02*
D03*
X172324Y54201D02*
D03*
X174864Y69441D02*
D03*
X172324Y69441D02*
D03*
X174864Y66901D02*
D03*
X172324D02*
D03*
X174864Y44041D02*
D03*
Y51661D02*
D03*
Y64361D02*
D03*
X172324Y38961D02*
D03*
X188606Y77401D02*
D03*
X191146Y79941D02*
D03*
X188606D02*
D03*
X191146Y82481D02*
D03*
X188606D02*
D03*
X191146Y85021D02*
D03*
X188606D02*
D03*
X191146Y87561D02*
D03*
X188606Y87561D02*
D03*
X226733Y6501D02*
D03*
Y3961D02*
D03*
X229273D02*
D03*
Y6501D02*
D03*
X236893Y3961D02*
D03*
X234353Y6501D02*
D03*
Y3961D02*
D03*
X231813Y6501D02*
D03*
Y3961D02*
D03*
X84321Y52203D02*
D03*
Y54743D02*
D03*
X72809Y50101D02*
D03*
X20350Y108840D02*
D03*
X43210D02*
D03*
Y106300D02*
D03*
X40670Y108840D02*
D03*
Y106300D02*
D03*
X38130Y108840D02*
D03*
Y106300D02*
D03*
X35590Y108840D02*
D03*
Y106300D02*
D03*
X33050Y108840D02*
D03*
Y106300D02*
D03*
X30510Y108840D02*
D03*
Y106300D02*
D03*
X27970Y108840D02*
D03*
X27970Y106300D02*
D03*
X25430Y108840D02*
D03*
Y106300D02*
D03*
X22890Y108840D02*
D03*
X22890Y106300D02*
D03*
X72809Y55101D02*
D03*
X78809Y55101D02*
D03*
X64419Y81491D02*
D03*
X66969Y82761D02*
D03*
X66969Y77681D02*
D03*
X64419Y78951D02*
D03*
X53169Y72006D02*
D03*
X54689Y84626D02*
D03*
X66969Y75141D02*
D03*
X64419Y76411D02*
D03*
X66969Y80221D02*
D03*
X54689Y74546D02*
D03*
X53169Y82116D02*
D03*
X89974Y8751D02*
D03*
Y6751D02*
D03*
X89924Y103201D02*
D03*
Y105201D02*
D03*
X180824Y103201D02*
D03*
Y105201D02*
D03*
X180774Y8801D02*
D03*
Y6801D02*
D03*
X180800Y8801D02*
D03*
Y105201D02*
D03*
Y103201D02*
D03*
Y6702D02*
D03*
X195846Y90151D02*
D03*
X195844Y92051D02*
D03*
X201546D02*
D03*
Y90151D02*
D03*
X255993Y96101D02*
D03*
Y92051D02*
D03*
Y87951D02*
D03*
Y83901D02*
D03*
Y79851D02*
D03*
X24000Y61800D02*
D03*
X25500D02*
D03*
X89950Y8750D02*
D03*
Y6750D02*
D03*
X89950Y103200D02*
D03*
Y105200D02*
D03*
X24000Y95065D02*
D03*
X25500D02*
D03*
X65150Y95065D02*
D03*
X63650D02*
D03*
X65150Y61785D02*
D03*
X63650D02*
D03*
D126*
X122872Y16451D02*
D03*
Y18951D02*
D03*
X120372Y16451D02*
D03*
Y18951D02*
D03*
X96872Y16451D02*
D03*
Y18951D02*
D03*
X94372Y16451D02*
D03*
Y18951D02*
D03*
Y33951D02*
D03*
X96872D02*
D03*
X120372D02*
D03*
X122872D02*
D03*
X94372Y31451D02*
D03*
X96872D02*
D03*
X120372D02*
D03*
X122872D02*
D03*
X146611Y6451D02*
D03*
X111224Y106251D02*
D03*
X172324Y28801D02*
D03*
X191146Y77401D02*
D03*
X236893Y6501D02*
D03*
X84321Y49663D02*
D03*
X78809Y50101D02*
D03*
X20350Y106300D02*
D03*
X75069Y92416D02*
D03*
X72269D02*
D03*
X75069Y90016D02*
D03*
X72269D02*
D03*
X75069Y64216D02*
D03*
X72269Y64216D02*
D03*
X75069Y66716D02*
D03*
X72269Y66716D02*
D03*
X14000Y66700D02*
D03*
Y64200D02*
D03*
X16500Y90200D02*
D03*
X14000D02*
D03*
X16500Y66700D02*
D03*
Y64200D02*
D03*
X14000Y92700D02*
D03*
X16500D02*
D03*
X64419Y73871D02*
D03*
D127*
X176436Y12093D02*
D03*
X164230Y94491D02*
D03*
X174230D02*
D03*
X176730Y101991D02*
D03*
X161730D02*
D03*
X164230Y85191D02*
D03*
X174230D02*
D03*
X176730Y92691D02*
D03*
X161730D02*
D03*
X16685Y51936D02*
D03*
D128*
X173936Y12093D02*
D03*
X19185Y51936D02*
D03*
D129*
X115847Y26195D02*
D03*
X100847Y26195D02*
D03*
X188330Y73064D02*
D03*
X185338Y87407D02*
D03*
X198599Y107004D02*
D03*
X203599D02*
D03*
X234157Y14043D02*
D03*
X188081Y56222D02*
D03*
X188073Y61482D02*
D03*
X226734Y29859D02*
D03*
X224841Y12913D02*
D03*
X246257Y22643D02*
D03*
X239434Y33575D02*
D03*
X246518Y3944D02*
D03*
D130*
X172324Y46581D02*
D03*
X174864Y28801D02*
D03*
X172324Y31341D02*
D03*
X174864D02*
D03*
Y33881D02*
D03*
X172324Y36421D02*
D03*
X174864D02*
D03*
Y38961D02*
D03*
X172324Y41501D02*
D03*
X174864D02*
D03*
X172324Y44041D02*
D03*
D131*
X123124Y76698D02*
D03*
Y74198D02*
D03*
X211796Y40401D02*
D03*
X205446D02*
D03*
X211793Y22851D02*
D03*
X221793Y22851D02*
D03*
X221796Y27801D02*
D03*
D132*
X164874Y106651D02*
D03*
X164874Y4651D02*
D03*
X96874D02*
D03*
X96874Y106651D02*
D03*
X242096Y62401D02*
D03*
X220490Y15010D02*
D03*
X187196Y4701D02*
D03*
X187196Y106701D02*
D03*
X255196Y106701D02*
D03*
X255196Y4701D02*
D03*
X74000Y106700D02*
D03*
X74000Y4700D02*
D03*
X6000Y4700D02*
D03*
X6000Y106700D02*
D03*
D133*
X188330Y68064D02*
D03*
X185338Y82407D02*
D03*
X231657Y14043D02*
D03*
X190581Y56222D02*
D03*
X190573Y61482D02*
D03*
X229234Y29859D02*
D03*
X227341Y12913D02*
D03*
X243757Y22643D02*
D03*
X241934Y33575D02*
D03*
X244018Y3944D02*
D03*
D134*
X222093Y75530D02*
D03*
Y93310D02*
D03*
X226602Y77122D02*
D03*
Y92122D02*
D03*
X206203Y98294D02*
D03*
Y80514D02*
D03*
X186446Y34971D02*
D03*
Y29891D02*
D03*
X61069Y86216D02*
D03*
Y70416D02*
D03*
D135*
X211796Y107301D02*
D03*
X245946Y40501D02*
D03*
X240946Y40551D02*
D03*
X245893Y86201D02*
D03*
X243393Y90201D02*
D03*
X240893Y86201D02*
D03*
X225346Y40651D02*
D03*
X205146Y52751D02*
D03*
X210146D02*
D03*
X231696Y92201D02*
D03*
X236496D02*
D03*
X230296Y40651D02*
D03*
D136*
X211796Y99801D02*
D03*
D137*
X63600Y43750D02*
D03*
X40700Y25700D02*
D03*
X63650Y29400D02*
D03*
X68970Y25800D02*
D03*
X54900Y11500D02*
D03*
D138*
X51100Y43750D02*
D03*
Y48750D02*
D03*
X63600Y48830D02*
D03*
X40700Y38200D02*
D03*
X45700D02*
D03*
X45780Y25700D02*
D03*
X51150Y29400D02*
D03*
X63650Y34480D02*
D03*
X51150Y34400D02*
D03*
X68970Y38300D02*
D03*
X73970Y38300D02*
D03*
X74050Y25800D02*
D03*
X54900Y24000D02*
D03*
X59900D02*
D03*
X59980Y11500D02*
D03*
D139*
X186446Y40051D02*
D03*
D140*
X199490Y15010D02*
D03*
D141*
X58069Y72616D02*
D03*
Y84016D02*
D03*
X6500Y98600D02*
D03*
X4950Y62650D02*
D03*
X83900D02*
D03*
X82400Y98600D02*
D03*
D142*
X60833Y100131D02*
D03*
X30353D02*
D03*
X15113D02*
D03*
X58293D02*
D03*
X22733D02*
D03*
X25273D02*
D03*
X17653D02*
D03*
X20193D02*
D03*
X32893D02*
D03*
X35433D02*
D03*
X37973D02*
D03*
X40513D02*
D03*
X43053D02*
D03*
X45593D02*
D03*
X48133D02*
D03*
X50673D02*
D03*
X53213D02*
D03*
X55753D02*
D03*
X27813D02*
D03*
D143*
X12573D02*
D03*
D144*
X35961Y76300D02*
D03*
Y80700D02*
D03*
X122905Y27158D02*
D03*
X132607Y28508D02*
D03*
X126806Y18906D02*
D03*
X130557Y17255D02*
D03*
X129257Y45751D02*
D03*
X143610Y27608D02*
D03*
X125055Y29959D02*
D03*
X92647Y86923D02*
D03*
X105050Y7953D02*
D03*
X105050Y27508D02*
D03*
X93648Y27908D02*
D03*
X93348Y85022D02*
D03*
X94948Y29358D02*
D03*
X103400Y9153D02*
D03*
X103350Y29408D02*
D03*
X93798Y83522D02*
D03*
X93848Y36310D02*
D03*
X105801Y36410D02*
D03*
X105851Y6703D02*
D03*
X105651Y30709D02*
D03*
X94448Y81672D02*
D03*
X94398Y65568D02*
D03*
X95298Y66718D02*
D03*
X95648Y68218D02*
D03*
X97248Y67718D02*
D03*
X97148Y69769D02*
D03*
X98549Y69269D02*
D03*
X104600Y35310D02*
D03*
X103400Y34410D02*
D03*
X121205Y68368D02*
D03*
X68317Y86372D02*
D03*
X68717Y83421D02*
D03*
X37409Y78020D02*
D03*
X17554Y58600D02*
D03*
X10253Y58565D02*
D03*
X3151Y51763D02*
D03*
X3251Y50200D02*
D03*
X1750Y49900D02*
D03*
X223746Y56751D02*
D03*
X31258Y75119D02*
D03*
X28857Y84971D02*
D03*
X27057Y90223D02*
D03*
X27207Y83621D02*
D03*
X24456Y70268D02*
D03*
X24356Y68467D02*
D03*
X27607Y71218D02*
D03*
X31097Y66317D02*
D03*
X27557Y68367D02*
D03*
X32908Y71618D02*
D03*
X33358Y76269D02*
D03*
X37659Y76419D02*
D03*
X35509Y71618D02*
D03*
X38110Y71518D02*
D03*
X15004Y76269D02*
D03*
X17905Y78120D02*
D03*
X15854Y87322D02*
D03*
X17955Y79870D02*
D03*
X19255Y88122D02*
D03*
X17905Y82371D02*
D03*
D145*
X114929Y11201D02*
D03*
X108777Y11703D02*
D03*
X137359Y38561D02*
D03*
X126706Y40711D02*
D03*
X127856Y49013D02*
D03*
X126756Y42712D02*
D03*
Y50314D02*
D03*
X132257Y51264D02*
D03*
X148212Y52214D02*
D03*
X136108Y52514D02*
D03*
X142924Y52664D02*
D03*
X158464Y51914D02*
D03*
X152412D02*
D03*
X123205Y88123D02*
D03*
X116903Y37460D02*
D03*
X116953Y43612D02*
D03*
X113653Y63717D02*
D03*
X103440Y55099D02*
D03*
X103077Y51649D02*
D03*
X103627Y53200D02*
D03*
X102652Y62137D02*
D03*
X123874Y65001D02*
D03*
X123274Y48051D02*
D03*
X103202Y60637D02*
D03*
X97826Y59601D02*
D03*
X98826Y48449D02*
D03*
X113778Y51198D02*
D03*
X112002Y63737D02*
D03*
X99726Y64053D02*
D03*
X136458Y95775D02*
D03*
X141510Y102227D02*
D03*
X138359Y102177D02*
D03*
X131407Y32859D02*
D03*
X136558Y30859D02*
D03*
X132633Y36059D02*
D03*
X135774Y57716D02*
D03*
X136608Y32659D02*
D03*
X151712Y91574D02*
D03*
X145361Y93308D02*
D03*
X144310Y91224D02*
D03*
X143460Y97276D02*
D03*
X133308Y96125D02*
D03*
X102350Y97076D02*
D03*
X93398Y96975D02*
D03*
X156713Y17501D02*
D03*
Y23901D02*
D03*
X116074Y86873D02*
D03*
X144010Y10604D02*
D03*
X126655Y89272D02*
D03*
X126755Y90623D02*
D03*
X156713Y27008D02*
D03*
X136124Y68601D02*
D03*
X136624Y78951D02*
D03*
X134974Y76401D02*
D03*
X125874Y79101D02*
D03*
X123574Y83501D02*
D03*
X103502Y65737D02*
D03*
X147774Y31551D02*
D03*
X159974Y86501D02*
D03*
X141810Y31309D02*
D03*
X142524Y75451D02*
D03*
X130324Y5251D02*
D03*
X100774Y78801D02*
D03*
X132424Y57151D02*
D03*
X113252Y57087D02*
D03*
X109402Y59087D02*
D03*
X107402Y56787D02*
D03*
X108501Y79871D02*
D03*
X114574Y81151D02*
D03*
X113074Y90401D02*
D03*
X109724Y92351D02*
D03*
X104850Y86101D02*
D03*
X105324Y82601D02*
D03*
X132624Y10701D02*
D03*
X134874Y17701D02*
D03*
X148174D02*
D03*
Y28451D02*
D03*
X135624Y21851D02*
D03*
X140374Y96551D02*
D03*
X164418Y43195D02*
D03*
X164424Y39901D02*
D03*
X164418Y36595D02*
D03*
X164165Y33259D02*
D03*
X164324Y46551D02*
D03*
X143760Y85223D02*
D03*
X132674Y101827D02*
D03*
X153563Y36601D02*
D03*
X138309Y53164D02*
D03*
X141774Y46951D02*
D03*
X141860Y24607D02*
D03*
X156713Y14205D02*
D03*
Y20695D02*
D03*
X137874Y48151D02*
D03*
X152062Y89974D02*
D03*
X153113Y105678D02*
D03*
X148524Y84001D02*
D03*
X142774Y20751D02*
D03*
X142160Y28408D02*
D03*
X141760Y26158D02*
D03*
X139974Y19201D02*
D03*
X141474Y15901D02*
D03*
X159524Y101501D02*
D03*
X154924Y67951D02*
D03*
X153563Y39901D02*
D03*
X142924Y41601D02*
D03*
X142560Y29909D02*
D03*
X153563Y46510D02*
D03*
Y43201D02*
D03*
X139074Y44801D02*
D03*
X138209Y28608D02*
D03*
X154924Y65223D02*
D03*
Y73545D02*
D03*
X174624Y78051D02*
D03*
X171074Y78070D02*
D03*
X170874Y92701D02*
D03*
X172424Y91501D02*
D03*
X159724Y90901D02*
D03*
X154924Y70745D02*
D03*
Y78751D02*
D03*
Y76201D02*
D03*
X153563Y33308D02*
D03*
X144874Y35001D02*
D03*
X144710Y22207D02*
D03*
X144824Y38201D02*
D03*
X137385Y23606D02*
D03*
X141660Y91824D02*
D03*
X122674Y99951D02*
D03*
X117774D02*
D03*
X123574Y98901D02*
D03*
X118374Y98751D02*
D03*
X123574Y96501D02*
D03*
X117802Y96374D02*
D03*
X118653Y95374D02*
D03*
X125024Y94301D02*
D03*
X117802Y94324D02*
D03*
X123954Y93123D02*
D03*
X117002Y93324D02*
D03*
X114824Y102101D02*
D03*
X113453Y102127D02*
D03*
X112001Y102326D02*
D03*
X130774Y80501D02*
D03*
X130124Y90151D02*
D03*
X136724Y105551D02*
D03*
X122304Y91073D02*
D03*
X129174Y91251D02*
D03*
X130624Y79101D02*
D03*
X132007Y69769D02*
D03*
X146824Y76301D02*
D03*
X143974Y73651D02*
D03*
X133974Y64951D02*
D03*
X136124Y66651D02*
D03*
X134124Y66901D02*
D03*
X120302Y50287D02*
D03*
X95475Y50399D02*
D03*
X121652Y50287D02*
D03*
X95475Y48949D02*
D03*
X123002Y50237D02*
D03*
X96875Y48899D02*
D03*
X101424Y74101D02*
D03*
X102224Y75151D02*
D03*
X101424Y76201D02*
D03*
X122224Y67251D02*
D03*
X102224Y77301D02*
D03*
X107501Y63717D02*
D03*
X102224Y79101D02*
D03*
X112374Y98701D02*
D03*
X128524Y100001D02*
D03*
X128674Y79501D02*
D03*
X123924Y95151D02*
D03*
X112774Y97301D02*
D03*
X127874Y98751D02*
D03*
X128624Y78101D02*
D03*
X92697Y102727D02*
D03*
X93898Y90824D02*
D03*
X92624Y90001D02*
D03*
X145311Y98576D02*
D03*
X152324Y98901D02*
D03*
X143124Y78651D02*
D03*
X144324Y110551D02*
D03*
X145311Y95825D02*
D03*
X143774Y100801D02*
D03*
X124424Y89901D02*
D03*
X169374Y87601D02*
D03*
X131374Y87001D02*
D03*
X132424Y80551D02*
D03*
X134074Y68801D02*
D03*
X140059Y33760D02*
D03*
X140659Y63167D02*
D03*
X127982Y72868D02*
D03*
X124674Y54301D02*
D03*
X106924Y96851D02*
D03*
X142724Y90801D02*
D03*
X144074Y77401D02*
D03*
X138359Y59866D02*
D03*
X129324Y58401D02*
D03*
X143810Y46013D02*
D03*
X110651Y102026D02*
D03*
X134108Y100726D02*
D03*
X100449Y98076D02*
D03*
X135658Y102677D02*
D03*
X99249Y100101D02*
D03*
X94748Y98826D02*
D03*
X96174Y99175D02*
D03*
X130607Y101877D02*
D03*
X98199Y99101D02*
D03*
X135308Y94675D02*
D03*
X113152Y95975D02*
D03*
X147761Y78871D02*
D03*
X145724Y78851D02*
D03*
X95048Y80271D02*
D03*
X96498Y79671D02*
D03*
X96348Y78221D02*
D03*
X96998Y76920D02*
D03*
X98549Y77321D02*
D03*
X121955Y46813D02*
D03*
X120204Y46063D02*
D03*
X110302Y50414D02*
D03*
X108051Y47613D02*
D03*
X106551D02*
D03*
X123155Y66268D02*
D03*
X125206Y64917D02*
D03*
X110552Y73470D02*
D03*
X114903Y65167D02*
D03*
X98149Y75370D02*
D03*
X94548Y38211D02*
D03*
X95648Y64517D02*
D03*
X105601D02*
D03*
X116053Y64467D02*
D03*
X102500Y64917D02*
D03*
X104800Y70069D02*
D03*
X99099Y74420D02*
D03*
X99249Y73019D02*
D03*
X101199Y71719D02*
D03*
X105000Y73220D02*
D03*
Y71919D02*
D03*
X102400Y71219D02*
D03*
X103000Y70069D02*
D03*
X158364Y62373D02*
D03*
X143060Y72469D02*
D03*
X144960Y72619D02*
D03*
X143960Y69369D02*
D03*
X144960Y68168D02*
D03*
X145961Y67068D02*
D03*
X146861Y66068D02*
D03*
X143974Y64817D02*
D03*
X152412Y62373D02*
D03*
X141960Y63667D02*
D03*
X141910Y58216D02*
D03*
X158414Y59866D02*
D03*
Y57215D02*
D03*
Y54615D02*
D03*
X152412Y59866D02*
D03*
Y54615D02*
D03*
Y57215D02*
D03*
X142985Y60826D02*
D03*
X142960Y55765D02*
D03*
X141774Y54450D02*
D03*
X116029Y36109D02*
D03*
X115929Y39810D02*
D03*
X99325Y23956D02*
D03*
X99675Y38060D02*
D03*
Y32858D02*
D03*
X111128Y16454D02*
D03*
X111228Y22606D02*
D03*
X111278Y9552D02*
D03*
X135984Y20332D02*
D03*
X97875Y21805D02*
D03*
X97174Y27307D02*
D03*
X125632Y20205D02*
D03*
X140885Y71968D02*
D03*
X128082Y74469D02*
D03*
X130583Y68217D02*
D03*
X126982Y68517D02*
D03*
X128532Y34759D02*
D03*
X131883Y67867D02*
D03*
X126732Y69968D02*
D03*
X128332Y33358D02*
D03*
X114829Y32908D02*
D03*
X114129Y13053D02*
D03*
X112828Y18005D02*
D03*
X112728Y20355D02*
D03*
X129733Y20655D02*
D03*
X115829Y13603D02*
D03*
X146587Y12903D02*
D03*
X150688Y3901D02*
D03*
X156990Y12003D02*
D03*
X157490Y6452D02*
D03*
X97199Y98151D02*
D03*
X98775Y14654D02*
D03*
X132633Y15354D02*
D03*
X112928Y29858D02*
D03*
X121121Y9352D02*
D03*
X126582D02*
D03*
X117822Y18755D02*
D03*
X124381Y24656D02*
D03*
X119380D02*
D03*
X116879Y29657D02*
D03*
X108677Y26001D02*
D03*
X101876Y31201D02*
D03*
X102222Y38310D02*
D03*
X118730Y38160D02*
D03*
X114379Y44661D02*
D03*
Y39660D02*
D03*
X106877Y42301D02*
D03*
X102222Y46962D02*
D03*
X99375Y51401D02*
D03*
X115621Y73719D02*
D03*
X118880Y76801D02*
D03*
X121021Y74419D02*
D03*
X96874Y84601D02*
D03*
X101376Y92401D02*
D03*
X104022Y96574D02*
D03*
X94574Y87872D02*
D03*
X96874Y90401D02*
D03*
X101876Y109678D02*
D03*
X106877Y109628D02*
D03*
X101926Y104676D02*
D03*
X106822D02*
D03*
X104376Y107177D02*
D03*
X102222Y101326D02*
D03*
X142486Y103776D02*
D03*
X137085Y103626D02*
D03*
X143386Y108001D02*
D03*
X133284Y92401D02*
D03*
X131583Y95701D02*
D03*
X161891Y82171D02*
D03*
X166192D02*
D03*
X146887Y80270D02*
D03*
X161891Y89172D02*
D03*
X166221D02*
D03*
X159540Y83471D02*
D03*
X159890Y93624D02*
D03*
X159821Y98025D02*
D03*
X153089Y92323D02*
D03*
X165421Y96574D02*
D03*
X167892Y98675D02*
D03*
X172343Y93474D02*
D03*
X172994Y96401D02*
D03*
X170693Y99075D02*
D03*
X160121Y103676D02*
D03*
X146887Y109628D02*
D03*
X151888D02*
D03*
X156890Y109678D02*
D03*
X160721Y110178D02*
D03*
X169743Y110201D02*
D03*
X168342Y102201D02*
D03*
X177821Y109778D02*
D03*
X177545Y103926D02*
D03*
X172894Y103126D02*
D03*
X175094Y88001D02*
D03*
X177545Y91101D02*
D03*
X167821Y74469D02*
D03*
X169743Y69568D02*
D03*
X161321Y76169D02*
D03*
Y70768D02*
D03*
Y65266D02*
D03*
X165442Y57815D02*
D03*
X165092Y53101D02*
D03*
X167792D02*
D03*
X177645Y69601D02*
D03*
Y59665D02*
D03*
Y49663D02*
D03*
X177495Y39001D02*
D03*
X166892Y47612D02*
D03*
X166442Y43461D02*
D03*
X177521Y28907D02*
D03*
X149388Y30058D02*
D03*
X149638Y26901D02*
D03*
X146637Y22101D02*
D03*
X149938Y23801D02*
D03*
X149988Y17454D02*
D03*
X135484Y15701D02*
D03*
X139521Y16354D02*
D03*
X149388Y13653D02*
D03*
X146421Y9752D02*
D03*
X137821Y12453D02*
D03*
X139485Y8752D02*
D03*
X134384Y8552D02*
D03*
X133921Y12053D02*
D03*
X128921Y19055D02*
D03*
X129321Y16154D02*
D03*
X169421Y2151D02*
D03*
X169393Y7152D02*
D03*
X160340Y2151D02*
D03*
X160321Y7202D02*
D03*
X171893Y4651D02*
D03*
X174394Y2151D02*
D03*
X176895Y4651D02*
D03*
X176921Y9652D02*
D03*
X171893D02*
D03*
X166892D02*
D03*
X158021Y4651D02*
D03*
X152488Y4601D02*
D03*
X176895Y14654D02*
D03*
X168743Y13701D02*
D03*
X171893Y16754D02*
D03*
X145321Y1950D02*
D03*
X116579Y2151D02*
D03*
X106077D02*
D03*
X103622Y4651D02*
D03*
X101522Y2151D02*
D03*
X111178Y2901D02*
D03*
Y7952D02*
D03*
X108522Y17754D02*
D03*
X100825Y8852D02*
D03*
X93173D02*
D03*
X93223Y13801D02*
D03*
X96824Y11601D02*
D03*
X93424Y21301D02*
D03*
X108322Y21705D02*
D03*
X115779Y51501D02*
D03*
X120480Y52263D02*
D03*
X119030Y62001D02*
D03*
X122581Y59265D02*
D03*
X126732Y59415D02*
D03*
X138785Y20501D02*
D03*
X145987Y36601D02*
D03*
X150088Y20455D02*
D03*
X145787Y90701D02*
D03*
X140635Y93001D02*
D03*
X146021Y46062D02*
D03*
X145937Y63266D02*
D03*
X198296Y40401D02*
D03*
X204393Y31151D02*
D03*
X251396Y39701D02*
D03*
X241193Y23151D02*
D03*
X249693Y24701D02*
D03*
X249746Y19701D02*
D03*
X242193Y37201D02*
D03*
X229693Y35801D02*
D03*
X222196Y34701D02*
D03*
X224193Y8251D02*
D03*
X229946Y11601D02*
D03*
X233846Y10401D02*
D03*
X240896Y13401D02*
D03*
X249693Y7201D02*
D03*
X254693Y12201D02*
D03*
X199846Y26201D02*
D03*
X204793Y17801D02*
D03*
X212193Y14751D02*
D03*
X217196Y9701D02*
D03*
X212196D02*
D03*
X199693Y9701D02*
D03*
X202193Y4701D02*
D03*
X197196Y4701D02*
D03*
X228693Y8751D02*
D03*
X220546Y63651D02*
D03*
X197746Y69151D02*
D03*
X198646Y79751D02*
D03*
Y81232D02*
D03*
X217296Y88401D02*
D03*
X205646Y37501D02*
D03*
Y4301D02*
D03*
X208646Y36051D02*
D03*
X208696Y5001D02*
D03*
X206946Y33601D02*
D03*
X207096Y6501D02*
D03*
X227346Y10501D02*
D03*
X196496Y51951D02*
D03*
X218744Y74703D02*
D03*
X204196Y50001D02*
D03*
X237296Y78901D02*
D03*
X207546Y76251D02*
D03*
X231546Y16801D02*
D03*
X233496Y16801D02*
D03*
X186996Y47451D02*
D03*
X208946Y30001D02*
D03*
X204893Y28451D02*
D03*
X199893Y28551D02*
D03*
X218193Y19251D02*
D03*
X201743Y19201D02*
D03*
X220546Y31551D02*
D03*
X216496Y60101D02*
D03*
X201296Y64701D02*
D03*
X251095Y75101D02*
D03*
X224295Y64352D02*
D03*
X220596Y61751D02*
D03*
X208846Y61851D02*
D03*
X194238Y69194D02*
D03*
X213746Y74801D02*
D03*
X212946Y69701D02*
D03*
X203146Y72851D02*
D03*
X68717Y70918D02*
D03*
Y65466D02*
D03*
X9752Y110578D02*
D03*
X80570Y48862D02*
D03*
X46850Y40850D02*
D03*
X73050Y40400D02*
D03*
X61050Y52000D02*
D03*
X53450Y34400D02*
D03*
X53150Y45800D02*
D03*
X21600Y110500D02*
D03*
X34250Y102650D02*
D03*
X31750Y103450D02*
D03*
X1671Y101471D02*
D03*
X3150Y101100D02*
D03*
X48150Y107850D02*
D03*
X50450Y106200D02*
D03*
X2750Y95600D02*
D03*
X58250Y110300D02*
D03*
X87200Y48950D02*
D03*
X68400Y47900D02*
D03*
X68350Y42900D02*
D03*
X58293Y107900D02*
D03*
X87000Y30950D02*
D03*
X81150Y34750D02*
D03*
X84300Y43550D02*
D03*
X79125Y39900D02*
D03*
X41750Y42650D02*
D03*
Y54000D02*
D03*
X81750Y56650D02*
D03*
X80720Y55614D02*
D03*
X52863Y78270D02*
D03*
X53914Y90423D02*
D03*
X72218Y78170D02*
D03*
X8102Y58665D02*
D03*
X20450Y55464D02*
D03*
X23006Y57965D02*
D03*
X25506Y55500D02*
D03*
X28007Y57900D02*
D03*
X30550Y55414D02*
D03*
X33008Y57965D02*
D03*
X35509Y55400D02*
D03*
X38010Y57965D02*
D03*
X40510Y56700D02*
D03*
X43011Y57965D02*
D03*
X45511Y56764D02*
D03*
X48062Y57900D02*
D03*
X50450Y56614D02*
D03*
X53013Y57965D02*
D03*
X55514Y56664D02*
D03*
X58015Y57900D02*
D03*
X60450Y56614D02*
D03*
X63016Y57965D02*
D03*
X8002Y62966D02*
D03*
X16904Y104300D02*
D03*
X11903Y103226D02*
D03*
X78020Y110428D02*
D03*
X80470Y107977D02*
D03*
X83021Y110428D02*
D03*
X85472Y107977D02*
D03*
X83021Y105427D02*
D03*
X69968Y110428D02*
D03*
X67667Y108500D02*
D03*
X65216Y110400D02*
D03*
X60465Y110500D02*
D03*
X53550Y104876D02*
D03*
X56214Y102800D02*
D03*
X60350Y104726D02*
D03*
X63166Y102300D02*
D03*
X66017Y99900D02*
D03*
X70518Y99025D02*
D03*
X75519D02*
D03*
X83021Y94800D02*
D03*
X83050Y89923D02*
D03*
X83021Y84900D02*
D03*
Y79900D02*
D03*
Y74800D02*
D03*
Y69768D02*
D03*
X70518Y50463D02*
D03*
X68017Y52913D02*
D03*
X5501Y90473D02*
D03*
X8002Y92900D02*
D03*
X86250Y57765D02*
D03*
X2786Y56414D02*
D03*
D146*
X26997Y78770D02*
D03*
X26657Y73018D02*
D03*
X35759Y74119D02*
D03*
M02*
