%FSLAX43Y43*%
%MOMM*%
G71*
G01*
G75*
%ADD10C,0.300*%
%ADD11R,1.600X1.800*%
%ADD12R,0.850X1.300*%
%ADD13R,1.800X1.600*%
%ADD14R,1.300X0.850*%
%ADD15R,1.450X0.550*%
%ADD16R,1.450X0.550*%
%ADD17R,2.150X0.600*%
%ADD18R,2.150X0.600*%
%ADD19R,1.500X1.300*%
%ADD20O,1.800X0.350*%
%ADD21O,1.800X0.350*%
%ADD22R,2.500X0.500*%
%ADD23R,2.500X2.000*%
%ADD24R,0.300X1.600*%
%ADD25R,1.650X0.300*%
%ADD26R,2.700X2.500*%
%ADD27R,2.200X0.550*%
%ADD28R,2.200X0.550*%
%ADD29R,1.300X1.500*%
%ADD30R,2.200X0.600*%
%ADD31R,2.200X0.600*%
%ADD32R,1.550X0.600*%
%ADD33R,1.550X0.600*%
%ADD34R,1.700X0.600*%
%ADD35R,1.700X0.600*%
%ADD36C,0.250*%
%ADD37C,0.063*%
%ADD38R,0.600X1.700*%
%ADD39R,0.600X2.150*%
%ADD40R,0.600X2.150*%
%ADD41C,0.500*%
%ADD42C,1.000*%
%ADD43C,0.400*%
%ADD44C,0.600*%
%ADD45C,0.800*%
%ADD46C,0.100*%
%ADD47C,3.500*%
%ADD48C,2.500*%
%ADD49C,1.200*%
%ADD50R,1.400X1.400*%
%ADD51C,1.400*%
%ADD52C,1.500*%
%ADD53R,1.500X1.500*%
%ADD54O,1.500X2.000*%
%ADD55R,1.500X2.000*%
%ADD56C,5.000*%
%ADD57C,1.800*%
%ADD58R,1.800X1.800*%
%ADD59C,2.000*%
%ADD60C,1.500*%
%ADD61C,1.300*%
%ADD62C,1.270*%
%ADD63C,1.100*%
%ADD64R,0.950X0.900*%
%ADD65C,0.700*%
%ADD66R,1.803X2.003*%
%ADD67R,1.053X1.503*%
%ADD68R,2.003X1.803*%
%ADD69R,1.503X1.053*%
%ADD70R,1.653X0.753*%
%ADD71R,1.653X0.753*%
%ADD72R,2.353X0.803*%
%ADD73R,2.353X0.803*%
%ADD74R,1.703X1.503*%
%ADD75O,2.003X0.553*%
%ADD76O,2.003X0.553*%
%ADD77R,2.703X0.703*%
%ADD78R,2.703X2.203*%
%ADD79R,0.503X1.803*%
%ADD80R,1.853X0.503*%
%ADD81R,2.903X2.703*%
%ADD82R,2.403X0.753*%
%ADD83R,2.403X0.753*%
%ADD84R,1.503X1.703*%
%ADD85R,2.403X0.803*%
%ADD86R,2.403X0.803*%
%ADD87R,1.753X0.803*%
%ADD88R,1.753X0.803*%
%ADD89R,1.903X0.803*%
%ADD90R,1.903X0.803*%
%ADD91R,0.803X1.903*%
%ADD92R,0.803X2.353*%
%ADD93R,0.803X2.353*%
%ADD94C,3.703*%
%ADD95C,2.703*%
%ADD96C,1.403*%
%ADD97R,1.603X1.603*%
%ADD98C,1.603*%
%ADD99C,1.703*%
%ADD100R,1.703X1.703*%
%ADD101O,1.703X2.203*%
%ADD102R,1.703X2.203*%
%ADD103C,5.203*%
%ADD104C,2.003*%
%ADD105R,2.003X2.003*%
%ADD106C,2.203*%
%ADD107C,1.703*%
%ADD108C,1.503*%
%ADD109C,1.473*%
%ADD110C,1.303*%
%ADD111R,1.153X1.103*%
%ADD112C,0.254*%
%ADD113C,0.200*%
D36*
X40000Y96045D02*
G03*
X40000Y94045I0J-1000D01*
G01*
X51500Y60805D02*
G03*
X51500Y62805I0J1000D01*
G01*
X57000D02*
G03*
X57000Y60805I0J-1000D01*
G01*
X51500Y94045D02*
G03*
X51500Y96045I0J1000D01*
G01*
X57000Y96045D02*
G03*
X57000Y94045I0J-1000D01*
G01*
X34500Y94045D02*
G03*
X34500Y96045I0J1000D01*
G01*
X40000Y62820D02*
G03*
X40000Y60820I0J-1000D01*
G01*
X16175Y121251D02*
G03*
X16175Y121251I0J0D01*
G01*
G03*
X16175Y121251I0J0D01*
G01*
G03*
X16175Y121251I0J0D01*
G01*
G03*
X16175Y121251I0J0D01*
G01*
G03*
X16175Y121251I0J0D01*
G01*
G03*
X16175Y121251I0J0D01*
G01*
G03*
X16175Y121251I0J0D01*
G01*
G03*
X16175Y121251I0J0D01*
G01*
X88991Y107247D02*
G03*
X90910Y107252I959J53D01*
G01*
X90909Y101203D02*
G03*
X88991Y101198I-959J-53D01*
G01*
X90909Y4753D02*
G03*
X88991Y4748I-959J-53D01*
G01*
X88991Y10797D02*
G03*
X90909Y10802I959J53D01*
G01*
X34500Y60820D02*
G03*
X34500Y62820I0J1000D01*
G01*
X11800Y121250D02*
G03*
X11800Y121250I0J0D01*
G01*
G03*
X11800Y121250I0J0D01*
G01*
G03*
X11800Y121250I0J0D01*
G01*
G03*
X11800Y121250I0J0D01*
G01*
G03*
X11800Y121250I0J0D01*
G01*
G03*
X11800Y121250I0J0D01*
G01*
G03*
X11800Y121250I0J0D01*
G01*
G03*
X11800Y121250I0J0D01*
G01*
X88915Y107298D02*
G03*
X90834Y107303I959J53D01*
G01*
X90833Y101254D02*
G03*
X88915Y101249I-959J-53D01*
G01*
X90883Y4804D02*
G03*
X88965Y4799I-959J-53D01*
G01*
X88965Y10848D02*
G03*
X90883Y10853I959J53D01*
G01*
X12674Y121301D02*
G03*
X12674Y121301I0J0D01*
G01*
G03*
X12674Y121301I0J0D01*
G01*
G03*
X12674Y121301I0J0D01*
G01*
G03*
X12674Y121301I0J0D01*
G01*
G03*
X12674Y121301I0J0D01*
G01*
G03*
X12674Y121301I0J0D01*
G01*
G03*
X12674Y121301I0J0D01*
G01*
G03*
X12674Y121301I0J0D01*
G01*
X12300Y93971D02*
X12353Y94024D01*
X12300Y81671D02*
Y93971D01*
Y81671D02*
X13253Y80717D01*
Y69120D02*
Y80717D01*
X12300Y68167D02*
X13253Y69120D01*
X12300Y62800D02*
Y68167D01*
X57000Y94050D02*
X76491D01*
X57000Y96050D02*
X78849D01*
X50516Y62800D02*
X51500D01*
X40000Y60800D02*
X51500D01*
X40000Y62800D02*
X40960D01*
X50500Y62816D02*
Y94050D01*
X40960Y62816D02*
Y94050D01*
X78800Y60800D02*
X78850Y60850D01*
X10300D02*
X10350Y60800D01*
X2250Y8900D02*
X33750D01*
X2250Y8900D02*
Y48000D01*
X33750Y8900D02*
Y48000D01*
X18000D02*
X33750D01*
X2250D02*
X18050D01*
X0Y0D02*
X89000D01*
X0Y0D02*
Y112400D01*
X0Y112400D02*
X89000D01*
X10300Y60800D02*
Y95550D01*
X78850Y60800D02*
Y96050D01*
X10300Y95400D02*
Y96050D01*
X12300Y62900D02*
Y64150D01*
X57000Y62800D02*
X76500D01*
X57000Y60815D02*
X78864D01*
X10256D02*
X34500D01*
X12300Y62800D02*
X34500D01*
X12350Y94050D02*
X34500D01*
X10350Y96050D02*
X34500D01*
X40000Y94050D02*
X41000D01*
X40000Y96050D02*
X51500D01*
X40300Y96050D02*
X40300Y96050D01*
X89022Y107028D02*
Y112378D01*
X89000Y10700D02*
Y101500D01*
Y0D02*
Y4950D01*
X76500Y62800D02*
Y94000D01*
X41961Y96050D02*
X41961Y96050D01*
X90824Y1D02*
X179824D01*
X90824Y112451D02*
X179824D01*
X90824Y1D02*
Y5001D01*
Y10601D02*
Y101301D01*
X90824Y107300D02*
Y112451D01*
X179824Y4701D02*
Y112351D01*
Y10701D02*
Y101501D01*
Y1D02*
Y5001D01*
D112*
X50500Y94050D02*
X51500D01*
D113*
X40810Y62800D02*
X40860Y62850D01*
M02*
