METRIC,LZ
M48
T1F00S00C0.600
T2F00S00C0.700
T3F00S00C0.850
T4F00S00C0.950
T5F00S00C1.000
T6F00S00C1.200
T7F00S00C1.300
T8F00S00C1.500
T9F00S00C1.800
T10F00S00C2.000
T11F00S00C2.500
T12F00S00C3.000
T13F00S00C3.500
T14F00S00C1.500
%
T01
X0101522Y0002151
X0106077
X0103622Y0004651
X0111178Y0002901
X0116579Y0002151
X0130324Y0005251
X0145321Y000195
X0150688Y0003901
X0152488Y0004601
X0158021Y0004651
X015749Y0006452
X0160321Y0007202
X016034Y0002151
X0169421
X0171893Y0004651
X0169393Y0007152
X0174394Y0002151
X0176895Y0004651
X0197196Y0004701
X0202193Y0004701
X0205646Y0004301
X0207096Y0006501
X0208696Y0005001
X0249693Y0007201
X0254693Y0012201
X0249746Y0019701
X0249693Y0024701
X0241193Y0023151
X0240896Y0013401
X0233846Y0010401
X0242193Y0037201
X0251396Y0039701
X0229693Y0035801
X0222196Y0034701
X0220546Y0031551
X0208946Y0030001
X0206946Y0033601
X0208646Y0036051
X0205646Y0037501
X0204393Y0031151
X0204893Y0028451
X0199893Y0028551
X0199846Y0026201
X0201743Y0019201
X0204793Y0017801
X0212193Y0014751
X0212196Y0009701
X0217196
X0224193Y0008251
X0228693Y0008751
X0227346Y0010501
X0229946Y0011601
X0231546Y0016801
X0233496Y0016801
X0218193Y0019251
X0199693Y0009701
X0198296Y0040401
X0186996Y0047451
X0177495Y0039001
X0177521Y0028907
X0176895Y0014654
X0176921Y0009652
X0171893
X0166892
X0168743Y0013701
X0171893Y0016754
X0156713Y0017501
Y0020695
Y0023901
Y0027008
Y0014205
X015699Y0012003
X0164165Y0033259
X0164418Y0036595
X0164424Y0039901
X0164418Y0043195
X0166442Y0043461
X0164324Y0046551
X0153563Y004651
Y0043201
Y0039901
Y0036601
Y0033308
X0149388Y0030058
X0148174Y0028451
X0149638Y0026901
X0149938Y0023801
X0150088Y0020455
X0149988Y0017454
X0148174Y0017701
X0149388Y0013653
X0146587Y0012903
X0146421Y0009752
X014401Y0010604
X0139485Y0008752
X0134384Y0008552
X0132624Y0010701
X0133921Y0012053
X0137821Y0012453
X0135484Y0015701
X0134874Y0017701
X0135984Y0020332
X0135624Y0021851
X0137385Y0023606
X0138785Y0020501
X0139974Y0019201
X0139521Y0016354
X0141474Y0015901
X0142774Y0020751
X014471Y0022207
X0146637Y0022101
X014186Y0024607
X014176Y0026158
X014216Y0028408
X014256Y0029909
X014181Y0031309
X0140059Y003376
X0136608Y0032659
X0136558Y0030859
X0138209Y0028608
X014361Y0027608
X0147774Y0031551
X0144874Y0035001
X0145987Y0036601
X0144824Y0038201
X0142924Y0041601
X014381Y0046013
X0146021Y0046062
X0141774Y0046951
X0139074Y0044801
X0137359Y0038561
X0132633Y0036059
X0131407Y0032859
X0128332Y0033358
X0128532Y0034759
X0126706Y0040711
X0126756Y0042712
X0121955Y0046813
X0120204Y0046063
X0116953Y0043612
X0115929Y003981
X0116903Y003746
X0116029Y0036109
X0114829Y0032908
X0116879Y0029657
X011938Y0024656
X0124381
X0125632Y0020205
X0128921Y0019055
X0129733Y0020655
X0129321Y0016154
X0132633Y0015354
X0126582Y0009352
X0121121
X0115829Y0013603
X0117822Y0018755
X011873Y003816
X0114379Y003966
Y0044661
X0106877Y0042301
X0102222Y003831
X0099675Y003806
Y0032858
X0101876Y0031201
X0097174Y0027307
X0099325Y0023956
X0097875Y0021805
X0093424Y0021301
X0093223Y0013801
X0093173Y0008852
X0096824Y0011601
X0098775Y0014654
X0100825Y0008852
X0111178Y0007952
X0111278Y0010403
X0114129Y0013053
X0112828Y0018005
X0112728Y0020355
X0111228Y0022606
X0108322Y0021705
X0108522Y0017754
X0111128Y0016454
X0108677Y0026001
X0112928Y0029858
X0094548Y0038211
X0087Y003095
X008115Y003475
X0079125Y00399
X00843Y004355
X0102222Y0046962
X007305Y00404
X006835Y00429
X005315Y00458
X004685Y004085
X004175Y004265
X005345Y00344
X00019Y004725
X000225Y004895
X0004001Y0048462
X0005451Y0050463
X0002786Y0056414
X0008102Y0058665
X0008002Y0062966
X0018005Y0057965
X002045Y0055464
X0015504
X0023006Y0057965
X0025506Y00555
X0028007Y00579
X003055Y0055414
X0033008Y0057965
X003801
X004051Y00567
X0043011Y0057965
X0045511Y0056764
X0048062Y00579
X005045Y0056614
X0053013Y0057965
X0055514Y0056664
X0058015Y00579
X006045Y0056614
X0063016Y0057965
X006105Y0052
X0068017Y0052913
X0070518Y0050463
X00684Y00479
X0068717Y0065466
Y0070918
X0062816Y0072468
X0062216Y0084071
X0052863Y007827
X0072218Y007817
X004175Y0054
X0035509Y00554
X008072Y0055614
X008175Y005665
X008625Y0057765
X00872Y004895
X008057Y0048862
X0095475Y0048949
Y0050399
X0096875Y0048899
X0098826Y0048449
X0099375Y0051401
X0103077Y0051649
X0103627Y00532
X010344Y0055099
X0107402Y0056787
X0109402Y0059087
X0113252Y0057087
X0113778Y0051198
X0110302Y0050414
X0108051Y0047613
X0106551
X0103202Y0060637
X0102652Y0062137
X01025Y0064917
X0103502Y0065737
X0105601Y0064517
X0107501Y0063717
X0112002Y0063737
X0113653Y0063717
X0110552Y007347
X0105Y007322
Y0071919
X01048Y0070069
X0103
X01024Y0071219
X0101199Y0071719
X0101424Y0074101
X0102224Y0075151
X0101424Y0076201
X0102224Y0077301
Y0079101
X0100774Y0078801
X0098549Y0077321
X0096998Y007692
X0096348Y0078221
X0096498Y0079671
X0095048Y0080271
X0096874Y0084601
X010485Y0086101
X0105324Y0082601
X0108501Y0079871
X0114574Y0081151
X0098149Y007537
X0099099Y007442
X0099249Y0073019
X0099726Y0064053
X0095648Y0064517
X0097826Y0059601
X0083021Y0069768
Y00748
Y00799
Y00849
X0116074Y0086873
X0123574Y0083501
X0125874Y0079101
X0128674Y0079501
X0128624Y0078101
X0130624Y0079101
X0130774Y0080501
X0132424Y0080551
X0136624Y0078951
X0134974Y0076401
X0142524Y0075451
X0143974Y0073651
X014496Y0072619
X014306Y0072469
X0140885Y0071968
X014396Y0069369
X014496Y0068168
X0145961Y0067068
X0146861Y0066068
X0145937Y0063266
X0143974Y0064817
X014196Y0063667
X0140659Y0063167
X0142985Y0060826
X014191Y0058216
X014296Y0055765
X0141774Y005445
X0142924Y0052664
X0138309Y0053164
X0136108Y0052514
X0132257Y0051264
X0132424Y0057151
X0135774Y0057716
X0138359Y0059866
X0136124Y0066651
Y0068601
X0134074Y0068801
X0134124Y0066901
X0133974Y0064951
X0131883Y0067867
X0130583Y0068217
X0132007Y0069769
X0126732Y0069968
X0126982Y0068517
X0127982Y0072868
X0128082Y0074469
X0121021Y0074419
X011888Y0076801
X0115621Y0073719
X0114903Y0065167
X0116053Y0064467
X011903Y0062001
X0122581Y0059265
X0126732Y0059415
X0129324Y0058401
X0124674Y0054301
X0123002Y0050237
X0121652Y0050287
X0120302
X012048Y0052263
X0115779Y0051501
X0123274Y0048051
X0127856Y0049013
X0126756Y0050314
X0137874Y0048151
X0148212Y0052214
X0152412Y0051914
Y0054615
Y0057215
Y0059866
Y0062373
X0146824Y0076301
X0147761Y0078871
X0145724Y0078851
X0146887Y008027
X0148524Y0084001
X014376Y0085223
X0143124Y0078651
X0144074Y0077401
X0131374Y0087001
X0125206Y0064917
X0123874Y0065001
X0123155Y0066268
X0122224Y0067251
X0154924Y0067951
Y0065223
Y0070745
Y0073545
Y0076201
Y0078751
X0161321Y0076169
Y0070768
Y0065266
X0158364Y0062373
X0158414Y0059866
Y0057215
Y0054615
X0158464Y0051914
X0165092Y0053101
X0167792
X0166892Y0047612
X0165442Y0057815
X0177645Y0059665
Y0069601
X0169743Y0069568
X0167821Y0074469
X0171074Y007807
X0174624Y0078051
X0166192Y0082171
X0161891
X015954Y0083471
X0159974Y0086501
X0177645Y0049663
X0196496Y0051951
X0204196Y0050001
X0208846Y0061851
X0216496Y0060101
X0220596Y0061751
X0220546Y0063651
X0224295Y0064352
X0218744Y0074703
X0213746Y0074801
X0212946Y0069701
X0207546Y0076251
X0203146Y0072851
X0197746Y0069151
X0194238Y0069194
X0201296Y0064701
X0198646Y0079751
Y0081232
X0237296Y0078901
X0251095Y0075101
X0217296Y0088401
X0177545Y0091101
X0172424Y0091501
X0172343Y0093474
X0170874Y0092701
X0172994Y0096401
X0170693Y0099075
X0167892Y0098675
X0168342Y0102201
X0172894Y0103126
X0177545Y0103926
X0177821Y0109778
X0169743Y0110201
X0160721Y0110178
X015689Y0109678
X0160121Y0103676
X0159524Y0101501
X0159821Y0098025
X015989Y0093624
X0159724Y0090901
X0161891Y0089172
X0166221
X0169374Y0087601
X0175094Y0088001
X0165421Y0096574
X0152324Y0098901
X0145311Y0098576
Y0095825
X0145361Y0093308
X0145787Y0090701
X014431Y0091224
X0142724Y0090801
X014166Y0091824
X0140635Y0093001
X0140374Y0096551
X014346Y0097276
X0143774Y0100801
X014151Y0102227
X0142486Y0103776
X0143386Y0108001
X0144324Y0110551
X0146887Y0109628
X0151888
X0153113Y0105678
X0153089Y0092323
X0151712Y0091574
X0152062Y0089974
X0133284Y0092401
X0133308Y0096125
X0131583Y0095701
X0135308Y0094675
X0136458Y0095775
X0134108Y0100726
X0132674Y0101827
X0130607Y0101877
X0128524Y0100001
X0127874Y0098751
X0123574Y0098901
X0122674Y0099951
X0123574Y0096501
X0123924Y0095151
X0125024Y0094301
X0123954Y0093123
X0124424Y0089901
X0126655Y0089272
X0126755Y0090623
X0129174Y0091251
X0130124Y0090151
X0122304Y0091073
X0123205Y0088123
X0117002Y0093324
X0117802Y0094324
X0118653Y0095374
X0117802Y0096374
X0118374Y0098751
X0117774Y0099951
X0114824Y0102101
X0135658Y0102677
X0137085Y0103626
X0136724Y0105551
X0138359Y0102177
X0113453Y0102127
X0112001Y0102326
X0110651Y0102026
X0112374Y0098701
X0112774Y0097301
X0113152Y0095975
X0113074Y0090401
X0109724Y0092351
X0106924Y0096851
X0104022Y0096574
X010235Y0097076
X0100449Y0098076
X0099249Y0100101
X0098199Y0099101
X0097199Y0098151
X0096174Y0099175
X0094748Y0098826
X0093398Y0096975
X0092697Y0102727
X0102222Y0101326
X0101926Y0104676
X0106822
X0104376Y0107177
X0106877Y0109628
X0101876Y0109678
X0101376Y0092401
X0096874Y0090401
X0093898Y0090824
X0092624Y0090001
X0094574Y0087872
X008305Y0089923
X0083021Y00948
Y0105427
X0085472Y0107977
X0083021Y0110428
X008047Y0107977
X007802Y0110428
X0075519Y0099025
X0070518
X0066017Y00999
X0063166Y01023
X006035Y0104726
X0058293Y01079
X005825Y01103
X0060465Y01105
X0065216Y01104
X0067667Y01085
X0069968Y0110428
X0056214Y01028
X005355Y0104876
X005045Y01062
X004815Y010785
X0053914Y0090423
X003425Y010265
X003175Y010345
X0016904Y01043
X0011903Y0103226
X0009752Y0110578
X00216Y01105
X000315Y01011
X0001671Y0101471
X000275Y00956
X0005501Y0090473
X0008002Y00929
T02
X0105851Y0006703
X0211793Y0022851
X0221793Y0022851
X0221796Y0027801
X0211796Y0040401
X0205446
X0129257Y0045751
X0125055Y0029959
X0122905Y0027158
X0132607Y0028508
X0130557Y0017255
X0126806Y0018906
X010505Y0027508
X010335Y0029408
X0105651Y0030709
X01046Y003531
X01034Y003441
X0105801Y003641
X0093848Y003631
X0094948Y0029358
X0093648Y0027908
X01034Y0009153
X010505Y0007953
X0031097Y0066317
X0027557Y0068367
X0027607Y0071218
X0026657Y0073018
X0024456Y0070268
X0024356Y0068467
X0032908Y0071618
X0033358Y0076269
X0031258Y0075119
X0026997Y007877
X0027207Y0083621
X0028857Y0084971
X0017905Y0082371
X0017955Y007987
X0017905Y007812
X0015004Y0076269
X0035759Y0074119
X0035509Y0071618
X003811Y0071518
Y0076919
X003896Y007867
X0094448Y0081672
X0093798Y0083522
X0093348Y0085022
X0092647Y0086923
X0097148Y0069769
X0098549Y0069269
X0097248Y0067718
X0095648Y0068218
X0095298Y0066718
X0094398Y0065568
X0121205Y0068368
X0223746Y0056751
X0255993Y0079851
Y0083901
Y0087951
Y0092051
Y0096101
X0201546Y0092051
Y0090151
X0195846
X0195844Y0092051
X0027057Y0090223
X0019255Y0088122
X0015854Y0087322
T03
X0173936Y0012093
X0176436Y0012093
X0019185Y0051936
X0016685
X0123124Y0074198
Y0076698
X016423Y0085191
X017423
Y0094491
X017673Y0092691
Y0101991
X016173
Y0092691
X016423Y0094491
T04
X0120372Y0016451
X0122872
Y0018951
X0120372
Y0031451
X0122872
Y0033951
X0096872Y0031451
X0094372
Y0018951
X0096872
Y0016451
X0094372Y0016451
X00165Y00642
Y00667
X0014
Y00642
X0053169Y0072006
X0054689Y0074546
X0053169Y0082116
X0054689Y0084626
X0064419Y0081491
Y0078951
Y0076411
Y0073871
X0066969Y0075141
X0066969Y0077681
X0066969Y0080221
Y0082761
X0060833Y0100131
X0058293
X0055753
X0053213
X0050673
X0048133
X0045593
X0043053
X0040513
X0037973
X0035433
X0032893
X0030353
X0027813
X0025273
X0022733
X0020193
X0017653
X0015113
X0012573
X0014Y00927
X00165
Y00902
X0014
T05
X008995Y000675
X0120104Y0006861
X0136451Y0006451
Y0003911
X0138991Y0003911
X0141531
X0141531Y0006451
X0138991
X0144071
X0146611Y0006451
Y0003911
X0144071Y0003911
X01808Y0006702
X0226733Y0006501
X0229273
X0231813
Y0003961
X0229273
X0226733
X0234353
Y0006501
X0236893
Y0003961
X0244018Y0003944
X0246518
X0246257Y0022643
X0243757
X0241934Y0033575
X0239434Y0033575
X0234157Y0014043
X0231657Y0014043
X0227341Y0012913
X0224841
X0226734Y0029859
X0229234
X0230296Y0040651
X0225346
X0174864Y0041501
Y0038961
Y0036421
Y0033881
Y0031341
Y0028801
X0172324Y0028801
X0172324Y0031341
X0172324Y0033881
X0172324Y0036421
Y0038961
Y0041501
Y0044041
Y0046581
X0174864Y0046581
X0174864Y0044041
X01808Y0008801
X0120104Y0011861
X0120372Y0033951
X0107101Y0039919
X0107101Y0044919
X0096872Y0033951
X0094372
X008995Y000875
X0072809Y0050101
Y0055101
X0072269Y0064216
X0072269Y0066716
X003815Y00618
X003615
X0075069Y0064216
X0075069Y0066716
X0078809Y0055101
X0078809Y0050101
X0084321Y0049663
Y0052203
Y0054743
X0126125Y0076893
Y0081893
X0134324Y0080809
Y0085809
X0172324Y0069441
X0174864Y0069441
Y0066901
X0172324
Y0064361
Y0061821
X0174864Y0061821
X0174864Y0064361
Y0059281
X0172324
Y0056741
X0174864
X0174865Y0054201
X0172324Y0054201
X0172324Y0051661
X0174864Y0051661
X0174864Y0049121
X0172324
X0188081Y0056222
X0190581Y0056222
X0190573Y0061482
X0188073Y0061482
X0188606Y0077401
X0191146
X0191146Y0079941
Y0082481
Y0085021
X0188606
Y0082481
Y0079941
X0205146Y0052751
X0210146
X0236496Y0092201
X0231696
X0191146Y0087561
X0188606Y0087561
X01808Y0103201
Y0105201
X0134084Y0106251
Y0108791
X0131544
X0129004
Y0106251
X0131544Y0106251
X0126464
X0123924
X0121384Y0106251
X0121384Y0108791
X0123924
X0126464
X0118844
X0116304
Y0106251
X0118844
X0113764Y0106251
X0113764Y0108791
X0111224
Y0106251
X008995Y01052
Y01032
X0075069Y0092416
Y0090016
X0072269
Y0092416
X003815Y009505
X003615
X003559Y01063
Y010884
X003813
Y01063
X004067
Y010884
X004321
Y01063
X003305
X003051
X002797
X002543
X002289
X002035
Y010884
X002289
X002543
X002797
X003051
X003305
T06
X0035961Y00763
Y00807
T07
X0115847Y0026195
X0100847Y0026195
X007405Y00258
X006897Y00258
X006365Y00294
Y003448
X006897Y00383
X007397Y00383
X00636Y004375
X00511
X005115Y00344
Y00294
X004578Y00257
X00407Y00257
X00407Y00382
X00457
X00549Y0024
X00599
X005998Y00115
X00549Y00115
X00511Y004875
X00636Y004883
X018833Y0068064
Y0073064
X0185338Y0082407
X0206203Y0080514
X0222093Y007553
X0226602Y0077122
Y0092122
X0222093Y009331
X0211796Y0099801
X0206203Y0098294
X0203599Y0107004
X0198599
X0211796Y0107301
X0185338Y0087407
T08
X0245946Y0040501
X0186446Y0040051
Y0034971
Y0029891
X0240893Y0086201
X0245893
X0243393Y0090201
T09
X0061069Y0070416
Y0086216
T10
X019949Y001501
X0242096Y0062401
T11
X000495Y006265
X00839
X00824Y00986
X00065
T12
X022049Y001501
T13
X0006Y00047
X0074Y00047
X0096874Y0004651
X0164874
X0187196Y0004701
X0255196
X0058069Y0072616
Y0084016
X0255196Y0106701
X0187196Y0106701
X0164874Y0106651
X0096874
X0074Y01067
X0006
T14
X0240946Y0040551
M30
