%FSLAX43Y43*%
%MOMM*%
G71*
G01*
G75*
%ADD10C,0.300*%
%ADD11C,0.500*%
%ADD12C,0.600*%
%ADD13C,2.000*%
%ADD14C,5.000*%
%ADD15R,1.500X1.500*%
%ADD16C,1.500*%
%ADD17R,2.000X2.000*%
%ADD18C,3.500*%
%ADD19C,2.500*%
%ADD20C,1.200*%
%ADD21C,1.100*%
%ADD22R,2.800X3.200*%
%ADD23R,0.300X1.300*%
%ADD24R,1.600X0.800*%
%ADD25R,3.000X2.000*%
%ADD26R,1.000X0.800*%
%ADD27R,0.500X2.500*%
%ADD28R,2.000X2.500*%
%ADD29R,0.800X1.000*%
%ADD30O,0.350X1.800*%
%ADD31O,0.350X1.800*%
%ADD32R,0.600X2.200*%
%ADD33R,0.600X2.200*%
%ADD34R,0.600X2.150*%
%ADD35R,0.600X2.150*%
%ADD36R,1.800X1.600*%
%ADD37R,1.450X0.550*%
%ADD38R,1.450X0.550*%
%ADD39R,1.300X0.850*%
%ADD40C,0.400*%
%ADD41C,0.250*%
%ADD42C,0.200*%
%ADD43C,0.254*%
%ADD44C,0.100*%
%ADD45C,0.250*%
D22*
X27000Y61100D02*
D03*
X55500D02*
D03*
D23*
X53500Y57850D02*
D03*
X53000D02*
D03*
X52500D02*
D03*
X52000D02*
D03*
X51500D02*
D03*
X51000D02*
D03*
X50500D02*
D03*
X50000D02*
D03*
X49500D02*
D03*
X49000D02*
D03*
X48500D02*
D03*
X48000D02*
D03*
X47500D02*
D03*
X47000D02*
D03*
X46500D02*
D03*
X46000D02*
D03*
X45500D02*
D03*
X45000D02*
D03*
X44500D02*
D03*
X44000D02*
D03*
X43500D02*
D03*
X43000D02*
D03*
X42500D02*
D03*
X42000D02*
D03*
X41500D02*
D03*
X41000D02*
D03*
X40500D02*
D03*
X40000D02*
D03*
X39000D02*
D03*
X39500D02*
D03*
X38500D02*
D03*
X38000D02*
D03*
X37500D02*
D03*
X37000D02*
D03*
X36500D02*
D03*
X36000D02*
D03*
X35500D02*
D03*
X35000D02*
D03*
X34500D02*
D03*
X34000D02*
D03*
X33500D02*
D03*
X33000D02*
D03*
X32500D02*
D03*
X32000D02*
D03*
X31500D02*
D03*
X31000D02*
D03*
X30500D02*
D03*
X30000D02*
D03*
X29500D02*
D03*
X29000D02*
D03*
D24*
X75720Y42994D02*
D03*
X75720Y44095D02*
D03*
Y45194D02*
D03*
X75720Y46294D02*
D03*
X75720Y47395D02*
D03*
X75720Y48494D02*
D03*
X75720Y49595D02*
D03*
X75720Y50694D02*
D03*
D25*
X78350Y53300D02*
D03*
Y39300D02*
D03*
X70050Y53300D02*
D03*
Y39300D02*
D03*
D26*
X15850Y25950D02*
D03*
Y24550D02*
D03*
X18400Y24500D02*
D03*
Y25900D02*
D03*
X20850Y24500D02*
D03*
Y25900D02*
D03*
X18400Y30100D02*
D03*
Y28700D02*
D03*
X29350Y37350D02*
D03*
Y35950D02*
D03*
X31550Y37350D02*
D03*
Y35950D02*
D03*
X33225Y89900D02*
D03*
Y88500D02*
D03*
X35775Y89850D02*
D03*
Y88450D02*
D03*
X76425Y59475D02*
D03*
Y58075D02*
D03*
X69325D02*
D03*
Y59475D02*
D03*
X15850Y28700D02*
D03*
Y30100D02*
D03*
X61250Y47600D02*
D03*
Y46200D02*
D03*
X59200Y47600D02*
D03*
Y46200D02*
D03*
D27*
X20275Y87320D02*
D03*
X21075D02*
D03*
X21875D02*
D03*
X22675D02*
D03*
X23475Y87300D02*
D03*
D28*
X17425Y87320D02*
D03*
Y92592D02*
D03*
X26325Y87320D02*
D03*
Y92592D02*
D03*
D29*
X12675Y92050D02*
D03*
X11275D02*
D03*
X12675Y89750D02*
D03*
X11275D02*
D03*
X21475Y84000D02*
D03*
X22875D02*
D03*
X12675Y87350D02*
D03*
X11275D02*
D03*
X18225Y83950D02*
D03*
X19625D02*
D03*
X26075Y84000D02*
D03*
X24675D02*
D03*
D30*
X8106Y83304D02*
D03*
X8756D02*
D03*
X9406D02*
D03*
X10706D02*
D03*
X11356D02*
D03*
X12006D02*
D03*
X12656D02*
D03*
X13306D02*
D03*
X13956D02*
D03*
X14606D02*
D03*
X15256D02*
D03*
X15906D02*
D03*
X16556D02*
D03*
X8106Y76504D02*
D03*
X8756D02*
D03*
X9406D02*
D03*
X10056D02*
D03*
X10706D02*
D03*
X11356D02*
D03*
X12006D02*
D03*
X13306D02*
D03*
X14606D02*
D03*
X15906D02*
D03*
D31*
X10056Y83304D02*
D03*
X12656Y76504D02*
D03*
X13956D02*
D03*
X15256D02*
D03*
X16556D02*
D03*
D32*
X33843Y82111D02*
D03*
X35113Y82111D02*
D03*
X36383Y82111D02*
D03*
X33843Y76911D02*
D03*
X35113D02*
D03*
X36383Y76911D02*
D03*
D33*
X32573Y76911D02*
D03*
Y82111D02*
D03*
D34*
X22050Y79975D02*
D03*
X23320D02*
D03*
X24590D02*
D03*
X25860D02*
D03*
X27130D02*
D03*
X22050Y70725D02*
D03*
X23320D02*
D03*
X24590D02*
D03*
X25860D02*
D03*
X27130D02*
D03*
X29670D02*
D03*
X20780Y79975D02*
D03*
Y70725D02*
D03*
X28400Y79975D02*
D03*
D35*
X29670Y79975D02*
D03*
X28400Y70725D02*
D03*
D36*
X79562Y70955D02*
D03*
X79562Y68155D02*
D03*
D37*
X71650Y59375D02*
D03*
Y57475D02*
D03*
X73800D02*
D03*
Y58425D02*
D03*
D38*
X73800Y59375D02*
D03*
D39*
X66977Y59473D02*
D03*
X66977Y57573D02*
D03*
X64777Y58523D02*
D03*
M02*
