METRIC,LZ
M48
T1F00S00C0.600
T2F00S00C1.000
T3F00S00C1.200
T4F00S00C1.800
T5F00S00C2.500
T6F00S00C3.500
%
T01
X0069925Y003085
X0063725Y00414
X006225Y0042475
X0045775Y00387
X00397Y0039975
X0037775Y0042625
X0031575Y004
X003625Y0027025
X003795Y002525
X00307Y0017925
X002285Y0021475
Y0024425
X002445Y0025125
X0024325Y0028725
X00199Y003005
Y003265
X002935Y0038775
X0011675Y001995
X001125Y00512
X0011275Y0053475
X0010175Y0056625
X0003875Y0051925
X002925Y0054975
X002935Y0073875
X0025875Y00726
X002355Y0072975
X002105Y00729
X00177Y0079375
X0014825Y0080125
X001255Y007885
X0008625Y0079275
X002395Y0082075
X0025875Y0078
X00309Y0070275
X003065Y00685
X0036275Y007315
X003765Y00505
X00375Y0049025
X0035425Y0046225
X003395Y00449
X0036475Y00439
X00305Y0047625
X005345Y0051325
X0054075Y0052925
X005725Y00476
X0056Y00462
X00639Y0043725
X006755Y0049475
X006655Y0050675
X00626Y005845
X006935Y0060775
X0073875Y006065
X0075975Y0063025
X0074825Y0054975
X0073575Y0048475
X0071525Y0046294
X00695Y00475
X0069475Y0045
X0079525Y00734
X0079475Y008785
X0076775Y0087
X00748Y0088275
X00768Y0092025
X0035775Y009155
X0031325Y0092475
X0032525Y008465
X0035025
X003025Y0082847
X002935Y0087447
X0022225Y009205
X00208Y009115
X0013975Y00921
X0014275Y0089875
X001475Y0086947
T02
X0071259Y0006851
Y0011851
X0077259
Y0006851
X0070295Y0020637
Y0023137
X0067745
Y0020637
X0044245
Y0023137
X0041695
Y0020637
X0030676Y00214
Y002394
Y002648
Y002902
Y003156
X0028136
Y002902
Y002648
Y002394
X0028136Y00214
X0011802Y0024833
X0011802Y0027373
X0011802Y0029913
Y0032453
X0009252Y0031183
Y0028643
Y0026103
Y0023563
X-0000478Y0024238
X-0001998Y0021698
Y0031808
X-0000478Y0034318
X000019Y005894
X-000235
Y006148
Y006402
Y006656
X000019
Y00691
X-000235
X000019Y006402
Y006148
X00077Y0068225
Y0070725
X00102Y0070725
Y0068225
X0005325Y00806
X00386Y0081175
Y0079175
X0041032Y0080366
X004352Y0080362
X0052175Y008115
X0054715Y008115
X0057255
X0059795Y008115
X0067062Y0080305
X006166Y00699
X005912Y007142
X005155Y00699
X004904Y007142
X00362Y0070725
Y0068225
X00337Y0068225
Y0070725
X0069462Y0080305
X0071875Y0080925
Y0078925
X007935Y006348
Y006094
Y00584
X0069462Y0082809
X0067037Y0082805
X0058525Y00837
X0055985
X0053445Y00837
X0050905Y00837
X0043512Y0082805
X0041037Y0082855
X002451Y01016
Y010414
X002197
Y01016
X001943
X001943Y010414
X001689
Y01016
X001435
Y010414
X0005325Y00826
T03
X0019675Y00899
X0024075
T04
X0005902Y0020108
X0005902Y0035908
X004745Y00778
X006325
T05
X0008Y-00007
X006
X0076
X-0002Y0008
X0076Y01037
X006
X0008
X-0002Y0094
T06
X0Y0
X0068
X0002902Y0022308
X0002902Y0033708
X004965Y00748
X006105
X0068Y0102
X0Y0102
M30
