%FSLAX43Y43*%
%MOMM*%
G71*
G01*
G75*
%ADD10C,0.300*%
%ADD11C,0.500*%
%ADD12C,0.600*%
%ADD13C,2.000*%
%ADD14C,5.000*%
%ADD15R,1.500X1.500*%
%ADD16C,1.500*%
%ADD17R,2.000X2.000*%
%ADD18C,3.500*%
%ADD19C,2.500*%
%ADD20C,1.200*%
%ADD21C,1.100*%
%ADD22R,2.800X3.200*%
%ADD23R,0.300X1.300*%
%ADD24R,1.600X0.800*%
%ADD25R,3.000X2.000*%
%ADD26R,1.000X0.800*%
%ADD27R,0.500X2.500*%
%ADD28R,2.000X2.500*%
%ADD29R,0.800X1.000*%
%ADD30O,0.350X1.800*%
%ADD31O,0.350X1.800*%
%ADD32R,0.600X2.200*%
%ADD33R,0.600X2.200*%
%ADD34R,0.600X2.150*%
%ADD35R,0.600X2.150*%
%ADD36R,1.800X1.600*%
%ADD37R,1.450X0.550*%
%ADD38R,1.450X0.550*%
%ADD39R,1.300X0.850*%
%ADD40C,0.400*%
%ADD41C,0.250*%
%ADD42C,0.200*%
%ADD43C,0.254*%
%ADD44C,0.100*%
%ADD45C,0.250*%
%ADD46C,2.203*%
%ADD47C,5.203*%
%ADD48R,1.703X1.703*%
%ADD49C,1.703*%
%ADD50R,2.203X2.203*%
%ADD51C,3.703*%
%ADD52C,2.703*%
%ADD53C,1.403*%
%ADD54C,1.303*%
D46*
X-2000Y8000D02*
D03*
X8000Y103700D02*
D03*
X60000D02*
D03*
X76000D02*
D03*
Y-700D02*
D03*
X60000D02*
D03*
X8000D02*
D03*
X71259Y6851D02*
D03*
X-2000Y94000D02*
D03*
X77259Y11851D02*
D03*
X71259D02*
D03*
D47*
X0Y102000D02*
D03*
Y0D02*
D03*
X68000D02*
D03*
X68000Y102000D02*
D03*
D48*
X69462Y80305D02*
D03*
X67062D02*
D03*
X69462Y82809D02*
D03*
X67037Y82805D02*
D03*
X41032Y80366D02*
D03*
X43520Y80362D02*
D03*
X43512Y82805D02*
D03*
X41037Y82855D02*
D03*
X14350Y101600D02*
D03*
X30676Y21400D02*
D03*
X-2350Y69100D02*
D03*
X79350Y58400D02*
D03*
X9252Y23563D02*
D03*
X44245Y23137D02*
D03*
Y20637D02*
D03*
X41695D02*
D03*
Y23137D02*
D03*
X70295D02*
D03*
Y20637D02*
D03*
X67745Y23137D02*
D03*
Y20637D02*
D03*
X59795Y81150D02*
D03*
X7700Y68225D02*
D03*
Y70725D02*
D03*
X10200Y70725D02*
D03*
Y68225D02*
D03*
X33700Y70725D02*
D03*
Y68225D02*
D03*
X36200Y70725D02*
D03*
Y68225D02*
D03*
D49*
X24510Y104140D02*
D03*
Y101600D02*
D03*
X21970Y104140D02*
D03*
Y101600D02*
D03*
X19430Y104140D02*
D03*
X19430Y101600D02*
D03*
X16890Y104140D02*
D03*
Y101600D02*
D03*
X14350Y104140D02*
D03*
X28136Y31560D02*
D03*
X30676D02*
D03*
X28136Y29020D02*
D03*
X30676D02*
D03*
X28136Y26480D02*
D03*
X30676D02*
D03*
X28136Y23940D02*
D03*
X30676D02*
D03*
X28136Y21400D02*
D03*
X-2350Y58940D02*
D03*
X190Y61480D02*
D03*
X-2350D02*
D03*
X190Y66560D02*
D03*
X-2350D02*
D03*
X190Y69100D02*
D03*
Y58940D02*
D03*
Y64020D02*
D03*
X-2350Y64020D02*
D03*
X79350Y60940D02*
D03*
Y63480D02*
D03*
X9252Y31183D02*
D03*
X11802Y24833D02*
D03*
X9252Y26103D02*
D03*
X11802Y27373D02*
D03*
X9252Y28643D02*
D03*
X11802Y29913D02*
D03*
Y32453D02*
D03*
X-1998Y21698D02*
D03*
X-478Y24238D02*
D03*
X-1998Y31808D02*
D03*
X-478Y34318D02*
D03*
X58525Y83700D02*
D03*
X57255Y81150D02*
D03*
X55985Y83700D02*
D03*
X54715Y81150D02*
D03*
X53445Y83700D02*
D03*
X52175Y81150D02*
D03*
X50905Y83700D02*
D03*
X61660Y69900D02*
D03*
X59120Y71420D02*
D03*
X51550Y69900D02*
D03*
X49040Y71420D02*
D03*
X49650Y74800D02*
D03*
X61050D02*
D03*
X5325Y82600D02*
D03*
Y80600D02*
D03*
X71875Y80925D02*
D03*
Y78925D02*
D03*
X38600Y81175D02*
D03*
Y79175D02*
D03*
D50*
X77259Y6851D02*
D03*
D51*
X2902Y22308D02*
D03*
X2902Y33708D02*
D03*
D52*
X5902Y35908D02*
D03*
X5902Y20108D02*
D03*
X47450Y77800D02*
D03*
X63250D02*
D03*
D53*
X24075Y89900D02*
D03*
X19675D02*
D03*
D54*
X23950Y82075D02*
D03*
X14750Y86947D02*
D03*
X14825Y80125D02*
D03*
X30250Y82847D02*
D03*
X31325Y92475D02*
D03*
X29350Y87447D02*
D03*
X37500Y49025D02*
D03*
X67550Y49475D02*
D03*
X29250Y54975D02*
D03*
X54075Y52925D02*
D03*
X53450Y51325D02*
D03*
X45775Y38700D02*
D03*
X29350Y38775D02*
D03*
X39700Y39975D02*
D03*
X37950Y25250D02*
D03*
X24325Y28725D02*
D03*
X24450Y25125D02*
D03*
X36250Y27025D02*
D03*
X22850Y21475D02*
D03*
Y24425D02*
D03*
X19900Y30050D02*
D03*
Y32650D02*
D03*
X11675Y19950D02*
D03*
X30700Y17925D02*
D03*
X69925Y30850D02*
D03*
X13975Y92100D02*
D03*
X22225Y92050D02*
D03*
X20800Y91150D02*
D03*
X14275Y89875D02*
D03*
X57250Y47600D02*
D03*
X56000Y46200D02*
D03*
X35425Y46225D02*
D03*
X30500Y47625D02*
D03*
X74825Y54975D02*
D03*
X73575Y48475D02*
D03*
X69500Y47500D02*
D03*
X69475Y45000D02*
D03*
X71525Y46294D02*
D03*
X79525Y73400D02*
D03*
X62600Y58450D02*
D03*
X73875Y60650D02*
D03*
X69350Y60775D02*
D03*
X63900Y43725D02*
D03*
X33950Y44900D02*
D03*
X36475Y43900D02*
D03*
X62250Y42475D02*
D03*
X63725Y41400D02*
D03*
X37775Y42625D02*
D03*
X37650Y50500D02*
D03*
X66550Y50675D02*
D03*
X31575Y40000D02*
D03*
X30650Y68500D02*
D03*
X35025Y84650D02*
D03*
X32525D02*
D03*
X35775Y91550D02*
D03*
X23550Y72975D02*
D03*
X36275Y73150D02*
D03*
X21050Y72900D02*
D03*
X29350Y73875D02*
D03*
X30900Y70275D02*
D03*
X12550Y78850D02*
D03*
X25875Y78000D02*
D03*
X17700Y79375D02*
D03*
X25875Y72600D02*
D03*
X75975Y63025D02*
D03*
X3875Y51925D02*
D03*
X11250Y51200D02*
D03*
X11275Y53475D02*
D03*
X10175Y56625D02*
D03*
X76800Y92025D02*
D03*
X76775Y87000D02*
D03*
X74800Y88275D02*
D03*
X79475Y87850D02*
D03*
X8625Y79275D02*
D03*
M02*
