%FSLAX43Y43*%
%MOMM*%
G71*
G01*
G75*
%ADD10C,0.300*%
%ADD11C,0.500*%
%ADD12C,0.600*%
%ADD13C,2.000*%
%ADD14C,5.000*%
%ADD15R,1.500X1.500*%
%ADD16C,1.500*%
%ADD17R,2.000X2.000*%
%ADD18C,3.500*%
%ADD19C,2.500*%
%ADD20C,1.200*%
%ADD21C,1.100*%
%ADD22R,2.800X3.200*%
%ADD23R,0.300X1.300*%
%ADD24R,1.600X0.800*%
%ADD25R,3.000X2.000*%
%ADD26R,1.000X0.800*%
%ADD27R,0.500X2.500*%
%ADD28R,2.000X2.500*%
%ADD29R,0.800X1.000*%
%ADD30O,0.350X1.800*%
%ADD31O,0.350X1.800*%
%ADD32R,0.600X2.200*%
%ADD33R,0.600X2.200*%
%ADD34R,0.600X2.150*%
%ADD35R,0.600X2.150*%
%ADD36R,1.800X1.600*%
%ADD37R,1.450X0.550*%
%ADD38R,1.450X0.550*%
%ADD39R,1.300X0.850*%
%ADD40C,0.400*%
%ADD41C,0.250*%
%ADD42C,0.200*%
%ADD43C,0.254*%
%ADD44C,0.100*%
D42*
X68062Y81705D02*
X70862D01*
X70862Y78905D02*
Y81705D01*
X68062Y78905D02*
X70862D01*
X68062Y78905D02*
Y81705D01*
X65662D02*
X68462D01*
X68462Y78905D02*
Y81705D01*
X65662Y78905D02*
X68462D01*
X65662Y78905D02*
Y81705D01*
X68062Y84209D02*
X70862D01*
X70862Y81409D02*
Y84209D01*
X68062Y81409D02*
X70862D01*
X68062Y81409D02*
Y84209D01*
X65637Y84205D02*
X68437Y84205D01*
X68437Y81405D02*
Y84205D01*
X65637Y81405D02*
X68437D01*
X65637Y81405D02*
X65637Y84205D01*
X39632Y81766D02*
X42432Y81766D01*
X42432Y78966D02*
Y81766D01*
X39632Y78966D02*
X42432D01*
X39632D02*
X39632Y81766D01*
X42120Y81762D02*
X42120Y78962D01*
Y81762D02*
X44920D01*
Y78962D02*
Y81762D01*
X42120Y78962D02*
X44920Y78962D01*
X42112Y84205D02*
X44912D01*
X44912Y81405D02*
Y84205D01*
X42112Y81405D02*
X44912D01*
X42112Y81405D02*
Y84205D01*
X39637Y84255D02*
X42437D01*
X42437Y81455D02*
Y84255D01*
X39637Y81455D02*
X42437D01*
X39637Y81455D02*
Y84255D01*
X13080Y100330D02*
X25780D01*
X13080Y105410D02*
X25780D01*
X13080Y100330D02*
Y105410D01*
X25780Y100330D02*
Y105410D01*
X31946Y20130D02*
Y32830D01*
X26866Y20130D02*
Y32830D01*
Y20130D02*
X31946D01*
X26866Y32830D02*
X31946D01*
X-3620Y57670D02*
Y70370D01*
X1460Y57670D02*
Y70370D01*
X-3620D02*
X1460D01*
X-3620Y57670D02*
X1460D01*
X42845Y21737D02*
X45645D01*
X45645Y21737D02*
Y24537D01*
X42845D02*
X45645D01*
X42845Y21737D02*
Y24537D01*
Y19237D02*
X45645D01*
X45645Y19237D02*
Y22037D01*
X42845D02*
X45645D01*
X42845Y19237D02*
Y22037D01*
X40295Y19237D02*
X43095D01*
X43095Y19237D02*
Y22037D01*
X40295D02*
X43095D01*
X40295Y19237D02*
Y22037D01*
Y21737D02*
X43095D01*
X43095Y21737D02*
Y24537D01*
X40295D02*
X43095D01*
X40295Y21737D02*
Y24537D01*
X68895Y21737D02*
X71695D01*
X71695Y21737D02*
Y24537D01*
X68895D02*
X71695D01*
X68895Y21737D02*
Y24537D01*
Y19237D02*
X71695D01*
X71695Y19237D02*
Y22037D01*
X68895D02*
X71695D01*
X68895Y19237D02*
Y22037D01*
X66345Y21737D02*
X69145D01*
X69145Y21737D02*
Y24537D01*
X66345D02*
X69145D01*
X66345Y21737D02*
Y24537D01*
Y19237D02*
X69145D01*
X69145Y19237D02*
Y22037D01*
X66345D02*
X69145D01*
X66345Y19237D02*
Y22037D01*
D43*
X77259Y6351D02*
X77259Y12351D01*
X71259Y12351D02*
X77259Y12351D01*
X71259Y6351D02*
Y12351D01*
Y6351D02*
X77259D01*
D44*
X26925Y104150D02*
X26725D01*
X26825D01*
Y103650D01*
X26725Y103550D01*
X26625D01*
X26525Y103650D01*
X27125Y103550D02*
Y104150D01*
X27425D01*
X27525Y104050D01*
Y103850D01*
X27425Y103750D01*
X27125D01*
X28124Y104150D02*
X27725D01*
Y103850D01*
X27925Y103950D01*
X28025D01*
X28124Y103850D01*
Y103650D01*
X28025Y103550D01*
X27825D01*
X27725Y103650D01*
X12318Y101092D02*
X12518D01*
X12418D01*
Y101692D01*
X12318Y101592D01*
X24400Y26975D02*
X24200D01*
X24300D01*
Y26475D01*
X24200Y26375D01*
X24100D01*
X24000Y26475D01*
X24600Y26375D02*
Y26975D01*
X24900D01*
X25000Y26875D01*
Y26675D01*
X24900Y26575D01*
X24600D01*
X25200Y26375D02*
X25400D01*
X25300D01*
Y26975D01*
X25200Y26875D01*
X31184Y19368D02*
Y19568D01*
Y19468D01*
X30584D01*
X30684Y19368D01*
X2725Y63450D02*
X2525D01*
X2625D01*
Y62950D01*
X2525Y62850D01*
X2425D01*
X2325Y62950D01*
X2925Y62850D02*
Y63450D01*
X3225D01*
X3325Y63350D01*
Y63150D01*
X3225Y63050D01*
X2925D01*
X3924Y62850D02*
X3525D01*
X3924Y63250D01*
Y63350D01*
X3825Y63450D01*
X3625D01*
X3525Y63350D01*
X-2858Y71132D02*
Y70932D01*
Y71032D01*
X-2258D01*
X-2358Y71132D01*
X68125Y9700D02*
X68025Y9800D01*
X67825D01*
X67725Y9700D01*
Y9600D01*
X67825Y9500D01*
X68025D01*
X68125Y9400D01*
Y9300D01*
X68025Y9200D01*
X67825D01*
X67725Y9300D01*
X68725Y9800D02*
X68525Y9700D01*
X68325Y9500D01*
Y9300D01*
X68425Y9200D01*
X68625D01*
X68725Y9300D01*
Y9400D01*
X68625Y9500D01*
X68325D01*
M02*
