%FSLAX43Y43*%
%MOMM*%
G71*
G01*
G75*
G04 Layer_Physical_Order=1*
%ADD10C,0.300*%
%ADD11C,0.500*%
%ADD12C,0.600*%
%ADD13C,2.000*%
%ADD14C,5.000*%
%ADD15R,1.500X1.500*%
%ADD16C,1.500*%
%ADD17R,2.000X2.000*%
%ADD18C,3.500*%
%ADD19C,2.500*%
%ADD20C,1.200*%
%ADD21C,1.100*%
D10*
X36725Y91550D02*
G03*
X35872Y90605I-950J0D01*
G01*
X21747Y91229D02*
G03*
X23175Y92050I478J821D01*
G01*
G03*
X21450Y92600I-950J0D01*
G01*
X20566Y90229D02*
G03*
X21750Y91150I234J921D01*
G01*
X25025Y89900D02*
G03*
X25025Y89900I-950J0D01*
G01*
X20625D02*
G03*
X20566Y90229I-950J0D01*
G01*
X19092Y90650D02*
G03*
X20625Y89900I583J-750D01*
G01*
X35900Y85020D02*
G03*
X34288Y85250I-875J-370D01*
G01*
Y84050D02*
G03*
X35900Y84280I737J600D01*
G01*
X33262Y85250D02*
G03*
X33262Y84050I-737J-600D01*
G01*
X14932Y91600D02*
G03*
X14796Y91504I218J-450D01*
G01*
X14783Y92600D02*
G03*
X14783Y91600I-808J-500D01*
G01*
X14932D02*
G03*
X14796Y91504I218J-450D01*
G01*
X14102Y90809D02*
G03*
X15225Y89875I173J-934D01*
G01*
G03*
X15083Y90375I-950J0D01*
G01*
X18437Y79975D02*
G03*
X17058Y78675I-737J-600D01*
G01*
X13491Y78719D02*
G03*
X13500Y78850I-941J131D01*
G01*
G03*
X12610Y77902I-950J0D01*
G01*
X12792Y77687D02*
G03*
X13250Y77475I458J388D01*
G01*
X12791Y77688D02*
G03*
X13250Y77475I459J387D01*
G01*
X36297Y92344D02*
Y94075D01*
X36397Y92268D02*
Y94075D01*
X36097Y92444D02*
Y94075D01*
X36197Y92401D02*
Y94075D01*
X36200Y92400D02*
X36975D01*
X36358Y92300D02*
X36975D01*
X35798Y92500D02*
X36975D01*
X35997Y92474D02*
Y94075D01*
X35897Y92492D02*
Y94075D01*
X35797Y92500D02*
Y94075D01*
X35697Y92497D02*
Y94075D01*
X35597Y92483D02*
Y94075D01*
X35497Y92459D02*
Y94075D01*
X35397Y92422D02*
Y94075D01*
X35297Y92371D02*
Y94075D01*
X36897Y91276D02*
Y94075D01*
X36975Y91192D02*
Y94075D01*
X36697Y91778D02*
Y94075D01*
X36797Y91376D02*
Y94075D01*
X36468Y92200D02*
X36975D01*
X36550Y92100D02*
X36975D01*
X36497Y92167D02*
Y94075D01*
X36597Y92026D02*
Y94075D01*
X35197Y92304D02*
Y94075D01*
X35097Y92216D02*
Y94075D01*
X34997Y92096D02*
Y94075D01*
X34897Y91914D02*
Y94075D01*
X34797Y85572D02*
Y94075D01*
X22808Y92800D02*
X36975D01*
X22918Y92700D02*
X36975D01*
X22248Y93000D02*
X36975D01*
X22650Y92900D02*
X36975D01*
X23062Y92500D02*
X35752D01*
X23108Y92400D02*
X35350D01*
X23000Y92600D02*
X36975D01*
X32697Y85584D02*
Y94075D01*
X32597Y85597D02*
Y94075D01*
X32497Y85600D02*
Y94075D01*
X32397Y85591D02*
Y94075D01*
X23142Y92300D02*
X35192D01*
X23163Y92200D02*
X35082D01*
X23174Y92100D02*
X35000D01*
X34697Y85542D02*
Y94075D01*
X34597Y85498D02*
Y94075D01*
X34497Y85440D02*
Y94075D01*
X34397Y85363D02*
Y94075D01*
X34297Y85261D02*
Y94075D01*
X34197Y85250D02*
Y94075D01*
X34097Y85250D02*
Y94075D01*
X33197Y85321D02*
Y94075D01*
X33997Y85250D02*
Y94075D01*
X32997Y85474D02*
Y94075D01*
X33097Y85408D02*
Y94075D01*
X32897Y85524D02*
Y94075D01*
X32797Y85560D02*
Y94075D01*
X32297Y85572D02*
Y94075D01*
X36658Y91900D02*
X36975D01*
X36713Y91700D02*
X36975D01*
X36612Y92000D02*
X36975D01*
X36692Y91800D02*
X36975D01*
X36724Y91600D02*
X36975D01*
X36874Y91300D02*
X36975D01*
X36774Y91400D02*
X36975D01*
X36720Y91453D02*
X36924Y91249D01*
X35197Y85584D02*
Y90796D01*
X35097Y85597D02*
Y90884D01*
X34997Y85600D02*
Y91004D01*
X34897Y85591D02*
Y91186D01*
X24976Y90200D02*
X35900D01*
X35047Y85600D02*
X35900D01*
X25004Y90100D02*
X35900D01*
X35697Y85321D02*
Y90603D01*
X35797Y85203D02*
Y90600D01*
X35450Y85500D02*
X35900D01*
X35597Y85408D02*
Y90617D01*
X35718Y85300D02*
X35900D01*
X35800Y85200D02*
X35900D01*
X35608Y85400D02*
X35900D01*
X35397Y85524D02*
Y90678D01*
X35497Y85474D02*
Y90641D01*
X32547Y85600D02*
X35003D01*
X35297Y85560D02*
Y90729D01*
X33108Y85400D02*
X34442D01*
X33218Y85300D02*
X34332D01*
X32950Y85500D02*
X34600D01*
X23174Y92000D02*
X34938D01*
X23163Y91900D02*
X34892D01*
X21749Y91100D02*
X34938D01*
X21738Y91000D02*
X35001D01*
X24380Y90800D02*
X35192D01*
X24588Y90700D02*
X35351D01*
X21716Y90900D02*
X35082D01*
X23141Y91800D02*
X34858D01*
X23108Y91700D02*
X34837D01*
X23062Y91600D02*
X34826D01*
X22999Y91500D02*
X34826D01*
X22918Y91400D02*
X34837D01*
X22808Y91300D02*
X34859D01*
X22649Y91200D02*
X34892D01*
X24937Y90300D02*
X35900D01*
X25020Y90000D02*
X35900D01*
X24812Y90500D02*
X35900D01*
X24883Y90400D02*
X35900D01*
X25025Y89900D02*
X35900D01*
X25020Y89800D02*
X35900D01*
X25004Y89700D02*
X35900D01*
X24976Y89600D02*
X35900D01*
X24937Y89500D02*
X35900D01*
X24883Y89400D02*
X35900D01*
X24811Y89300D02*
X35900D01*
X24717Y89200D02*
X35900D01*
X24587Y89100D02*
X35900D01*
X24378Y89000D02*
X35900D01*
X24497Y90751D02*
Y94075D01*
X24597Y90694D02*
Y94075D01*
X24397Y90794D02*
Y94075D01*
X24297Y90824D02*
Y94075D01*
X24197Y90842D02*
Y94075D01*
X24097Y90850D02*
Y94075D01*
X23997Y90847D02*
Y94075D01*
X23897Y90833D02*
Y94075D01*
X23797Y90809D02*
Y94075D01*
X23697Y90772D02*
Y94075D01*
X22997Y92603D02*
Y94075D01*
X23097Y92426D02*
Y94075D01*
X22797Y92808D02*
Y94075D01*
X22897Y92721D02*
Y94075D01*
X22697Y92874D02*
Y94075D01*
X32197Y85542D02*
Y94075D01*
X32097Y85498D02*
Y94075D01*
X31997Y85440D02*
Y94075D01*
X31897Y85363D02*
Y94075D01*
X24997Y90128D02*
Y94075D01*
X31797Y85261D02*
Y94075D01*
X24897Y90376D02*
Y94075D01*
X24697Y90618D02*
Y94075D01*
X24797Y90517D02*
Y94075D01*
X23597Y90721D02*
Y94075D01*
X23497Y90654D02*
Y94075D01*
X23397Y90566D02*
Y94075D01*
X23297Y90446D02*
Y94075D01*
X23197Y90264D02*
Y94075D01*
X22597Y92924D02*
Y94075D01*
X22497Y92960D02*
Y94075D01*
X22297Y92997D02*
Y94075D01*
X22397Y92984D02*
Y94075D01*
X22197Y93000D02*
Y94075D01*
X22097Y92991D02*
Y94075D01*
X21997Y92972D02*
Y94075D01*
X21897Y92942D02*
Y94075D01*
X21797Y92898D02*
Y94075D01*
X21697Y92840D02*
Y94075D01*
X21597Y92763D02*
Y94075D01*
X21497Y92661D02*
Y94075D01*
X21397Y92600D02*
Y94075D01*
X21297Y92600D02*
Y94075D01*
X21197Y92600D02*
Y94075D01*
X21097Y92600D02*
Y94075D01*
X20997Y92600D02*
Y94075D01*
X20897Y92600D02*
Y94075D01*
X20797Y92600D02*
Y94075D01*
X20697Y92600D02*
Y94075D01*
X20597Y92600D02*
Y94075D01*
X20497Y92600D02*
Y94075D01*
X20397Y92600D02*
Y94075D01*
X20297Y92600D02*
Y94075D01*
X20197Y92600D02*
Y94075D01*
X20097Y92600D02*
Y94075D01*
X19997Y92600D02*
Y94075D01*
X19897Y92600D02*
Y94075D01*
X21683Y90800D02*
X23770D01*
X21637Y90700D02*
X23562D01*
X21574Y90600D02*
X23432D01*
X21493Y90500D02*
X23338D01*
X21383Y90400D02*
X23267D01*
X19797Y92600D02*
Y94075D01*
X19697Y92600D02*
Y94075D01*
X19597Y92600D02*
Y94075D01*
X19497Y92600D02*
Y94075D01*
X21224Y90300D02*
X23213D01*
X20576Y90200D02*
X23174D01*
X20537Y89500D02*
X23213D01*
X20483Y89400D02*
X23267D01*
X20411Y89300D02*
X23339D01*
X20317Y89200D02*
X23433D01*
X20187Y89100D02*
X23563D01*
X19978Y89000D02*
X23772D01*
X20604Y90100D02*
X23146D01*
X20620Y90000D02*
X23130D01*
X20625Y89900D02*
X23125D01*
X20620Y89800D02*
X23130D01*
X20604Y89700D02*
X23146D01*
X20576Y89600D02*
X23174D01*
X19397Y92600D02*
Y94075D01*
X19297Y92600D02*
Y94075D01*
X19197Y92600D02*
Y94075D01*
X19097Y92600D02*
Y94075D01*
X18997Y92600D02*
Y94075D01*
X18897Y92600D02*
Y94075D01*
X18797Y92600D02*
Y94075D01*
X18697Y92600D02*
Y94075D01*
X18597Y92600D02*
Y94075D01*
X18497Y92600D02*
Y94075D01*
X18397Y92600D02*
Y94075D01*
X18297Y92600D02*
Y94075D01*
X18197Y92600D02*
Y94075D01*
X18097Y92600D02*
Y94075D01*
X17997Y92600D02*
Y94075D01*
X17897Y92600D02*
Y94075D01*
X17797Y92600D02*
Y94075D01*
X17697Y92600D02*
Y94075D01*
X18897Y90446D02*
Y90650D01*
X18797Y90264D02*
Y90650D01*
X17597Y92600D02*
Y94075D01*
X17497Y92600D02*
Y94075D01*
X17397Y92600D02*
Y94075D01*
X17297Y92600D02*
Y94075D01*
X17197Y92600D02*
Y94075D01*
X17097Y92600D02*
Y94075D01*
X16997Y92600D02*
Y94075D01*
X33897Y85250D02*
Y94075D01*
X35900Y85020D02*
Y90576D01*
X33797Y85250D02*
Y94075D01*
X33697Y85250D02*
Y94075D01*
X35897Y81471D02*
Y84274D01*
X33262Y85250D02*
X34288D01*
X33597D02*
Y94075D01*
X33497Y85250D02*
Y94075D01*
X33397Y85250D02*
Y94075D01*
X33297Y85250D02*
Y94075D01*
X31697Y85116D02*
Y94075D01*
X31597Y84855D02*
Y94075D01*
X31497Y80000D02*
Y94075D01*
X31397Y80000D02*
Y94075D01*
X31297Y80000D02*
Y94075D01*
X31197Y80000D02*
Y94075D01*
X35900Y81474D02*
Y84280D01*
X31597Y80000D02*
Y84445D01*
X31097Y79975D02*
Y94075D01*
X30997Y79975D02*
Y94075D01*
X30897Y79975D02*
Y94075D01*
X30797Y79975D02*
Y94075D01*
X30697Y79975D02*
Y94075D01*
X30597Y79975D02*
Y94075D01*
X30497Y79975D02*
Y94075D01*
X30397Y79975D02*
Y94075D01*
X30297Y79975D02*
Y94075D01*
X30197Y79975D02*
Y94075D01*
X30097Y79975D02*
Y94075D01*
X29997Y79975D02*
Y94075D01*
X29897Y79975D02*
Y94075D01*
X29797Y79975D02*
Y94075D01*
X29697Y79975D02*
Y94075D01*
X29597Y79975D02*
Y94075D01*
X29497Y79975D02*
Y94075D01*
X29397Y79975D02*
Y94075D01*
X29297Y79975D02*
Y94075D01*
X29197Y79975D02*
Y94075D01*
X29097Y79975D02*
Y94075D01*
X28997Y79975D02*
Y94075D01*
X28897Y79975D02*
Y94075D01*
X28797Y79975D02*
Y94075D01*
X28697Y79975D02*
Y94075D01*
X28597Y79975D02*
Y94075D01*
X28497Y79975D02*
Y94075D01*
X28397Y79975D02*
Y94075D01*
X28297Y79975D02*
Y94075D01*
X28197Y79975D02*
Y94075D01*
X28097Y79975D02*
Y94075D01*
X27997Y79975D02*
Y94075D01*
X27897Y79975D02*
Y94075D01*
X27797Y79975D02*
Y94075D01*
X27697Y79975D02*
Y94075D01*
X27597Y79975D02*
Y94075D01*
X35799Y84100D02*
X35900D01*
X35797Y81371D02*
Y84097D01*
X35718Y84000D02*
X35900D01*
X35697Y81271D02*
Y83979D01*
X35608Y83900D02*
X35900D01*
X35597Y81171D02*
Y83892D01*
X35449Y83800D02*
X35900D01*
X35497Y81071D02*
Y83826D01*
X35397Y80971D02*
Y83776D01*
X35297Y80871D02*
Y83740D01*
X35197Y80771D02*
Y83716D01*
X35097Y80671D02*
Y83703D01*
X34997Y80571D02*
Y83700D01*
X34897Y80471D02*
Y83709D01*
X34597Y80171D02*
Y83802D01*
X34497Y80071D02*
Y83860D01*
X34397Y80000D02*
Y83937D01*
X34297Y80000D02*
Y84039D01*
X34797Y80371D02*
Y83728D01*
X34697Y80271D02*
Y83758D01*
X34426Y80000D02*
X35900Y81474D01*
X34197Y80000D02*
Y84050D01*
X34097Y80000D02*
Y84050D01*
X33997Y80000D02*
Y84050D01*
X33897Y80000D02*
Y84050D01*
X33797Y80000D02*
Y84050D01*
X33697Y80000D02*
Y84050D01*
X33597Y80000D02*
Y84050D01*
X33262D02*
X34288D01*
X33218Y84000D02*
X34332D01*
X33108Y83900D02*
X34442D01*
X32949Y83800D02*
X34601D01*
X18171Y80200D02*
X34626D01*
X18314Y80100D02*
X34526D01*
X17918Y80300D02*
X34726D01*
X33497Y80000D02*
Y84050D01*
X33397Y80000D02*
Y84050D01*
X33297Y80000D02*
Y84050D01*
X33197Y80000D02*
Y83979D01*
X33097Y80000D02*
Y83892D01*
X32997Y80000D02*
Y83826D01*
X32897Y80000D02*
Y83776D01*
X32797Y80000D02*
Y83740D01*
X32697Y80000D02*
Y83716D01*
X32597Y80000D02*
Y83703D01*
X32397Y80000D02*
Y83709D01*
X32497Y80000D02*
Y83700D01*
X32297Y80000D02*
Y83728D01*
X31150Y80000D02*
X34426D01*
X32097D02*
Y83802D01*
X31897Y80000D02*
Y83937D01*
X31797Y80000D02*
Y84039D01*
X31697Y80000D02*
Y84184D01*
X32197Y80000D02*
Y83758D01*
X31997Y80000D02*
Y83860D01*
X18437Y79975D02*
X31125D01*
X27497D02*
Y94075D01*
X27397Y79975D02*
Y94075D01*
X27297Y79975D02*
Y94075D01*
X27197Y79975D02*
Y94075D01*
X27097Y79975D02*
Y94075D01*
X26997Y79975D02*
Y94075D01*
X26897Y79975D02*
Y94075D01*
X26797Y79975D02*
Y94075D01*
X26697Y79975D02*
Y94075D01*
X26597Y79975D02*
Y94075D01*
X26497Y79975D02*
Y94075D01*
X26397Y79975D02*
Y94075D01*
X26297Y79975D02*
Y94075D01*
X26197Y79975D02*
Y94075D01*
X26097Y79975D02*
Y94075D01*
X25997Y79975D02*
Y94075D01*
X25897Y79975D02*
Y94075D01*
X25797Y79975D02*
Y94075D01*
X25697Y79975D02*
Y94075D01*
X25597Y79975D02*
Y94075D01*
X25497Y79975D02*
Y94075D01*
X25397Y79975D02*
Y94075D01*
X25297Y79975D02*
Y94075D01*
X25197Y79975D02*
Y94075D01*
X25097Y79975D02*
Y94075D01*
X23097Y79975D02*
Y91674D01*
X22997Y79975D02*
Y91497D01*
X22897Y79975D02*
Y91379D01*
X22797Y79975D02*
Y91292D01*
X18397Y80020D02*
Y90650D01*
X22697Y79975D02*
Y91226D01*
X18197Y80184D02*
Y90650D01*
X18297Y80114D02*
Y90650D01*
X17997Y80277D02*
Y90650D01*
X18097Y80238D02*
Y90650D01*
X17897Y80304D02*
Y90650D01*
X17797Y80320D02*
Y90650D01*
X17697Y80325D02*
Y90650D01*
X17597Y80319D02*
Y90650D01*
X17497Y80303D02*
Y90650D01*
X17397Y80275D02*
Y90650D01*
X17297Y80235D02*
Y90650D01*
X17197Y80181D02*
Y90650D01*
X22597Y79975D02*
Y91176D01*
X22497Y79975D02*
Y91140D01*
X22397Y79975D02*
Y91116D01*
X21997Y79975D02*
Y91128D01*
X22297Y79975D02*
Y91103D01*
X22197Y79975D02*
Y91100D01*
X22097Y79975D02*
Y91109D01*
X21897Y79975D02*
Y91158D01*
X21797Y79975D02*
Y91202D01*
X21697Y79975D02*
Y90838D01*
X21597Y79975D02*
Y90634D01*
X18697Y79975D02*
Y90650D01*
X18597Y79975D02*
Y90650D01*
X18497Y79975D02*
Y90650D01*
X24997Y79975D02*
Y89672D01*
X24897Y79975D02*
Y89424D01*
X24797Y79975D02*
Y89283D01*
X24697Y79975D02*
Y89182D01*
X24597Y79975D02*
Y89106D01*
X24497Y79975D02*
Y89049D01*
X24397Y79975D02*
Y89006D01*
X24297Y79975D02*
Y88976D01*
X24197Y79975D02*
Y88958D01*
X24097Y79975D02*
Y88950D01*
X23997Y79975D02*
Y88953D01*
X23897Y79975D02*
Y88967D01*
X23797Y79975D02*
Y88991D01*
X23697Y79975D02*
Y89028D01*
X23297Y79975D02*
Y89354D01*
X23197Y79975D02*
Y89536D01*
X21497Y79975D02*
Y90505D01*
X21397Y79975D02*
Y90411D01*
X23597Y79975D02*
Y89079D01*
X23497Y79975D02*
Y89146D01*
X23397Y79975D02*
Y89234D01*
X21297Y79975D02*
Y90341D01*
X21197Y79975D02*
Y90287D01*
X21097Y79975D02*
Y90248D01*
X20997Y79975D02*
Y90221D01*
X20897Y79975D02*
Y90205D01*
X20797Y79975D02*
Y90200D01*
X20697Y79975D02*
Y90206D01*
X20597Y79975D02*
Y89672D01*
X20497Y79975D02*
Y89424D01*
X20397Y79975D02*
Y89283D01*
X20297Y79975D02*
Y89182D01*
X20197Y79975D02*
Y89106D01*
X20097Y79975D02*
Y89049D01*
X19997Y79975D02*
Y89006D01*
X19897Y79975D02*
Y88976D01*
X19797Y79975D02*
Y88958D01*
X17097Y80109D02*
Y90650D01*
X16997Y80014D02*
Y90650D01*
X19697Y79975D02*
Y88950D01*
X19597Y79975D02*
Y88953D01*
X19497Y79975D02*
Y88967D01*
X19097Y79975D02*
Y89146D01*
X18997Y79975D02*
Y89234D01*
X18897Y79975D02*
Y89354D01*
X18797Y79975D02*
Y89536D01*
X19397Y79975D02*
Y88991D01*
X19297Y79975D02*
Y89028D01*
X19197Y79975D02*
Y89079D01*
X17397Y77372D02*
Y77475D01*
X17297Y77272D02*
Y77475D01*
X16897Y78675D02*
Y78867D01*
X17197Y77172D02*
Y77475D01*
X17097Y77072D02*
Y77475D01*
X16997Y76972D02*
Y77475D01*
X16897Y76872D02*
Y77475D01*
X6875Y94075D02*
X36975D01*
X6875Y94000D02*
X36975D01*
X6875Y93900D02*
X36975D01*
X6875Y93800D02*
X36975D01*
X6875Y93700D02*
X36975D01*
X6875Y93600D02*
X36975D01*
X6875Y93500D02*
X36975D01*
X6875Y93400D02*
X36975D01*
X6875Y93300D02*
X36975D01*
X14280Y93000D02*
X22202D01*
X6875Y93200D02*
X36975D01*
X6875Y93100D02*
X36975D01*
X14618Y92800D02*
X21642D01*
X14712Y92700D02*
X21532D01*
X14488Y92900D02*
X21800D01*
X15357Y90650D02*
X19092D01*
X15307Y90600D02*
X19032D01*
X14783Y92600D02*
X21450D01*
X14824Y89100D02*
X19163D01*
X14644Y89000D02*
X19372D01*
X6875Y88900D02*
X35900D01*
X6875Y88800D02*
X35900D01*
X15207Y90500D02*
X18938D01*
X15168Y90200D02*
X18774D01*
X15107Y90400D02*
X18867D01*
X15125Y90300D02*
X18813D01*
X15098Y89400D02*
X18867D01*
X15031Y89300D02*
X18939D01*
X14943Y89200D02*
X19033D01*
X6875Y88700D02*
X35900D01*
X6875Y88600D02*
X35900D01*
X6875Y88500D02*
X35900D01*
X6875Y88400D02*
X35900D01*
X6875Y88300D02*
X35900D01*
X6875Y88200D02*
X35900D01*
X6875Y88100D02*
X35900D01*
X6875Y88000D02*
X35900D01*
X6875Y87900D02*
X35900D01*
X6875Y87800D02*
X35900D01*
X6875Y87700D02*
X35900D01*
X6875Y87600D02*
X35900D01*
X6875Y87500D02*
X35900D01*
X6875Y87400D02*
X35900D01*
X6875Y87300D02*
X35900D01*
X6875Y87200D02*
X35900D01*
X6875Y87100D02*
X35900D01*
X6875Y87000D02*
X35900D01*
X6875Y86900D02*
X35900D01*
X6875Y86800D02*
X35900D01*
X6875Y86700D02*
X35900D01*
X6875Y86600D02*
X35900D01*
X6875Y86500D02*
X35900D01*
X6875Y86400D02*
X35900D01*
X6875Y86300D02*
X35900D01*
X6875Y86200D02*
X35900D01*
X6875Y86100D02*
X35900D01*
X6875Y86000D02*
X35900D01*
X6875Y85900D02*
X35900D01*
X6875Y85800D02*
X35900D01*
X6875Y85700D02*
X35900D01*
X6875Y85600D02*
X32503D01*
X6875Y85500D02*
X32100D01*
X6875Y85400D02*
X31942D01*
X6875Y85300D02*
X31832D01*
X6875Y85200D02*
X31750D01*
X6875Y85100D02*
X31688D01*
X6875Y85000D02*
X31642D01*
X6875Y84900D02*
X31608D01*
X6875Y84800D02*
X31587D01*
X6875Y84700D02*
X31576D01*
X6875Y84600D02*
X31576D01*
X6875Y83800D02*
X32101D01*
X6875Y83700D02*
X35900D01*
X6875Y83600D02*
X35900D01*
X6875Y83500D02*
X35900D01*
X6875Y83400D02*
X35900D01*
X6875Y83300D02*
X35900D01*
X6875Y83200D02*
X35900D01*
X6875Y84500D02*
X31587D01*
X6875Y84400D02*
X31609D01*
X6875Y84300D02*
X31642D01*
X6875Y84200D02*
X31688D01*
X6875Y84100D02*
X31751D01*
X6875Y84000D02*
X31832D01*
X6875Y83900D02*
X31942D01*
X6875Y83100D02*
X35900D01*
X6875Y83000D02*
X35900D01*
X6875Y82900D02*
X35900D01*
X6875Y82800D02*
X35900D01*
X6875Y82700D02*
X35900D01*
X6875Y82600D02*
X35900D01*
X6875Y82500D02*
X35900D01*
X6875Y82400D02*
X35900D01*
X6875Y82300D02*
X35900D01*
X6875Y82200D02*
X35900D01*
X6875Y82100D02*
X35900D01*
X6875Y82000D02*
X35900D01*
X6875Y81900D02*
X35900D01*
X6875Y81800D02*
X35900D01*
X6875Y81700D02*
X35900D01*
X6875Y81600D02*
X35900D01*
X6875Y81500D02*
X35900D01*
X6875Y81400D02*
X35826D01*
X6875Y81300D02*
X35726D01*
X6875Y81200D02*
X35626D01*
X6875Y81100D02*
X35526D01*
X6875Y81000D02*
X35426D01*
X6875Y80900D02*
X35326D01*
X6875Y80800D02*
X35226D01*
X6875Y80700D02*
X35126D01*
X6875Y80600D02*
X35026D01*
X6875Y80500D02*
X34926D01*
X6875Y80400D02*
X34826D01*
X16897Y92600D02*
Y94075D01*
X16797Y92600D02*
Y94075D01*
X16697Y92600D02*
Y94075D01*
X16597Y92600D02*
Y94075D01*
X16497Y92600D02*
Y94075D01*
X16397Y92600D02*
Y94075D01*
X16297Y92600D02*
Y94075D01*
X16197Y92600D02*
Y94075D01*
X16097Y92600D02*
Y94075D01*
X15997Y92600D02*
Y94075D01*
X14697Y92717D02*
Y94075D01*
X15897Y92600D02*
Y94075D01*
X14497Y92894D02*
Y94075D01*
X14597Y92818D02*
Y94075D01*
X14397Y92951D02*
Y94075D01*
X15797Y92600D02*
Y94075D01*
X15697Y92600D02*
Y94075D01*
X15597Y92600D02*
Y94075D01*
X15497Y92600D02*
Y94075D01*
X15397Y92600D02*
Y94075D01*
X15297Y92600D02*
Y94075D01*
X15197Y92600D02*
Y94075D01*
X15097Y92600D02*
Y94075D01*
X14997Y92600D02*
Y94075D01*
X14897Y92600D02*
Y94075D01*
X14797Y92600D02*
Y94075D01*
X14783Y91600D02*
X14931D01*
X14783Y91600D02*
X14932D01*
X14297Y92994D02*
Y94075D01*
X14197Y93024D02*
Y94075D01*
X14097Y93042D02*
Y94075D01*
X13997Y93050D02*
Y94075D01*
X13897Y93047D02*
Y94075D01*
X13797Y93033D02*
Y94075D01*
X13697Y93009D02*
Y94075D01*
X13597Y92972D02*
Y94075D01*
X13497Y92921D02*
Y94075D01*
X13397Y92854D02*
Y94075D01*
X13297Y92766D02*
Y94075D01*
X6875Y93000D02*
X13670D01*
X6875Y92900D02*
X13462D01*
X6875Y92800D02*
X13332D01*
X13197Y92646D02*
Y94075D01*
X13097Y92464D02*
Y94075D01*
X6875Y92700D02*
X13238D01*
X6875Y92600D02*
X13167D01*
X6875Y92500D02*
X13113D01*
X6875Y91700D02*
X13113D01*
X6875Y92400D02*
X13074D01*
X6875Y92300D02*
X13046D01*
X6875Y92200D02*
X13030D01*
X6875Y92100D02*
X13025D01*
X6875Y92000D02*
X13030D01*
X6875Y91900D02*
X13046D01*
X6875Y91800D02*
X13074D01*
X14487Y91300D02*
X14593D01*
X14497Y91204D02*
Y91307D01*
X14102Y90809D02*
X14796Y91504D01*
X14278Y91200D02*
X14493D01*
X14397Y91104D02*
Y91249D01*
X14297Y91004D02*
Y91206D01*
X14197Y90904D02*
Y91176D01*
X14097Y90808D02*
Y91158D01*
X6875Y91600D02*
X13167D01*
X13997Y90784D02*
Y91150D01*
X13897Y90747D02*
Y91153D01*
X13797Y90696D02*
Y91167D01*
X13697Y90629D02*
Y91191D01*
X15198Y90100D02*
X18746D01*
X15217Y90000D02*
X18730D01*
X15225Y89900D02*
X18725D01*
X15222Y89800D02*
X18730D01*
X15209Y89700D02*
X18746D01*
X15184Y89600D02*
X18774D01*
X15148Y89500D02*
X18813D01*
X13597Y90541D02*
Y91228D01*
X13497Y90421D02*
Y91279D01*
X13397Y90239D02*
Y91346D01*
X15083Y90375D02*
X15357Y90650D01*
X15197Y90103D02*
Y90490D01*
X6875Y91200D02*
X13672D01*
X6875Y91100D02*
X14393D01*
X6875Y91000D02*
X14293D01*
X6875Y90900D02*
X14193D01*
X6875Y90800D02*
X14057D01*
X6875Y90700D02*
X13803D01*
X6875Y90600D02*
X13661D01*
X6875Y91500D02*
X13239D01*
X6875Y91400D02*
X13333D01*
X6875Y91300D02*
X13463D01*
X6875Y90500D02*
X13559D01*
X6875Y90400D02*
X13483D01*
X6875Y90300D02*
X13425D01*
X6875Y90200D02*
X13382D01*
X6875Y89400D02*
X13452D01*
X6875Y89300D02*
X13519D01*
X6875Y89200D02*
X13607D01*
X6875Y89100D02*
X13726D01*
X6875Y89000D02*
X13906D01*
X6875Y80300D02*
X17482D01*
X6875Y80200D02*
X17229D01*
X6875Y90100D02*
X13352D01*
X6875Y90000D02*
X13333D01*
X6875Y89900D02*
X13325D01*
X6875Y89800D02*
X13328D01*
X6875Y89700D02*
X13341D01*
X6875Y89600D02*
X13366D01*
X6875Y89500D02*
X13402D01*
X16897Y79883D02*
Y90650D01*
X16797Y79671D02*
Y90650D01*
X16697Y78675D02*
Y90650D01*
X16597Y78675D02*
Y90650D01*
X16797Y78675D02*
Y79079D01*
X16497Y78675D02*
Y90650D01*
X16397Y78675D02*
Y90650D01*
X16297Y78675D02*
Y90650D01*
X16197Y78675D02*
Y90650D01*
X16097Y78675D02*
Y90650D01*
X15997Y78675D02*
Y90650D01*
X15897Y78675D02*
Y90650D01*
X15797Y78675D02*
Y90650D01*
X15697Y78675D02*
Y90650D01*
X15597Y78675D02*
Y90650D01*
X15497Y78675D02*
Y90650D01*
X15397Y78675D02*
Y90650D01*
X15297Y78675D02*
Y90590D01*
X15197Y78675D02*
Y89647D01*
X16797Y76772D02*
Y77475D01*
X15175Y75150D02*
X17500Y77475D01*
X15097Y78675D02*
Y89399D01*
X14997Y78675D02*
Y89258D01*
X14897Y78675D02*
Y89157D01*
X14797Y78675D02*
Y89081D01*
X14697Y78675D02*
Y89024D01*
X14597Y78675D02*
Y88981D01*
X14497Y78675D02*
Y88951D01*
X6875Y80100D02*
X17086D01*
X12572Y79800D02*
X16850D01*
X6875Y80000D02*
X16984D01*
X6875Y79900D02*
X16908D01*
X13133Y79600D02*
X16777D01*
X13499Y78900D02*
X16877D01*
X12975Y79700D02*
X16807D01*
X13325Y79400D02*
X16750D01*
X13497Y78921D02*
Y89329D01*
X13243Y79500D02*
X16758D01*
X13387Y79300D02*
X16753D01*
X13433Y79200D02*
X16766D01*
X13488Y79000D02*
X16827D01*
X13467Y79100D02*
X16791D01*
X14397Y78675D02*
Y88933D01*
X14297Y78675D02*
Y88925D01*
X14197Y78675D02*
Y88928D01*
X14097Y78675D02*
Y88942D01*
X13499Y78800D02*
X16944D01*
X13528Y78675D02*
X17058D01*
X13250Y77475D02*
X17500D01*
X13997Y78675D02*
Y88966D01*
X13797Y78675D02*
Y89054D01*
X13697Y78675D02*
Y89121D01*
X13597Y78675D02*
Y89209D01*
X13897Y78675D02*
Y89003D01*
X16697Y76672D02*
Y77475D01*
X16597Y76572D02*
Y77475D01*
X16497Y76472D02*
Y77475D01*
X16397Y76372D02*
Y77475D01*
X16297Y76272D02*
Y77475D01*
X16197Y76172D02*
Y77475D01*
X16097Y76072D02*
Y77475D01*
X15997Y75972D02*
Y77475D01*
X15897Y75872D02*
Y77475D01*
X15797Y75772D02*
Y77475D01*
X15697Y75672D02*
Y77475D01*
X15597Y75572D02*
Y77475D01*
X15497Y75472D02*
Y77475D01*
X15397Y75372D02*
Y77475D01*
X15297Y75272D02*
Y77475D01*
X15197Y75172D02*
Y77475D01*
X15097Y75150D02*
Y77475D01*
X14997Y75150D02*
Y77475D01*
X14897Y75150D02*
Y77475D01*
X14797Y75150D02*
Y77475D01*
X14697Y75150D02*
Y77475D01*
X14597Y75150D02*
Y77475D01*
X14497Y75150D02*
Y77475D01*
X14397Y75150D02*
Y77475D01*
X14297Y75150D02*
Y77475D01*
X14197Y75150D02*
Y77475D01*
X14097Y75150D02*
Y77475D01*
X13997Y75150D02*
Y77475D01*
X6875Y77400D02*
X17425D01*
X6875Y77300D02*
X17325D01*
X6875Y77200D02*
X17225D01*
X6875Y77100D02*
X17125D01*
X6875Y77000D02*
X17025D01*
X6875Y76900D02*
X16925D01*
X6875Y76800D02*
X16825D01*
X6875Y76700D02*
X16725D01*
X6875Y76600D02*
X16625D01*
X6875Y76500D02*
X16525D01*
X6875Y76400D02*
X16425D01*
X6875Y76300D02*
X16325D01*
X6875Y76200D02*
X16225D01*
X6875Y76100D02*
X16125D01*
X6875Y76000D02*
X16025D01*
X6875Y75900D02*
X15925D01*
X6875Y75800D02*
X15825D01*
X6875Y75700D02*
X15725D01*
X6875Y75600D02*
X15625D01*
X6875Y75500D02*
X15525D01*
X6875Y75400D02*
X15425D01*
X13897Y75150D02*
Y77475D01*
X13797Y75150D02*
Y77475D01*
X13697Y75150D02*
Y77475D01*
X13597Y75150D02*
Y77475D01*
X6875Y75300D02*
X15325D01*
X6875Y75200D02*
X15225D01*
X6875Y75150D02*
X15175D01*
X12997Y79688D02*
Y94075D01*
X12897Y79734D02*
Y94075D01*
X12797Y79767D02*
Y94075D01*
X12697Y79788D02*
Y94075D01*
X12597Y79799D02*
Y94075D01*
X12497Y79799D02*
Y94075D01*
X12397Y79788D02*
Y94075D01*
X12297Y79766D02*
Y94075D01*
X12197Y79732D02*
Y94075D01*
X12097Y79685D02*
Y94075D01*
X11997Y79623D02*
Y94075D01*
X11897Y79540D02*
Y94075D01*
X11797Y79430D02*
Y94075D01*
X11697Y79269D02*
Y94075D01*
X11597Y75150D02*
Y94075D01*
X11497Y75150D02*
Y94075D01*
X11397Y75150D02*
Y94075D01*
X11297Y75150D02*
Y94075D01*
X11197Y75150D02*
Y94075D01*
X11097Y75150D02*
Y94075D01*
X10997Y75150D02*
Y94075D01*
X10897Y75150D02*
Y94075D01*
X10797Y75150D02*
Y94075D01*
X10697Y75150D02*
Y94075D01*
X10597Y75150D02*
Y94075D01*
X10497Y75150D02*
Y94075D01*
X10397Y75150D02*
Y94075D01*
X10297Y75150D02*
Y94075D01*
X10197Y75150D02*
Y94075D01*
X10097Y75150D02*
Y94075D01*
X9997Y75150D02*
Y94075D01*
X9897Y75150D02*
Y94075D01*
X9797Y75150D02*
Y94075D01*
X9697Y75150D02*
Y94075D01*
X9597Y75150D02*
Y94075D01*
X9497Y75150D02*
Y94075D01*
X9397Y75150D02*
Y94075D01*
X9297Y75150D02*
Y94075D01*
X9197Y75150D02*
Y94075D01*
X9097Y75150D02*
Y94075D01*
X8997Y75150D02*
Y94075D01*
X8897Y75150D02*
Y94075D01*
X8797Y75150D02*
Y94075D01*
X8697Y75150D02*
Y94075D01*
X8597Y75150D02*
Y94075D01*
X8497Y75150D02*
Y94075D01*
X8397Y75150D02*
Y94075D01*
X8297Y75150D02*
Y94075D01*
X8197Y75150D02*
Y94075D01*
X8097Y75150D02*
Y94075D01*
X7997Y75150D02*
Y94075D01*
X7897Y75150D02*
Y94075D01*
X7797Y75150D02*
Y94075D01*
X7697Y75150D02*
Y94075D01*
X7597Y75150D02*
Y94075D01*
X7497Y75150D02*
Y94075D01*
X7397Y75150D02*
Y94075D01*
X13297Y79436D02*
Y91434D01*
X13397Y79280D02*
Y89511D01*
X13197Y79545D02*
Y91554D01*
X13497Y75150D02*
Y77475D01*
X13397Y75150D02*
Y77475D01*
X13297Y75150D02*
Y77475D01*
X13097Y79626D02*
Y91736D01*
X12897Y75150D02*
Y77590D01*
X12610Y77902D02*
X12791Y77688D01*
X13197Y75150D02*
Y77477D01*
X13097Y75150D02*
Y77495D01*
X12997Y75150D02*
Y77531D01*
X12597Y75150D02*
Y77901D01*
X12497Y75150D02*
Y77901D01*
X12397Y75150D02*
Y77912D01*
X12197Y75150D02*
Y77968D01*
X12797Y75150D02*
Y77681D01*
X12697Y75150D02*
Y77799D01*
X12297Y75150D02*
Y77934D01*
X11797Y75150D02*
Y78270D01*
X11697Y75150D02*
Y78431D01*
X7297Y75150D02*
Y94075D01*
X7197Y75150D02*
Y94075D01*
X12097Y75150D02*
Y78015D01*
X11997Y75150D02*
Y78077D01*
X11897Y75150D02*
Y78160D01*
X6875Y79800D02*
X12528D01*
X6875Y79700D02*
X12125D01*
X6875Y79600D02*
X11967D01*
X6875Y79500D02*
X11857D01*
X6875Y79400D02*
X11775D01*
X6875Y79300D02*
X11713D01*
X6875Y79200D02*
X11667D01*
X6875Y79100D02*
X11633D01*
X6875Y79000D02*
X11612D01*
X6875Y78900D02*
X11601D01*
X6875Y78800D02*
X11601D01*
X6875Y78700D02*
X11612D01*
X6875Y78600D02*
X11634D01*
X6875Y78500D02*
X11667D01*
X6875Y78100D02*
X11967D01*
X6875Y78000D02*
X12126D01*
X6875Y77900D02*
X12612D01*
X6875Y77800D02*
X12697D01*
X6875Y77700D02*
X12782D01*
X6875Y77600D02*
X12884D01*
X6875Y77500D02*
X13079D01*
X7097Y75150D02*
Y94075D01*
X6997Y75150D02*
Y94075D01*
X6897Y75150D02*
Y94075D01*
X6875Y75150D02*
Y94075D01*
Y78400D02*
X11713D01*
X6875Y78300D02*
X11776D01*
X6875Y78200D02*
X11857D01*
X-2025Y27675D02*
X-478Y29222D01*
Y34318D01*
Y29222D02*
X8673D01*
X9252Y28643D01*
X-2025Y21650D02*
Y27675D01*
X-1600Y19900D02*
X-478Y21022D01*
X-2925Y19900D02*
X-1600D01*
X-4125Y21100D02*
X-2925Y19900D01*
X45700Y38775D02*
X45775Y38700D01*
X-4125Y21100D02*
Y37700D01*
X22175Y92100D02*
X22225Y92050D01*
X13975Y92100D02*
X22175D01*
X14275Y90275D02*
X15150Y91150D01*
X20800D01*
X14275Y89875D02*
Y90275D01*
X-4125Y37700D02*
X-1850Y39975D01*
X-1998Y31808D02*
Y37852D01*
X-1075Y38775D01*
X45700D01*
X-478Y21022D02*
Y24238D01*
X-1850Y39975D02*
X39700D01*
D11*
X43520Y74705D02*
X48325Y69900D01*
X43520Y74705D02*
Y80362D01*
X48325Y69900D02*
X51550D01*
X42500Y73250D02*
X47575Y68175D01*
X42500Y73250D02*
Y77700D01*
X41020Y79180D02*
X42500Y77700D01*
X55985Y82420D02*
Y83700D01*
X54500Y80935D02*
X55985Y82420D01*
X56130Y71420D02*
X58050Y69500D01*
X61260D01*
X61660Y69900D01*
X57250Y68175D02*
X57650Y67775D01*
X63350Y71825D02*
X64075Y71100D01*
X59525Y71825D02*
X63350D01*
X41020Y79180D02*
Y80362D01*
X59120Y71420D02*
X59525Y71825D01*
X47575Y68175D02*
X57250D01*
X47445Y82805D02*
X51350Y78900D01*
X43512Y82805D02*
X47445D01*
X51350Y78900D02*
X54500D01*
X54395Y71420D02*
X54500Y71525D01*
Y80935D01*
X49040Y71420D02*
X56130D01*
X48025Y85025D02*
X49350Y83700D01*
X42925Y85025D02*
X48025D01*
X41037Y83137D02*
X42925Y85025D01*
X49350Y83700D02*
X50905D01*
X41037Y82855D02*
Y83137D01*
X57255Y80095D02*
X58350Y79000D01*
X60825D01*
X62200Y80375D01*
X64400D01*
X66525Y78250D01*
X69025D01*
X69562Y78787D01*
X57255Y80095D02*
Y81150D01*
X69562Y80305D02*
X69562Y78787D01*
X60450Y81700D02*
X64850D01*
X66350Y80200D01*
X59795Y81150D02*
X59900D01*
X60450Y81700D01*
X66350Y80200D02*
X67100D01*
X64675Y83700D02*
X65570Y82805D01*
X58525Y83700D02*
X64675D01*
X65570Y82805D02*
X67037D01*
X67650Y85350D02*
X69512Y83488D01*
X53445Y83700D02*
X55095Y85350D01*
X69512Y82805D02*
Y83488D01*
X55095Y85350D02*
X67650D01*
X65725Y49025D02*
X66175Y49475D01*
X35425Y46225D02*
X35450Y46200D01*
X56000D01*
X69500Y45025D02*
Y47500D01*
X69475Y45000D02*
X69500Y45025D01*
X78915Y61375D02*
X79350Y60940D01*
Y58400D02*
Y60940D01*
X67275Y59600D02*
X71525Y55350D01*
X69350Y60775D02*
X69475Y60650D01*
X69350Y60775D02*
Y61175D01*
X69550Y61375D01*
X78915D01*
X34050Y45000D02*
X54225D01*
X33950Y44900D02*
X34050Y45000D01*
X54225D02*
X55500Y43725D01*
X63900D01*
X53950Y43900D02*
X55175Y42675D01*
X62050D01*
X36475Y43900D02*
X53950D01*
X62050Y42675D02*
X62250Y42475D01*
X61350Y41200D02*
X63525D01*
X60825Y41725D02*
X61350Y41200D01*
X54675Y41725D02*
X60825D01*
X53475Y42925D02*
X54675Y41725D01*
X38075Y42925D02*
X53475D01*
X37775Y42625D02*
X38075Y42925D01*
X63525Y41200D02*
X63725Y41400D01*
X38075Y50075D02*
X65125D01*
X65725Y50675D01*
X37650Y50500D02*
X38075Y50075D01*
X65725Y50675D02*
X66550D01*
X37500Y49025D02*
X65725D01*
X66175Y49475D02*
X67550D01*
X24200Y74150D02*
X24475Y73875D01*
X22575Y74150D02*
X24200D01*
X21263Y72838D02*
X22575Y74150D01*
X21250Y72825D02*
X21263Y72838D01*
X7700Y71775D02*
X8750Y72825D01*
X10200Y68225D02*
X30775D01*
X13250Y78075D02*
X25800D01*
X25875Y78000D01*
X12700Y78725D02*
X13250Y78075D01*
X34650Y79375D02*
X36500Y81225D01*
X35775Y91550D02*
X36500Y90825D01*
X17700Y79375D02*
X34650D01*
X36500Y81225D02*
Y90825D01*
X10200Y70725D02*
X10300Y70625D01*
X11475Y70725D02*
X12450Y69750D01*
X36200Y70725D02*
Y71250D01*
X29700Y70900D02*
X30375Y71575D01*
X32850D01*
X7700Y70725D02*
Y71775D01*
X36050Y73150D02*
X36275D01*
X35300Y73900D02*
X36050Y73150D01*
X24475Y73875D02*
X29675D01*
X8750Y72825D02*
X21250D01*
X29675Y73900D02*
X35300D01*
X34500Y72950D02*
X36200Y71250D01*
X30325Y69750D02*
X30800Y70225D01*
X10200Y70725D02*
X11475D01*
X12450Y69750D02*
X30325D01*
X29700Y72300D02*
X30350Y72950D01*
X25875Y72600D02*
X26175Y72300D01*
X29700D01*
X30350Y72950D02*
X34500D01*
X32850Y71575D02*
X33700Y70725D01*
X23550Y72050D02*
X24700Y70900D01*
X23550Y72050D02*
Y72975D01*
X24700Y70900D02*
X29700D01*
X32525Y84650D02*
X35025D01*
X14350Y100575D02*
X17325Y97600D01*
X40150D01*
X48175Y89575D01*
X68550Y62175D02*
X73850D01*
X67275Y60900D02*
X68550Y62175D01*
X67275Y59600D02*
Y60900D01*
X62600Y59925D02*
X65800Y63125D01*
X73575D01*
X57650Y67775D02*
X63075D01*
X64075Y68775D01*
Y71100D01*
X73575Y63125D02*
X74775Y64325D01*
X80650Y89575D02*
X81750Y88475D01*
Y57025D02*
Y88475D01*
X79700Y54975D02*
X81750Y57025D01*
X190Y58940D02*
X11530Y47600D01*
X-2350Y58940D02*
X190D01*
X73575Y48475D02*
Y53725D01*
X74825Y54975D01*
X79700D01*
X11530Y47600D02*
X57250D01*
X14350Y100575D02*
Y104140D01*
X945Y61480D02*
X2500Y59925D01*
Y59175D02*
Y59925D01*
X-2350Y61480D02*
X945D01*
X6700Y54975D02*
X29250D01*
X2500Y59175D02*
X6700Y54975D01*
X-4175Y58350D02*
Y62195D01*
Y58350D02*
X-1600Y55775D01*
X25D01*
X3875Y51925D01*
X-4175Y62195D02*
X-2350Y64020D01*
X11250Y51200D02*
Y51325D01*
X11900Y51975D01*
X52800D02*
X53450Y51325D01*
X11900Y51975D02*
X52800D01*
X980Y64020D02*
X8375Y56625D01*
X10175D01*
X190Y64020D02*
X980D01*
X11275Y53475D02*
X11825Y52925D01*
X54075D01*
X19965Y98525D02*
X41025D01*
X48175Y89575D02*
X80650D01*
X48900Y90650D02*
X75425D01*
X71525Y46294D02*
Y55350D01*
X16890Y101600D02*
Y104140D01*
Y101600D02*
X19965Y98525D01*
X75975Y63025D02*
Y63625D01*
X76800Y65125D02*
Y87000D01*
X75425Y90650D02*
X76800Y92025D01*
X41025Y98525D02*
X48900Y90650D01*
X73850Y62175D02*
X76800Y65125D01*
X75625Y63975D02*
X75975Y63625D01*
X62600Y58450D02*
Y59925D01*
X74775Y64325D02*
Y88275D01*
X79525Y73400D02*
Y87850D01*
D12*
X36250Y24050D02*
X37163Y23137D01*
X41695D01*
X36250Y24050D02*
Y27025D01*
X19900Y30050D02*
Y32650D01*
X22850Y21475D02*
Y24425D01*
X71762Y20637D02*
X73200Y22075D01*
Y26450D01*
X28136Y18239D02*
X29775Y16600D01*
X31400D01*
X32875Y20675D02*
X34850Y22650D01*
Y27700D01*
X37150Y28450D02*
X39050Y26550D01*
X44245Y23137D02*
Y25105D01*
X44100Y25250D02*
X44245Y25105D01*
X37950Y25250D02*
X44100D01*
X64725Y22225D02*
X66313Y20637D01*
X31400Y16600D02*
X32875Y18075D01*
X28136Y18239D02*
Y21400D01*
X32875Y18075D02*
Y20675D01*
X66313Y20637D02*
X67745D01*
X64725Y22225D02*
Y25600D01*
X37575Y29450D02*
X39425Y27600D01*
X34850Y27700D02*
X35600Y28450D01*
X37150D01*
X33775Y28100D02*
X35125Y29450D01*
X33775Y23475D02*
Y28100D01*
X11675Y19950D02*
X11802Y20077D01*
Y24833D01*
X30676Y17949D02*
X30700Y17925D01*
X30676Y17949D02*
Y21400D01*
X31700D01*
X33775Y23475D01*
X67745Y23137D02*
Y24230D01*
X35125Y29450D02*
X37575D01*
X32600Y25864D02*
Y28650D01*
X34900Y30950D01*
X37925D01*
X30676Y23940D02*
X32600Y25864D01*
X70295Y20637D02*
X71762D01*
X37925Y30950D02*
X40000Y28875D01*
X24325Y32500D02*
X25675Y33850D01*
X36975D01*
X39050Y26550D02*
X63775D01*
X64725Y25600D01*
X39425Y27600D02*
X64375D01*
X67745Y24230D01*
X40000Y28875D02*
X70775D01*
X73200Y26450D01*
X36975Y33850D02*
X40625Y30200D01*
X69275D01*
X24325Y25250D02*
X24450Y25125D01*
X69275Y30200D02*
X69925Y30850D01*
X24325Y25250D02*
Y32500D01*
D13*
X-2000Y8000D02*
D03*
X8000Y103700D02*
D03*
X60000D02*
D03*
X76000D02*
D03*
Y-700D02*
D03*
X60000D02*
D03*
X8000D02*
D03*
X71259Y6851D02*
D03*
X-2000Y94000D02*
D03*
X77259Y11851D02*
D03*
X71259D02*
D03*
D14*
X0Y102000D02*
D03*
Y0D02*
D03*
X68000D02*
D03*
X68000Y102000D02*
D03*
D15*
X69462Y80305D02*
D03*
X67062D02*
D03*
X69462Y82809D02*
D03*
X67037Y82805D02*
D03*
X41032Y80366D02*
D03*
X43520Y80362D02*
D03*
X43512Y82805D02*
D03*
X41037Y82855D02*
D03*
X14350Y101600D02*
D03*
X30676Y21400D02*
D03*
X-2350Y69100D02*
D03*
X79350Y58400D02*
D03*
X9252Y23563D02*
D03*
X44245Y23137D02*
D03*
Y20637D02*
D03*
X41695D02*
D03*
Y23137D02*
D03*
X70295D02*
D03*
Y20637D02*
D03*
X67745Y23137D02*
D03*
Y20637D02*
D03*
X59795Y81150D02*
D03*
X7700Y68225D02*
D03*
Y70725D02*
D03*
X10200Y70725D02*
D03*
Y68225D02*
D03*
X33700Y70725D02*
D03*
Y68225D02*
D03*
X36200Y70725D02*
D03*
Y68225D02*
D03*
D16*
X24510Y104140D02*
D03*
Y101600D02*
D03*
X21970Y104140D02*
D03*
Y101600D02*
D03*
X19430Y104140D02*
D03*
X19430Y101600D02*
D03*
X16890Y104140D02*
D03*
Y101600D02*
D03*
X14350Y104140D02*
D03*
X28136Y31560D02*
D03*
X30676D02*
D03*
X28136Y29020D02*
D03*
X30676D02*
D03*
X28136Y26480D02*
D03*
X30676D02*
D03*
X28136Y23940D02*
D03*
X30676D02*
D03*
X28136Y21400D02*
D03*
X-2350Y58940D02*
D03*
X190Y61480D02*
D03*
X-2350D02*
D03*
X190Y66560D02*
D03*
X-2350D02*
D03*
X190Y69100D02*
D03*
Y58940D02*
D03*
Y64020D02*
D03*
X-2350Y64020D02*
D03*
X79350Y60940D02*
D03*
Y63480D02*
D03*
X9252Y31183D02*
D03*
X11802Y24833D02*
D03*
X9252Y26103D02*
D03*
X11802Y27373D02*
D03*
X9252Y28643D02*
D03*
X11802Y29913D02*
D03*
Y32453D02*
D03*
X-1998Y21698D02*
D03*
X-478Y24238D02*
D03*
X-1998Y31808D02*
D03*
X-478Y34318D02*
D03*
X58525Y83700D02*
D03*
X57255Y81150D02*
D03*
X55985Y83700D02*
D03*
X54715Y81150D02*
D03*
X53445Y83700D02*
D03*
X52175Y81150D02*
D03*
X50905Y83700D02*
D03*
X61660Y69900D02*
D03*
X59120Y71420D02*
D03*
X51550Y69900D02*
D03*
X49040Y71420D02*
D03*
X49650Y74800D02*
D03*
X61050D02*
D03*
X5325Y82600D02*
D03*
Y80600D02*
D03*
X71875Y80925D02*
D03*
Y78925D02*
D03*
X38600Y81175D02*
D03*
Y79175D02*
D03*
D17*
X77259Y6851D02*
D03*
D18*
X2902Y22308D02*
D03*
X2902Y33708D02*
D03*
D19*
X5902Y35908D02*
D03*
X5902Y20108D02*
D03*
X47450Y77800D02*
D03*
X63250D02*
D03*
D20*
X24075Y89900D02*
D03*
X19675D02*
D03*
D21*
X23950Y82075D02*
D03*
X14750Y86947D02*
D03*
X14825Y80125D02*
D03*
X30250Y82847D02*
D03*
X31325Y92475D02*
D03*
X29350Y87447D02*
D03*
X37500Y49025D02*
D03*
X67550Y49475D02*
D03*
X29250Y54975D02*
D03*
X54075Y52925D02*
D03*
X53450Y51325D02*
D03*
X45775Y38700D02*
D03*
X29350Y38775D02*
D03*
X39700Y39975D02*
D03*
X37950Y25250D02*
D03*
X24325Y28725D02*
D03*
X24450Y25125D02*
D03*
X36250Y27025D02*
D03*
X22850Y21475D02*
D03*
Y24425D02*
D03*
X19900Y30050D02*
D03*
Y32650D02*
D03*
X11675Y19950D02*
D03*
X30700Y17925D02*
D03*
X69925Y30850D02*
D03*
X13975Y92100D02*
D03*
X22225Y92050D02*
D03*
X20800Y91150D02*
D03*
X14275Y89875D02*
D03*
X57250Y47600D02*
D03*
X56000Y46200D02*
D03*
X35425Y46225D02*
D03*
X30500Y47625D02*
D03*
X74825Y54975D02*
D03*
X73575Y48475D02*
D03*
X69500Y47500D02*
D03*
X69475Y45000D02*
D03*
X71525Y46294D02*
D03*
X79525Y73400D02*
D03*
X62600Y58450D02*
D03*
X73875Y60650D02*
D03*
X69350Y60775D02*
D03*
X63900Y43725D02*
D03*
X33950Y44900D02*
D03*
X36475Y43900D02*
D03*
X62250Y42475D02*
D03*
X63725Y41400D02*
D03*
X37775Y42625D02*
D03*
X37650Y50500D02*
D03*
X66550Y50675D02*
D03*
X31575Y40000D02*
D03*
X30650Y68500D02*
D03*
X35025Y84650D02*
D03*
X32525D02*
D03*
X35775Y91550D02*
D03*
X23550Y72975D02*
D03*
X36275Y73150D02*
D03*
X21050Y72900D02*
D03*
X29350Y73875D02*
D03*
X30900Y70275D02*
D03*
X12550Y78850D02*
D03*
X25875Y78000D02*
D03*
X17700Y79375D02*
D03*
X25875Y72600D02*
D03*
X75975Y63025D02*
D03*
X3875Y51925D02*
D03*
X11250Y51200D02*
D03*
X11275Y53475D02*
D03*
X10175Y56625D02*
D03*
X76800Y92025D02*
D03*
X76775Y87000D02*
D03*
X74800Y88275D02*
D03*
X79475Y87850D02*
D03*
X8625Y79275D02*
D03*
M02*
