%FSLAX43Y43*%
%MOMM*%
G71*
G01*
G75*
%ADD10C,0.300*%
%ADD11C,0.500*%
%ADD12C,0.600*%
%ADD13C,2.000*%
%ADD14C,5.000*%
%ADD15R,1.500X1.500*%
%ADD16C,1.500*%
%ADD17R,2.000X2.000*%
%ADD18C,3.500*%
%ADD19C,2.500*%
%ADD20C,1.200*%
%ADD21C,1.100*%
%ADD22R,2.800X3.200*%
%ADD23R,0.300X1.300*%
%ADD24R,1.600X0.800*%
%ADD25R,3.000X2.000*%
%ADD26R,1.000X0.800*%
%ADD27R,0.500X2.500*%
%ADD28R,2.000X2.500*%
%ADD29R,0.800X1.000*%
%ADD30O,0.350X1.800*%
%ADD31O,0.350X1.800*%
%ADD32R,0.600X2.200*%
%ADD33R,0.600X2.200*%
%ADD34R,0.600X2.150*%
%ADD35R,0.600X2.150*%
%ADD36R,1.800X1.600*%
%ADD37R,1.450X0.550*%
%ADD38R,1.450X0.550*%
%ADD39R,1.300X0.850*%
%ADD40C,0.400*%
%ADD41C,0.250*%
%ADD42C,0.200*%
%ADD43C,0.254*%
%ADD44C,0.100*%
%ADD45C,0.250*%
%ADD46C,2.203*%
%ADD47C,5.203*%
%ADD48R,1.703X1.703*%
%ADD49C,1.703*%
%ADD50R,2.203X2.203*%
%ADD51C,3.703*%
%ADD52C,2.703*%
%ADD53C,1.403*%
%ADD54C,1.303*%
%ADD55R,3.003X3.403*%
%ADD56R,0.503X1.503*%
%ADD57R,1.803X1.003*%
%ADD58R,3.203X2.203*%
%ADD59R,1.203X1.003*%
%ADD60R,0.703X2.703*%
%ADD61R,2.203X2.703*%
%ADD62R,1.003X1.203*%
%ADD63O,0.553X2.003*%
%ADD64O,0.553X2.003*%
%ADD65R,0.803X2.403*%
%ADD66R,0.803X2.403*%
%ADD67R,0.803X2.353*%
%ADD68R,0.803X2.353*%
%ADD69R,2.003X1.803*%
%ADD70R,1.653X0.753*%
%ADD71R,1.653X0.753*%
%ADD72R,1.503X1.053*%
D41*
X37641Y83172D02*
G03*
X39559Y83177I959J53D01*
G01*
X39559Y77128D02*
G03*
X37641Y77123I-959J-53D01*
G01*
X70916Y82922D02*
G03*
X72834Y82927I959J53D01*
G01*
X72834Y76878D02*
G03*
X70916Y76873I-959J-53D01*
G01*
X4366Y84597D02*
G03*
X6284Y84602I959J53D01*
G01*
X6284Y78553D02*
G03*
X4366Y78548I-959J-53D01*
G01*
X5800Y116550D02*
G03*
X5800Y116550I0J0D01*
G01*
G03*
X5800Y116550I0J0D01*
G01*
G03*
X5800Y116550I0J0D01*
G01*
G03*
X5800Y116550I0J0D01*
G01*
G03*
X5800Y116550I0J0D01*
G01*
G03*
X5800Y116550I0J0D01*
G01*
G03*
X5800Y116550I0J0D01*
G01*
G03*
X5800Y116550I0J0D01*
G01*
X-1981Y12175D02*
G03*
X-1976Y12180I0J5D01*
G01*
X-3750Y12175D02*
G03*
X-3750Y12175I0J0D01*
G01*
X37600Y83325D02*
X37600Y83325D01*
X37600Y84985D02*
X37600Y84985D01*
X70875Y83075D02*
X70875Y83075D01*
X70875Y84735D02*
X70875Y84735D01*
X4325Y84750D02*
X4325Y84750D01*
X4325Y86410D02*
X4325Y86410D01*
X6300Y94650D02*
X37550D01*
X4300Y64325D02*
X4350Y64275D01*
X2150Y5800D02*
X27750D01*
X-3750Y12175D02*
X-3750Y15800D01*
X27750Y5800D02*
Y15800D01*
X12000D02*
X27750D01*
X-3750D02*
X12050D01*
X-6000Y-4700D02*
X83000D01*
X-6000D02*
Y107700D01*
Y107700D02*
X83000D01*
X4300Y64275D02*
Y96650D01*
X72850Y64275D02*
Y88300D01*
X36300Y66300D02*
X37550D01*
X39625Y66300D02*
Y86300D01*
X24200Y64275D02*
X72850D01*
X4300D02*
X28100D01*
X37550Y66300D02*
Y94650D01*
X6300Y66300D02*
Y94650D01*
X4350Y96650D02*
X39625D01*
X70875Y66300D02*
Y86300D01*
X83000Y92350D02*
Y107700D01*
Y6000D02*
Y96800D01*
Y-4700D02*
Y10250D01*
X39625Y66300D02*
X70825D01*
X72800Y64275D02*
X72850Y64325D01*
X2175Y5925D02*
X2180Y8000D01*
X-3750Y12175D02*
X-1981D01*
X39675Y86300D02*
X70875D01*
X47000Y1800D02*
X65000D01*
Y15575D01*
X72875D01*
Y19275D01*
X39000D02*
X72875D01*
X39000Y15675D02*
Y19275D01*
Y15675D02*
X47000D01*
X47000Y1800D02*
Y15675D01*
X47000Y15675D02*
X47000Y15675D01*
X6325Y66300D02*
X37225D01*
X39625Y88300D02*
X72850D01*
X39625D02*
Y96650D01*
D43*
X2180Y8000D02*
G03*
X-1976Y12180I-4180J0D01*
G01*
M02*
