%FSLAX43Y43*%
%MOMM*%
G71*
G01*
G75*
%ADD10C,0.300*%
%ADD11C,0.500*%
%ADD12C,0.600*%
%ADD13C,2.000*%
%ADD14C,5.000*%
%ADD15R,1.500X1.500*%
%ADD16C,1.500*%
%ADD17R,2.000X2.000*%
%ADD18C,3.500*%
%ADD19C,2.500*%
%ADD20C,1.200*%
%ADD21C,1.100*%
%ADD22R,2.800X3.200*%
%ADD23R,0.300X1.300*%
%ADD24R,1.600X0.800*%
%ADD25R,3.000X2.000*%
%ADD26R,1.000X0.800*%
%ADD27R,0.500X2.500*%
%ADD28R,2.000X2.500*%
%ADD29R,0.800X1.000*%
%ADD30O,0.350X1.800*%
%ADD31O,0.350X1.800*%
%ADD32R,0.600X2.200*%
%ADD33R,0.600X2.200*%
%ADD34R,0.600X2.150*%
%ADD35R,0.600X2.150*%
%ADD36R,1.800X1.600*%
%ADD37R,1.450X0.550*%
%ADD38R,1.450X0.550*%
%ADD39R,1.300X0.850*%
%ADD40C,0.400*%
%ADD41C,0.250*%
%ADD42C,0.200*%
%ADD43C,0.254*%
%ADD44C,0.100*%
%ADD45C,0.250*%
D10*
X81419Y40457D02*
G03*
X82450Y42501I-1531J2054D01*
G01*
X79875Y42750D02*
G03*
X82350Y40275I2475J-0D01*
G01*
X82450Y50099D02*
G03*
X81419Y52143I-2561J-10D01*
G01*
X82350Y52325D02*
G03*
X79875Y49850I0J-2475D01*
G01*
X-7898Y36108D02*
X2902D01*
X-7898Y28008D02*
X-7898Y36108D01*
X-7898Y19908D02*
X2902Y19908D01*
X-7898Y19908D02*
Y28008D01*
X2902Y36108D02*
X13702Y36108D01*
X13702Y28008D02*
X13702Y36108D01*
X2902Y19908D02*
X13702D01*
X13702Y28008D02*
X13702Y19908D01*
X55350Y85600D02*
X63450Y85600D01*
X63450Y74800D01*
X47250Y85600D02*
X55350Y85600D01*
X47250Y74800D02*
X47250Y85600D01*
X55350Y64000D02*
X63450D01*
X63450Y74800D01*
X47250Y64000D02*
X55350D01*
X47250Y74800D02*
X47250Y64000D01*
X17425Y95750D02*
X26325D01*
X17425Y86775D02*
Y95750D01*
Y86750D02*
X26325D01*
Y95700D01*
X26300Y95725D02*
X26325Y95700D01*
D12*
X16931Y78804D02*
G03*
X16931Y78804I-300J0D01*
G01*
D41*
X31848Y82111D02*
G03*
X31848Y82111I-125J0D01*
G01*
X20055Y79975D02*
G03*
X20055Y79975I-125J0D01*
G01*
X7825Y66175D02*
G03*
X7825Y66175I-125J0D01*
G01*
Y68675D02*
G03*
X7825Y68675I-125J0D01*
G01*
X10325D02*
G03*
X10325Y68675I-125J0D01*
G01*
Y66175D02*
G03*
X10325Y66175I-125J0D01*
G01*
X33825Y68675D02*
G03*
X33825Y68675I-125J0D01*
G01*
Y66175D02*
G03*
X33825Y66175I-125J0D01*
G01*
X36325Y68675D02*
G03*
X36325Y68675I-125J0D01*
G01*
Y66175D02*
G03*
X36325Y66175I-125J0D01*
G01*
X73925Y60725D02*
G03*
X73925Y60725I-125J0D01*
G01*
X67102Y61173D02*
G03*
X67102Y61173I-125J0D01*
G01*
X29200Y62700D02*
X29500Y63350D01*
X28825D02*
X29500D01*
X28825D02*
X29200Y62700D01*
X29325Y61150D02*
X53150D01*
X53150Y60425D02*
X53150Y61150D01*
X53200Y60375D02*
X53900D01*
X53900Y62900D02*
X53900Y60375D01*
X53900Y62900D02*
X56000Y62900D01*
X29325Y60425D02*
X29325Y61150D01*
X29275Y60375D02*
X29325Y60425D01*
X28575Y60375D02*
X29275Y60375D01*
X28575Y60375D02*
Y62900D01*
X26475D02*
X28575D01*
X26450Y57850D02*
X56050D01*
X26450Y63875D02*
X56050D01*
X56050Y57850D01*
X26450D02*
Y63875D01*
X65600Y39425D02*
Y53175D01*
X82475Y42525D02*
X82500Y42500D01*
X82475Y42525D02*
Y50150D01*
X79875Y42750D02*
X79925Y42700D01*
X79875Y42750D02*
Y49875D01*
X82375Y39425D02*
Y40275D01*
X65600Y39425D02*
X82375D01*
Y52325D02*
Y53175D01*
X65600D02*
X82375D01*
D42*
X31978Y79144D02*
G03*
X31978Y79877I0J367D01*
G01*
X20025Y74715D02*
G03*
X20025Y75985I0J635D01*
G01*
X78080Y57130D02*
Y64750D01*
X80620D01*
Y57130D02*
Y64750D01*
X78080Y57130D02*
X80620D01*
X15150Y23950D02*
X16550D01*
X15150D02*
Y24850D01*
X16550Y23950D02*
Y24875D01*
X15150Y26550D02*
X16550D01*
Y25650D02*
Y26550D01*
X15150Y25625D02*
Y26550D01*
X17700Y26500D02*
X19100D01*
Y25600D02*
Y26500D01*
X17700Y25575D02*
Y26500D01*
Y23900D02*
X19100D01*
X17700D02*
Y24800D01*
X19100Y23900D02*
Y24825D01*
X20150Y26500D02*
X21550D01*
Y25600D02*
Y26500D01*
X20150Y25575D02*
Y26500D01*
Y23900D02*
X21550D01*
X20150D02*
Y24800D01*
X21550Y23900D02*
Y24825D01*
X17700Y28100D02*
X19100D01*
X17700D02*
Y29000D01*
X19100Y28100D02*
Y29025D01*
X17700Y30700D02*
X19100D01*
Y29800D02*
Y30700D01*
X17700Y29775D02*
Y30700D01*
X28650Y35350D02*
X30050D01*
X28650D02*
Y36250D01*
X30050Y35350D02*
Y36275D01*
X28650Y37950D02*
X30050D01*
Y37050D02*
Y37950D01*
X28650Y37025D02*
Y37950D01*
X30850Y35350D02*
X32250D01*
X30850D02*
Y36250D01*
X32250Y35350D02*
Y36275D01*
X30850Y37950D02*
X32250D01*
Y37050D02*
Y37950D01*
X30850Y37025D02*
Y37950D01*
X10675Y91350D02*
Y92750D01*
X11575D01*
X10675Y91350D02*
X11600D01*
X13275D02*
Y92750D01*
X12375Y91350D02*
X13275D01*
X12350Y92750D02*
X13275D01*
X10675Y89050D02*
Y90450D01*
X11575D01*
X10675Y89050D02*
X11600D01*
X13275D02*
Y90450D01*
X12375Y89050D02*
X13275D01*
X12350Y90450D02*
X13275D01*
X23475Y83300D02*
Y84700D01*
X22575Y83300D02*
X23475D01*
X22550Y84700D02*
X23475D01*
X20875Y83300D02*
Y84700D01*
X21775D01*
X20875Y83300D02*
X21800D01*
X7031Y77804D02*
Y82004D01*
X17631Y77804D02*
X17631Y82004D01*
X7031D02*
X17631D01*
X7031Y77804D02*
X17631D01*
X31978Y78411D02*
X36978Y78411D01*
X31978Y80611D02*
X36978D01*
Y78411D02*
Y80611D01*
X31978Y78411D02*
Y79144D01*
Y79877D02*
Y80611D01*
X20025Y75985D02*
Y78500D01*
Y72200D02*
Y74715D01*
X30425Y72200D02*
Y78500D01*
X20025D02*
X30425D01*
X20025Y72200D02*
X30425D01*
X10675Y86650D02*
Y88050D01*
X11575D01*
X10675Y86650D02*
X11600D01*
X13275D02*
Y88050D01*
X12375Y86650D02*
X13275D01*
X12350Y88050D02*
X13275D01*
X20225Y83250D02*
Y84650D01*
X19325Y83250D02*
X20225D01*
X19300Y84650D02*
X20225D01*
X17625Y83250D02*
Y84650D01*
X18525D01*
X17625Y83250D02*
X18550D01*
X24075Y83300D02*
Y84700D01*
X24975D01*
X24075Y83300D02*
X25000D01*
X26675D02*
Y84700D01*
X25775Y83300D02*
X26675D01*
X25750Y84700D02*
X26675D01*
X32525Y87900D02*
X33925D01*
X32525D02*
Y88800D01*
X33925Y87900D02*
Y88825D01*
X32525Y90500D02*
X33925D01*
Y89600D02*
Y90500D01*
X32525Y89575D02*
Y90500D01*
X35075Y87850D02*
X36475D01*
X35075D02*
Y88750D01*
X36475Y87850D02*
Y88775D01*
X35075Y90450D02*
X36475D01*
Y89550D02*
Y90450D01*
X35075Y89525D02*
Y90450D01*
X6300Y66825D02*
Y69625D01*
X6300Y69625D02*
X9100D01*
X9100Y66825D01*
X6300D02*
X9100D01*
X6300Y69325D02*
Y72125D01*
X6300Y72125D02*
X9100Y72125D01*
X9100Y69325D02*
X9100Y72125D01*
X6300Y69325D02*
X9100D01*
X8800D02*
Y72125D01*
X8800Y72125D02*
X11600D01*
X11600Y69325D01*
X8800D02*
X11600D01*
X8800Y66825D02*
Y69625D01*
X11600D01*
X11600Y66825D02*
X11600Y69625D01*
X8800Y66825D02*
X11600D01*
X32300Y69325D02*
Y72125D01*
X32300Y72125D02*
X35100D01*
X35100Y69325D01*
X32300D02*
X35100D01*
X32300Y66825D02*
Y69625D01*
X35100D01*
X35100Y66825D02*
X35100Y69625D01*
X32300Y66825D02*
X35100D01*
X34800Y69325D02*
Y72125D01*
X37600Y72125D01*
Y69325D02*
Y72125D01*
X34800Y69325D02*
X37600D01*
X34800Y66825D02*
Y69625D01*
X34800Y69625D02*
X37600D01*
Y66825D02*
Y69625D01*
X34800Y66825D02*
X37600D01*
X80862Y72155D02*
X80862Y70255D01*
X78262Y72155D02*
X78262Y70255D01*
X80862Y68855D02*
X80862Y66955D01*
X78262Y68855D02*
X78262Y66955D01*
X80862Y66955D01*
X78262Y72155D02*
X80862Y72155D01*
X70525Y56775D02*
X74925D01*
X70525Y60075D02*
X74925D01*
Y56775D02*
Y60075D01*
X70525Y56775D02*
Y60075D01*
X68027Y56523D02*
Y60523D01*
X63727D02*
X68027D01*
X63727Y56523D02*
Y60523D01*
Y56523D02*
X68027D01*
X75725Y57475D02*
X77125D01*
X75725D02*
Y58375D01*
X77125Y57475D02*
Y58400D01*
X75725Y60075D02*
X77125D01*
Y59175D02*
Y60075D01*
X75725Y59150D02*
Y60075D01*
X68625Y60075D02*
X70025D01*
Y59175D02*
Y60075D01*
X68625Y59150D02*
Y60075D01*
Y57475D02*
X70025D01*
X68625D02*
Y58375D01*
X70025Y57475D02*
Y58400D01*
X15150Y30700D02*
X16550D01*
Y29800D02*
Y30700D01*
X15150Y29775D02*
Y30700D01*
Y28100D02*
X16550D01*
X15150D02*
Y29000D01*
X16550Y28100D02*
Y29025D01*
X60550Y45600D02*
X61950D01*
X60550D02*
Y46500D01*
X61950Y45600D02*
Y46525D01*
X60550Y48200D02*
X61950D01*
Y47300D02*
Y48200D01*
X60550Y47275D02*
Y48200D01*
X58500Y45600D02*
X59900D01*
X58500D02*
Y46500D01*
X59900Y45600D02*
Y46525D01*
X58500Y48200D02*
X59900D01*
Y47300D02*
Y48200D01*
X58500Y47275D02*
Y48200D01*
D44*
X61500Y44250D02*
X61600Y44150D01*
Y43950D01*
X61500Y43850D01*
X61100D01*
X61000Y43950D01*
Y44150D01*
X61100Y44250D01*
X61000Y44850D02*
Y44450D01*
X61400Y44850D01*
X61500D01*
X61600Y44750D01*
Y44550D01*
X61500Y44450D01*
X59550Y44150D02*
X59650Y44050D01*
Y43850D01*
X59550Y43750D01*
X59150D01*
X59050Y43850D01*
Y44050D01*
X59150Y44150D01*
X59650Y44750D02*
X59550Y44550D01*
X59350Y44350D01*
X59150D01*
X59050Y44450D01*
Y44650D01*
X59150Y44750D01*
X59250D01*
X59350Y44650D01*
Y44350D01*
X33075Y86200D02*
X33675D01*
Y86500D01*
X33575Y86600D01*
X33375D01*
X33275Y86500D01*
Y86200D01*
Y86400D02*
X33075Y86600D01*
X33575Y86800D02*
X33675Y86900D01*
Y87100D01*
X33575Y87200D01*
X33475D01*
X33375Y87100D01*
X33275Y87200D01*
X33175D01*
X33075Y87100D01*
Y86900D01*
X33175Y86800D01*
X33275D01*
X33375Y86900D01*
X33475Y86800D01*
X33575D01*
X33375Y86900D02*
Y87100D01*
X31625Y79825D02*
Y79325D01*
X31525Y79225D01*
X31325D01*
X31225Y79325D01*
Y79825D01*
X30625D02*
X31025D01*
Y79525D01*
X30825Y79625D01*
X30725D01*
X30625Y79525D01*
Y79325D01*
X30725Y79225D01*
X30925D01*
X31025Y79325D01*
X19175Y81150D02*
Y80650D01*
X19075Y80550D01*
X18875D01*
X18775Y80650D01*
Y81150D01*
X18175Y80550D02*
X18575D01*
X18175Y80950D01*
Y81050D01*
X18275Y81150D01*
X18475D01*
X18575Y81050D01*
X9900Y89425D02*
Y90025D01*
X9600D01*
X9500Y89925D01*
Y89725D01*
X9600Y89625D01*
X9900D01*
X9700D02*
X9500Y89425D01*
X9300D02*
X9100D01*
X9200D01*
Y90025D01*
X9300Y89925D01*
X8400Y89425D02*
X8800D01*
X8400Y89825D01*
Y89925D01*
X8500Y90025D01*
X8700D01*
X8800Y89925D01*
X9825Y91775D02*
Y92375D01*
X9525D01*
X9425Y92275D01*
Y92075D01*
X9525Y91975D01*
X9825D01*
X9625D02*
X9425Y91775D01*
X9225D02*
X9025D01*
X9125D01*
Y92375D01*
X9225Y92275D01*
X8725D02*
X8625Y92375D01*
X8425D01*
X8325Y92275D01*
Y91875D01*
X8425Y91775D01*
X8625D01*
X8725Y91875D01*
Y92275D01*
X22350Y82025D02*
Y82625D01*
X22050D01*
X21950Y82525D01*
Y82325D01*
X22050Y82225D01*
X22350D01*
X22150D02*
X21950Y82025D01*
X21750Y82125D02*
X21650Y82025D01*
X21450D01*
X21350Y82125D01*
Y82525D01*
X21450Y82625D01*
X21650D01*
X21750Y82525D01*
Y82425D01*
X21650Y82325D01*
X21350D01*
X27950Y92775D02*
X28150D01*
X28050D01*
Y92275D01*
X28150Y92175D01*
X28250D01*
X28350Y92275D01*
X27750Y92175D02*
X27550D01*
X27650D01*
Y92775D01*
X27750Y92675D01*
X25500Y82625D02*
X25600Y82725D01*
X25800D01*
X25900Y82625D01*
Y82225D01*
X25800Y82125D01*
X25600D01*
X25500Y82225D01*
X25300Y82125D02*
X25100D01*
X25200D01*
Y82725D01*
X25300Y82625D01*
X36688Y68113D02*
X36288Y67513D01*
Y68113D02*
X36688Y67513D01*
X36088Y68013D02*
X35988Y68113D01*
X35788D01*
X35688Y68013D01*
Y67913D01*
X35788Y67813D01*
X35688Y67713D01*
Y67613D01*
X35788Y67513D01*
X35988D01*
X36088Y67613D01*
Y67713D01*
X35988Y67813D01*
X36088Y67913D01*
Y68013D01*
X35988Y67813D02*
X35788D01*
X36688Y70627D02*
X36288Y70028D01*
Y70627D02*
X36688Y70028D01*
X36088Y70627D02*
X35688D01*
Y70527D01*
X36088Y70128D01*
Y70028D01*
X34198Y68113D02*
X33799Y67513D01*
Y68113D02*
X34198Y67513D01*
X33199Y68113D02*
X33399Y68013D01*
X33599Y67813D01*
Y67613D01*
X33499Y67513D01*
X33299D01*
X33199Y67613D01*
Y67713D01*
X33299Y67813D01*
X33599D01*
X34198Y70627D02*
X33799Y70028D01*
Y70627D02*
X34198Y70028D01*
X33199Y70627D02*
X33599D01*
Y70327D01*
X33399Y70427D01*
X33299D01*
X33199Y70327D01*
Y70128D01*
X33299Y70028D01*
X33499D01*
X33599Y70128D01*
X10703Y68113D02*
X10304Y67513D01*
Y68113D02*
X10703Y67513D01*
X9804D02*
Y68113D01*
X10104Y67813D01*
X9704D01*
X10703Y70627D02*
X10304Y70028D01*
Y70627D02*
X10703Y70028D01*
X10104Y70527D02*
X10004Y70627D01*
X9804D01*
X9704Y70527D01*
Y70427D01*
X9804Y70327D01*
X9904D01*
X9804D01*
X9704Y70228D01*
Y70128D01*
X9804Y70028D01*
X10004D01*
X10104Y70128D01*
X8189Y68113D02*
X7789Y67513D01*
Y68113D02*
X8189Y67513D01*
X7189D02*
X7589D01*
X7189Y67913D01*
Y68013D01*
X7289Y68113D01*
X7489D01*
X7589Y68013D01*
X8087Y70627D02*
X7687Y70028D01*
Y70627D02*
X8087Y70028D01*
X7487D02*
X7288D01*
X7388D01*
Y70627D01*
X7487Y70527D01*
X9175Y87625D02*
X9275Y87725D01*
X9475D01*
X9575Y87625D01*
Y87225D01*
X9475Y87125D01*
X9275D01*
X9175Y87225D01*
X8675Y87125D02*
Y87725D01*
X8975Y87425D01*
X8575D01*
X18800Y82025D02*
X18700Y81925D01*
X18500D01*
X18400Y82025D01*
Y82425D01*
X18500Y82525D01*
X18700D01*
X18800Y82425D01*
X19000Y82025D02*
X19100Y81925D01*
X19300D01*
X19400Y82025D01*
Y82125D01*
X19300Y82225D01*
X19200D01*
X19300D01*
X19400Y82325D01*
Y82425D01*
X19300Y82525D01*
X19100D01*
X19000Y82425D01*
X76150Y68975D02*
Y69575D01*
X76450D01*
X76550Y69475D01*
Y69075D01*
X76450Y68975D01*
X76150D01*
X76750Y69075D02*
X76850Y68975D01*
X77050D01*
X77150Y69075D01*
Y69175D01*
X77050Y69275D01*
X76950D01*
X77050D01*
X77150Y69375D01*
Y69475D01*
X77050Y69575D01*
X76850D01*
X76750Y69475D01*
X76775Y55625D02*
X76875Y55525D01*
Y55325D01*
X76775Y55225D01*
X76375D01*
X76275Y55325D01*
Y55525D01*
X76375Y55625D01*
X76275Y56225D02*
Y55825D01*
X76675Y56225D01*
X76775D01*
X76875Y56125D01*
Y55925D01*
X76775Y55825D01*
X76275Y56824D02*
Y56425D01*
X76675Y56824D01*
X76775D01*
X76875Y56725D01*
Y56525D01*
X76775Y56425D01*
X65850Y55050D02*
X66250D01*
X66350Y54950D01*
Y54750D01*
X66250Y54650D01*
X65850D01*
X65750Y54750D01*
Y54950D01*
X65950Y54850D02*
X65750Y55050D01*
Y54950D02*
X65850Y55050D01*
X66350Y55650D02*
Y55250D01*
X66050D01*
X66150Y55450D01*
Y55550D01*
X66050Y55650D01*
X65850D01*
X65750Y55550D01*
Y55350D01*
X65850Y55250D01*
X73400Y54950D02*
X72900D01*
X72800Y55050D01*
Y55250D01*
X72900Y55350D01*
X73400D01*
X72800Y55850D02*
X73400D01*
X73100Y55550D01*
Y55950D01*
X69600Y56125D02*
X69700Y56025D01*
Y55825D01*
X69600Y55725D01*
X69200D01*
X69100Y55825D01*
Y56025D01*
X69200Y56125D01*
X69700Y56725D02*
Y56325D01*
X69400D01*
X69500Y56525D01*
Y56625D01*
X69400Y56725D01*
X69200D01*
X69100Y56625D01*
Y56425D01*
X69200Y56325D01*
X15775Y31525D02*
X16375D01*
Y31825D01*
X16275Y31925D01*
X16075D01*
X15975Y31825D01*
Y31525D01*
Y31725D02*
X15775Y31925D01*
X16275Y32125D02*
X16375Y32225D01*
Y32425D01*
X16275Y32525D01*
X16175D01*
X16075Y32425D01*
Y32325D01*
Y32425D01*
X15975Y32525D01*
X15875D01*
X15775Y32425D01*
Y32225D01*
X15875Y32125D01*
X16275Y32725D02*
X16375Y32825D01*
Y33025D01*
X16275Y33124D01*
X15875D01*
X15775Y33025D01*
Y32825D01*
X15875Y32725D01*
X16275D01*
X15775Y33624D02*
X16375D01*
X16075Y33324D01*
Y33724D01*
X20550Y21175D02*
X21150D01*
Y21475D01*
X21050Y21575D01*
X20850D01*
X20750Y21475D01*
Y21175D01*
Y21375D02*
X20550Y21575D01*
X21050Y21775D02*
X21150Y21875D01*
Y22075D01*
X21050Y22175D01*
X20950D01*
X20850Y22075D01*
Y21975D01*
Y22075D01*
X20750Y22175D01*
X20650D01*
X20550Y22075D01*
Y21875D01*
X20650Y21775D01*
X21050Y22375D02*
X21150Y22475D01*
Y22675D01*
X21050Y22774D01*
X20650D01*
X20550Y22675D01*
Y22475D01*
X20650Y22375D01*
X21050D01*
Y22974D02*
X21150Y23074D01*
Y23274D01*
X21050Y23374D01*
X20950D01*
X20850Y23274D01*
Y23174D01*
Y23274D01*
X20750Y23374D01*
X20650D01*
X20550Y23274D01*
Y23074D01*
X20650Y22974D01*
X15525Y21175D02*
X16125D01*
Y21475D01*
X16025Y21575D01*
X15825D01*
X15725Y21475D01*
Y21175D01*
Y21375D02*
X15525Y21575D01*
X16025Y21775D02*
X16125Y21875D01*
Y22075D01*
X16025Y22175D01*
X15925D01*
X15825Y22075D01*
Y21975D01*
Y22075D01*
X15725Y22175D01*
X15625D01*
X15525Y22075D01*
Y21875D01*
X15625Y21775D01*
X16025Y22375D02*
X16125Y22475D01*
Y22675D01*
X16025Y22774D01*
X15625D01*
X15525Y22675D01*
Y22475D01*
X15625Y22375D01*
X16025D01*
X15525Y23374D02*
Y22974D01*
X15925Y23374D01*
X16025D01*
X16125Y23274D01*
Y23074D01*
X16025Y22974D01*
X18200Y21425D02*
X18800D01*
Y21725D01*
X18700Y21825D01*
X18500D01*
X18400Y21725D01*
Y21425D01*
Y21625D02*
X18200Y21825D01*
X18700Y22025D02*
X18800Y22125D01*
Y22325D01*
X18700Y22425D01*
X18600D01*
X18500Y22325D01*
Y22225D01*
Y22325D01*
X18400Y22425D01*
X18300D01*
X18200Y22325D01*
Y22125D01*
X18300Y22025D01*
X18700Y22625D02*
X18800Y22725D01*
Y22925D01*
X18700Y23024D01*
X18300D01*
X18200Y22925D01*
Y22725D01*
X18300Y22625D01*
X18700D01*
X18200Y23224D02*
Y23424D01*
Y23324D01*
X18800D01*
X18700Y23224D01*
X27475Y35700D02*
X28075D01*
Y36000D01*
X27975Y36100D01*
X27775D01*
X27675Y36000D01*
Y35700D01*
Y35900D02*
X27475Y36100D01*
X27975Y36300D02*
X28075Y36400D01*
Y36600D01*
X27975Y36700D01*
X27875D01*
X27775Y36600D01*
Y36500D01*
Y36600D01*
X27675Y36700D01*
X27575D01*
X27475Y36600D01*
Y36400D01*
X27575Y36300D01*
X27975Y36900D02*
X28075Y37000D01*
Y37200D01*
X27975Y37299D01*
X27575D01*
X27475Y37200D01*
Y37000D01*
X27575Y36900D01*
X27975D01*
X28075Y37899D02*
X27975Y37699D01*
X27775Y37499D01*
X27575D01*
X27475Y37599D01*
Y37799D01*
X27575Y37899D01*
X27675D01*
X27775Y37799D01*
Y37499D01*
X33150Y35650D02*
X33750D01*
Y35950D01*
X33650Y36050D01*
X33450D01*
X33350Y35950D01*
Y35650D01*
Y35850D02*
X33150Y36050D01*
X33650Y36250D02*
X33750Y36350D01*
Y36550D01*
X33650Y36650D01*
X33550D01*
X33450Y36550D01*
Y36450D01*
Y36550D01*
X33350Y36650D01*
X33250D01*
X33150Y36550D01*
Y36350D01*
X33250Y36250D01*
X33650Y36850D02*
X33750Y36950D01*
Y37150D01*
X33650Y37249D01*
X33250D01*
X33150Y37150D01*
Y36950D01*
X33250Y36850D01*
X33650D01*
X33750Y37849D02*
Y37449D01*
X33450D01*
X33550Y37649D01*
Y37749D01*
X33450Y37849D01*
X33250D01*
X33150Y37749D01*
Y37549D01*
X33250Y37449D01*
X18600Y31800D02*
X18700Y31700D01*
Y31500D01*
X18600Y31400D01*
X18200D01*
X18100Y31500D01*
Y31700D01*
X18200Y31800D01*
X18600Y32000D02*
X18700Y32100D01*
Y32300D01*
X18600Y32400D01*
X18500D01*
X18400Y32300D01*
Y32200D01*
Y32300D01*
X18300Y32400D01*
X18200D01*
X18100Y32300D01*
Y32100D01*
X18200Y32000D01*
X18600Y32600D02*
X18700Y32700D01*
Y32900D01*
X18600Y32999D01*
X18200D01*
X18100Y32900D01*
Y32700D01*
X18200Y32600D01*
X18600D01*
Y33199D02*
X18700Y33299D01*
Y33499D01*
X18600Y33599D01*
X18500D01*
X18400Y33499D01*
Y33399D01*
Y33499D01*
X18300Y33599D01*
X18200D01*
X18100Y33499D01*
Y33299D01*
X18200Y33199D01*
X79725Y55075D02*
Y54875D01*
Y54975D01*
X79225D01*
X79125Y54875D01*
Y54775D01*
X79225Y54675D01*
X79125Y55275D02*
X79725D01*
Y55575D01*
X79625Y55675D01*
X79425D01*
X79325Y55575D01*
Y55275D01*
X79225Y55875D02*
X79125Y55975D01*
Y56175D01*
X79225Y56274D01*
X79625D01*
X79725Y56175D01*
Y55975D01*
X79625Y55875D01*
X79525D01*
X79425Y55975D01*
Y56274D01*
X11950Y37525D02*
X12150D01*
X12050D01*
Y37025D01*
X12150Y36925D01*
X12250D01*
X12350Y37025D01*
X11750Y37425D02*
X11650Y37525D01*
X11450D01*
X11350Y37425D01*
Y37325D01*
X11450Y37225D01*
X11550D01*
X11450D01*
X11350Y37125D01*
Y37025D01*
X11450Y36925D01*
X11650D01*
X11750Y37025D01*
X11150Y37425D02*
X11050Y37525D01*
X10850D01*
X10751Y37425D01*
Y37025D01*
X10850Y36925D01*
X11050D01*
X11150Y37025D01*
Y37425D01*
X10551Y36925D02*
X10351D01*
X10451D01*
Y37525D01*
X10551Y37425D01*
X45900Y76175D02*
X46100D01*
X46000D01*
Y75675D01*
X46100Y75575D01*
X46200D01*
X46300Y75675D01*
X45700Y76075D02*
X45600Y76175D01*
X45400D01*
X45300Y76075D01*
Y75975D01*
X45400Y75875D01*
X45500D01*
X45400D01*
X45300Y75775D01*
Y75675D01*
X45400Y75575D01*
X45600D01*
X45700Y75675D01*
X45100Y76075D02*
X45000Y76175D01*
X44800D01*
X44701Y76075D01*
Y75675D01*
X44800Y75575D01*
X45000D01*
X45100Y75675D01*
Y76075D01*
X44101Y75575D02*
X44501D01*
X44101Y75975D01*
Y76075D01*
X44201Y76175D01*
X44401D01*
X44501Y76075D01*
X40900Y57125D02*
X41100D01*
X41000D01*
Y56625D01*
X41100Y56525D01*
X41200D01*
X41300Y56625D01*
X40300Y56525D02*
X40700D01*
X40300Y56925D01*
Y57025D01*
X40400Y57125D01*
X40600D01*
X40700Y57025D01*
X63675Y51175D02*
X63575Y51075D01*
X63375D01*
X63275Y51175D01*
Y51575D01*
X63375Y51675D01*
X63575D01*
X63675Y51575D01*
X64275Y51175D02*
X64175Y51075D01*
X63975D01*
X63875Y51175D01*
Y51275D01*
X63975Y51375D01*
X64175D01*
X64275Y51475D01*
Y51575D01*
X64175Y51675D01*
X63975D01*
X63875Y51575D01*
X64475Y51675D02*
X64675D01*
X64575D01*
Y51075D01*
X64475Y51175D01*
X35650Y85850D02*
X36250D01*
Y86150D01*
X36150Y86250D01*
X35950D01*
X35850Y86150D01*
Y85850D01*
Y86050D02*
X35650Y86250D01*
Y86450D02*
Y86650D01*
Y86550D01*
X36250D01*
X36150Y86450D01*
Y86950D02*
X36250Y87050D01*
Y87250D01*
X36150Y87350D01*
X36050D01*
X35950Y87250D01*
Y87150D01*
Y87250D01*
X35850Y87350D01*
X35750D01*
X35650Y87250D01*
Y87050D01*
X35750Y86950D01*
X19000Y74975D02*
Y74475D01*
X18900Y74375D01*
X18700D01*
X18600Y74475D01*
Y74975D01*
X18400Y74875D02*
X18300Y74975D01*
X18100D01*
X18000Y74875D01*
Y74775D01*
X18100Y74675D01*
X18200D01*
X18100D01*
X18000Y74575D01*
Y74475D01*
X18100Y74375D01*
X18300D01*
X18400Y74475D01*
D45*
X17456Y76504D02*
G03*
X17456Y76504I-125J0D01*
G01*
M02*
