%FSLAX43Y43*%
%MOMM*%
G71*
G01*
G75*
%ADD10C,0.300*%
%ADD11R,3.000X4.000*%
%ADD12R,1.800X1.600*%
%ADD13R,1.600X1.800*%
%ADD14O,2.000X1.000*%
%ADD15R,2.000X1.000*%
%ADD16R,4.000X4.000*%
%ADD17R,1.300X1.500*%
%ADD18R,8.000X3.500*%
%ADD19R,1.100X2.150*%
%ADD20R,3.500X2.150*%
%ADD21R,0.600X2.200*%
%ADD22R,0.600X2.200*%
%ADD23R,2.200X0.600*%
%ADD24R,2.200X0.600*%
%ADD25R,4.000X3.000*%
%ADD26R,2.150X0.600*%
%ADD27R,2.150X0.600*%
%ADD28C,1.000*%
%ADD29C,0.600*%
%ADD30C,1.500*%
%ADD31C,0.500*%
%ADD32C,2.000*%
%ADD33C,0.880*%
%ADD34C,0.400*%
%ADD35C,1.500*%
%ADD36R,1.500X1.500*%
%ADD37C,2.000*%
%ADD38C,2.000*%
%ADD39R,2.000X2.000*%
%ADD40C,2.400*%
%ADD41C,5.000*%
%ADD42C,3.000*%
%ADD43C,2.500*%
%ADD44R,2.500X2.500*%
%ADD45C,4.000*%
%ADD46R,3.000X3.000*%
%ADD47C,1.200*%
%ADD48C,1.300*%
%ADD49R,3.203X4.203*%
%ADD50R,2.003X1.803*%
%ADD51R,1.803X2.003*%
%ADD52O,2.203X1.203*%
%ADD53R,2.203X1.203*%
%ADD54R,4.203X4.203*%
%ADD55R,1.503X1.703*%
%ADD56R,8.203X3.703*%
%ADD57R,1.303X2.353*%
%ADD58R,3.703X2.353*%
%ADD59R,0.803X2.403*%
%ADD60R,0.803X2.403*%
%ADD61R,2.403X0.803*%
%ADD62R,2.403X0.803*%
%ADD63R,4.203X3.203*%
%ADD64R,2.353X0.803*%
%ADD65R,2.353X0.803*%
%ADD66C,1.703*%
%ADD67R,1.703X1.703*%
%ADD68C,2.203*%
%ADD69C,2.203*%
%ADD70R,2.203X2.203*%
%ADD71C,2.603*%
%ADD72C,5.203*%
%ADD73C,3.203*%
%ADD74C,2.703*%
%ADD75R,2.703X2.703*%
%ADD76C,4.203*%
%ADD77R,3.203X3.203*%
%ADD78C,1.403*%
%ADD79C,1.503*%
D49*
X19259Y106194D02*
D03*
X25609D02*
D03*
X23491Y64656D02*
D03*
X29841D02*
D03*
D50*
X70395Y79007D02*
D03*
X70395Y81807D02*
D03*
X73057Y78992D02*
D03*
X73057Y81792D02*
D03*
X10557Y53038D02*
D03*
Y55838D02*
D03*
X40855Y78712D02*
D03*
Y85112D02*
D03*
X40855Y82312D02*
D03*
X40855Y91315D02*
D03*
X40855Y88515D02*
D03*
X38251Y10147D02*
D03*
Y7347D02*
D03*
X35457Y28792D02*
D03*
X35457Y31592D02*
D03*
X34892Y57608D02*
D03*
X34892Y54808D02*
D03*
X31857Y54842D02*
D03*
X31857Y57642D02*
D03*
X37957Y54842D02*
D03*
X37957Y57642D02*
D03*
X59093Y80258D02*
D03*
X59093Y77458D02*
D03*
X28807Y54857D02*
D03*
X28807Y57657D02*
D03*
X17743Y54658D02*
D03*
X17743Y51858D02*
D03*
X26756Y27637D02*
D03*
X24056D02*
D03*
X21406Y24837D02*
D03*
Y27637D02*
D03*
X26756Y24837D02*
D03*
X24056D02*
D03*
X10507Y61388D02*
D03*
Y58588D02*
D03*
Y64088D02*
D03*
Y66888D02*
D03*
X40855Y75912D02*
D03*
X34557Y74088D02*
D03*
Y71288D02*
D03*
D51*
X70350Y85185D02*
D03*
X73150Y85185D02*
D03*
X70350Y89249D02*
D03*
X73150Y89249D02*
D03*
X70350Y93312D02*
D03*
X73150Y93312D02*
D03*
X70350Y97376D02*
D03*
X73150Y97376D02*
D03*
X30507Y24807D02*
D03*
X33307Y24807D02*
D03*
X36004Y21807D02*
D03*
X33204Y21807D02*
D03*
X36692Y38993D02*
D03*
X39492Y38993D02*
D03*
X46262Y57272D02*
D03*
X43462Y57272D02*
D03*
X41092Y67193D02*
D03*
X43892Y67193D02*
D03*
X43858Y69907D02*
D03*
X41058Y69907D02*
D03*
X27608Y69407D02*
D03*
X24808Y69407D02*
D03*
X18992Y69393D02*
D03*
X21792Y69393D02*
D03*
X19512Y20956D02*
D03*
X11887Y27643D02*
D03*
X9087D02*
D03*
X22312Y20956D02*
D03*
D52*
X3443Y10807D02*
D03*
X13443Y13357D02*
D03*
Y15882D02*
D03*
X13443Y18432D02*
D03*
X3443D02*
D03*
X3393Y15882D02*
D03*
X3443Y13357D02*
D03*
X13443Y20982D02*
D03*
Y23532D02*
D03*
X3468Y20982D02*
D03*
X3443Y23532D02*
D03*
D53*
X13443Y10807D02*
D03*
D54*
X4950Y67550D02*
D03*
Y52950D02*
D03*
D55*
X43700Y45250D02*
D03*
Y54250D02*
D03*
X46200D02*
D03*
Y45250D02*
D03*
D56*
X52853Y25389D02*
D03*
X54885Y18785D02*
D03*
D57*
X63450Y16000D02*
D03*
X61150D02*
D03*
X65750D02*
D03*
D58*
X63450Y9800D02*
D03*
D59*
X32855Y34150D02*
D03*
X43352Y18055D02*
D03*
D60*
X29045Y28950D02*
D03*
X30315D02*
D03*
X31585D02*
D03*
X32855D02*
D03*
X29045Y34150D02*
D03*
X30315D02*
D03*
X31585D02*
D03*
X47162Y23255D02*
D03*
X45892D02*
D03*
X44622D02*
D03*
X43352D02*
D03*
X47162Y18055D02*
D03*
X45892D02*
D03*
X44622D02*
D03*
D61*
X41504Y64721D02*
D03*
D62*
X46704Y62181D02*
D03*
Y63451D02*
D03*
Y64721D02*
D03*
X41504Y60911D02*
D03*
Y62181D02*
D03*
Y63451D02*
D03*
X46704Y60911D02*
D03*
D63*
X54694Y74641D02*
D03*
Y80991D02*
D03*
X24194Y51991D02*
D03*
Y58341D02*
D03*
X51994Y31691D02*
D03*
Y38041D02*
D03*
X65600Y35150D02*
D03*
Y27650D02*
D03*
D64*
X19522Y30105D02*
D03*
Y32645D02*
D03*
Y35185D02*
D03*
Y36455D02*
D03*
X10272Y30105D02*
D03*
Y31375D02*
D03*
Y32645D02*
D03*
Y33915D02*
D03*
Y35185D02*
D03*
Y36455D02*
D03*
Y37725D02*
D03*
Y38995D02*
D03*
X19522Y31375D02*
D03*
Y33915D02*
D03*
D65*
X19522Y37725D02*
D03*
Y38995D02*
D03*
D66*
X7210Y86710D02*
D03*
X9750Y86710D02*
D03*
X7210Y84170D02*
D03*
X9750D02*
D03*
X7210Y81630D02*
D03*
X9750D02*
D03*
X7210Y79090D02*
D03*
X9750D02*
D03*
X7210Y76550D02*
D03*
X49617Y5650D02*
D03*
X52157D02*
D03*
X54697Y3110D02*
D03*
X47077D02*
D03*
X49617D02*
D03*
X52157D02*
D03*
X47077Y5650D02*
D03*
X44537D02*
D03*
Y3110D02*
D03*
X73150Y87200D02*
D03*
Y91300D02*
D03*
Y95350D02*
D03*
D67*
X9750Y76550D02*
D03*
X54697Y5650D02*
D03*
D68*
X10798Y98892D02*
D03*
X17502Y95458D02*
D03*
X25048Y100892D02*
D03*
D69*
X3298Y98892D02*
D03*
X3252Y93558D02*
D03*
X10752D02*
D03*
X3208Y73644D02*
D03*
X34154Y107302D02*
D03*
X29154D02*
D03*
X16650Y87250D02*
D03*
X26650D02*
D03*
X16650Y74250D02*
D03*
X26650D02*
D03*
X25002Y95458D02*
D03*
X17548Y100892D02*
D03*
X42645Y12061D02*
D03*
X44539Y29008D02*
D03*
X17735Y59471D02*
D03*
X17715Y64740D02*
D03*
X57239Y32724D02*
D03*
X64061Y21792D02*
D03*
X51961Y13192D02*
D03*
X64334Y4142D02*
D03*
X55339Y12358D02*
D03*
X27958Y40348D02*
D03*
Y49848D02*
D03*
D70*
X3208Y78644D02*
D03*
X61834Y4142D02*
D03*
X45145Y12061D02*
D03*
X47039Y29008D02*
D03*
X20235Y59471D02*
D03*
X20215Y64739D02*
D03*
X59739Y32724D02*
D03*
X49461Y13192D02*
D03*
X61561Y21792D02*
D03*
X57839Y12358D02*
D03*
D71*
X12600Y74200D02*
D03*
X31600Y101650D02*
D03*
X12600Y89200D02*
D03*
X31600Y86650D02*
D03*
D72*
X73000Y3850D02*
D03*
X73000Y105850D02*
D03*
X5000Y105850D02*
D03*
X5000Y3850D02*
D03*
X38294Y14159D02*
D03*
X63000Y58850D02*
D03*
D73*
X58750Y39850D02*
D03*
X63800D02*
D03*
X58697Y85350D02*
D03*
X61197Y89350D02*
D03*
X63697Y85350D02*
D03*
X48150Y39850D02*
D03*
X53900Y85050D02*
D03*
X53700Y91250D02*
D03*
X37500Y50850D02*
D03*
X32550D02*
D03*
X43150Y39850D02*
D03*
X39600Y106450D02*
D03*
D74*
X4250Y29040D02*
D03*
Y34120D02*
D03*
X49550Y91150D02*
D03*
Y76150D02*
D03*
X44992Y91387D02*
D03*
Y73607D02*
D03*
X36458Y78313D02*
D03*
Y96093D02*
D03*
D75*
X4250Y39200D02*
D03*
D76*
X17295Y14159D02*
D03*
D77*
X39600Y99950D02*
D03*
D78*
X61650Y77750D02*
D03*
X46650Y59800D02*
D03*
X40500Y56300D02*
D03*
X16100Y39550D02*
D03*
X22197Y30300D02*
D03*
X69200Y38850D02*
D03*
X58997Y22300D02*
D03*
X67497Y23850D02*
D03*
X67550Y18850D02*
D03*
X59997Y36350D02*
D03*
X47497Y34950D02*
D03*
X40000Y33850D02*
D03*
X41997Y7400D02*
D03*
X47750Y10750D02*
D03*
X51650Y9550D02*
D03*
X72497Y11350D02*
D03*
X17650Y25350D02*
D03*
X22597Y16950D02*
D03*
X29997Y13900D02*
D03*
X35000Y8850D02*
D03*
X30000D02*
D03*
X17497Y8850D02*
D03*
X19997Y3850D02*
D03*
X15000Y3850D02*
D03*
X46497Y7900D02*
D03*
X23450Y36650D02*
D03*
Y3450D02*
D03*
X26450Y35200D02*
D03*
X26500Y4150D02*
D03*
X24750Y32750D02*
D03*
X24900Y5650D02*
D03*
X45150Y9650D02*
D03*
X49350Y15950D02*
D03*
X51300Y15950D02*
D03*
X26750Y29150D02*
D03*
X22697Y27600D02*
D03*
X17697Y27700D02*
D03*
X35997Y18400D02*
D03*
X19547Y18350D02*
D03*
X38350Y30700D02*
D03*
X7550Y51850D02*
D03*
Y53950D02*
D03*
X20400Y51808D02*
D03*
X16800Y69500D02*
D03*
X38100Y59900D02*
D03*
X38200Y64750D02*
D03*
X47650Y55800D02*
D03*
X41450Y59850D02*
D03*
X48100Y67200D02*
D03*
X47250Y65750D02*
D03*
X34550Y69500D02*
D03*
X34500Y59850D02*
D03*
X24800Y64650D02*
D03*
X71750Y76350D02*
D03*
X11150Y13300D02*
D03*
D79*
X39600Y26950D02*
D03*
X39597Y22000D02*
D03*
X29597Y22000D02*
D03*
X23250Y39550D02*
D03*
X32497Y39650D02*
D03*
M02*
