METRIC,LZ
M48
T1F00S00C0.700
T2F00S00C0.900
T3F00S00C1.000
T4F00S00C1.300
T5F00S00C1.500
T6F00S00C2.000
T7F00S00C3.500
T8F00S00C1.500
%
T01
X00365Y000345
X003555Y00063
X003795Y000855
X00355Y00129
X003895Y00152
X003945Y001685
X00431Y001575
X0041697Y00229
X0041897Y0027
X004045Y002895
X00392Y003065
X003795Y00325
X0035397Y0033
X00353Y00359
X0037Y00396
X0035Y002125
X00453Y000725
X00505Y00088
X0049382Y0010082
X000755Y005185
Y005395
X00204Y0051808
X00248Y006465
X00168Y00695
X003455
X00382Y006475
X00381Y00599
X004145Y005985
X00405Y00563
X004765Y00558
X004665Y00598
X004725Y006575
X00481Y00672
X00345Y005985
X006165Y007775
X007175Y007635
X007315Y00872
Y00913
Y009535
T02
X00172Y001495
Y003375
X00129
Y001495
T03
X003954Y000304
X004204
X0044537Y000311
Y000565
X004204
X003954
X0047077
X0047077Y000311
X0049617
Y000565
X0052157
Y000311
X0054697
Y000565
X0060857Y0008049
Y0013049
X0063661Y0023642
X0066161
X0064489Y0032658
X0061989Y0032658
X005615Y004
X005
X0047439Y0028558
X0044939
X0045611Y0013442
X0043111
X0050385Y0013408
X0052885Y0013408
X0027958Y0040348
X000975Y007655
X000721
X000721Y007909
X000975
Y008163
X000721
Y008417
X000975
X001665Y007425
X002665
X0020215Y0064739
X0017715Y006474
X0017735Y0059471
X0020235Y0059471
X0027958Y0049848
X003255Y005085
X00375
X00539Y008505
X00537Y009125
X002665Y008725
X0025002Y0095458
X0025048Y0100892
X0017548Y0100892
X0017502Y0095458
X001665Y008725
X000975Y008671
X000721Y008671
X0010752Y0093558
X0010798Y0098892
X0003298Y0098892
X0003252Y0093558
T04
X0003208Y0073644
X0003208Y0078644
X00126Y00742
X0036458Y0078313
X0044992Y0073607
X004955Y007615
Y009115
X0044992Y0091387
X0036458Y0096093
X00396Y009995
Y010645
X00316Y010165
Y008665
X00126Y00892
T05
X0068Y00399
X00042Y00311
Y002602
Y002094
Y001586
X0058697Y008535
X0063697
X0061197Y008935
X0034154Y0107302
X0029154
T06
X0063Y005885
T07
X0005Y000385
X0073
X0073Y010585
X0005Y010585
T08
X00623Y004
M30
